ply
format ascii 1.0
element vertex 742
property double x
property double y
property int root
element edge 765
property int vertex1
property int vertex2
property int name
end_header
278.805717619603627 106.125437572928831 1
282.780046674446112 112.545507584597431 0
285.83722287047874 115.908401400233373 0
287.365810968495111 118.96557759626603 0
288.894399066511369 121.411318553092173 0
290.207060803135107 123.682564907483254 0
291.951575262544111 125.691365227537915 0
292.868728121353911 129.359976662777115 0
292.868728121353911 132.722870478413057 0
292.563010501750625 136.391481913652257 0
291.951575262544111 140.365810968494742 0
291.034422403734311 144.645857642940484 0
290.119970672269915 147.539345396578341 0
289.179495618545673 151.139762438677508 0
288.58868144690814 155.651691948658083 0
287.67152858809834 161.154609101516911 0
287.365810968495111 164.823220536756111 0
286.448658109685312 170.020420070011653 0
286.142940490082083 173.07759626604431 0
285.538651632897427 178.396095340578 0
285.83722287047874 184.69486581096848 0
285.531505250875512 190.197782963827279 0
285.535236965981255 195.757833234184034 0
284.614352392065712 202.120770128354707 0
285.100401207768584 209.70524081108104 0
287.67152858809834 217.406651108518048 0
288.577895050229984 223.734189301190838 0
288.58868144690814 230.552508751458532 0
288.282963827304911 253.17561260210033 0
284.002917152859141 103.985414235705946 0
286.567321227743093 102.396016910654581 0
289.811551925321226 100.011085180863461 0
293.785880980163711 98.4824970828471464 0
298.065927654609482 97.5653442240373465 0
301.95866065425588 97.8598826707247298 0
305.70886814469111 99.0939323220536608 0
307.848891481913995 103.068261376896146 0
309.352626250069648 106.678914168658579 0
311.211785297549909 110.711201866977831 0
313.046091015169566 115.908401400233373 0
319.902924100893642 133.222382929899851 0
321.911901983664279 138.837222870478399 0
322.829054842474079 143.422987164527399 0
324.969078179696965 148.620186697782913 0
325.567735883978514 152.781493668260055 0
267.49416569428297 109.641190198366417 0
263.214119019837199 113.921236872812187 0
260.778624737967732 116.969650231422946 0
257.711201866978399 120.647024504084015 0
254.0425904317392 126.149941656942815 0
252.803917136671771 129.632400442505542 0
251.610669088457257 133.009761517438051 0
251.596849474913029 137.155775962660471 0
252.2082847141196 140.82438739789967 0
251.596849474913029 145.715869311551955 0
252.2082847141196 149.995915985997726 0
254.0425904317392 153.664527421236926 0
269.939906651109027 170.173278879813324 0
273.608518086348226 173.23045507584601 0
295.008751458576967 179.956242707117894 0
318.243290548425307 195.242123687281264 0
318.854725787631878 200.133605600933492 0
318.228733597681355 204.908920076614095 0
317.669598362709962 209.000447093151934 0
315.797549591599136 214.196616102683834 0
313.351808634773079 217.865227537923033 0
309.920001460123501 221.52444977354088 0
306.626021003501137 224.591015169194918 0
272.385647607935198 255.774212368728172 0
269.328471411902569 257.608518086347772 0
266.882730455076398 258.8313885647608 0
265.048424737456799 260.054259043173886 0
261.99124854142417 261.888564760793486 0
258.934072345391428 263.722870478413085 0
255.265460910152228 264.945740956826171 0
250.985414235706457 266.780046674445771 0
248.0816037703174 267.93903293908653 0
245.482497082847658 269.225787631271885 0
242.42532088681503 271.060093348891485 0
240.59101516919543 272.894399066511085 0
237.533838973162688 275.340140023337256 0
235.699533255543088 277.78588098016337 0
233.25379229871703 279.62018669778297 0
231.419486581097431 282.065927654609141 0
229.126822590115609 286.04811999233209 0
228.362310385064688 290.014585764294054 0
229.585180863477831 293.683197199533311 0
230.808051341890859 297.35180863477251 0
232.642357059510459 301.631855309218224 0
234.163963989256246 304.443063804466306 0
236.92240373395623 307.134772462077024 0
238.145274212369259 310.191948658109709 0
239.368144690782401 313.249124854142394 0
240.59101516919543 318.140606767794679 0
243.062693807952854 320.860006774116528 0
244.259626604434629 325.477829638273079 0
245.555370089088427 330.601988487259177 0
246.7053675612608 334.649358226371078 0
247.928238039673829 339.540840140023363 0
249.151108518086858 344.432322053675705 0
248.5396732788804 349.323803967327933 0
249.151108518086858 355.438156359393247 0
249.780756978598106 361.079575238334257 0
250.985414235706457 366.443990665110903 0
251.696684183148562 371.815309427908687 0
253.431155192532628 379.895565927654616 0
254.654025670945657 385.398483080513472 0
257.099766627771828 390.901400233372215 0
258.32263710618497 395.181446907817985 0
258.337704890409498 402.988340373704261 0
260.768378063011028 410.467327887981355 0
261.99124854142417 415.970245040840155 0
263.214119019837199 422.69603267211204 0
264.436989498250227 430.033255542590439 0
266.335463122721706 434.577306609906373 0
266.882730455076398 439.816219369895009 0
266.882730455076398 444.707701283547294 0
269.328471411902569 450.822053675612608 0
269.959865942587328 455.520538040985116 0
269.939906651109027 458.770711785297578 0
269.328471411902569 463.050758459743292 0
271.162777129522169 463.662193698949864 0
291.645857642940996 238.959743290548403 0
294.397316219370396 236.819719953325546 0
297.033827033073919 234.385481105712472 0
300.463309621464418 231.337439438864322 0
302.95740956826188 228.565344224037318 0
286.925944296932926 245.129429687144381 0
295.008751458576967 141.130105017502927 0
296.231621936990052 146.021586931155184 0
297.148774795799909 150.607351225204184 0
297.473143425007038 156.235538975299647 0
297.760210035006367 161.001750291715268 0
298.065927654609709 165.893232205367553 0
299.594515752625966 170.784714119019839 0
301.123103850642281 175.064760793465581 0
304.454340367094574 192.134111078455646 0
305.708868144691337 196.464994165694264 0
306.626021003501137 201.662193698949807 0
306.626021003501137 206.553675612602092 0
306.632299689807837 210.97880019094481 0
306.923157338742271 214.360939550026416 0
306.720572703025994 216.604241494710976 0
307.848891481914166 231.316802800466746 0
308.154609101517451 236.51400233372226 0
307.237456242707651 241.711201866977802 0
305.73273594154756 245.625864125477989 0
303.568844807468452 250.271295215869259 0
301.734539089848795 255.468494749124829 0
301.123103850642281 259.7485414235706 0
299.620538501823603 265.179007104965081 0
298.983080513419509 270.754375729288199 0
298.677362893816166 275.645857642940427 0
298.371645274212881 281.760210035005798 0
298.371645274212881 287.568844807467883 0
298.371645274212881 294.906067677946339 0
298.677362893816166 299.797549591598568 0
298.983080513419509 303.466161026837767 0
298.983080513419509 308.357642940490052 0
298.983080513419509 312.943407234539052 0
299.288798133022681 316.612018669778251 0
299.90023337222874 323.337806301050136 0
285.837222870478968 260.6656942823804 0
285.83708237072949 265.843847020959913 0
285.837413550229428 271.484089713742833 0
285.531529990579543 276.85582199712843 0
285.225538756756123 282.6443252260799 0
284.920070011669111 288.180280046674397 0
285.565888173444705 294.068034280412405 0
285.837222870478968 299.491831971995339 0
285.531505250875682 304.689031505250853 0
285.837222870478968 308.663360560093338 0
286.147529470868449 313.586432386604031 0
285.837222870478968 318.140606767794623 0
284.920070011668656 325.477829638273022 0
278.500000000000512 175.370478413068838 0
328.050642794750161 159.451739703941257 0
329.28856447351518 162.527172104729402 0
330.665741663539734 165.531502794131057 0
331.094616655852064 168.84005330531491 0
332.148358062490502 172.363263807028744 0
332.753102092397853 176.017271405690934 0
332.924811662384968 179.538022389750751 0
333.367395017551473 183.282950170800547 0
333.247842328005731 187.272043087838597 0
333.55355994760896 190.634936903474539 0
334.305794393863096 193.383681810070499 0
334.778090825390734 196.829336906929029 0
334.808232270461531 200.500490654502499 0
335.693583284831789 205.920817883637909 0
335.693583284831789 209.895146938480366 0
336.30501852403836 214.480911232529394 0
335.999300904435131 219.983828385388222 0
335.718393185838636 225.321178535340607 0
336.30501852403836 233.129686028328706 0
336.16010878605158 239.664838113923707 0
335.693583284831789 247.498414149682276 0
336.303450381100504 253.604408274373071 0
336.913529380296438 257.941567305743604 0
336.916453763244931 264.31288322786196 0
336.275383621556671 272.61895432150402 0
336.30501852403836 278.375893729612244 0
335.693583284831789 286.018834219693986 0
335.38786566522856 291.521751372552785 0
283.721587952276423 331.570759540580752 0
284.944458430689451 347.162358140347465 0
284.944458430689451 352.665275293206264 0
283.721587952276423 357.862474826461778 0
282.318986301420466 361.887923661463788 0
280.970129375846966 367.034003414559834 0
280.052976517037166 370.396897230195691 0
300.230339410852821 328.819300964151353 0
300.870021988960559 333.443727591305787 0
301.758927508869192 339.213700030662494 0
303.480577916114385 344.768023092247233 0
305.02452209233229 349.417006680306031 0
305.860803469584482 354.413185048218168 0
307.564144579258766 358.752766552399464 0
309.077178058308277 363.585837240560352 0
310.319020857760677 367.645438653766348 0
311.587439267545562 370.517595082120579 0
314.574679113185709 378.061260210034789 0
335.082148045625331 297.636103764618156 0
334.470760373917756 304.405531245533552 0
334.467525458815373 311.43147376784583 0
335.302788372667294 317.618806416346274 0
336.30501852403836 322.399230952482753 0
337.22217138284816 326.679277626928524 0
338.775706849328969 331.99896715757734 0
339.667912339674331 337.073676693439666 0
340.395822207913398 340.780434220478071 0
342.41937091610373 344.716617183521294 0
344.305034401826958 348.778994776115496 0
347.458717125676003 354.277526466209906 0
349.75659378658213 356.945321967651978 0
353.102898614890762 360.304963584560483 0
355.8709461786475 361.531086261700978 0
360.150992853093214 363.976827218527148 0
362.2910161903161 365.811132936146748 0
365.653910005952071 368.256873892972862 0
369.018270906322243 370.187963677056473 0
371.462544778414156 371.925485328212062 0
377.552508751458731 375.615519253208618 0
315.186114352392167 385.105535565206935 0
317.235158837732058 388.439118627157882 0
319.466161026837938 391.83132319647882 0
320.68903150525108 395.49993463171802 0
321.911901983664109 398.557110827750705 0
324.969078179696851 402.225722262989905 0
326.803383897316451 405.282898459022647 0
329.249124854142508 408.340074655055275 0
331.083430571762108 412.008686090294475 0
332.92161846719182 415.112016909388046 0
334.169472081904928 419.171255632471059 0
334.68805153530019 424.678270628122561 0
335.982705075134049 429.668399028048896 0
335.97491248541445 434.020354701729786 0
334.752042007001421 438.911836615382128 0
333.529171528588279 443.191883289827899 0
337.197782963827478 471.929339532535039 0
336.586347724621021 477.432256685393895 0
335.363477246207879 481.712303359839609 0
334.752042007001421 486.603785273491951 0
334.755114782705107 490.93987675481111 0
335.363477246207879 495.163878622383436 0
383.666861143524272 378.379747933934993 0
385.501166861143872 381.436924129967679 0
386.724037339557015 385.105535565206935 0
387.335472578763472 389.385582239652649 0
386.724037339557015 393.66562891409842 0
386.112542384092421 397.940497355662615 0
386.724037339557015 402.225722262989905 0
387.946907817970043 405.894333698229104 0
389.609782726609183 409.557510146556865 0
391.615519253209243 413.231556568707617 0
394.061260210035471 416.288732764740246 0
397.729871645274613 419.345908960772931 0
401.350815084537544 422.97148832170592 0
404.455659276546555 426.683131831251387 0
406.887193285367744 430.338818353287991 0
408.735705950992326 433.408919462523272 0
408.735705950992326 438.300401376175557 0
408.687568879304308 443.020623714623071 0
334.913350755285023 501.821111410929461 0
335.830503614094823 503.655417128549061 0
335.524785994491594 506.101158085375232 0
335.524785994491594 508.546899042201403 0
335.830503614094823 510.992639999027517 0
336.136210268297532 513.456029335488552 0
336.136221233698109 516.189839532283031 0
336.136221233698109 518.941298108712544 0
336.136221233698109 522.304191924348515 0
335.830503614094823 525.667085739984373 0
335.524785994491594 529.029979555620343 0
335.524785994491594 532.698590990859543 0
334.301915516078509 535.755767186892285 0
333.690480276871938 539.424378622131485 0
333.384762657268709 543.704425296577256 0
333.690480276871938 547.373036731816455 0
333.690480276871938 550.430212927849198 0
332.773327418062138 554.710259602294855 0
332.161892178855624 558.684588657137397 0
332.467609798458909 563.881788190392967 0
332.773327418062138 569.384705343251767 0
333.433048067151731 574.807793034317001 0
334.913350755285023 581.919127746985737 0
335.219068374888309 587.42204489984465 0
335.219068374888309 594.147832531116478 0
335.830503614094823 598.427879205562249 0
336.747656472904623 604.236513978024277 0
337.053374092507909 610.350866370089761 0
337.66480933171448 615.853783522948561 0
339.193397429730794 620.745265436600789 0
340.176849981309203 626.701243334632068 0
341.640944833702861 634.161383724334314 0
342.556291245366765 640.005475471606701 0
343.473444104176565 647.954133581291671 0
343.779161723779794 654.679921212563613 0
344.084879343383079 660.794273604628984 0
345.307749821796165 666.297190757487783 0
346.217333294570608 672.29605432606445 0
347.142055539415765 679.137330780825096 0
348.36492601782885 685.251683172890466 0
349.28207887663865 690.143165086542695 0
350.810666974654964 696.868952717814636 0
351.422102213861535 701.760434631466978 0
352.644972692274621 703.900457968689807 0
354.002187785074398 711.002269242996931 0
354.896210260259977 714.280512704865828 0
355.530775883090769 716.810904015458959 0
356.142211122297283 718.950927352681902 0
356.447928741900569 722.313821168317759 0
357.059363981107083 726.59386784276353 0
357.670799220313597 729.9567616583995 0
358.587952079123397 732.402502615225558 0
358.893669698726683 735.153961191655071 0
359.199387318329968 739.1282902464975 0
359.505104937933197 742.49118406213347 0
359.199387318329968 745.854077877769441 0
358.587952079123397 749.82840693261187 0
357.976516839916883 753.191300748247841 0
357.365081600710369 755.637041705073898 0
357.059363981107083 758.69421790110664 0
356.753646361503797 761.445676477535926 0
356.447924734859953 764.407251271974246 0
356.40999726115956 768.256086805119594 0
356.428911278768396 772.079789326574655 0
357.059116866218972 775.95983162761911 0
357.670799220313597 781.011604132145067 0
357.670799220313597 786.208803665400637 0
358.282234459520168 790.183132720243066 0
359.199387318329968 795.074614633895408 0
360.116540177139768 800.271814167150978 0
359.810822557536483 804.551860841596636 0
358.587952079123397 808.831907516042406 0
357.97757718760721 814.572586180127587 0
358.320902694674771 818.713539624602504 0
358.587952079123397 823.506353256999205 0
359.505104937933197 829.926423268667804 0
360.422257796742997 837.875081378352775 0
361.645128275156083 845.212304248831174 0
361.950845894759368 854.383832836929173 0
362.562281133965882 862.943926185820715 0
362.867998753569168 869.669713817092543 0
363.479433992775682 875.784066209157913 0
364.396586851585482 883.427006699239541 0
365.313739710395282 890.458511950114712 0
367.759480667221453 898.407170059799682 0
369.593786384841053 906.661545789087882 0
371.122374482857367 912.470180561550023 0
372.956680200476967 918.58453295361528 0
373.568115439683481 925.310320584887222 0
374.790985918096567 930.20180249853945 0
375.096703537699852 930.813237737746022 0
376.293838273384495 937.785938973112252 0
377.516708751797523 942.065985647557909 0
378.764896723809215 945.264452210115905 0
379.351014469417123 949.708926137639651 0
380.586119112892845 955.743992571792774 0
380.573884947830152 960.103325204150678 0
379.351014469417123 964.99480711780302 0
378.464533787089579 969.229305030661635 0
377.516708751797523 972.637747607884648 0
408.36615218741656 448.851253629964674 0
409.897040687015703 453.400211498658223 0
410.508475926222218 455.540234835881108 0
410.508475926222218 457.985975792707222 0
410.814193545825503 460.125999129930108 0
410.814193545825503 463.183175325962793 0
410.498594263245877 466.450389801603365 0
410.508475926222218 469.297527718028164 0
410.508475926222218 472.048986294457563 0
410.508475926222218 475.106162490490249 0
411.119911165428789 476.940468208109849 0
411.731346404635303 479.080491545332734 0
412.648499263445103 481.526232502158905 0
413.259934502651618 483.360538219778505 0
412.648499263445103 486.723432035414419 0
412.342781643841818 491.00347870986019 0
412.648499263445103 494.060654905892875 0
412.954216883048389 497.423548721528846 0
413.565652122254903 501.092160156768045 0
413.871369741858189 504.45505397240396 0
414.482804981064703 508.73510064684973 0
414.788522600667989 514.238017799708587 0
415.399957839874503 519.740934952567386 0
415.705675459477789 522.798111148600128 0
416.622828318287588 526.772440203442557 0
417.23426355749416 530.135334019078527 0
418.15141641630396 535.026815932730756 0
419.068569275113759 539.612580226779755 0
419.374286894716988 545.421214999241897 0
420.597157373130074 550.924132152100697 0
421.208592612336588 556.732766924562839 0
422.390698520009721 563.26232203944096 0
423.042898329956188 570.490059806709837 0
423.348615949559473 576.910129818378437 0
423.960051188765988 583.33019983004715 0
424.571486427972559 590.667422700525549 0
425.488639286782359 597.087492712194148 0
426.405792145592159 606.56473891989549 0
426.40571390454221 616.091774965321065 0
426.711509765195444 624.602078476488259 0
427.910513577168786 632.156741055756356 0
428.216231196772014 634.908199632185756 0
428.5219488163753 637.353940589011927 0
428.5219488163753 639.493963926234755 0
428.5219488163753 641.939704883060926 0
428.989657428910562 644.545735824647068 0
429.4391016751851 646.831186796713155 0
430.050536914391614 650.499798231952354 0
430.661972153598185 652.945539188778525 0
430.661972153598185 655.391280145604696 0
430.967689773201414 658.142738722033982 0
430.967689773201414 661.811350157273182 0
431.030049759257054 665.105301424038998 0
431.579125012407985 667.619984929735324 0
431.579125012407985 670.677161125767952 0
432.1905602516145 674.345772561007152 0
433.107713110424299 677.708666376643123 0
434.024865969234099 681.682995431485551 0
434.636301208440614 685.045889247121522 0
435.247736447647185 687.797347823550922 0
434.942018828043899 692.68882973720315 0
435.553454067250414 697.274594031252263 0
436.470606926060213 701.554640705697921 0
437.387759784870013 706.14040499974692 0
437.999195024076585 710.420451674192691 0
438.610630263283099 715.617651207448262 0
439.527783122092899 721.42628597991029 0
439.833500741696184 726.623485513165861 0
440.750653600505984 731.820685046421431 0
440.750653600505984 736.406449340470317 0
441.362088839712499 740.99221363451943 0
441.973524078919013 747.106566026584687 0
442.584959318125584 754.138071277459858 0
442.890676937728813 759.0295531911122 0
442.584959318125584 766.978211300797057 0
443.196394557332098 774.315434171275456 0
443.468993073851095 779.763612946598187 0
444.113547416141955 787.155574194612655 0
445.642135514158213 792.964208967074796 0
446.865005992571355 802.135737555172796 0
448.087876470984384 809.472960425651195 0
449.922182188603983 819.255924252955765 0
451.419508338966807 828.557355717395581 0
452.062205525826812 835.458958091928935 0
453.285076004239954 844.324769060423591 0
456.035631978483593 854.105966461808293 0
458.482275537495468 861.444955758206561 0
460.928016494321582 866.94787291106536 0
461.5326943038732 874.834851503260552 0
462.144129543079771 878.503462938499752 0
462.755564782286285 882.172074373738951 0
463.878776075588235 886.3338265232195 0
464.895588119509171 890.42645010302715 0
465.201362514018911 896.215082716354004 0
465.510795670848324 902.117794012219633 0
466.118458597922199 907.54663680081012 0
466.424176217525485 913.355271573272148 0
467.035611456731999 917.941035867321148 0
468.220133756566781 921.69595593667816 0
468.56419955474837 926.195411596609347 0
468.56419955474837 930.169740651451775 0
469.175634793954885 931.698328749468146 0
332.555227505659161 447.943302377493524 0
332.860945125262447 452.834784291145866 0
333.459826613769565 457.815412843200534 0
335.306686082088561 462.312030498847093 0
336.835274180104875 465.980641934086293 0
309.050483245670932 187.293701368759514 0
312.615035433835487 190.027613211399739 0
315.164835637736246 192.185183282411742 0
303.263127187865166 184.542007001166866 0
256.161335054305766 158.861962745655688 0
258.912793630735166 162.224856561291631 0
306.626021003501137 378.061260210034789 0
303.568844807468452 382.035589264877274 0
300.614662639166454 385.46020654147253 0
297.454492415403081 388.761376896149159 0
294.805978203167967 392.759855075119674 0
293.480163360560653 395.792882147024329 0
329.249124854142906 325.477829638272851 0
326.188718623787679 327.113569484845186 0
323.134772462077535 328.229288214702251 0
318.833046111914314 330.07157198417417 0
313.979456667673958 331.895084989437066 0
309.988914819137051 333.120770128354536 0
275.748541423571112 343.209451575262335 0
272.079929988331912 345.349474912485221 0
268.239978213144695 347.847030565236139 0
263.830958442431893 350.239744909909689 0
347.286464410735675 332.203617269544736 0
352.47779897030324 333.111895477152757 0
356.890243292747073 333.69664667140529 0
363.183780630105616 333.73220536756105 0
368.684729998249964 333.42929206629907 0
372.04959159860033 333.426487747957822 0
311.517502917153422 250.577012835472402 0
321.911901983664507 259.442823803967144 0
325.580513418903706 263.111435239206344 0
329.249124854142906 265.557176196032515 0
344.22928821470299 276.257292882146828 0
347.592182030338904 279.008751458576228 0
350.54874006684696 282.306605708319239 0
353.400816802800989 286.040256709451398 0
355.12397140457864 290.673193095908402 0
356.457992998833674 295.517502917152683 0
357.375145857643474 299.186114352391883 0
398.035589264878013 389.067094515752387 0
401.398483080513984 390.901400233371987 0
405.372812135356412 392.12427071178513 0
410.363150613769733 393.03306477119196 0
415.767211201867497 393.652858809801444 0
421.881563593932867 394.875729288214529 0
425.244457409568781 394.570011668611244 0
381.221120186698329 410.467327887981128 0
378.775379229872158 412.913068844807299 0
375.718203033839529 415.053092182030127 0
346.06359393232259 366.749708284713961 0
344.840723453909504 369.806884480746589 0
343.923570595099704 373.16977829638256 0
343.343083626850159 377.891064329762912 0
342.109640237235965 383.187023173563659 0
340.258657404858468 388.136922589929554 0
338.478945972568681 393.52010687892448 0
335.669194865811505 397.932905484247158 0
333.834889148191905 401.601516919486357 0
334.44632438739842 401.907234539089643 0
335.36347724620822 352.68669778296362 0
332.61201866977882 356.661026837806105 0
330.779872402317608 361.291563518468081 0
327.924787486355285 367.233224182869094 0
325.274795799300421 372.25262543757276 0
322.833180733249037 375.907355636312502 0
321.606184364061221 378.67269544924136 0
343.617852975496476 238.348308051341718 0
347.467337593806405 239.241083116755192 0
351.260629309920773 240.793888914297895 0
354.929404900817303 242.62835472578746 0
358.59801633605656 245.37981330221686 0
362.266627771295816 247.519836639439745 0
366.562811014269244 250.658379860263011 0
370.215285880980673 255.774212368727945 0
374.324182335533351 259.359754872295241 0
378.469661610268986 262.194282380396544 0
383.055425904317929 264.334305717619429 0
386.724037339557128 266.168611435239029 0
390.086931155193099 268.614352392065143 0
306.931738623104366 307.440490081680082 0
309.885325071351303 306.277194893748344 0
315.367598219076456 305.039974304013185 0
321.070303245590821 303.835954095143734 0
326.8723941702915 302.326202242611487 0
293.169269837391766 335.579882169391681 0
284.33750421184584 339.422705479561728 0
277.577671237625168 308.676731644304141 0
275.49234543558731 311.320005544826927 0
271.769036465163026 314.791084036369512 0
326.187060304742658 118.267132542619692 0
331.384259837998229 118.572850162222949 0
335.123878766270025 118.710820741364273 0
339.754603266744937 118.873732494380974 0
344.835835100541942 118.572850162222949 0
350.950187492607313 118.878567781826234 0
356.539335250826923 118.600525188218839 0
360.427433700308598 119.795720640636034 0
365.013197994357597 121.018591119049091 0
368.681809429596797 121.935743977858891 0
279.412264505442749 146.087435926517003 0
276.341826944262323 148.849051153853509 0
272.968323142992858 151.9117937177447 0
268.712147819328436 154.953246895011773 0
265.043536384089236 157.704705471441173 0
282.163723081872149 155.25896451461503 0
278.52315104097903 157.855443552562377 0
274.292477918249347 160.048678725373179 0
271.436383476536776 162.628319817526346 0
271.463606395757836 162.901905004696687 0
254.954854937181381 169.933410255571857 0
251.592590608601114 173.10785543042519 0
248.941463637033053 176.788977253023148 0
246.394761588289896 180.022091702479656 0
243.643303011860496 183.996420757322142 0
240.280409196224582 187.665032192561341 0
237.223233000191897 190.722208388594026 0
233.579699502754721 194.644953584612182 0
231.078537723306852 199.288347298341932 0
229.272742379485805 203.254415329585584 0
229.580292510110212 203.256630792327968 0
278.495111646632949 232.299804654638365 0
274.971310149646001 234.502992629487125 0
271.15788877615455 237.19128656829065 0
267.777624363769121 239.552079666974151 0
262.597795427263065 242.694203721149449 0
259.540619231230437 244.834227058372278 0
255.566290176387952 248.197120874008249 0
252.509113980355266 250.031426591627849 0
248.840502545116067 252.477167548453963 0
244.866173490273582 254.922908505280134 0
243.031867772653982 256.451496603296505 0
341.472941284906028 196.836560780659369 0
346.058705578955028 198.670866498278968 0
349.115881774987713 201.116607455105111 0
352.551498986911611 204.784913858111821 0
356.762731560795487 208.763850588163223 0
360.875315122682423 212.002226465425082 0
363.77987892037703 216.318534486676725 0
367.626329092127037 220.258225969938394 0
370.821832766819625 222.516840827333795 0
340.250070806492943 186.442161714148284 0
344.417647604652757 188.543316728209675 0
348.198728916177913 189.499337910180941 0
352.542454416014778 190.97984302847965 0
356.758822265069398 191.945078867007112 0
361.344586559118397 192.556514106213626 0
365.930350853167397 194.390819823833226 0
370.821832766819625 196.836560780659369 0
374.796161821662167 197.753713639469169 0
318.849837434264259 220.682535109714195 0
322.864915837216131 220.682661946527702 0
327.341439258688638 220.988316911872801 0
329.855671739981858 221.293970348920709 0
345.752987959351742 227.714040360589365 0
349.461803383386837 229.586902260399881 0
353.396319285344987 230.771314621683757 0
358.910915540643657 232.508052146097754 0
365.184893307178527 232.339074455231128 0
369.646912138982884 231.360800867383858 0
369.904679908009825 231.382651795828565 0
323.435601728313259 266.540178050204304 0
321.906139800725327 269.898823783179921 0
320.034039213502524 273.321493752847857 0
317.932684575454459 277.546012355921903 0
318.238402195057688 152.507505938185602 0
312.124049802992374 151.590353079375802 0
306.621132650133575 152.507505938185602 0
263.497028652753897 166.473163462109767 0
307.232567889340089 129.884402087543833 0
312.124049802992374 128.355813989527519 0
317.478996499416894 125.232788798133001 0
328.632801261568829 252.477167548453963 0
327.715648402758973 257.980084701312819 0
300.81249787767149 218.848229392094595 0
298.06103930124209 221.90540558812728 0
293.169557387589805 224.962581784159909 0
355.81478346273866 370.120222180599058 0
350.617583929483146 376.846009811870942 0
348.477560592260261 340.771330698685347 0
351.229019168689661 344.745659753527775 0
353.98047774511906 347.497118329957232 0
357.343371560755031 350.248576906386631 0
361.317700615597516 353.305753102419317 0
364.986312050836716 356.057211678848716 0
370.191599786393226 358.830023439704291 0
374.463558258538001 362.477281690517316 0
377.826452074173972 366.451610745359858 0
327.99448007884132 315.091050652010836 0
323.71443340439555 317.842509228440235 0
319.468060051198506 320.897235670366513 0
328.91163293765112 330.988366871380777 0
324.491057770561952 333.900975061623569 0
320.972968699404419 335.801307640853111 0
316.682928153520379 338.019872122255947 0
331.051656274874006 334.656978306619976 0
326.679436530145949 337.226971560546815 0
323.039038081102831 340.856370195849422 0
319.086195069285623 344.485860006723897 0
315.46005767510735 348.108553569163746 0
322.217619603267792 177.816219369894668 0
318.549008168028593 179.956242707117553 0
314.065381002849733 182.118459187830581 0
299.594515752626023 198.299299883313608 0
296.231621936990052 201.050758459743008 0
291.951575262544338 204.413652275378922 0
312.434655775963222 231.928238039673005 0
312.740373395566507 236.819719953325261 0
313.351808634773022 241.405484247374289 0
314.268961493582822 245.379813302216746 0
316.103267211202478 248.131271878646174 0
315.797549591599193 259.44282380396703 0
314.880396732789393 264.334305717619316 0
314.268961493582822 269.225787631271601 0
316.561843640607322 254.704200700116502 0
328.943407234539677 206.553675612601808 0
322.217619603267792 211.445157526254093 0
276.359976662777797 263.111435239206571 0
271.831992920358573 264.400863940959084 0
268.411318553092883 265.862893815635971 0
264.470900557443656 267.860901020733536 0
259.500169214524135 269.563881986392857 0
254.348308051342599 271.671528588097999 0
251.596849474913142 273.505834305717599 0
317.631855309218906 229.788214702450432 0
321.491937152969399 230.401048823573888 0
326.121709641270741 230.093933902920071 0
294.703033838973852 256.385647607934629 0
343.312135355893361 231.622520420070032 0
298.055000747082488 355.386828649034442 0
294.670370921215124 359.071194976380241 0
292.857801213826917 361.501181041099812 0
339.938314632730112 367.309815813561897 0
335.392040773875237 368.2271620454855 0
337.186856056300712 380.455673456502382 0
334.435397479871256 383.512849652535067 0
332.601091762251656 386.875743468170981 0
289.649733145407822 149.339553917627939 0
293.164135207172762 150.873556831940846 0
287.757312871920533 237.840969219301456 0
314.574679113186107 216.030921820303433 0
311.360353465170704 214.27877782635511 0
307.237456242707651 227.953908984830832 0
310.141773628938722 231.622520420069861 0
336.011705854938498 229.225432281834657 0
336.232563655044942 236.397262071126192 0
339.80857693996586 232.376103224199369 0
335.926846035441713 243.581626131802977 0
318.090431738623465 378.366977829638074 0
336.76359495344326 324.539254289705639 0
337.998939116088536 329.339122392252932 0
339.221809594501678 334.536321925508503 0
319.42067160089664 383.555907038199621 0
0 1 0
0 29 1
0 45 2
1 2 3
2 3 4
3 4 5
4 5 6
5 6 7
6 7 8
7 8 9
7 658 10
8 9 11
9 10 12
9 128 13
10 11 14
11 12 15
12 589 16
12 726 17
13 14 18
13 594 19
13 726 20
13 727 21
14 15 22
15 16 23
16 17 24
17 18 25
18 19 26
19 20 27
19 59 28
19 175 29
20 21 30
21 22 31
22 23 32
23 24 33
24 25 34
24 694 35
25 26 36
26 27 37
27 610 38
27 665 39
27 728 40
29 30 41
30 31 42
31 32 43
32 33 44
33 34 45
34 35 46
35 36 47
36 37 48
37 38 49
38 39 50
39 660 51
40 41 52
40 660 53
41 42 54
42 43 55
43 44 56
44 176 57
44 654 58
45 46 59
46 47 60
47 48 61
48 49 62
49 50 63
50 51 64
51 52 65
52 53 66
53 54 67
54 55 68
55 56 69
56 494 70
57 58 71
57 657 72
58 175 73
59 493 74
60 61 75
60 492 76
61 62 77
62 63 78
63 64 79
64 705 80
64 729 81
64 730 82
65 66 83
65 639 84
65 729 85
66 67 86
67 126 87
67 142 88
67 731 89
68 69 90
68 127 91
69 70 92
70 71 93
71 72 94
72 73 95
73 74 96
74 75 97
75 76 98
76 77 99
77 78 100
78 79 101
79 80 102
80 81 103
81 82 104
82 83 105
83 84 106
84 85 107
85 86 108
86 87 109
87 88 110
88 89 111
89 90 112
90 91 113
91 92 114
92 93 115
93 94 116
94 95 117
95 96 118
96 97 119
97 98 120
98 99 121
99 100 122
100 101 123
101 102 124
102 103 125
103 104 126
104 105 127
105 106 128
106 107 129
107 108 130
108 109 131
109 110 132
110 111 133
111 112 134
112 113 135
113 114 136
114 115 137
115 116 138
116 117 139
117 118 140
118 119 141
119 120 142
120 121 143
122 123 144
122 127 145
123 124 146
124 125 147
125 126 148
28 127 149
28 162 150
127 728 151
128 129 152
129 130 153
130 131 154
130 656 155
130 727 156
131 132 157
132 133 158
133 134 159
134 135 160
135 493 161
136 137 162
136 493 163
137 138 164
137 692 165
138 139 166
139 140 167
140 141 168
141 142 169
141 663 170
141 730 171
143 144 172
143 731 173
143 732 174
144 145 175
145 146 176
146 147 177
146 518 178
147 148 179
148 149 180
148 716 181
149 150 182
150 151 183
151 152 184
152 153 185
153 154 186
154 155 187
155 156 188
156 157 189
157 158 190
158 159 191
158 569 192
159 160 193
160 161 194
161 211 195
162 163 196
162 706 197
162 716 198
163 164 199
164 165 200
165 166 201
166 167 202
167 168 203
168 169 204
169 170 205
170 171 206
170 576 207
171 172 208
172 173 209
173 174 210
174 204 211
176 177 212
177 178 213
178 179 214
179 180 215
180 181 216
181 182 217
181 689 218
182 183 219
183 184 220
184 185 221
184 630 222
185 186 223
186 187 224
187 188 225
187 621 226
188 189 227
189 190 228
189 704 229
190 191 230
191 192 231
192 193 232
193 642 233
193 643 234
193 733 235
196 197 236
196 661 237
196 736 238
197 198 239
198 199 240
199 200 241
200 201 242
200 521 243
200 522 244
201 202 245
202 203 246
203 222 247
204 575 248
205 206 249
205 575 250
206 207 251
207 208 252
208 209 253
209 210 254
211 212 255
212 213 256
212 507 257
212 574 258
213 214 259
214 215 260
215 216 261
216 217 262
216 718 263
217 218 264
218 219 265
219 220 266
220 221 267
221 243 268
221 496 269
221 737 270
222 223 271
222 573 272
223 224 273
224 225 274
224 677 275
225 226 276
226 502 277
226 738 278
229 230 279
229 668 280
229 740 281
230 231 282
231 232 283
232 233 284
232 549 285
233 234 286
234 235 287
235 236 288
235 539 289
236 237 290
237 238 291
237 666 292
238 239 293
239 240 294
240 241 295
241 242 296
242 265 297
243 244 298
244 245 299
244 741 300
245 246 301
246 247 302
247 248 303
248 249 304
249 250 305
250 251 306
251 252 307
252 253 308
253 254 309
254 255 310
255 256 311
256 257 312
257 258 313
258 485 314
259 260 315
259 489 316
260 261 317
261 262 318
262 263 319
263 264 320
264 283 321
265 266 322
266 267 323
267 268 324
268 269 325
268 529 326
269 270 327
270 271 328
271 272 329
272 273 330
272 536 331
273 274 332
274 275 333
275 276 334
276 277 335
277 278 336
278 279 337
279 280 338
280 281 339
281 282 340
282 383 341
283 284 342
284 285 343
285 286 344
286 287 345
287 288 346
288 289 347
289 290 348
290 291 349
291 292 350
292 293 351
293 294 352
294 295 353
295 296 354
296 297 355
297 298 356
298 299 357
299 300 358
300 301 359
301 302 360
302 303 361
303 304 362
304 305 363
305 306 364
306 307 365
307 308 366
308 309 367
309 310 368
310 311 369
311 312 370
312 313 371
313 314 372
314 315 373
315 316 374
316 317 375
317 318 376
318 319 377
319 320 378
320 321 379
321 322 380
322 323 381
323 324 382
324 325 383
325 326 384
326 327 385
327 328 386
328 329 387
329 330 388
330 331 389
331 332 390
332 333 391
333 334 392
334 335 393
335 336 394
336 337 395
337 338 396
338 339 397
339 340 398
340 341 399
341 342 400
342 343 401
343 344 402
344 345 403
345 346 404
346 347 405
347 348 406
348 349 407
349 350 408
350 351 409
351 352 410
352 353 411
353 354 412
354 355 413
355 356 414
356 357 415
357 358 416
358 359 417
359 360 418
360 361 419
361 362 420
362 363 421
363 364 422
364 365 423
365 366 424
366 367 425
367 368 426
368 369 427
369 370 428
370 371 429
371 372 430
372 373 431
373 374 432
374 375 433
375 376 434
376 377 435
377 378 436
378 379 437
379 380 438
380 381 439
381 382 440
383 384 441
384 385 442
385 386 443
386 387 444
387 388 445
388 389 446
389 390 447
390 391 448
391 392 449
392 393 450
393 394 451
394 395 452
395 396 453
396 397 454
397 398 455
398 399 456
399 400 457
400 401 458
401 402 459
402 403 460
403 404 461
404 405 462
405 406 463
406 407 464
407 408 465
408 409 466
409 410 467
410 411 468
411 412 469
412 413 470
413 414 471
414 415 472
415 416 473
416 417 474
417 418 475
418 419 476
419 420 477
420 421 478
421 422 479
422 423 480
423 424 481
424 425 482
425 426 483
426 427 484
427 428 485
428 429 486
429 430 487
430 431 488
431 432 489
432 433 490
433 434 491
434 435 492
435 436 493
436 437 494
437 438 495
438 439 496
439 440 497
440 441 498
441 442 499
442 443 500
443 444 501
444 445 502
445 446 503
446 447 504
447 448 505
448 449 506
449 450 507
450 451 508
451 452 509
452 453 510
453 454 511
454 455 512
455 456 513
456 457 514
457 458 515
458 459 516
459 460 517
460 461 518
461 462 519
462 463 520
463 464 521
464 465 522
465 466 523
466 467 524
467 468 525
468 469 526
469 470 527
470 471 528
471 472 529
472 473 530
473 474 531
474 475 532
475 476 533
476 477 534
477 478 535
478 479 536
479 480 537
480 481 538
481 482 539
482 483 540
483 484 541
485 486 542
486 487 543
487 488 544
488 489 545
490 491 546
490 493 547
491 492 548
494 495 549
495 657 550
496 497 551
497 498 552
498 499 553
499 500 554
500 501 555
502 503 556
503 504 557
503 680 558
504 505 559
505 506 560
506 507 561
508 509 562
508 575 563
509 510 564
510 511 565
228 512 566
228 739 567
228 740 568
512 513 569
513 514 570
514 515 571
515 516 572
516 517 573
518 703 574
519 520 575
519 703 576
520 521 577
520 650 578
520 662 579
522 523 580
523 524 581
524 525 582
525 526 583
526 527 584
527 528 585
529 530 586
530 531 587
531 532 588
532 533 589
533 534 590
534 535 591
536 537 592
537 538 593
539 540 594
540 541 595
540 721 596
541 542 597
542 543 598
543 544 599
543 667 600
543 723 601
544 545 602
545 546 603
546 547 604
547 548 605
549 550 606
550 551 607
551 552 608
552 553 609
553 554 610
554 555 611
555 737 612
555 741 613
195 556 614
195 734 615
195 736 616
556 557 617
557 558 618
558 559 619
559 560 620
560 561 621
561 562 622
562 563 623
563 564 624
564 565 625
565 566 626
566 567 627
567 568 628
569 570 629
570 571 630
571 572 631
572 573 632
574 575 633
576 577 634
577 578 635
579 580 636
579 660 637
580 581 638
581 582 639
582 583 640
583 584 641
584 585 642
585 586 643
586 587 644
587 588 645
589 590 646
590 591 647
591 592 648
592 593 649
594 595 650
595 596 651
596 597 652
597 598 653
598 657 654
599 600 655
599 657 656
600 601 657
601 602 658
602 603 659
603 604 660
604 605 661
605 606 662
606 607 663
607 608 664
608 609 665
610 611 666
611 612 667
612 613 668
613 614 669
614 615 670
615 616 671
616 617 672
617 618 673
618 619 674
619 620 675
621 622 676
622 623 677
623 624 678
624 625 679
625 626 680
626 627 681
627 628 682
628 629 683
630 631 684
631 632 685
632 633 686
633 634 687
634 635 688
635 636 689
636 637 690
637 638 691
639 640 692
640 641 693
641 642 694
643 644 695
644 645 696
645 646 697
646 647 698
647 648 699
648 649 700
650 651 701
651 652 702
652 653 703
654 655 704
655 656 705
658 659 706
659 660 707
661 662 708
663 664 709
664 665 710
666 667 711
668 669 712
669 670 713
670 671 714
671 672 715
672 673 716
673 674 717
674 675 718
675 676 719
677 678 720
678 679 721
680 681 722
681 682 723
682 683 724
227 684 725
227 738 726
227 739 727
684 685 728
685 686 729
686 687 730
687 688 731
689 690 732
690 691 733
692 693 734
693 694 735
695 696 736
695 713 737
695 732 738
696 697 739
697 698 740
698 699 741
699 703 742
700 701 743
700 703 744
701 702 745
704 705 746
706 707 747
707 708 748
708 709 749
709 710 750
710 711 751
711 712 752
713 714 753
714 715 754
194 715 755
194 733 756
194 734 757
194 735 758
718 719 759
719 720 760
721 722 761
723 724 762
724 725 763
735 717 764
