ply
format ascii 1.0
element vertex 880
property double x
property double y
property int root
element edge 900
property int vertex1
property int vertex2
property int name
end_header
528 70 0
531 67 0
535 63 0
538 58 0
539 55 0
540 52 0
542 47 0
544 42 0
521 73 0
518 73 0
515 72 0
512 71 0
509 70 0
504 69 0
500 67 0
495 65 0
493 60 0
492 57 0
493 53 0
493 48 0
488 46 0
543.114051035068201 36.9629521586931133 0
544.820585457471907 32.5259626604434118 0
546.640888841369247 28.088973162193696 0
548.574961186760106 22.969369894982492 0
551.077878339619019 17.508459743290544 0
553.580795492477819 12.6163943990665075 0
555.538184106810149 8.36521189404969512 0
556.425019529817291 4.76633605600932242 0
524.000865504146418 76.3838973162193895 0
521.185748317497541 77.7106453841105775 0
517.402265737518633 79.0005834305717798 0
512.623969354788187 80.479579929988347 0
507.504366087576955 81.7310385064177467 0
502.197768513118092 82.6166719608785058 0
497.454835801955653 83.3200347628155527 0
493.283245900879137 83.8926487747958163 0
489.301332248603785 84.4614935822637278 0
484.978111711847646 85.144107351225216 0
481.266245810576436 86.3129904088571465 0
474.511367254438085 88.5571761960326853 0
467.532731253265695 91.0146721248919448 0
461.200398759688937 93.3354725787631452 0
454.829336916048362 95.9521586931155355 0
449.3684267643564 97.8862310385064376 0
448.116968187927 99.0239206534422607 0
526.390013695511584 79.683197199533268 0
523.318251735184845 82.072345390898505 0
520.474027697845258 83.5513418903150722 0
518.653724313948032 85.144107351225216 0
516.719651968557173 88.1021003500583646 0
515.695731315114926 90.8325554259043315 0
515.35442443063414 95.0420070011668798 0
515.013117546153353 99.3652275379230048 0
514.558041700179047 104.598599766627785 0
513.989196892711107 110.742123687281236 0
512.96527623926886 115.406651108518105 0
511.600048701345941 119.843640606767821 0
509.064440387007892 125.147533894341876 0
505.456524780692462 131.675612602100387 0
502.384762820365722 137.022753792298772 0
492.600632131917678 150.333722287047863 0
530.030620463306263 76.6114352392065427 0
531.395848001229183 80.0245040840140121 0
531.623385924216336 83.7788798133022397 0
530.144389424799783 88.1021003500583646 0
527.733380866869084 92.7001032241870888 0
526.276244734018064 96.9760793465577819 0
525.544542616629087 101.191257564100141 0
524.797248234601511 105.96382730455079 0
524.000678999992147 109.962648327414854 0
522.863175889210538 115.520420070011696 0
520.815334582326045 121.095099183197235 0
518.312417429467246 125.759626604434104 0
515.35442443063414 130.99299883313887 0
513.420352085243167 136.79521586931159 0
512.512629450952659 141.771568705525169 0
512.055124547320247 146.35180863477251 0
512.055124547320247 150.902567094515803 0
525.024786157588551 111.652275379229906 0
526.390013695511584 117.22695449241543 0
527.871478069666409 122.472350828634987 0
529.120468771357537 127.238623103850671 0
530.828716266909964 133.506315903085977 0
532.078461770190756 138.956826137689632 0
533.557458269607309 143.166277712952194 0
532.87484450064585 72.2882147024504178 0
536.856758152921202 72.7432905484247527 0
539.473444267273635 75.0186697782963989 0
541.066209728183708 78.8868144690781889 0
540.497364920715768 84.8028004667444719 0
538.221985690844122 91.060093348891499 0
536.286776465681669 96.2955809392872482 0
534.567590574609767 102.026046654109109 0
533.898765154088096 106.987747957993022 0
533.786512116884865 110.890301665086469 0
533.784996192594463 116.203033838973198 0
534.695147884543076 121.095099183197235 0
534.808916846036709 126.214702450408438 0
535.427040331736293 131.336179568769552 0
535.946606460972475 135.998833138856526 0
536.081382721174577 139.933524990546942 0
536.401682306946896 142.938739789965041 0
535.832837499478956 108.580513418903166 0
538.790830498312062 111.652275379229906 0
542.317668304613107 114.382730455075873 0
546.413350918382093 117.795799299883328 0
549.25757495572168 120.981330221703644 0
552.670643800529092 124.280630105017536 0
555.532370282157899 127.379574883032674 0
559.951857336118337 131.675612602100387 0
563.023619296445077 134.747374562427126 0
566.700179003607445 137.972193120285652 0
570.520693276348879 141.77216885717641 0
573.490363753854695 144.986581096849534 0
576.334587791194281 148.399649941656975 0
578.9512739055466 150.333722287047863 0
538.677061536818428 135.543757292882162 0
543.094947901779278 136.269266284763688 0
547.751604286134466 136.655487149527858 0
552.07493294543292 137.24539176188506 0
556.949765732847027 137.408628645135707 0
561.559033882438712 137.81710025550575 0
564.843922680342416 138.843057176196055 0
569.622219063072862 136.567677946324409 0
573.745975179626953 136.78432705142842 0
578.043586867770728 137.344625298155023 0
581.681728981392553 138.387981330221749 0
586.004949518148692 139.753208868144725 0
589.873094208930524 141.687281213535641 0
594.584778130148379 143.182844018225239 0
600.112300743352989 145.214119019836687 0
605.573210895044895 147.830805134189063 0
605.573210895044895 148.172112018669822 0
510.348590124916541 93.6767794632438893 0
507.162872346837958 94.3594111065079915 0
504.090279447939849 94.4569219351823932 0
499.995614629000499 93.7905484247374801 0
494.567300559314901 92.4382100051813609 0
488.504949518148692 91.6289381563594105 0
482.076892816428256 91.40138582168629 0
476.217901676841791 91.6289381563594105 0
473.259908678008685 91.9702450408401546 0
499.540538783026193 86.8506417736289507 0
503.181145550820816 90.26371061843642 0
509.097131548487084 99.0239206534422607 0
491.236153651287054 152.947100778420207 0
489.757157151870501 156.018862738746918 0
487.936853767973162 159.318162622060811 0
485.547705576607939 163.07253835134901 0
483.937957349970759 166.880191256986535 0
480.428102309396763 171.946517347848413 0
474.512116311730495 183.095875574219463 0
471.667892274390965 187.419096110975573 0
469.09048642152851 191.88580910383132 0
466.093213161205426 197.203226799423618 0
463.362758085359474 202.209061105141245 0
460.859840932500674 207.556202295339574 0
457.674310010680358 214.041033100473783 0
454.261241165872889 218.591791560217047 0
451.644555051520513 223.370087942947492 0
511.48702879714466 155.563786892772612 0
511.14572191266393 160.683390159983787 0
510.803764931134822 164.348562272700548 0
510.804415028183143 168.305910580053791 0
510.463108143702414 172.970438001290631 0
509.552956451753744 178.317579191489017 0
508.870342682792284 183.550951420193769 0
508.415266836817921 189.011861571885731 0
507.439231872240214 194.64529926963462 0
506.594963452920638 199.592374990788841 0
506.594963452920638 205.167054103974351 0
506.594963452920638 210.400426332679132 0
506.618171446090287 215.930768445181485 0
506.594963452920638 219.957019098140023 0
507.050039298894944 223.028781058466734 0
505.115966953504085 195.496692377019883 0
502.840587723632439 199.478606029295264 0
500.369980178525338 203.868282693321049 0
497.669779544550011 207.949846404631046 0
494.755111810309131 212.35579718078958 0
490.781077805312748 217.454101945281224 0
487.254239999011702 221.891091443530911 0
485.206398692127209 225.076622365351227 0
485.206398692127209 225.190391326844804 0
509.780494374740897 148.168804395689762 0
506.367425529933485 150.785490510042166 0
502.271742916164499 154.08479039335603 0
498.17606030239557 157.4978592381635 0
493.283994958171547 161.479772890438852 0
490.098464036351231 164.779072773752745 0
486.459933709650727 168.53135240298775 0
483.499864269723446 171.605210463367655 0
481.79332984731974 173.880589693239301 0
474.057040465756188 178.203810229995412 0
471.440354351403755 180.592958421360635 0
467.306687818777959 183.575159349690523 0
462.111299508930074 186.395175457533327 0
457.333003126199628 188.670554687404973 0
451.313113737605704 191.4351005724983 0
447.43510347625795 192.652468339680354 0
446.411182822815704 194.131464839096907 0
508.415266836817921 143.162970089972163 0
503.636970454087475 144.414428666401562 0
500.792746416747946 145.210811396856627 0
490.894846766806324 145.210811396856627 0
486.878494276467165 145.882149220046159 0
481.907098808813316 146.34850101179245 0
478.494029964005847 146.917345819260362 0
531.282828097027959 148.168804395689762 0
528.438604059688373 151.126797394522896 0
525.480611060855267 154.312328316343184 0
523.432769753970774 157.270321315176318 0
521.498697408579915 161.366003928945275 0
519.792162986176209 165.347917581220656 0
517.858090640785235 171.150134617393348 0
517.403014794810929 174.790741385187971 0
516.947938948836622 180.479189459867058 0
517.403014794810929 187.191558187988392 0
517.726466156009678 193.764249153081664 0
518.199397525266022 199.364837067801687 0
518.654473371240329 205.508360988455109 0
519.109549217214635 210.286657371185555 0
520.019700909163248 215.064953753916001 0
521.271159485592761 218.47802259872347 0
523.319000792477254 222.915012096973157 0
524.342921445919387 224.166470673402557 0
529.803831597611406 140.432515014126182 0
526.078999465192283 143.707646335332612 0
521.953773254554221 147.486190626728273 0
518.540704409746695 151.923180124977989 0
516.593509619478255 156.208361803103287 0
515.468942449419956 160.455852236996634 0
514.900097641952129 164.665303812259168 0
546.927643824234792 157.76958514532123 0
550.623551550936895 160.455852236996634 0
554.036620395744308 162.276155620893945 0
557.696771811876829 164.576899700073682 0
560.635220162372093 168.192141618560186 0
562.455523546269433 172.06028630934199 0
562.455523546269433 176.611044769085282 0
562.498369069706996 181.2699063927098 0
562.840721026047618 186.840211891046437 0
563.138044723269559 192.350476512944027 0
563.930361338187481 197.951107208252779 0
564.891782589015293 203.742892545200817 0
566.10430731194765 209.045790684476628 0
569.281661235884371 214.837415830928819 0
570.828088436945905 219.406646753919347 0
574.40126450309549 223.938932750415404 0
541.066958785476004 159.204393660567234 0
541.066958785476004 163.755152120310498 0
541.294496708463157 169.102293310508855 0
541.52203463145031 173.653051770252148 0
541.52203463145031 179.000192960450505 0
541.180727746969524 184.006027266168104 0
540.624734270216891 191.164250248259464 0
540.384345016514544 197.316995760917223 0
539.474193324565817 204.143133450532133 0
539.360424363072298 209.262736717743337 0
539.360424363072298 212.90334348553796 0
540.043038132033757 217.340332983787647 0
540.725651900995217 221.663553520543758 0
540.270576055020911 224.621546519376892 0
558.814916778474753 201.867754220660487 0
555.401847933667341 204.484440335012891 0
551.427585877981301 207.480443914263134 0
547.665558552103789 210.059119448198373 0
545.84525516820645 211.65188490910856 0
535.606048633783985 214.951184792422424 0
528.913972929940996 216.879611225278808 0
525.025535214880847 218.819329483204228 0
517.630552717798082 218.933098444697805 0
513.768618567288854 220.407876861003103 0
512.055873604612543 221.549784559050181 0
501.247822262722252 221.436015597556604 0
496.69706380297896 222.687474173986004 0
493.170225996677971 224.052701711908981 0
565.754823429583325 170.695058771419014 0
569.930104407560066 171.273968341550983 0
574.896484182109816 171.722650734794598 0
581.789902312448817 171.718844722879027 0
588.908036334350072 171.286881406996116 0
605.569657696224908 170.922509882376346 0
610.010949450586736 170.581289809925408 0
610.807332181041829 170.581289809925408 0
585.098354299033531 159.217765327115615 0
589.077460535767614 163.07253835134901 0
593.74198795700454 166.030531350182144 0
595.789829263888919 169.329831233496009 0
601.136970454087304 173.425513847264966 0
604.152024408743614 177.91979013660179 0
608.30441502818303 182.185723882270793 0
567.802664736467705 190.035782225327949 0
572.353423196210997 192.311161455199596 0
578.383178155370842 193.6763889931226 0
581.878346551534037 194.598280768176437 0
593.885509611278394 193.018608207432464 0
600.568125646619364 189.922013263834373 0
604.742191524798045 188.644250837348295 0
604.779705918938703 191.657690042154059 0
604.771053418301676 194.903872591196119 0
606.48411164428569 198.113378491372259 0
606.142804759804903 201.867754220660487 0
544.935103476257837 168.760986426028126 0
548.8200021943818 170.233170232345486 0
553.240237665289214 173.197975924277813 0
556.539537548603107 177.862503345514682 0
558.5873788554876 181.616879074802881 0
573.491112811146877 174.904510346681548 0
578.497610101859323 180.023130560341144 0
582.760354410092191 184.081024238355923 0
586.791502436520659 187.642393576528633 0
589.418767420248287 189.694475340847191 0
591.248980194353862 191.280427419389639 0
596.017367186876072 195.496692377019883 0
600.680408535743595 198.337421715771995 0
603.412349683958951 200.274988759750329 0
593.502626312610687 201.852351240980482 0
597.723901609279892 205.735898911442291 0
601.933353184542398 208.58012294878182 0
605.460190990843444 210.627964255666313 0
609.100797758638009 212.675805562550778 0
611.262408027016136 214.609877907941666 0
578.155640232383803 182.299492843764369 0
580.886095308229642 187.646634033962727 0
583.502781422582075 190.832164955783014 0
586.233236498428028 200.388757721243906 0
582.096855989096525 203.743999262419464 0
578.334100812879342 207.165794203902493 0
574.059957618614817 210.172888409691978 0
571.898347350236691 212.220729716576443 0
563.820751084192352 217.226564022294042 0
559.952606393410633 219.843250136646446 0
555.520706760153303 222.940483449372891 0
551.533703242885508 225.531698211325534 0
570.533119812313771 201.867754220660487 0
572.903193269605481 204.139711722871994 0
574.856340349069797 205.963436834429444 0
566.323668237051152 158.521779891605718 0
570.760657735300924 156.815245469202011 0
576.0944384382218 155.443205741233271 0
577.928102309396536 155.563786892772612 0
585.209315844985781 152.492024932445872 0
590.78399495817132 151.468104279003626 0
595.107215494927459 151.354335317510049 0
442.352685553125411 193.763619924884551 0
438.825847746824365 195.583923308781891 0
434.843934094548956 196.835381885211291 0
430.862020442273547 198.086840461640691 0
425.969955098049525 199.793374884044454 0
420.873882326416265 201.522688761821996 0
414.251752064210507 203.775288536319835 0
408.335766066544238 205.709360881710722 0
401.5096283769293 208.326046996063127 0
397.661871382897743 209.347200090459978 0
394.455952764327151 210.601426225934773 0
393.887107956859268 211.62534687937702 0
482.854435844840737 228.008077334452906 0
480.010211807501207 230.624763448805311 0
476.404825418302039 234.34970628647136 0
472.728998271911905 238.133514907381738 0
469.850485359071911 241.365997464941103 0
466.471705389764907 245.073421558490281 0
463.741250313918897 248.714028326284904 0
460.555719392098581 252.582173017066708 0
456.915112624303958 256.450317707848512 0
453.388274818002856 261.342383052072591 0
450.771588703650536 266.461986319283767 0
449.74766805020829 268.623596587661837 0
450.885357665144056 226.187773950555567 0
448.634115849876935 230.932576720818446 0
447.130981935855857 235.403059831535757 0
446.099751852835823 238.98314254594024 0
445.310678551958517 242.911811290112212 0
444.189637666535077 246.882784895719965 0
441.805755966888171 251.849882003185286 0
439.689354309976352 257.23201375199551 0
437.801927093382119 263.162686435969874 0
436.891775401433449 267.030831126751707 0
435.867854747991203 272.036665432469306 0
435.18484809470965 276.715915019071645 0
434.957703056042533 280.000492737020068 0
506.518379835505925 226.187773950555567 0
505.949535028037985 230.966070333286041 0
506.202701007625421 235.648229599102137 0
506.404610874012292 240.181356214266231 0
524.380106789998308 227.325463565491418 0
525.024612524115128 231.365528001213363 0
525.745334327921341 236.19944256199085 0
527.565637711818681 238.816128676343226 0
527.110561865844375 243.139349213099365 0
525.745334327921341 245.414728442971011 0
522.323574435932414 248.034519487873979 0
516.918586169295054 251.459063136880985 0
515.392358832005357 252.80971094005389 0
529.912945703084802 240.514476972640324 0
544.843966149105881 230.314399826424477 0
547.433365773096511 228.341198092826971 0
548.571055388032391 228.341198092826971 0
528.433949203668249 244.610159586409281 0
528.162246465893645 248.53107116537177 0
526.841183742758062 253.711676505895895 0
539.014462622571386 236.873870204845673 0
538.642023409095373 240.658590856279915 0
538.331848853609927 245.520311278357951 0
537.032043458002931 251.354618291395951 0
536.05646962373828 255.987055735767569 0
535.260086893283187 260.765352118498015 0
534.354665071214072 265.456902640736701 0
533.326014547892328 270.43571384545254 0
532.014351543903445 276.016770024817504 0
530.709328433539895 281.812609994810828 0
529.571638818604015 286.022061570073333 0
527.865104396200309 291.482971721765352 0
525.95717061796995 296.488998855971943 0
567.911778841941441 229.365118746269218 0
564.268519185593505 232.235464251716877 0
559.037799845441896 235.849949551403427 0
554.94211723167291 238.694173588742984 0
550.960203579397557 241.424628664588965 0
551.870355271346284 245.747849201345105 0
556.915540683459312 248.090442433763343 0
559.524798708297226 252.31325273825405 0
560.858103229339235 255.190673005312476 0
575.306761339024206 246.089156085825863 0
569.8458511873323 250.75368350706276 0
565.295092727589008 255.304441966806053 0
560.372539833692827 259.782440061756745 0
556.876189577063883 263.268269271356871 0
551.870355271346284 266.908876039151494 0
546.734470365695188 269.989859275227616 0
543.223914197834006 272.256017229349879 0
540.37969016049442 274.303858536234372 0
537.87677300763562 275.896623997144502 0
536.62531443120622 277.261851535067535 0
575.420530300517839 227.203508477891148 0
577.013295761428026 231.526729014647287 0
578.492002572764818 235.298642864500664 0
579.971288760261132 239.718094242185231 0
582.019130067145625 245.520311278357951 0
583.953060760550443 250.284093313775941 0
585.545967873446671 254.394290274857383 0
587.48004021883753 258.945048734600732 0
589.18657464124135 263.723345117331178 0
590.210495294683597 267.3639518851258 0
592.030798678580936 272.142248267856303 0
593.509795177997489 275.100241266689409 0
595.102560638907562 279.195923880458395 0
597.036632984298535 285.680754685592603 0
598.657765069904258 291.002112621374124 0
599.994625983131641 296.147499143002221 0
601.473622482548308 298.650416295861021 0
587.138733334356857 270.43571384545254 0
584.066971374030118 275.100241266689409 0
580.527033045907729 279.352692774414777 0
576.671988876947239 283.974220263188897 0
573.258157614318065 287.95791119031702 0
569.770571082950823 291.985218998673076 0
566.432782342524888 295.464885374040705 0
565.636399612069681 297.285188757938045 0
593.509795177997489 260.310276272523708 0
597.35545540367275 260.674396203183449 0
601.342100162247107 260.99348320136744 0
606.888128641875369 260.781563388208724 0
613.305594477880845 260.196507311030132 0
599.084474291183028 264.292189924799118 0
601.473622482548308 266.567569154670764 0
603.521463789432801 268.956717346035987 0
608.299760172163246 271.573403460388363 0
613.595278654987851 275.601684930212571 0
618.652735668079231 279.992306610913488 0
619.904194244508631 282.836530648253074 0
598.288091560727935 266.681338116164284 0
598.970705329689508 270.09440696097181 0
601.132315598067521 273.052399959804916 0
603.845733974829045 277.228692699245698 0
607.0720384932564 281.804688963342073 0
609.323123224475125 286.932845386986855 0
609.209911864111859 287.04598222351558 0
594.078639985465429 292.620661336701176 0
589.300343602734984 296.488806027482951 0
586.114812680914611 299.446799026316114 0
590.665571140657903 277.261851535067535 0
588.621957380720005 285.839586749211151 0
587.77827209779025 290.115429617067491 0
589.414112564228503 291.710509644752506 0
615.694282380396544 170.510501750291638 0
620.639758840987156 170.975515844775344 0
626.179971871155431 170.477157079701897 0
630.896732788797976 170.938739789964927 0
616.122520420069804 216.974329054842428 0
619.762543757292633 218.473162193698897 0
623.402567094515575 220.400233372228627 0
627.470828471411778 222.327304550758413 0
632.823803967327649 225.324970828471351 0
637.752493615582694 227.586910679692949 0
641.470331445487318 230.048393780733306 0
645.028588098016144 233.247374562427012 0
648.882730455075716 236.24504084013995 0
649.096849474912347 235.816802800466689 0
609.270711785297408 204.127187864644043 0
612.910735122520236 206.268378063010459 0
617.62135355892633 209.266044340723397 0
621.689614935822419 211.835472578763074 0
625.937185837650304 214.167506499233298 0
629.94289781026589 216.327424056282268 0
633.895151849020067 218.508629204418384 0
637.962660443407003 220.614352392065314 0
641.210655355096151 222.74403491253193 0
644.386231038506253 224.040256709451512 0
648.240373395565712 225.539089848307981 0
653.807467911318327 227.894399066511028 0
659.374562427071055 230.892065344224022 0
588.501166861143361 242.668611435239143 0
592.355309218202819 244.595682613768872 0
596.416477104301293 245.547407845355707 0
599.849474912485221 246.522753792298658 0
433.946909332546454 284.566357388502354 0
433.518671292873137 288.6346187653985 0
432.583516648492662 292.803943671477896 0
431.591600114343407 297.413498578700683 0
430.521005015160199 300.839402896086938 0
430.306885995323569 303.837069173799932 0
429.878647955650308 307.477092511022761 0
429.024285615006022 310.93905377368236 0
428.593933836630413 314.114782125958584 0
427.523338737447261 317.9689244830181 0
427.737457757283892 321.180709780567724 0
427.737457757283892 324.178376058280662 0
427.523338737447261 328.246637435176808 0
427.737457757283892 332.743136851746272 0
428.379814816793782 338.310231367498886 0
428.165695796957152 341.307897645211824 0
427.107145275872085 345.718554614304139 0
427.095100697774001 347.517349220474387 0
427.309219717610631 351.799729617207163 0
427.54737465484817 355.737445900970101 0
428.593933836630413 361.006847470182663 0
428.379814816793782 366.788061005771965 0
427.951576777120522 373.425750620707731 0
428.165695796957152 379.206964156297033 0
428.165695796957152 385.844653771232856 0
427.737457757283892 393.552938485351888 0
427.309219717610631 398.905913981267872 0
427.309219717610631 405.971841635877013 0
426.666593814619318 414.02621107887245 0
425.586777515099186 422.271490820933707 0
424.311553439897637 430.167290877417258 0
424.097434420061006 438.946170690719441 0
524.091016683771727 301.267640935760255 0
523.020421584588462 305.764140352329662 0
522.07873625046409 311.109101434546233 0
520.24273266668456 316.440545848861063 0
519.158394807578588 320.978724881198559 0
518.952160207692373 324.82073311779061 0
603.529173043164974 305.335902312656344 0
604.385649122511495 308.975925649879287 0
605.243860454414971 311.92950454695432 0
606.098601281204537 314.543020165631901 0
606.955077360551172 318.39716252269136 0
608.239791479571068 321.608947820240985 0
609.104209825658472 326.134461809187769 0
610.38098167793737 331.672541752563063 0
611.451576777120636 336.3831601889691 0
612.308052856467157 340.665540585701933 0
612.95341963069302 346.254667612365779 0
614.235124034996943 352.013848637043793 0
615.733957173853469 356.296229033776626 0
616.16565486944944 359.769796176401087 0
617.360424111672501 365.994641030811295 0
618.303385411893032 372.14103650168795 0
619.373980511076297 377.065773957930674 0
620.444575610259449 382.204630434010028 0
621.5151707094426 385.844653771232856 0
622.157527768952605 390.127034167965689 0
623.255744017821144 394.498300933854921 0
624.726956006992282 399.762390060614393 0
626.868146205358698 403.616532417673966 0
628.228463248838239 407.29323918335092 0
630.294050522744897 412.823650270649409 0
631.150526602091531 417.106030667382242 0
632.649359740947943 421.602530083951706 0
634.148192879804355 427.383743619540951 0
635.819690612662043 433.551791332275911 0
637.574097197190667 439.374408730392759 0
638.216454256700558 441.301479908922488 0
561.775964175020249 301.481759955596885 0
558.954784354223762 305.495144647819814 0
555.940101256842581 308.597121738007274 0
555.994750639431004 309.618282709389177 0
582.331390079337552 303.194712114289985 0
578.263128702441463 306.62061643167624 0
573.338391246198853 310.474758788735699 0
568.954083731438118 313.468334142277456 0
563.274797313876661 317.112448403671578 0
562.632440254366884 318.39716252269136 0
602.672696963818453 320.110114681384516 0
599.473967688538778 324.124971528275523 0
595.870819973556422 328.196266898446311 0
593.381593281301889 330.767680781305273 0
590.467912833129958 334.456089010439371 0
586.268385491671438 338.842463999157076 0
581.987264555471597 343.404522779136528 0
578.049009682604833 347.731468240311017 0
576.978414583421682 350.515015498187324 0
613.164528935813678 316.255972324325 0
617.574340249730767 316.89541231116948 0
622.519181623465784 316.712603080855558 0
627.724622284705219 316.04185330448837 0
614.663362074670204 324.392495078117292 0
617.661028352383141 325.677209197137131 0
620.872813649932823 326.533685276483709 0
624.506601001826084 327.174344900086965 0
627.93874130454185 327.390161355830287 0
631.825778321854841 327.604315102761518 0
636.330000425799426 327.626778151628116 0
642.070596613760017 326.96192331615697 0
649.778881327879162 325.24897115746387 0
654.703618784121772 324.392495078117292 0
617.446909332546511 334.670208030276001 0
623.066808518807761 332.98896921558827 0
627.680969784831973 332.328940056185388 0
633.278171802725865 331.653542378497264 0
638.03240783058709 331.242833223168304 0
607.811553439897807 352.013848637043793 0
604.827353543926392 354.785006113303723 0
601.701918984393842 357.888837270310944 0
597.747959507575615 360.792728450346033 0
592.946629202716622 363.997968632745597 0
587.848108109529562 367.728683701709144 0
588.326722634763541 369.143370223974955 0
610.166862658100854 360.578609430509403 0
606.740958340714542 363.57627570822234 0
603.504636361154098 366.596895783393961 0
600.964149600345308 369.724160624278852 0
597.839704799518017 373.100187503235247 0
593.465579110842896 377.279892977767304 0
587.750647560983111 382.568791961314218 0
587.25612753558039 384.774058672049705 0
618.945742471403037 341.522016665048454 0
623.263280780065429 344.552678841683871 0
627.20231856535213 347.752500753371464 0
631.578764641764792 352.656205696553741 0
635.647026018660881 356.296229033776626 0
637.801478280088986 359.270445026029506 0
640.785882494740235 361.649204529692611 0
625.155194046665542 367.216299045445226 0
629.927883946618863 365.7048554437402 0
634.465845331124456 365.237147256471758 0
638.002335236863928 364.860989827242179 0
642.153966910959639 364.660904268540492 0
647.466604050910178 363.661436587165952 0
649.993000347715679 365.931584926425387 0
614.235124034996943 380.705797295153502 0
610.851554116862189 384.679985299622331 0
606.21701840314131 388.085294758151292 0
602.672696963818453 390.983510247312211 0
598.781711288074234 393.573804596487321 0
595.192430417188802 396.784893112252746 0
591.108068946279332 400.014530873031447 0
590.300314536604787 401.296549209021066 0
590.467912833129958 401.261223199470919 0
618.517504431729776 394.837652604371726 0
613.794651373490183 396.441093124994211 0
609.059036923208623 396.84364336064732 0
608.239791479571068 398.263556921757981 0
618.731623451566293 397.835318882084664 0
613.806885995323682 400.618866139961028 0
609.814377276894447 402.777930102096832 0
604.813887162184756 405.543603596203695 0
602.672696963818453 407.898912814406742 0
628.15286032437848 388.628201029109164 0
631.792883661601309 389.484677108455742 0
635.910241030083057 390.605605844038848 0
641.214120534413496 390.983510247312211 0
647.695843545694743 391.661936759280763 0
651.491833486572204 392.482343386168679 0
631.150526602091531 400.190628100287711 0
635.434805536074919 400.833891045563234 0
642.753622239379183 400.79594206240705 0
645.496500931146329 402.11769927881744 0
621.301051689606084 414.322483409505935 0
617.193377007162098 417.498221628297529 0
614.404925090136317 419.782888632598713 0
607.904070155827185 423.129334473584322 0
603.84303488595242 425.297347056816704 0
598.432512543532539 427.84809507457129 0
597.105602448065838 429.739052837743998 0
625.369313066502173 422.030768123624966 0
619.292601900225804 425.937907106702028 0
614.457373927782555 429.300411850797673 0
635.861145038497511 410.468341052446419 0
643.355310732779913 412.181293211139518 0
646.35297701049285 412.395412230976149 0
639.28704935588371 428.668457738560789 0
645.531553606067177 428.231944240959876 0
651.275581129668353 426.625753684706012 0
639.05047480574035 448.086324742555348 0
638.838639187627109 452.19817344633941 0
638.193998726393829 455.152252397164432 0
638.193998726393829 457.079323575694161 0
638.193998726393829 459.862870833570469 0
638.62223676606709 462.860537111283463 0
639.05047480574035 465.42996534932314 0
639.478712845413611 468.641750646872708 0
639.489805677829054 472.026390272087895 0
638.83885034277705 475.845939451425863 0
638.407043909780896 479.973837877748963 0
638.193998726393829 482.773605956090933 0
638.193998726393829 485.985391253640501 0
638.193998726393829 490.267771650373334 0
637.973318910226453 497.206892477132953 0
637.551641666883938 500.759603622368672 0
637.123403627210564 504.613745979428131 0
636.909284607374047 508.896126376160964 0
636.266927547864043 512.536149713383793 0
636.052808528027526 517.246768149789887 0
635.838689508190782 519.387958348156303 0
634.982213428844261 522.171505606032611 0
634.339856369334257 526.45388600276533 0
633.483380289987736 529.879790320151642 0
632.412785190804584 534.162170716884361 0
631.342190091621433 539.086908173127085 0
630.485714012274798 544.011645629369809 0
628.159039779851469 550.164318040469993 0
625.346857536195444 554.717596621201778 0
622.777429298155766 558.999977017934498 0
619.137405960932938 562.85411937499407 0
615.069144584036735 566.708261732053643 0
612.713835365833802 568.421213890746685 0
610.358526147630755 569.920047029603211 0
608.24450594001803 571.294526043771725 0
605.005550651714657 572.703594287479518 0
600.723170254981937 573.560070366826039 0
595.156075739229323 574.416546446172561 0
583.469897606746144 570.281723956987662 0
578.883030231644739 561.997643295647549 0
576.278771017270628 551.236801313178148 0
580.595982390337781 544.43988366904307 0
587.447791025110291 544.43988366904307 0
594.757189696471528 549.336711222306349 0
595.584313778902583 558.357619958424607 0
593.229004560699536 566.280023692380269 0
590.87369534249649 569.705928009766581 0
580.16774435066452 575.058903505682565 0
576.955959053114952 575.915379585029086 0
573.589022878631681 574.558044017456723 0
570.348506315417922 571.657651040593805 0
565.3824460819975 570.449564562446767 0
560.534025521355147 569.63613360146212 0
558.327604327327322 571.418880168459623 0
563.289495185658325 573.990732273845538 0
569.247674338995921 576.129498604865717 0
573.744173755565384 582.553069199964966 0
575.243006894421796 586.407211557024425 0
632.841023230477845 446.159253564025562 0
628.554355290969283 448.292720581084666 0
626.203333615542078 449.371038861575187 0
633.269261270151105 451.512229059941546 0
629.009336424684307 453.638156323230248 0
623.848024397339032 456.00872847651101 0
622.777429298155766 456.865204555857531 0
643.975212261983074 454.724014357491171 0
650.108300515080145 455.354565814094656 0
654.252925214141783 455.79460945667438 0
633.269261270151105 481.274772817234464 0
629.200999893254902 484.272439094947401 0
646.116402460349491 484.700677134620662 0
650.827020896755585 485.55715321396724 0
631.556309111457949 501.187841662041933 0
626.048852154974611 503.541837858113638 0
623.419786357665771 503.97138891991824 0
579.301601316566803 586.334407304056413 0
582.299267594279854 586.762645343729673 0
585.939290931502683 586.976764363566417 0
589.365195248888995 588.689716522259459 0
594.048994731111634 589.942343162844622 0
598.144075062191177 591.259144760299137 0
601.784098399414006 592.757977899155662 0
603.925288597780423 594.256811038012074 0
606.708835855656844 595.54152515703197 0
608.850026054023147 597.682715355398386 0
610.464180437016694 600.226994511550856 0
612.275930371409459 603.035690851314371 0
614.203001549939245 607.31807124804709 0
615.273596649122396 610.958094585270032 0
616.772429787978808 615.882832041512756 0
617.843024887162073 621.664045577102002 0
618.688797425184021 626.106647572214115 0
619.341858026018599 631.085282449914189 0
620.834860623711506 637.280652842310474 0
623.196000383078058 641.791233441746158 0
625.333355967663692 648.610119366159438 0
626.836023720301 653.781898552598022 0
628.120737839320782 660.205469147697272 0
629.191332938503933 664.701968564266622 0
631.54664215670698 668.127872881652934 0
634.275284927760481 672.737694880929325 0
636.685498632786334 677.549109754465007 0
639.58059141540582 684.404822143277897 0
642.466712168375693 689.539774865316872 0
645.976697481994279 694.779794825960721 0
648.890282763474829 699.81748781747558 0
652.287395364735517 704.765580473410637 0
657.240924537103865 707.739891551431356 0
662.091036534100908 711.525086586423981 0
667.090399449589313 715.662295285387017 0
672.687892528826978 719.016185903885344 0
678.010469461257799 721.871746860649523 0
421.488331388564347 448.43698949825 0
420.631855309217826 454.004084014002615 0
419.347141190197931 458.286464410735448 0
418.062427071178149 463.853558926488063 0
415.989493008074589 469.471751015956272 0
414.636522753791837 474.559509918320032 0
412.923570595098795 478.413652275379491 0
411.210618436405639 482.267794632439063 0
409.069428238039222 488.263127187864939 0
407.784714119019441 492.117269544924454 0
405.913338918780539 497.248116633812685 0
403.930571761959868 502.394982497083106 0
401.789381563593565 507.1056009334892 0
397.935239206533993 513.100933488915075 0
395.365810968494316 517.811551925321169 0
393.224620770127899 521.665694282380628 0
390.226954492414961 528.089264877479877 0
388.514002333721919 533.656359393232492 0
386.901869502437421 539.380037032351311 0
385.516336056008981 543.077596266044566 0
384.659859976662347 546.931738623104138 0
383.375145857642565 551.214119019836971 0
382.51866977829593 555.496499416569691 0
380.377479579929627 562.348308051342201 0
380.377479579929627 566.630688448075034 0
381.162988527570121 570.417257661604822 0
381.218243319577653 574.13933089527734 0
382.946907817969304 578.621353558926785 0
384.659859976662347 582.475495915986357 0
386.372812135355503 586.329638273045816 0
388.085764294048658 591.468494749125171 0
389.798716452741701 596.179113185531151 0
390.543264418214676 600.665421136720965 0
391.939906651108117 604.743873978996817 0
394.509334889147794 607.741540256709754 0
397.507001166860732 610.739206534422692 0
400.93290548424693 612.452158693115734 0
403.074095682613347 614.593348891482265 0
407.35647607934618 616.306301050175307 0
409.497666277712597 618.019253208868463 0
412.923570595098795 620.160443407234879 0
415.921236872811733 623.158109684947703 0
418.640838912934328 625.419349052467396 0
421.916569428237608 627.012252042007276 0
644.168688305527894 367.869815395845819 0
537.87677300763562 235.16733578244191 0
477.583878272057177 177.066120615059589 0
496.923852668673817 144.872812135355929 0
517.24333664425842 142.284886989368715 0
521.739836060827884 142.499006009205345 0
537.952065303781524 150.275597447683566 0
597.101534021864381 170.922201605788473 0
581.284286673457245 154.596750720077154 0
589.4187674202484 196.008652703741006 0
527.29229389559714 74.3790840140023448 1
512.28387699913651 144.06168867014884 0
508.130001947662549 96.691665879975119 0
564.411071963601444 200.846999876726784 0
591.652138515763454 194.513630455586735 0
580.995209413703378 242.619202760271605 0
589.698534967962473 265.543648501228517 0
598.219964847427946 262.483293063991255 0
611.879814816793896 338.524350387335517 0
616.763039490560914 362.882218603606191 0
622.706635893386874 392.312667550910305 0
620.88662422477546 394.667976769113352 0
633.398776310376206 424.493136851746328 0
643.16132760824371 366.265359832193155 0
638.944556996683787 450.142249094447379 0
638.193998726393829 484.379498604865717 0
0 1 0
0 864 1
1 2 2
2 3 3
3 4 4
4 5 5
5 6 6
6 7 7
7 21 8
8 9 9
8 864 10
9 10 11
10 11 12
11 12 13
12 13 14
13 14 15
14 15 16
15 16 17
16 17 18
17 18 19
18 19 20
19 20 21
21 22 22
22 23 23
23 24 24
24 25 25
25 26 26
26 27 27
27 28 28
29 30 29
29 864 30
30 31 31
31 32 32
32 33 33
33 34 34
34 35 35
35 36 36
35 143 37
36 37 38
37 38 39
38 39 40
39 40 41
40 41 42
41 42 43
41 142 44
42 43 45
43 44 46
44 45 47
46 47 48
46 864 49
47 48 50
48 49 51
49 50 52
50 51 53
51 52 54
52 53 55
52 134 56
53 54 57
54 55 58
55 56 59
56 57 60
57 58 61
58 59 62
59 60 63
60 857 64
62 63 65
62 864 66
63 64 67
64 65 68
65 66 69
66 67 70
67 68 71
68 69 72
69 70 73
70 71 74
70 79 75
71 72 76
72 73 77
73 74 78
74 75 79
75 76 80
76 202 81
76 858 82
76 865 83
77 78 84
77 185 85
77 865 86
78 161 87
79 80 88
80 81 89
81 82 90
82 83 91
83 84 92
84 85 93
84 227 94
85 860 95
86 87 96
86 864 97
87 88 98
88 89 99
89 90 100
90 91 101
91 92 102
92 93 103
93 94 104
94 95 105
94 103 106
95 96 107
96 97 108
97 98 109
98 99 110
99 100 111
100 101 112
100 117 113
101 102 114
102 860 115
103 104 116
104 105 117
105 106 118
106 107 119
107 108 120
108 109 121
109 110 122
110 111 123
111 112 124
112 113 125
112 123 126
112 124 127
113 114 128
114 115 129
115 116 130
116 862 131
117 118 132
118 119 133
119 120 134
120 121 135
121 122 136
122 123 137
124 125 138
125 126 139
126 127 140
127 128 141
128 129 142
129 130 143
130 131 144
131 132 145
132 133 146
134 135 147
135 136 148
135 144 149
135 866 150
136 137 151
137 138 152
138 139 153
139 140 154
140 141 155
141 142 156
143 144 157
61 146 158
61 857 159
146 147 160
147 148 161
148 149 162
149 150 163
150 151 164
151 856 165
152 153 166
152 856 167
153 154 168
154 155 169
155 156 170
156 157 171
157 158 172
158 159 173
159 160 174
160 370 175
161 162 176
162 163 177
163 164 178
164 165 179
165 166 180
166 167 181
167 168 182
168 169 183
169 170 184
169 176 185
170 171 186
171 172 187
172 173 188
173 174 189
174 175 190
174 274 191
174 275 192
175 383 193
176 177 194
177 178 195
178 179 196
179 180 197
180 181 198
181 182 199
182 183 200
183 184 201
184 358 202
185 186 203
186 187 204
187 188 205
188 189 206
189 190 207
190 191 208
191 192 209
192 193 210
193 856 211
194 195 212
194 856 213
195 196 214
196 197 215
197 198 216
198 199 217
199 200 218
200 201 219
201 346 220
202 203 221
203 204 222
204 857 223
205 206 224
205 857 225
206 207 226
207 208 227
209 210 228
209 860 229
210 211 230
211 212 231
212 213 232
213 214 233
214 215 234
215 216 235
216 217 236
217 218 237
218 219 238
219 220 239
220 221 240
221 222 241
222 223 242
223 224 243
224 225 244
224 271 245
224 272 246
225 226 247
226 387 248
227 228 249
228 229 250
228 859 251
229 230 252
230 231 253
231 232 254
232 233 255
234 235 256
234 860 257
235 236 258
236 237 259
237 238 260
237 339 261
238 239 262
239 240 263
239 278 264
240 241 265
241 242 266
242 243 267
242 293 268
242 308 269
243 244 270
244 336 271
244 867 272
245 246 273
245 264 274
245 867 275
246 247 276
247 248 277
247 331 278
247 332 279
248 249 280
249 416 281
249 436 282
250 251 283
250 860 284
251 252 285
252 253 286
252 304 287
253 254 288
254 255 289
255 256 290
256 257 291
257 258 292
258 259 293
259 260 294
260 261 295
260 268 296
260 269 297
261 262 298
262 263 299
263 855 300
264 265 301
265 266 302
266 267 303
267 268 304
269 270 305
270 271 306
272 273 307
273 274 308
275 276 309
276 277 310
278 279 311
279 280 312
279 309 313
280 281 314
281 282 315
282 861 316
283 284 317
283 861 318
284 285 319
285 487 320
286 287 321
286 862 322
287 288 323
288 289 324
289 861 325
290 291 326
290 861 327
291 292 328
293 294 329
294 295 330
295 296 331
296 863 332
297 298 333
297 314 334
297 315 335
297 868 336
298 299 337
299 300 338
300 301 339
301 302 340
302 303 341
303 317 342
303 501 343
304 305 344
305 306 345
306 307 346
307 308 347
309 310 348
310 311 349
310 324 350
311 312 351
312 313 352
313 314 353
315 316 354
316 317 355
318 319 356
318 863 357
319 320 358
320 321 359
321 322 360
322 323 361
323 491 362
324 325 363
325 326 364
326 863 365
327 328 366
327 863 367
328 329 368
329 330 369
330 331 370
332 333 371
333 334 372
334 335 373
335 399 374
336 337 375
337 338 376
339 340 377
340 341 378
341 342 379
342 862 380
343 344 381
343 862 382
344 345 383
346 347 384
347 348 385
348 349 386
349 350 387
350 351 388
351 352 389
352 353 390
353 354 391
354 355 392
355 356 393
356 357 394
358 359 395
359 360 396
360 361 397
361 362 398
362 363 399
363 364 400
364 365 401
365 366 402
366 367 403
367 368 404
368 369 405
370 371 406
371 372 407
372 373 408
373 374 409
374 375 410
375 376 411
376 377 412
377 378 413
378 379 414
379 380 415
380 381 416
381 382 417
382 518 418
383 384 419
384 385 420
385 386 421
387 388 422
388 389 423
389 390 424
390 391 425
391 392 426
391 396 427
391 400 428
392 393 429
393 394 430
394 395 431
396 855 432
397 398 433
397 855 434
398 399 435
400 401 436
401 402 437
403 404 438
403 855 439
404 405 440
405 406 441
406 407 442
407 408 443
408 409 444
409 410 445
410 411 446
411 412 447
412 413 448
413 414 449
414 415 450
415 550 451
416 417 452
417 418 453
418 419 454
419 420 455
420 421 456
421 422 457
422 423 458
423 424 459
425 426 460
425 439 461
426 427 462
427 428 463
428 429 464
429 430 465
430 431 466
431 432 467
432 433 468
433 434 469
434 435 470
436 437 471
437 438 472
438 439 473
439 869 474
440 441 475
440 514 476
440 869 477
441 442 478
442 443 479
443 444 480
444 461 481
444 870 482
445 446 483
445 453 484
445 870 485
446 447 486
447 448 487
447 483 488
448 449 489
449 450 490
450 451 491
450 480 492
451 452 493
452 556 494
453 454 495
454 455 496
455 456 497
456 457 498
457 458 499
458 459 500
459 460 501
460 587 502
461 462 503
462 463 504
462 871 505
463 464 506
464 465 507
466 467 508
466 473 509
466 871 510
467 468 511
468 469 512
469 470 513
470 471 514
471 472 515
473 474 516
474 475 517
475 476 518
476 477 519
477 478 520
478 479 521
480 481 522
481 482 523
482 591 524
483 484 525
484 485 526
485 486 527
487 488 528
488 489 529
489 490 530
491 492 531
492 493 532
493 494 533
494 495 534
495 496 535
496 497 536
497 498 537
498 499 538
499 500 539
501 502 540
502 503 541
503 504 542
504 505 543
505 506 544
506 507 545
507 508 546
508 509 547
509 510 548
510 511 549
511 512 550
512 513 551
514 515 552
515 516 553
516 517 554
518 519 555
519 520 556
520 521 557
521 522 558
522 523 559
523 524 560
524 525 561
525 526 562
526 527 563
527 528 564
528 529 565
529 530 566
530 531 567
531 532 568
532 533 569
533 534 570
534 535 571
535 536 572
536 537 573
537 538 574
538 539 575
539 540 576
540 541 577
541 542 578
542 543 579
543 544 580
544 545 581
545 546 582
546 547 583
547 548 584
548 549 585
549 810 586
550 551 587
551 552 588
552 553 589
553 554 590
554 555 591
556 557 592
557 558 593
558 559 594
559 560 595
560 561 596
560 597 597
560 606 598
561 562 599
562 563 600
562 610 601
563 564 602
564 620 603
564 872 604
565 566 605
565 640 606
565 872 607
566 567 608
567 568 609
567 625 610
568 569 611
569 632 612
569 873 613
570 571 614
570 647 615
570 873 616
571 572 617
572 573 618
572 654 619
573 574 620
574 575 621
575 672 622
575 874 623
576 577 624
576 874 625
576 875 626
577 578 627
578 579 628
578 678 629
579 580 630
580 581 631
580 682 632
580 692 633
581 582 634
582 689 635
582 876 636
583 584 637
583 695 638
583 876 639
584 585 640
585 586 641
586 698 642
587 588 643
588 589 644
589 590 645
591 592 646
592 593 647
593 594 648
594 595 649
595 596 650
597 598 651
598 599 652
599 600 653
600 601 654
601 602 655
602 603 656
603 604 657
604 605 658
606 607 659
607 608 660
608 609 661
610 611 662
611 612 663
612 613 664
613 614 665
614 615 666
615 616 667
616 617 668
617 618 669
617 624 670
618 619 671
620 621 672
621 622 673
622 623 674
623 624 675
625 626 676
626 627 677
627 628 678
628 629 679
629 630 680
630 631 681
632 633 682
633 634 683
634 635 684
635 636 685
636 637 686
637 638 687
638 639 688
640 641 689
641 642 690
642 643 691
643 644 692
644 645 693
645 646 694
646 651 695
647 648 696
648 649 697
649 650 698
650 651 699
651 652 700
651 877 701
652 653 702
654 655 703
655 656 704
656 657 705
657 658 706
658 659 707
659 660 708
660 661 709
661 662 710
663 664 711
663 667 712
663 875 713
664 665 714
665 666 715
667 668 716
668 669 717
669 670 718
670 671 719
672 673 720
673 674 721
674 675 722
675 676 723
676 677 724
678 679 725
679 680 726
680 681 727
682 683 728
683 684 729
684 685 730
685 686 731
686 687 732
687 688 733
689 690 734
690 691 735
692 693 736
693 694 737
695 696 738
696 697 739
698 756 740
698 878 741
699 700 742
699 759 743
699 763 744
699 878 745
700 701 746
701 702 747
702 703 748
703 704 749
704 705 750
705 706 751
706 707 752
707 708 753
708 709 754
709 766 755
709 879 756
710 711 757
710 768 758
710 879 759
711 712 760
712 713 761
713 714 762
713 770 763
714 715 764
715 716 765
716 717 766
717 718 767
718 719 768
719 720 769
720 721 770
721 722 771
722 723 772
723 724 773
724 725 774
725 726 775
726 727 776
727 728 777
728 729 778
729 730 779
730 731 780
731 732 781
732 733 782
733 734 783
734 735 784
735 744 785
736 737 786
736 745 787
737 738 788
738 739 789
739 740 790
740 741 791
741 742 792
742 743 793
743 744 794
745 746 795
746 747 796
747 748 797
748 749 798
749 750 799
750 751 800
751 752 801
752 753 802
753 754 803
754 755 804
755 773 805
756 757 806
757 758 807
759 760 808
760 761 809
761 762 810
763 764 811
764 765 812
766 767 813
768 769 814
770 771 815
771 772 816
773 774 817
774 775 818
775 776 819
776 777 820
777 778 821
778 779 822
779 780 823
780 781 824
781 782 825
782 783 826
783 784 827
784 785 828
785 786 829
786 787 830
787 788 831
788 789 832
789 790 833
790 791 834
791 792 835
792 793 836
793 794 837
794 795 838
795 796 839
796 797 840
797 798 841
798 799 842
799 800 843
800 801 844
801 802 845
802 803 846
803 804 847
804 805 848
805 806 849
806 807 850
807 808 851
808 809 852
810 811 853
811 812 854
812 813 855
813 814 856
814 815 857
815 816 858
816 817 859
817 818 860
818 819 861
819 820 862
820 821 863
821 822 864
822 823 865
823 824 866
824 825 867
825 826 868
826 827 869
827 828 870
828 829 871
829 830 872
830 831 873
831 832 874
832 833 875
833 834 876
834 835 877
835 836 878
836 837 879
837 838 880
838 839 881
839 840 882
840 841 883
841 842 884
842 843 885
843 844 886
844 845 887
845 846 888
846 847 889
847 848 890
848 849 891
849 850 892
850 851 893
851 852 894
852 853 895
858 859 896
863 868 897
866 145 898
877 854 899
