ply
format ascii 1.0
element vertex 312
property double x
property double y
property double z
property int og_index
property int root
element edge 332
property int vertex1
property int vertex2
property int name
property double len
end_header
0 0 0 1 1
1 4 0 2 0
5 29 0 8 0
6 33 0 9 0
2 36 0 10 0
-1.572598917981054 51.2850058343057071 0 13 0
-3.59418584913623818 56.6759043173862267 0 14 0
-6.28963509067654059 61.6624854142356753 0 15 0
-9.2546292563707766 65.8404317386230957 0 16 0
-11.6805335737570317 69.4792882147024216 0 17 0
-14.5107552773743009 73.1181446907817758 0 18 0
-31.3573130370008926 107.080805134188992 0 26 0
-31.8964028853089872 110.854434072345356 0 27 0
8.13101835156385278 36.325262543757276 0 28 0
28.6164325872697987 66.1099766627771146 0 36 0
31.850971677118082 68.8054259043173602 0 37 0
35.0630686298554792 70.9616895083771908 0 38 0
62.4443205686000056 80.1263127187864512 0 43 0
62.1747756444459583 80.5306301050174795 0 44 0
-34.0549172587473095 114.748004138220494 0 45 0
-41.332630210906018 130.651154663308034 0 46 0
-43.2194446799841785 134.963873449772422 0 47 0
-44.577388785940343 138.88506420282053 0 48 0
-45.9148939215244241 141.837269015700087 0 49 0
-8.44814946411486289 72.8337684322694798 0 50 0
-5.48315529842057003 84.2894277088155803 0 52 0
-6.02224514672866462 90.2194160402041234 0 53 0
-6.15701760880563143 95.4755420612076477 0 54 0
-5.75270022257461733 102.888027475443351 0 56 0
-6.02224514672866462 107.4702911860618 0 57 0
-6.15133298506566462 112.484089868592804 0 58 0
-6.02224514672866462 116.904363531452702 0 59 0
-6.57410279680556187 121.792960752013144 0 60 0
-7.50474222957575421 126.877525725151656 0 61 0
-9.12201177449992429 132.672741594463218 0 62 0
-8.98723931242290064 136.311598070542573 0 63 0
-7.92027818923031646 149.509538561391423 0 67 0
-7.65073326507626916 154.226574734086796 0 68 0
-7.78550687648493067 158.480401502374889 0 69 0
0.705159383698401143 60.6944860526410963 0 71 0
41.1643131566671627 108.25782698560684 0 84 0
43.9671197104189559 127.002537394530549 0 85 0
41.406442930955734 132.393435877611012 0 86 0
36.9589516824144084 137.649561898614422 0 87 0
33.0505502821810637 141.557963298847767 0 88 0
30.6246459647948654 142.097053147155805 0 89 0
25.6380648679454453 142.770915457540866 0 90 0
22.1339808539431715 143.444777767925927 0 91 0
18.8994417640948882 144.253412540387956 0 92 0
12.9694534327064162 146.409771933620164 0 93 0
6.76992017716389682 148.296586402698324 0 94 0
5.01787817016275994 149.105221175160381 0 95 0
29.0073764198707522 71.4762830188019791 0 96 0
48.1578357740532397 98.9311238871992202 0 103 0
49.9924088838889134 103.397676942736467 0 104 0
50.2739403912852367 108.246950914141749 0 105 0
51.9186949729626122 112.042794103982317 0 106 0
52.9968746695786876 116.220740428369666 0 107 0
53.2664195937327349 121.207321525219072 0 108 0
53.5359645178867822 126.193902622068492 0 109 0
53.4011920558097017 131.854346029302974 0 110 0
53.5359645178867822 137.649561898614422 0 111 0
54.0587004978236791 142.986621337537883 0 112 0
53.5359645178867822 154.091802272009772 0 114 0
53.2664195937327349 160.021790603398273 0 115 0
53.2664195937327349 162.71723984493849 0 116 0
59.7354977734291879 129.158896787762728 0 118 0
52.9968746695786876 101.260997137821434 0 132 0
71.8650193603602929 111.503704255674279 0 136 0
76.1777381468245949 113.120973800598406 0 137 0
79.2775047745958545 115.142560731753576 0 138 0
81.1643192436740719 116.625057814600694 0 139 0
57.983455766428051 115.546878117984605 0 140 0
71.4607019741292788 115.007788269676567 0 143 0
79.0079598504418072 112.716656414367378 0 144 0
82.2424989402901474 112.851428876444388 0 145 0
59.8581009355207243 121.728854623026095 0 146 0
86.0039585784608107 138.171094996421459 0 153 0
91.260084599464335 140.866544237961676 0 154 0
55.1410647628252946 171.594665591520197 0 166 0
55.4106096869793419 177.92897130913974 0 167 0
55.814927073210356 183.993732102605236 0 168 0
39.3726866998150058 142.483813782885818 0 173 0
49.8849387418218839 153.669928135277729 0 176 0
59.0494661630585824 160.947641087436352 0 177 0
62.4714053194353482 169.612909650572959 0 179 0
64.973476795795591 173.588602440110918 0 180 0
66.8662689635252718 177.659426384985693 0 181 0
70.8556409532641283 186.848882053103921 0 183 0
72.4647388184059764 191.449136876099573 0 184 0
73.4701196052988053 196.662343537844265 0 185 0
74.5482993019148807 200.57074493807761 0 186 0
57.7017415422885733 176.716019150446641 0 187 0
71.8528500603746352 200.031655089769572 0 193 0
14.7093261397219521 114.585914132944509 0 194 0
16.7501084371876914 120.317712885408397 0 195 0
18.4811183354969444 127.913292145505409 0 196 0
19.5611347744943487 141.001316700038672 0 199 0
18.3481826158012495 150.300616583352451 0 200 0
19.0095805291493321 156.090832648381053 0 201 0
19.156829291766428 162.016631337583647 0 202 0
19.2901431040745024 168.35768692387677 0 203 0
19.0220449261863109 173.481480060598358 0 204 0
18.409808953784534 178.297162334212231 0 205 0
17.2700029191851741 182.780779943912137 0 206 0
16.86568553295416 115.52932136748359 0 213 0
19.6278542100013738 119.810236895893112 0 214 0
21.8975189067973588 126.02296908694251 0 215 0
23.7390810988816838 131.836789278801916 0 216 0
25.2215781817288303 139.923137003422596 0 218 0
25.8954404921138917 149.35720934881337 0 219 0
27.6474824991150285 157.174012149280031 0 220 0
27.9160821127337613 164.225517398713009 0 221 0
27.6474824991150285 170.112168508673108 0 222 0
26.3556348444922151 193.628207965840289 0 227 0
26.0101776162757119 196.581669369410974 0 228 0
7.56638564964038096 153.130838286969691 0 229 0
10.1810387120635255 157.930502963551731 0 230 0
20.2349970848794101 181.972145171450052 0 234 0
23.8738535609587075 193.158259523841991 0 237 0
10.3966073532575933 153.265610749046687 0 238 0
15.1136435259529662 159.330371542512182 0 240 0
31.4211114372713496 165.799449722208749 0 241 0
41.0130641506526104 172.449860598619807 0 243 0
44.4940402587413928 175.503066991753542 0 244 0
-8.60630979960097875 164.85604248766964 0 245 0
-7.79767502713889371 171.190348205289183 0 246 0
-6.84915484269947683 178.024606559901997 0 247 0
-6.31517794429174728 185.476229185452354 0 248 0
-5.50654317182971909 189.654175509839718 0 249 0
-4.41879161555402789 194.279394584354947 0 250 0
-3.62319777341633653 197.700700536656768 0 251 0
-2.81109393028947352 199.088247855230463 0 252 0
0.423445159558809792 200.166427551846567 0 263 0
11.7443319740277161 125.232938637028383 0 264 0
-0.2504171508262516 147.066077493504167 0 268 0
-0.789506999134289345 154.748107831893833 0 269 0
-72.4346557759627672 212.948074679113233 0 287 0
-73.3518086347725671 216.005250875145919 0 288 0
-74.8803967327888813 220.896732788798204 0 289 0
-76.1032672112019668 225.78821470245046 0 290 0
-76.4089848308051955 232.819719953325603 0 291 0
-75.7938671744815906 238.664505248698362 0 292 0
-77.3261376896149955 299.77187864644111 0 303 0
-79.1604434072346521 319.032088681446908 0 304 0
-4.84098803424723201 219.01055527415113 0 313 0
-72.1289381563594816 303.746207701283595 0 335 0
-82.2176196032672806 315.66919486581105 0 336 0
1.54900816802791041 215.393815635939376 0 347 0
6.74620770128348113 233.736872812135402 0 351 0
7.04705605188490836 237.823343131126649 0 352 0
7.66336056009328104 242.296966161026887 0 353 0
8.27393002730758553 245.513209986419326 0 354 0
8.58051341890308095 249.634189031505315 0 355 0
8.88780186793172788 253.677125941591328 0 356 0
7.96907817969656662 259.111435239206571 0 357 0
6.1347724620769668 264.614352392065371 0 358 0
3.38331388564751023 272.86872812135357 0 360 0
1.24329054842468167 277.760210035005912 0 361 0
-1.92279747246499255 282.441361545708958 0 362 0
74.9212368728120737 209.279463243874034 0 451 0
75.2269544924153024 213.865227537923033 0 452 0
74.9212368728120737 217.839556592765518 0 453 0
74.0040840140022738 222.119603267211261 0 454 0
74.3094835566980692 226.401398391454308 0 455 0
74.0040840140022738 233.736872812135402 0 456 0
76.9627927929967655 272.572636748650325 0 464 0
77.9101785418747568 276.707116688471444 0 465 0
78.9845431599773065 281.050078028645601 0 466 0
79.812718786464302 289.988914819136539 0 468 0
79.812718786464302 295.491831971995339 0 469 0
80.1184364060675307 300.383313885647681 0 470 0
81.6505850137120888 321.908032111443958 0 474 0
81.9527421236871305 326.675029171528649 0 475 0
82.2584597432904729 333.400816802800477 0 476 0
82.5641773628938154 339.820886814469134 0 477 0
48.0239811267857704 378.239945439654889 0 620 0
45.4471569582755137 383.032275195686509 0 621 0
-136.026319166700318 729.736861300054784 0 699 0
-136.01414394670735 733.683862340458518 0 700 0
-5.16722543230099518 633.767663535320935 0 722 0
-5.47272037611185169 636.159941687016044 0 723 0
330.978297403850775 668.909539835613259 0 874 0
331.284015023454003 668.909539835613259 0 875 0
-100.560676779463108 864.432322053675648 0 888 0
-101.172112018669623 868.406651108518076 0 889 0
30.2724722092820002 847.414573308175818 0 899 0
28.7571393501146417 853.430771546534856 0 900 0
-78.5490081680280809 311.083430571761994 0 902 0
17.0546105045742138 245.300031160783135 0 903 0
36.3148205395800687 250.497230694038677 0 907 0
39.6777143552159828 250.497230694038677 0 908 0
89.2039687309452347 335.486728943746982 0 909 0
98.5265433631078622 335.793236363965093 0 911 0
101.432673515075976 337.015317041763296 0 912 0
87.3696630133256349 327.843788453665297 0 913 0
97.3447483034606194 328.765376214786102 0 915 0
101.126955895472747 328.760941312475097 0 916 0
86.7582277741191774 274.648922642696789 0 917 0
97.2687761970867086 276.173675721152676 0 919 0
102.34982637388589 276.483228360316389 0 920 0
85.8410749153093775 294.520567916909158 0 921 0
97.7640620798367763 301.246355548181043 0 924 0
101.432673515075976 302.469226026594129 0 925 0
8.18879953607944344 282.597580752381759 0 926 0
18.8889162221938136 289.017650764050359 0 929 0
23.1689628966395844 291.46339172087653 0 930 0
-7.7085166832904406 209.531069667200853 0 931 0
-56.623335819813235 233.682761615858965 0 942 0
-56.9290534394164638 234.599914474668765 0 943 0
-15.3514571733721255 182.016483902906799 0 944 0
-56.956882498861205 198.83066781117958 0 952 0
-59.9714195242891037 198.299311778330008 0 953 0
-12.9057162165460113 191.493730110608084 0 954 0
-38.8501904487536081 207.489289446201752 0 960 0
-43.4205032736244902 209.502852093348139 0 961 0
77.5866991860211783 188.742271534178684 0 962 0
87.0639453937224062 185.685095338145999 0 964 0
91.6497096877715194 184.156507240129656 0 965 0
82.4781810996734066 200.359541079102826 0 966 0
99.2926501778531474 207.696763949581253 0 970 0
103.266979232695576 210.75394014561391 0 971 0
81.255310621260378 207.696763949581253 0 972 0
98.6812149386465762 215.951139678869481 0 976 0
102.044108754282547 218.702598255298881 0 977 0
82.783898719276749 219.619751114108681 0 978 0
86.4525101545159487 224.20551540815768 0 979 0
91.9554273073747481 226.03982112577728 0 980 0
78.809569664434207 226.345538745380566 0 981 0
87.1789051307536056 232.832045465630557 0 983 0
92.2611449269779769 234.90563209427205 0 984 0
-0.982729052018555649 238.268525909907964 0 985 0
-17.6461951054245674 248.60540923399148 0 989 0
-19.0200686086113251 251.10866593324522 0 990 0
15.220304786954614 264.56024119578899 0 991 0
29.2800780294105607 270.06220187595784 0 994 0
32.3404914847375835 272.203181685870675 0 995 0
-81.6921806272811182 215.645422059266195 0 996 0
-86.4786864788522394 217.575895277091661 0 997 0
-89.9465563565693742 219.314033494505395 0 998 0
-84.7493568233138035 233.377043996255708 0 999 0
-89.5709938124562655 235.84093019271063 0 1000 0
-92.6980149329987739 237.65709067070145 0 1001 0
-40.1118526343550457 109.615323719073899 0 1002 0
-69.1550264966653572 117.563981828758884 0 1008 0
-74.6579436495242135 119.398287546378469 0 1009 0
-46.8376402656268738 122.455463742411155 0 1010 0
-78.8942391642188454 128.873373226916044 0 1016 0
-80.7722960415895272 129.792686612889554 0 1017 0
-14.4315725876805914 107.475300381851071 0 1018 0
-24.2145364149851048 110.22675895828047 0 1020 0
-13.8201373484740202 114.81252325232947 0 1021 0
-30.3288888070504754 120.621158024791555 0 1025 0
-15.9601606856969056 134.378450906938554 0 1026 0
-20.4153163033300871 134.640070352719505 0 1027 0
-40.3952412705486381 138.351246512990144 0 1031 0
-16.2658783053001912 140.187085679400639 0 1032 0
-32.1148343151321569 143.167922070599417 0 1035 0
-37.3603940579255891 144.467132353846381 0 1036 0
-16.8773135445067055 154.555813800754208 0 1037 0
-45.2729660045625906 167.545002507348784 0 1043 0
-46.8376402656268738 168.92454192210775 0 1044 0
-14.4315725876805914 172.593153357346949 0 1045 0
-31.8574769050667896 179.624658608222092 0 1049 0
-37.5032767403718026 179.611708612490077 0 1050 0
71.7807961404407706 176.567482412189406 0 1051 0
77.4086613258949683 179.069025578517341 0 1052 0
80.9523247285387697 182.681834804254777 0 1053 0
60.7749618347231717 141.409956157813724 0 1054 0
66.905995944415622 149.689799274583862 0 1056 0
68.7236199444080285 154.250096181150923 0 1057 0
25.6174355803474327 204.693503415689975 0 1058 0
25.6174355803474327 208.362114850929174 0 1059 0
25.9231531999506615 116.035393730742527 0 1060 0
37.8461403644781171 118.175417067965384 0 1063 0
-11.6801140112511916 202.247762458863861 0 1064 0
-19.5802918666075243 209.222757323760533 0 1066 0
-22.8041741141744296 212.754995816426799 0 1067 0
29.4350957852634565 199.833148810980845 0 1068 0
31.1165426930814419 203.043183816815144 0 1069 0
4.36625097779563021 209.157536208880458 0 1071 0
-1.79909184387855703 210.169712932664197 0 1072 0
15.3720852835132291 173.84715114470319 0 1073 0
-38.0232725018686324 123.624325141727923 0 1074 0
-52.7841812375891664 139.625468512013299 0 1075 0
-55.6884986238202373 140.542621370823099 0 1076 0
-13.0408906891645984 126.021034439667972 0 1077 0
-17.9323726028168267 128.619634206295729 0 1078 0
-22.2124192772625975 130.148222304312071 0 1079 0
-0.617592311002226779 152.052316860952999 0 1080 0
-2.20818748221370242 92.8806498208644626 0 1081 0
14.6062815959658678 110.30655413825059 0 1086 0
46.5537728445071366 116.879482959720804 0 1087 0
42.6867813206873734 117.366306356024268 0 1088 0
26.2235511408899811 124.828141069405689 0 1089 0
36.9236678270042376 128.649611314446531 0 1091 0
48.2352197523250652 134.152528467305274 0 1092 0
-6.08678906589716462 109.977190527327309 0 1093 0
-8.31337700203783925 129.775133659807437 0 1094 0
-12.5410862300984149 133.525596250700886 0 1095 0
-4.13416278803924797 153.139445797519897 0 1096 0
39.1826973066850996 135.021498888112717 0 1097 0
6.29213190990157045 151.118029731065036 0 1098 0
2.20014292958023816 150.578769018056676 0 1099 0
53.1316471316556544 118.714030976794362 0 1100 0
53.4011920558098154 123.700612073643782 0 1101 0
74.7347680873634772 204.925104090975822 0 1102 0
15.7297172884548218 117.451813509176446 0 1103 0
23.5364557022501231 163.121074368148328 0 1104 0
20.7626865583993663 122.916602991417818 0 1105 0
-7.32341493491918527 174.60747738259559 0 1106 0
82.1056009334888586 330.037922987164563 0 1107 0
0 1 1 4.12310562561766059
1 2 2 26.6612641755190403
2 3 3 4.12310562561766059
3 4 4 5
3 13 5 3.94950758951252423
4 5 6 15.7889804701587764
5 6 7 5.75748210375831615
6 7 8 5.66845990099395891
6 39 9 5.88501219998922132
7 8 10 5.12312657388661563
8 9 11 4.37336120285275776
9 10 12 4.60992747720947271
9 24 13 4.65841652949969021
10 11 14 38.0817566014589488
11 12 15 3.81194087407451399
12 19 16 4.45186165083987806
12 243 17 8.30836981884445613
12 250 18 7.70746706231707979
13 14 19 36.7853909831725403
14 15 20 4.21042631303249948
15 16 21 3.86872583210260101
15 52 22 3.90121925979976325
16 17 23 28.9278628219252738
17 18 24 0.485929022539199285
19 283 25 9.72300971371085332
20 21 26 4.70739972509723881
20 283 27 7.76712183319631944
21 22 28 4.14966855504039955
22 23 29 3.24105434155353445
22 255 30 4.21607864804166876
22 284 31 8.24012383920965874
23 137 32 76.6155420121568653
24 25 33 12.0949540002979372
25 26 34 5.95444199526312623
26 27 35 5.25785358917539991
26 290 36 4.65072049295300616
27 28 37 7.5742644410717741
28 29 38 4.59018465639324447
29 249 39 8.40932893286911032
29 297 40 2.50773009407692671
30 31 41 4.42215817498417696
30 251 42 8.01449701395729619
30 297 43 2.50773009407691294
31 32 44 4.91964730959645813
32 33 45 5.16903189387469997
33 286 46 5.60201009359296176
33 298 47 3.00832543755075665
34 35 48 3.64135140710683913
34 298 49 3.00832543755075665
34 299 50 3.52383756685696081
35 36 51 13.3914643284547417
36 37 52 4.72473117972375523
37 38 53 4.25596124288467337
37 259 54 9.23245265440309026
37 300 55 3.68077671758142078
38 125 56 6.52312793761407939
39 40 57 63.0895937605862542
40 293 58 9.23484194514312762
41 42 59 5.96815315015971848
41 293 60 9.72091636728206332
42 295 61 5.84050468644286447
42 296 62 7.05170898542958113
42 301 63 3.44263849229483876
43 44 64 5.52731426740799137
43 82 65 5.4033423003551615
43 301 66 3.44263849229487517
44 45 67 2.48508141147564432
45 46 68 5.03190634340638887
46 47 69 3.56829023350732788
46 109 70 2.87807284194405666
46 110 71 6.59132076553171586
47 48 72 3.33408657940841069
48 49 73 6.30988489936101793
48 97 74 3.31872942476915656
48 98 75 6.07227826979491692
49 50 76 6.48029948592658211
50 51 77 1.92964799627583217
51 302 78 2.38225122016157842
51 303 79 3.17977595615240904
52 53 80 33.955889723062441
53 54 81 4.82863901045224697
54 55 82 4.8574394529840097
54 67 83 3.68676216294355186
55 56 84 4.13686392763984134
56 57 85 4.31482409231904818
57 72 86 5.03190634340633292
57 292 87 6.47668918899550583
57 304 88 2.49693039057924215
58 76 89 6.61228097435250373
58 304 90 2.49693039057926258
58 305 91 2.49693039057926258
59 60 92 5.66204761398547607
59 66 93 6.87207414025613339
59 305 94 2.49693039057925636
60 61 95 5.79678277913305617
61 62 96 5.36259791139729192
61 268 97 8.1574289538912641
61 296 98 6.35036517763535979
62 63 99 11.123574594968451
63 64 100 5.9361111913896103
64 65 101 2.69544924154021714
64 83 102 7.19587170298068468
64 84 103 5.85669076712993331
65 79 104 9.4028439744683876
66 182 105 622.662750707340706
67 68 106 21.6953060118607937
68 69 107 4.60598568300653888
69 70 108 3.700725181212702
69 73 109 5.08040343823586227
69 74 110 2.85895565555581976
70 71 111 2.39955546745082149
72 73 112 13.6492160924216268
74 75 113 3.23734563188597901
76 77 114 31.4393682500459661
77 78 115 5.9069710818989174
79 80 116 6.34003812215706208
80 81 117 6.07822309814018791
80 92 118 2.5924000689883826
81 176 119 201.024055716349324
82 83 120 15.4778191874428526
84 85 121 9.36086447363102003
85 86 122 4.69749878441704816
86 87 123 4.48935070810742598
86 265 124 7.43056677165549839
87 88 125 10.0184731964924225
88 89 126 4.87355520909518436
89 90 127 5.30926682553368057
89 216 128 5.79323726311233944
90 91 129 4.05438934533193329
91 93 130 2.74882965610251473
91 219 131 7.93269389277487758
91 306 132 4.35834994468951642
92 93 133 27.6952907181038768
94 105 134 2.35369986254863228
94 291 135 4.28060044178204535
94 307 136 3.04213368067529055
95 96 137 7.79032859155892599
95 134 138 7.01550013815940599
95 307 139 3.04213368067530388
96 97 140 13.1533997410235486
98 99 141 5.82786833065886167
99 100 142 5.92762788162747611
100 101 143 6.34245682058706084
100 121 144 4.85420877419729191
100 308 145 4.51673797149770362
101 102 146 5.13080234864901197
102 103 147 4.85444421600471543
103 104 148 4.62622790905508818
103 118 149 4.1032682788092405
103 282 150 5.38798335963301245
104 280 151 30.0953641475177633
105 106 152 5.09468483439736808
106 273 153 7.34031540836908469
106 309 154 3.30716718331503579
107 108 155 6.09851264904702539
107 294 156 4.48800277204675702
107 309 157 3.30716718331502246
108 109 158 8.23086370737365591
110 111 159 8.01074635821656678
111 112 160 7.05661902296113652
112 113 161 5.89277583510781433
112 122 162 3.84219904804698009
112 308 163 4.51673797149764855
113 114 164 23.6021487283725477
114 115 165 2.9735963005944086
115 119 166 4.03529620227124575
115 271 167 8.12133596775531785
115 278 168 4.72251871602579065
116 117 169 5.46563735025185427
116 120 170 2.8334287547351904
116 302 171 2.38225122016157842
117 282 172 16.8444593601304931
118 119 173 11.7778207798516874
120 121 174 7.89248040811189622
122 123 175 11.6801052143477122
123 124 176 4.63025527850869523
125 126 177 6.38571210747105678
126 262 178 6.7805943056933371
126 310 179 3.44988325157113218
127 128 180 7.47073029105234987
127 210 181 9.39277539621578761
127 310 182 3.44988325157113218
128 129 183 4.25548183930992696
129 130 184 4.75140557471572844
129 213 185 7.62441623174287475
130 131 186 3.51259220247715209
131 132 187 1.60773138717338959
131 275 188 9.25146860708463947
132 281 189 11.1275790936431207
133 136 190 46.8694449699947455
133 281 191 10.247213725775806
134 135 192 25.161509755305822
135 289 193 4.99974005601759064
136 289 194 2.70126703955785707
137 138 195 3.19178565383264257
138 139 196 5.12476115394508458
138 237 197 8.34813043442413338
139 140 198 5.04202414894666973
140 141 199 7.03814814820067269
141 142 200 5.87706430797951018
141 240 201 8.35897212952944102
142 143 202 61.333256809932287
143 188 203 11.3774610158068583
144 184 204 563.013423041448732
144 188 205 7.97214016412176107
145 146 206 109.085993022519872
145 281 207 9.34952542859837443
146 188 208 9.74946862171460715
147 178 209 423.491503344740408
147 188 210 5.87264369967590127
148 149 211 19.3374736604112982
148 281 212 6.20491923751591834
149 150 213 4.09752967018617387
150 151 214 4.51587580215529716
150 231 215 8.04211642053218512
151 152 216 3.27368590714951635
152 153 217 4.13236756182699949
152 189 218 8.78326789159655164
153 154 219 4.0545980133475954
154 155 220 5.51142184535641366
155 156 221 5.80058399274758862
155 234 222 9.07026866538665999
156 157 223 8.72034278928836493
157 158 224 5.33912869253460798
158 159 225 5.65130894768446623
158 204 226 8.46405638892596279
159 180 227 359.33595970154812
160 161 228 4.59594358358657207
160 222 229 6.52881515337483087
160 306 230 4.35834994468951642
161 162 231 3.98607008206090452
162 163 232 4.37721017337036855
162 225 233 8.0616712811718827
163 164 234 4.29267263679287847
164 165 235 7.34182905393100604
164 228 236 4.50043278775489153
165 166 237 39.0321416050063377
166 167 238 4.24163460589904684
167 168 239 4.47387667855048754
167 198 240 9.08427971532599443
168 169 241 8.98140211373908315
169 170 242 5.50291715285879945
170 171 243 4.9010262776814244
170 201 244 6.10609789316273854
171 172 245 21.6185471790340564
172 173 246 4.77656360681657421
173 195 247 5.54157289803017683
173 311 248 3.36636608689195871
174 175 249 6.42734488087134714
174 192 250 7.25197383871047307
174 311 251 3.36636608689195338
175 186 252 521.855390355217651
176 177 253 5.44118068859734372
178 179 254 3.94701981866446117
180 181 255 2.41170518840337644
182 183 256 0.305717619603228741
184 185 257 4.02108747578416104
186 187 258 6.20410145930147738
189 190 259 19.9722997258006316
190 191 260 3.36289381563591405
192 193 261 9.33431571769783908
193 194 262 3.15262963940040519
195 196 263 10.0648796890225043
196 197 264 3.78221019212743981
198 199 265 10.6216052140776309
199 200 266 5.09047087562282474
201 202 267 13.7143324594073484
202 203 268 3.86705599516506471
204 205 269 12.5124272216455026
205 206 270 4.92954849487570179
207 208 271 54.8302551981641102
207 281 272 5.94383438137199871
208 209 273 0.966763998791252743
210 211 274 45.0641050092908273
211 212 275 3.06100844679026007
213 214 276 30.6750680274835297
214 215 277 4.99421603969656402
216 217 278 9.95837250816474651
217 218 279 4.83381999395643369
219 220 280 18.4785463285966074
220 221 281 5.01414177399816019
222 223 282 19.4122704345527595
223 224 283 4.34506376397971383
225 226 284 5.87264369967585775
226 227 285 5.80058399274758862
228 229 286 10.7237262435362393
229 230 287 5.48898195049023041
231 232 288 19.6501872578389971
232 233 289 2.85548988881371857
234 235 290 15.1049085386233273
235 236 291 3.73495984770935463
237 238 292 5.1611399043104802
238 239 293 3.87907797699557078
240 241 294 5.41469467690911355
241 242 295 3.6161720050537931
243 244 296 30.2580529753660059
244 245 297 5.80058399274763747
246 247 298 32.9092977442879899
246 283 299 8.89153057946679937
247 248 300 2.09098893738570402
249 250 301 10.1662674352754863
251 252 302 17.8159674762245679
252 283 303 8.2596944964890433
253 254 304 4.46283052688977033
253 256 305 5.81667440921284129
253 299 306 3.52383756685696081
254 255 307 20.3663075596896483
256 257 308 16.1802807627970218
257 258 309 5.40405813951975844
259 260 310 31.2968266182547552
260 261 311 2.08598526843086107
262 263 312 18.9676988527173833
263 264 313 5.64581468724572755
265 266 314 6.15878110981786708
266 267 315 5.06062652374294242
268 269 316 10.3387097756026414
269 270 317 4.90918169162575335
271 272 318 3.66861143523919964
273 274 319 12.1490228424197539
274 293 320 4.90779634979980806
275 276 321 10.5639997046162293
276 277 322 4.78227200347808523
278 279 323 3.62375336391596603
280 281 324 6.24787594538648072
284 285 325 3.04569020853846339
286 287 326 5.5388912300842934
287 288 327 4.54481915028876848
289 300 328 3.68077671758142078
289 303 329 3.17977595615237174
290 291 330 24.292774378673883
292 293 331 3.89751465224729277
294 295 332 11.3959051586778717
