ply
format ascii 1.0
element vertex 486
property double x
property double y
property double z
property int og_index
property int root
element edge 521
property int vertex1
property int vertex2
property int name
property double len
end_header
0 -5 0 3 0
0 0 0 4 1
3 4 0 5 0
4 44 0 14 0
8 49 0 15 0
10 52 0 16 0
12.3287569646138309 46.1371061843640717 0 17 0
16.4464116798371265 44.9321787615285473 0 18 0
20.3439111823053054 43.5648291740200619 0 19 0
24.6410088009153014 41.9166068786116455 0 20 0
82.6881501968192083 16.664527421236869 0 33 0
82.6881501968192083 17.1756126021003439 0 34 0
-4.53705400388093949 4.56884480746791155 0 35 0
-11.0107996281516307 41.5373395565927694 0 46 0
-7.77392681601634195 46.818553092182043 0 47 0
-5.80770376096165819 50.3360745700790204 0 48 0
0.914521258662830405 61.6400233372228854 0 52 0
-0.44837255697314049 65.8990665110852092 0 53 0
-4.94364505286353051 70.7395777606156884 0 54 0
-15.7809279828774152 80.7205367561260516 0 56 0
-22.7196299601981195 85.2427385656651921 0 57 0
-29.7477726646343967 91.793662083134322 0 58 0
-42.6980808416872719 107.296966161026887 0 61 0
-46.7867622885950709 113.089264877479621 0 62 0
-47.4682091964130564 116.496499416569463 0 63 0
20.3357581314749609 46.9889148191365393 0 64 0
52.1934010719650701 63.1732788798133242 0 73 0
52.363762798919538 67.4323220536756338 0 74 0
53.3859331606465162 72.0320886814469361 0 75 0
54.7488269762824302 82.0834305717619941 0 77 0
55.2599121571458909 87.1942823803967713 0 78 0
55.4302738841004157 92.8162193698950091 0 79 0
54.919188703236955 98.0974329054842826 0 80 0
52.7044862528285307 103.719369894982549 0 81 0
52.7044862528285307 104.400816802800506 0 82 0
1.93669162038975173 -17.407817969661636 0 83 0
2.78850025516226196 -22.8593932322054059 0 84 0
-12.2058154042314868 49.0099409286285947 0 85 0
-62.5516707514620975 106.811720340868249 0 102 0
-70.2991642957133536 109.829077451382346 0 103 0
-50.6651108518089472 121.385647607934516 0 104 0
-54.0910151691952024 132.519836639439802 0 105 0
-0.561260210035300133 70.2112018669777171 0 125 0
-21.5449241540259777 104.042007001166724 0 135 0
-30.7281932546435428 118.748025216084557 0 136 0
-32.8932322053678945 123.098599766627672 0 137 0
-34.8203033838976239 126.738623103850529 0 138 0
-37.0592621403193334 131.743288516384354 0 139 0
-38.0320886814472487 135.73162193698937 0 140 0
-44.4556592765463847 153.50350058343048 0 144 0
-45.3121353558929627 156.715285880980048 0 145 0
-46.5968494749128013 160.141190198366274 0 146 0
-22.1872812135359254 89.910151691948542 0 160 0
-24.5425904317389154 101.686697782963705 0 163 0
-26.0414235705954411 116.675029171528479 0 164 0
-34.9149135160109267 157.859719441836376 0 173 0
-36.1050175029174625 162.068261376896032 0 174 0
-37.9486603967570204 166.652607817813077 0 175 0
9.51284827396352739 108.997727333866976 0 196 0
9.66553843470450147 115.619699310291651 0 197 0
9.93057176195998181 121.171528588097885 0 198 0
9.50233372228672124 131.663360560093224 0 200 0
9.28821470245009095 146.651691948657998 0 201 0
8.44475536834875129 151.816236904602334 0 202 0
6.93290548424704411 167.207117852975387 0 203 0
7.57526254375699182 172.774212368728001 0 204 0
8.00350058343025239 177.270711785297436 0 205 0
8.43173862310351296 183.48016336055997 0 206 0
7.7893815635936221 189.689614935822533 0 207 0
8.00554756931211386 195.90113029148074 0 208 0
8.43173862310351296 201.466161026837682 0 209 0
50.3990665110848681 111.536172695449125 0 212 0
51.0414235705948158 116.889148191365109 0 213 0
51.6837806301047067 122.242123687281094 0 214 0
52.3261376896146544 127.166861143523818 0 215 0
53.3967327887978058 132.091598599766513 0 216 0
54.0390898483077535 137.872812135355787 0 217 0
54.4673278879810141 145.152858809801501 0 218 0
53.3967327887978058 154.574095682613631 0 220 0
53.3967327887978058 159.712952158692985 0 221 0
52.7071797186643494 163.890125350308352 0 222 0
52.1120186697779673 178.127187864643986 0 223 0
52.3258394077524827 183.654083677999665 0 224 0
52.3261376896146544 188.190781796966036 0 225 0
52.5402567094512847 192.901400233372101 0 226 0
52.3261376896146544 198.468494749124744 0 227 0
52.1120396995278838 203.551248317939326 0 228 0
57.2508751458573215 113.249124854142224 0 229 0
82.9451575262540928 104.470245040840041 0 235 0
85.7287047841304002 102.543173862310255 0 236 0
61.9614935822634152 86.0560093348890405 0 237 0
89.7054867373785783 82.1466395072526012 0 242 0
93.0087514585761141 81.5595099183196055 0 243 0
60.6767794632435766 67.213535589264751 0 244 0
80.8039673278876762 69.7829638273044282 0 248 0
86.7992998833136085 67.64177362893804 0 249 0
46.1166861143520919 102.114935822636994 0 250 0
38.5164114666323485 107.848824858884058 0 252 0
36.4813302217033311 111.536172695449125 0 253 0
33.6977829638270237 114.105600933488802 0 254 0
30.0577596266041382 117.31738623103837 0 255 0
26.8477698434877539 120.432723873565919 0 256 0
20.2082847141186903 124.811551925320771 0 257 0
14.2129521586928149 132.519836639439802 0 259 0
3.50700116686084584 141.726954492415302 0 260 0
-2.27421236872845611 155.430571761960209 0 263 0
-2.91656942823834697 159.927071178529644 0 264 0
-3.13206483637526389 165.00400680203245 0 265 0
-4.20128354725818554 177.056592765460806 0 267 0
-5.70011668611465439 192.259043173862182 0 268 0
-6.1283547257879718 207.461493582263586 0 272 0
31.7707117852971805 123.312718786464302 0 273 0
46.7590431738619827 131.021003500583305 0 277 0
58.9638273045504775 132.091598599766513 0 278 0
85.3230124768960536 135.893714711279415 0 283 0
88.7263710618433379 136.802217036172578 0 284 0
59.8203033838969986 119.886814469078047 0 285 0
94.8667925157853915 111.533892882521855 0 292 0
99.8605600933485675 109.394982497082708 0 293 0
-26.683780630105332 162.710618436405952 0 294 0
-18.9754959159863006 171.917736289381452 0 297 0
-14.9072345390901546 175.129521586931048 0 298 0
-61.3710618436409163 124.169194865810852 0 299 0
-73.5758459743293542 125.239789964994031 0 301 0
-75.5029171528591405 127.809218203033709 0 302 0
-42.7427071178532856 129.308051341890177 0 303 0
-48.7380396732792178 128.665694282380286 0 305 0
-33.9638273045511028 114.105600933488802 0 306 0
-42.314469078180025 115.39031505250864 0 308 0
-52.3780630105020464 111.536172695449125 0 309 0
-56.7535585185173659 112.25426485859748 0 310 0
-57.9451575262547181 113.035005834305593 0 311 0
14.2129521586928149 116.460910151691849 0 312 0
23.205950991831628 118.387981330221578 0 314 0
-52.4835025349688067 126.510047015618909 0 315 0
-26.0534233488272093 109.97937919175601 0 316 0
45.0355681321328802 116.029248398877542 0 317 0
9.2776918194140876 137.869388422214769 0 318 0
25.6569409086318956 124.042046215550727 0 319 0
27.9051906169165704 131.857390439588073 0 321 0
30.6887378747928778 136.782127895830797 0 322 0
14.2015733473716637 139.886853683462078 0 323 0
36.8981894500554404 145.239829179378063 0 327 0
40.9946594665723296 147.1768317944572 0 328 0
45.1417717137660475 148.879852516600948 0 329 0
49.4241521104988806 153.162232913333725 0 331 0
50.1735686799270866 154.661066052190222 0 332 0
56.0618417254346468 159.799922528269576 0 333 0
59.2736270229842717 164.082302925002352 0 334 0
62.9583206866996647 168.009121630797836 0 335 0
69.444280465224665 175.537670486262584 0 337 0
73.1913633123658656 179.60593186315873 0 338 0
60.3442221221674799 162.155231746472595 0 339 0
80.3643504768932644 173.824718327569457 0 344 0
85.1820284232176732 178.214158234220577 0 345 0
50.494747209682032 140.850389272726943 0 346 0
43.8570575947462089 146.310424278561271 0 348 0
37.2193679798103858 151.342221244722282 0 349 0
-8.28092373547548277 160.228160567942837 0 354 0
-13.1691440825096606 161.217373511401746 0 355 0
-17.3809820785326679 161.726993706799306 0 356 0
8.74153834153736398 160.014041548106206 0 359 0
6.51208529803489 160.960698431069943 0 360 0
-43.1563440279543897 158.607767487041542 0 361 0
-43.0937150918766179 164.785563446695363 0 362 0
-44.5481176568925434 169.420777988791883 0 363 0
-180.593163663058363 303.653163239854962 0 415 0
-183.16259190109804 300.227258922468764 0 439 0
-197.981614632995189 321.576458620879521 0 440 0
-192.414520117242546 322.432934700226042 0 471 0
-259.002917152858856 466.973745624271089 0 504 0
-259.645274212368747 472.112602100350443 0 505 0
-241.016919486581116 489.884480746791496 0 512 0
-242.515752625437585 495.879813302217372 0 513 0
-189.483141763382037 313.253064473531879 0 514 0
-166.937981864714033 754.239502524549266 0 605 0
-166.081505785367483 757.237168802262204 0 606 0
39.9977940723592269 169.064911754164228 0 607 0
13.0914323148955418 175.635770355790754 0 613 0
2.60224037878958825 177.629835126399627 0 614 0
-1.8942590377798183 180.199263364439275 0 615 0
-11.3154959105919488 185.552238860355288 0 616 0
-18.9183187332441207 189.990250619197354 0 618 0
-21.5932088627506573 192.189928475291111 0 619 0
12.4517152912750362 182.768691602478953 0 620 0
23.3439557338974737 187.199300411070993 0 622 0
26.7976896203298907 190.262857296761354 0 623 0
31.0166339857896105 193.156620276141666 0 624 0
33.649498255102344 196.258189852187229 0 625 0
15.0211435293147133 196.686427891860546 0 626 0
47.9954725841571417 207.178259863855885 0 633 0
57.8449474966425896 209.319450062222245 0 634 0
67.2618153089792941 212.131983845176876 0 636 0
70.2638506471676578 213.173592419281789 0 637 0
59.3437806354990585 175.06040688835995 0 638 0
85.894539095242294 187.265191019048416 0 645 0
91.8898716506682831 189.192262197578145 0 646 0
56.7743523974593245 182.554572582642322 0 647 0
69.4073745678210798 195.187594753004078 0 651 0
57.8449474966425896 193.260523574474291 0 652 0
66.6783195034446408 196.774948609651773 0 654 0
70.9062077066776055 198.613499070390276 0 655 0
76.8719846476094517 199.458062360270077 0 656 0
96.6004900870743199 201.397046328266612 0 660 0
98.7416802854406797 202.895879467123109 0 661 0
45.4260443461174646 157.716766281592129 0 662 0
45.6401633659541517 167.138003154404288 0 664 0
47.1389965048106205 186.408714939701838 0 665 0
31.9365460964091881 190.691095336434614 0 669 0
21.6588331442505364 190.476976316597984 0 670 0
16.5199766681711822 192.832285534801031 0 671 0
7.7410968548689425 211.67475928042532 0 672 0
7.09873979535905164 217.241853796177935 0 673 0
6.88462077552236451 222.380710272257289 0 674 0
7.09873979535905164 227.305447728499985 0 675 0
7.09873979535905164 231.587828125232818 0 676 0
7.52697783503231221 237.369041660822063 0 677 0
7.7410968548689425 242.079660097228157 0 678 0
6.88462077552236451 247.432635593144141 0 679 0
5.80812664256910693 253.137176217199453 0 680 0
4.95754959699263509 258.995062664322631 0 681 0
4.7434305771560048 266.917466398278293 0 683 0
-7.88959159320575054 213.173592419281789 0 684 0
-7.46135355353243312 221.095996153237451 0 685 0
-6.60487747418591198 226.663090668990066 0 686 0
-4.03544923614623485 246.576159513797563 0 690 0
-3.17897315679965686 250.85853991053034 0 691 0
-2.93406731926035036 256.288851869474229 0 692 0
3.24459743829953595 233.943137343435808 0 695 0
-0.181306879086719164 247.646754612980772 0 698 0
-6.17663943451259456 253.642087168406647 0 699 0
-9.67768903692802951 262.06641122682953 0 701 0
-11.5296149304286359 265.846871299095142 0 702 0
-13.0284480692851048 218.526567915197774 0 703 0
-31.6568027950727355 221.095996153237451 0 707 0
-34.6544690727856732 222.380710272257289 0 708 0
-4.24956825598286514 216.599496736668016 0 709 0
3.88695449780942681 216.599496736668016 0 711 0
13.5223103904581876 216.599496736668016 0 712 0
34.5076360088669389 215.3969844440023 0 717 0
34.5059743344488652 215.528901637484807 0 718 0
53.5625670999098702 215.957139677158096 0 719 0
53.9908051395830739 219.597163014380982 0 720 0
54.2049241594197042 223.879543411113758 0 721 0
54.8472812189296519 228.804280867356482 0 722 0
55.2755459794014428 233.83468730986931 0 723 0
55.2755192587193847 240.387288197890712 0 724 0
55.2755192586029125 245.505564414614355 0 725 0
55.4896382784395428 250.85853991053034 0 726 0
55.7037572982761731 256.853872465956215 0 727 0
55.9178763181128033 260.708014823015787 0 728 0
56.1319953379494905 263.919800120565355 0 729 0
50.1366627825235582 220.881877133400792 0 730 0
30.6518319773892927 233.08666126408923 0 735 0
29.1529988385328807 235.441970482292277 0 736 0
59.1296616156624282 227.733685768173274 0 737 0
67.9694508343351913 228.168924879085296 0 739 0
73.2615169248806524 228.161923807846563 0 740 0
-4.63035990193463931 184.986959646139866 0 741 0
50.3869953158409771 170.98510600358378 0 742 0
53.0755542590428604 209.174445740956713 0 743 0
55.7913318525245927 270.488209893119233 0 744 0
55.5772128326879056 274.770590289852009 0 745 0
55.5772128326879056 278.196494607238265 0 746 0
55.5772128326879056 284.191827162664197 0 747 0
56.005450872361223 288.902445599070234 0 748 0
55.5772128326879056 294.469540114822905 0 749 0
54.9348557731780147 299.60839659090226 0 750 0
54.5058274232894178 312.673942792722016 0 752 0
54.5066177335047541 319.093227396036468 0 753 0
54.5066177335047541 322.947369753096041 0 754 0
54.2924987136681239 327.657988189502078 0 755 0
53.4360226343215459 331.512130546561593 0 756 0
52.5795465549749679 334.938034863947848 0 757 0
52.1513085153017073 339.648653300353942 0 758 0
53.9571726810895598 348.647301133340363 0 760 0
54.5066177335047541 352.709913510388958 0 761 0
54.2924987136681239 357.634650966631682 0 762 0
53.0077845946482284 363.844102541894244 0 763 0
46.7983330193857228 384.399528446211662 0 768 0
48.2971661582421916 388.253670803271234 0 769 0
51.5089514557918164 391.465456100820802 0 770 0
55.7913318525245927 395.105479438043687 0 771 0
59.9721109690712524 399.272448645619022 0 772 0
63.0713785269703067 403.456121211672667 0 773 0
66.2831638245199315 405.597311410039083 0 774 0
4.18864807189436306 275.841185389035218 0 775 0
4.95451287946764296 282.09025605138487 0 776 0
6.75807630993404018 288.260088539560343 0 777 0
7.61455238928056133 294.041302075149588 0 778 0
10.8263376868301862 307.959038364531239 0 781 0
12.325170825686655 314.810846999303692 0 782 0
13.1803789513045899 320.521611494155593 0 783 0
13.8240039645431807 325.730917010972348 0 784 0
14.038122984379811 330.013297407705124 0 785 0
14.038122984379811 334.295677804437901 0 786 0
15.3228371033995927 357.206412926958421 0 791 0
15.3228371033995927 361.488793323691198 0 792 0
14.4663610240530716 366.413530779933922 0 793 0
13.6073607702789445 370.333489567845277 0 794 0
12.325170825686655 374.550053533726214 0 795 0
10.1839806273202385 378.404195890785786 0 796 0
-2.02080350336825632 387.397194723924656 0 797 0
-5.01846978108119401 389.966622961964333 0 798 0
-8.65849311830402257 391.893694140494063 0 799 0
-14.0714691912181706 393.103688192637435 0 800 0
-20.6491582291558871 392.750170219840641 0 801 0
-51.054059045958752 394.46312237853374 0 807 0
-52.5528921848152777 396.818431596736787 0 808 0
-48.4846308079190749 398.959621795103203 0 809 0
-3.50877916870126683 273.199434105146679 0 814 0
-3.063169276987594 276.743714979754202 0 815 0
-2.2349225232048866 282.05063696429778 0 816 0
-1.79175294019483999 287.624726721733623 0 817 0
-1.5925654636949389 292.542468936293119 0 818 0
2.68983552184090513 333.494377483610663 0 825 0
2.90393395287446765 337.935701141660843 0 826 0
3.54629101238441535 343.716914677250088 0 827 0
3.97452905205773277 367.2700068592805 0 832 0
4.40276709173099334 371.124149216340015 0 833 0
5.0451241512408842 374.550053533726214 0 834 0
6.32983827026077961 375.192410593236161 0 835 0
6.97219532977067047 388.896027862781125 0 836 0
21.3181696588255818 373.051220394869802 0 841 0
48.7254041979154522 238.156237897786582 0 847 0
38.6448069398891789 243.744370532594019 0 849 0
36.9488581069002748 245.436284572232353 0 850 0
63.0713785269703067 252.716331246678124 0 851 0
68.3295761734307803 254.640257247706813 0 852 0
73.1349724592923849 256.142235564064322 0 853 0
60.930188328603947 263.636401258346723 0 854 0
76.5059922775556629 271.551333654281223 0 858 0
80.629138153574786 273.271757150995541 0 859 0
12.1110518058500247 239.012713977133103 0 860 0
28.1699782935980352 252.502212226841493 0 864 0
32.4523586903308114 255.928116544227692 0 865 0
36.5206200672270143 258.283425762430738 0 866 0
47.4406900788956136 265.777591456713139 0 869 0
49.3677612574253999 267.062305575732978 0 870 0
60.7160693087673167 272.84351911132228 0 871 0
71.1175761651766152 279.813190421058835 0 874 0
75.0620436378221711 282.26475598413441 0 875 0
62.6431404872970461 292.970706975966436 0 876 0
84.1849786594747798 301.288916625439413 0 881 0
88.5515418875305045 301.749586789268676 0 882 0
49.7959992970986605 291.471873837109911 0 883 0
40.0042704762502126 296.666400743981228 0 885 0
38.4476912457567437 298.537801491719051 0 886 0
59.6454742095841084 284.191827162664197 0 887 0
62.8572595071336764 282.692994023807728 0 888 0
63.4996165666436241 284.620065202337457 0 889 0
9.96986160748360817 282.05063696429778 0 890 0
23.0311218175186241 285.904779321357296 0 893 0
27.955859273761348 288.045969519723712 0 894 0
-8.65849311830402257 279.481208726258103 0 895 0
-13.7973495943833768 291.471873837109911 0 898 0
-15.2961827332399025 295.968373253679374 0 899 0
-5.44670782075445459 288.474207559396973 0 900 0
-9.98776420641263485 294.976733951548056 0 902 0
-11.4420403761803868 299.394277571065629 0 903 0
-2.2349225232048866 339.862772320190572 0 904 0
-11.5388905656755583 359.705681148884594 0 909 0
-11.2279213563436997 359.775841164998099 0 910 0
10.6122186669935559 330.869773487051702 0 911 0
5.90160023058746219 337.721582121824156 0 913 0
11.4686947463401339 361.917031363364458 0 914 0
7.18631434960730076 366.841768819607182 0 915 0
-1.80668448353156919 372.194744315523167 0 916 0
-15.5103017530765328 389.110146882617755 0 922 0
20.0334555398056864 311.384942681917437 0 923 0
48.7254041979154522 325.516797991135718 0 931 0
62.2149024476237855 318.879108376199838 0 932 0
86.1962326693274576 316.952037197670109 0 937 0
88.7656609073671348 317.808513277016687 0 938 0
61.1443073484405772 329.156821328358546 0 939 0
99.4722217727854741 342.64632177872636 0 947 0
101.18456405789226 344.573390756596609 0 948 0
46.5842139995490925 336.222748982967687 0 949 0
32.8017134588289991 340.498615863195823 0 952 0
31.38176359114766 341.789843498720302 0 953 0
60.073712249257369 353.994627629408797 0 954 0
93.8226234155308703 354.886923714434374 0 961 0
97.3304217008327441 355.921698807938583 0 962 0
60.073712249257369 361.917031363364458 0 963 0
72.492615399782494 372.194744315523167 0 967 0
74.20556755847565 376.90536275192926 0 968 0
66.7114018641932489 399.816097874449724 0 969 0
75.7763525707683243 396.895092862378249 0 971 0
80.8432571734114731 395.961955517390265 0 972 0
9.32750454797371731 254.215164385534592 0 973 0
17.8922653414392698 259.568139881450577 0 975 0
21.9605267183354727 261.923449099653624 0 976 0
12.1110518058500247 248.862188889618551 0 977 0
23.8875978968652589 254.85752144504454 0 980 0
47.0124520392223531 270.702328912955863 0 981 0
34.5889372124610759 271.130637918156197 0 983 0
32.2382396704941812 271.772924012139072 0 984 0
47.4406900788956136 278.196494607238265 0 985 0
31.7249843937122478 278.248077279857398 0 988 0
28.5982163332712958 278.838851666748155 0 989 0
14.6798758592178729 382.643125339862763 0 990 0
16.0716494881560266 385.747851127494073 0 991 0
5.21476179375349602 383.352998241279579 0 992 0
-58.5875145857641542 397.813302217036096 0 993 0
-93.7030338389730559 420.295799299883242 0 1002 0
-93.9171528588096862 420.724037339556503 0 1003 0
-54.5192532088680082 402.73803967327882 0 1004 0
-78.2864644107349932 423.07934655775955 0 1010 0
-81.0700116686113006 426.077012835472487 0 1011 0
-14.0507584597431787 395.886231038506367 0 1012 0
-16.4764440705549191 429.198118418274248 0 1019 0
-16.4060676779462256 429.717036172695373 0 1020 0
-2.91656942823789223 398.241540256709357 0 1021 0
7.14702450408412915 421.580513418903081 0 1026 0
8.645857642940598 426.077012835472487 0 1027 0
67.5285880980164848 417.298133022170305 0 1061 0
73.5239206534423602 447.060676779463165 0 1067 0
73.9521586931156776 450.486581096849363 0 1068 0
74.2114368320376343 455.089635948315617 0 1069 0
71.810968494749261 414.942823803967258 0 1076 0
88.2981330221704752 429.717036172695373 0 1081 0
93.0087514585765689 434.855892648774727 0 1082 0
80.803967327888131 450.486581096849363 0 1083 0
98.6776551743215009 453.906181110189436 0 1087 0
103.286464410735277 454.554842473745566 0 1088 0
52.7543757292883697 401.239206534422351 0 1089 0
50.4456877296008201 406.00876805851459 0 1090 0
47.3746800872999074 409.821830002844763 0 1091 0
44.4037339556593906 413.443990665110789 0 1092 0
47.8296382730456457 395.457992998833049 0 1093 0
44.6178529754960778 399.098016336055935 0 1094 0
36.8728034760824244 403.876682113140987 0 1096 0
34.1260210035007958 407.662777129521487 0 1097 0
45.4743290548426558 389.890898483080434 0 1098 0
42.2625437572929741 393.316802800466689 0 1099 0
38.476147718229015 396.461654974135342 0 1100 0
28.1133563411140699 404.129681529809659 0 1103 0
28.344807467911437 404.236872812135289 0 1104 0
57.2353677392783879 404.120398091079494 0 1105 0
59.9118554872363802 407.439242898547377 0 1106 0
65.6015169194866985 411.838098016335948 0 1107 0
62.3575084394336727 730.43150885732075 0 1197 0
67.7104839353496004 695.744227643785848 0 1222 0
71.3505072725723721 711.803154131533574 0 1223 0
70.7081502130624813 692.960680385909541 0 1255 0
66.8540078560030224 707.949011774474002 0 1256 0
66.6398888361663921 723.151462182875207 0 1259 0
68.995198054369439 703.381139351292404 0 1260 0
64.0517308732973447 754.78589491866046 0 1287 0
67.477635190683543 749.86115746241785 0 1307 0
64.7254815006397166 739.387745480344165 0 1329 0
136.852298315198368 983.387370373843282 0 1357 0
137.708774394544889 984.243846453189803 0 1358 0
95.9555655264011875 1004.79927235750665 0 1389 0
95.7414465065645572 1005.65574843685317 0 1390 0
10.9520897152818861 1101.14411057398092 0 1443 0
11.807596310166673 1103.42337957725977 0 1444 0
-28.3908083017353761 114.363702203920298 0 1445 0
8.21761960326688268 180.375437572928718 0 1446 0
50.7202450408398136 114.212660443407117 0 1447 0
53.7179113185527513 134.982205367561164 0 1448 0
51.7851507343624462 157.187009105441604 0 1449 0
52.3259885486835401 185.922432737482836 0 1450 0
52.4331971995329695 190.546091015169054 0 1451 0
1.79775793489829994 160.443884804799779 0 1452 0
7.31285881519568193 234.47843489302744 0 1453 0
6.34637370904573572 250.284905905171797 0 1454 0
-7.67547257336912025 217.13479428625962 0 1455 0
55.9616635952370416 267.204005006842294 0 1456 0
52.5795465549749679 268.775257734426077 0 1457 0
55.5772128326879056 281.194160884951202 0 1458 0
54.399558223586439 355.17228223851032 0 1459 0
49.9030588070170324 389.859563452046018 0 1460 0
53.650141654158233 393.285467769432273 0 1461 0
49.6692948644187027 393.461724549826954 0 1462 0
54.2728537909064812 398.172342986233048 0 1463 0
4.57158047568100301 278.965720720210015 0 1464 0
0.562739397453356105 276.292450184394738 0 1465 0
5.85629459470084157 285.175172295472635 0 1466 0
2.48316168486962852 287.942407630646983 0 1467 0
8.25690944879050903 376.798303242011002 0 1468 0
7.69937121053686724 380.878597066032683 0 1469 0
5.77230003200713782 379.272704417257842 0 1470 0
40.890415051116463 390.356998762195644 0 1471 0
50.2920070011670077 398.348599766627672 0 1472 0
45.0460910151692815 394.387397899649841 0 1473 0
0 1 1 5
0 35 2 12.6544838386102114
1 2 3 5
1 12 4 6.43888203874388143
2 3 5 41.8234066483247489
3 4 6 6.40312423743284853
4 5 7 3.60555127546398912
4 6 8 5.18982638036179367
5 58 9 57.3881581544153292
6 7 10 4.29032987637334173
7 8 11 4.13039311279196841
8 9 12 4.60235642676065293
8 25 13 3.42409535167035983
9 10 14 63.8939705305874313
10 11 15 0.511085180863474875
12 13 16 40.2582724851427614
13 14 17 6.19423619265781422
14 15 18 4.02976307612434059
14 37 19 4.94406888180954951
15 16 20 13.3700492863127227
16 17 21 4.47179251637663011
17 18 22 6.60590826224068461
17 42 23 4.31361274916421866
18 19 24 14.7340166425254431
19 20 25 8.28226384126184101
20 21 26 9.60777751645254341
20 52 27 4.69767394350384038
21 22 28 20.2058608549901919
22 23 29 7.08999579653669798
23 24 30 3.47471108044128796
23 128 31 5.02953660568502059
23 129 32 5.80299397627480928
24 40 33 5.84157087018561771
25 26 34 41.6706499073189036
26 27 35 4.26244904659680834
27 28 36 4.71197254643441621
27 93 37 8.3158952361329419
28 29 38 10.1822977566485182
29 30 39 5.13634249947602406
30 31 40 5.62451763548657002
30 90 41 6.79756273406944533
31 32 42 5.30588583278886539
32 33 43 6.04244010791450936
33 34 44 0.681446907817957026
33 96 45 6.78036277473510474
34 71 46 7.49855078667716857
35 36 47 5.51772152191936716
37 38 48 78.9274102120485708
38 39 49 8.31433101040515865
40 134 50 5.43746426221461299
41 134 51 6.22106648347232838
41 167 52 215.763973572250109
42 43 53 42.3440554365156672
43 135 54 7.45512934288241436
44 45 55 4.85951567319080002
44 127 56 5.65874817645704287
44 457 57 4.96846623145157285
45 46 58 4.11866158146636074
46 47 59 5.48266469924705557
47 48 60 4.10526429758643108
47 125 61 6.18319714295883394
48 49 62 18.9199824060272412
49 50 63 3.32402106973593847
50 51 64 3.65886741485592903
50 163 65 2.86860992100638335
51 166 66 200.481244837796908
52 53 67 12.0870381511932781
53 135 68 8.42918626268793858
54 55 69 42.3640164942743169
54 135 70 6.69566073261666084
55 56 71 4.37357665061520429
56 57 72 4.94117915181729472
56 119 73 9.44311001765504798
57 175 74 610.046261432742426
58 59 75 6.6237321157894673
59 60 76 5.55815176065413041
59 132 77 4.62456562898684442
60 61 78 10.5096443528783858
61 137 79 6.21009225454462577
62 63 80 5.23296744211663967
62 137 81 8.78230983065643045
63 162 82 9.34646404849092072
64 65 83 5.60403104374209438
64 162 84 6.26057866522585638
65 66 85 4.51684567168643269
66 178 86 5.34416343144263628
66 179 87 5.41318588008571044
66 458 88 3.11210044359729476
67 68 89 6.24258852219437177
67 184 90 4.08245079274573897
67 458 91 3.11210044359726634
68 69 92 6.21527559771937987
69 70 93 5.58132653585142346
69 189 94 7.05941066911162807
70 211 95 11.2990146309509765
71 87 96 7.06268268192148785
71 459 97 2.69568958022706928
72 73 98 5.39137916045413856
72 116 99 9.27656907961892507
72 136 100 6.06710204305341883
72 459 101 2.69568958022707639
73 74 102 4.96645362455165973
74 75 103 5.03976317690769626
75 112 104 6.72347360302856956
75 113 105 5.56709451575267167
75 460 106 2.90839528503190037
76 77 107 7.29263103418315684
76 155 108 4.62907445921706362
76 460 109 2.90839528503187816
77 78 110 9.48547176443140927
78 79 111 5.13885647607935425
79 80 112 4.23370515143421233
79 147 113 2.66652760895623242
79 461 114 2.99626184210375834
80 259 115 7.46471741819189472
81 82 116 5.53103034159789253
81 259 117 7.34745118266962205
82 197 118 4.58237847284621491
82 462 119 2.26834906438607975
83 207 120 5.48472387225188296
83 462 121 2.26834906438610817
83 463 122 2.35774113337661895
84 85 123 5.57121066752810545
84 199 124 5.31683307259469107
84 463 125 2.35774113337664737
85 86 126 5.08726073547017599
86 260 127 5.70514763740840714
87 88 128 27.4149262755830527
88 89 129 3.38551896523278817
90 91 130 28.0481300317916187
91 92 131 3.35503784963878804
93 94 132 20.5238431309082472
94 95 133 6.36621613799989827
96 97 134 9.60129358547837342
97 98 135 4.21166116173688909
98 99 136 3.78815216263370136
98 136 137 9.66243838298433211
99 100 138 4.85441393919830411
100 101 139 4.47318265160955431
101 102 140 7.95342051509588721
101 111 141 5.70348385293996696
101 133 142 4.17657953555780281
101 138 143 3.80069484705634197
102 103 144 10.2243091925282901
103 137 145 7.27835825533810965
104 105 146 15.0000950582636268
104 137 147 6.94130294638029355
105 106 148 4.54215032722514156
106 107 149 5.08150702017815981
106 158 150 5.37279740488982327
106 464 151 4.74257090733680187
107 108 152 12.104191362284574
108 258 153 7.94196609035280066
109 110 154 15.7073889781171552
109 258 155 7.35034546204934625
110 222 156 5.97746003140266069
111 112 157 16.8967838900833236
113 114 158 26.8053769287945052
114 115 159 3.52253121094344079
116 117 160 36.2568311909997689
117 118 161 5.43255485528315951
119 120 162 12.0108290856831665
120 121 163 5.1832726561797493
122 123 164 12.2639287027301975
122 134 165 9.19066370032247981
123 124 166 3.21178529754961373
125 126 167 6.10123609207509787
126 134 168 4.32149362917403401
127 128 169 8.50118910947789885
129 130 170 4.43402946488150018
130 131 171 1.42459280722257575
132 133 172 9.61265760963540927
135 457 173 4.96846623145159771
137 141 174 5.32116297266880434
138 139 175 8.18521102787499899
139 140 176 5.65695804737411567
141 142 177 23.3436833006562594
142 143 178 4.53134038966896657
143 144 179 4.4831707050786207
143 156 180 2.99064959963120414
143 157 181 5.62168080580860163
144 145 182 6.1033600205573606
145 146 183 1.67574639270623571
146 205 184 5.64590924405284422
146 461 185 2.99626184210375834
147 148 186 5.35297549591599608
148 149 187 5.38487442226925861
148 152 188 2.20449023438870606
149 150 189 9.94155391125390508
150 151 190 5.53094752226819875
152 153 191 23.4454945639437291
153 154 192 6.51745375807162652
155 156 193 8.59482020843449313
157 161 194 29.9693306949504574
158 159 195 4.98730793200756484
159 160 196 4.2425572533909488
161 162 197 2.42211067609328312
162 464 198 4.74257090733674858
163 164 199 6.17811340967040756
164 165 200 4.85803465121317934
166 174 201 13.0839525496153524
167 174 202 14.4782927452004824
168 170 203 159.728124828262338
168 174 204 11.8955004622610065
169 172 205 175.785767367154676
169 174 206 9.63654483891544444
170 171 207 5.17884818020811544
172 173 208 6.17984734668128244
175 176 209 3.11761998759152448
177 178 210 28.0206457540575471
177 259 211 10.5651620164135043
179 180 212 5.1788481802080808
180 258 213 5.51437064628760787
181 182 214 8.8097982263267145
181 258 215 6.70899277420020645
182 183 216 3.46318060105457448
184 185 217 11.8123973567946976
185 186 218 4.61667180446611258
186 187 219 5.11599020128814796
186 208 220 5.15666885696234445
186 209 221 5.14331535455473698
187 188 222 4.06837905014701473
189 190 223 34.9757510349600551
190 260 224 5.45820372278705701
191 192 225 9.82882877218416695
191 260 226 4.77159701861417762
192 193 227 3.17760359286374694
194 195 228 29.6012192118315056
194 259 229 9.84032929143633694
195 196 230 6.29742929910854077
197 198 231 18.1154035471958039
198 201 232 3.73942792015301428
199 200 233 9.52560339155282776
200 201 234 4.6103477586531616
201 202 235 6.02526195775476037
202 203 236 19.8748139559287083
203 204 237 2.61365572402231106
205 206 238 9.62209532372011367
206 259 239 6.11004205326209959
207 208 240 15.8648550755863571
209 210 241 5.65290433273861126
211 212 242 5.60403104374208816
212 213 243 5.14331535455473876
212 237 244 3.27539118113518812
212 238 245 6.45560855242358222
213 214 246 4.9293900198275642
214 215 247 4.28238039673283311
215 228 248 4.51684567168641049
215 465 249 2.8985262532321272
216 217 250 4.71548226675329474
216 333 251 4.86984525969108883
216 465 252 2.8985262532321272
217 218 253 5.42106059128376305
218 392 254 5.41841341558880085
218 466 255 2.90261189921164586
219 220 256 5.91931710063340066
219 389 257 3.68077156750058165
219 466 258 2.90261189921164586
220 221 259 7.99804358279788019
221 286 260 8.94094761499809643
222 236 261 4.99865884887264755
222 467 262 3.96698464650475424
223 224 263 5.63259199852213932
223 233 264 6.13143562453029034
223 467 265 3.96698464650475735
224 225 266 20.0859549877994077
225 226 267 4.36718824151353235
226 227 268 5.43583175242849492
226 229 269 4.39335497201090153
226 230 270 4.09073813013838006
227 310 271 17.212080004002253
228 229 272 14.1269631745683313
230 231 273 9.16857838353474186
231 232 274 4.20969213518192298
233 234 275 18.9334202508811842
234 235 276 3.26136374545162644
236 237 277 8.22893949028620852
238 239 278 22.3386583143027266
239 240 279 0.131927658579136048
241 242 280 3.66512724392351474
241 260 281 6.80015577316816788
242 243 282 4.28773003079449655
242 252 283 4.06262275827932662
243 244 284 4.96645362455165973
244 245 285 5.0486037358795075
244 255 286 4.41417667620092757
245 246 287 6.55260088807588392
246 247 288 5.1182762167236433
246 324 289 6.91965264672766889
247 248 290 5.35725616472955135
248 249 291 5.99915489088297793
248 327 292 7.80603445065784385
249 250 293 3.86008552536553484
250 251 294 3.21891468545088832
251 330 295 4.80655499195342273
251 468 296 3.28861895597844844
252 253 297 23.3474358141127318
253 254 298 2.79177045823728376
255 256 299 8.8601411163981183
256 257 300 5.29207072153231994
261 262 301 4.28773003079449833
261 339 302 5.45898530189194631
261 468 303 3.28861895597844844
261 469 304 3.64002333722291871
262 263 305 3.42590431738625512
263 397 306 8.13652275379229195
263 470 307 2.9976662777129377
264 265 308 4.73004374948389916
264 348 309 4.06826137689620282
264 470 310 2.99766627771299454
265 266 311 5.58354091647466255
266 267 312 5.17884818020811544
266 342 313 7.22314574117846231
266 345 314 6.51217575443245966
267 268 315 13.0726844869057732
268 269 316 6.41928465196397191
269 270 317 3.85414235705957253
269 371 318 7.71125801595154226
270 271 319 4.71548226675323789
271 272 320 3.94815964507175998
271 370 321 5.96466569162963545
271 374 322 7.0138279381288422
272 273 323 3.53134134096077812
273 274 324 4.73004374948395068
273 377 325 6.13143562453021929
274 275 326 9.19221367623505436
275 276 327 4.09959866228048853
276 380 328 5.71340806480088226
276 471 329 2.46469500991379542
277 278 330 6.34096043459820002
277 383 331 7.19452651717967218
277 471 332 2.46469500991379542
278 279 333 21.8830666823804734
279 280 334 4.13532514883836555
280 433 335 3.26326888071799859
280 472 336 2.27107516361259298
281 472 337 2.27107516361255257
281 473 338 2.81018468066821647
281 474 339 2.71466832130188074
282 283 340 5.90275752493982075
282 473 341 2.81018468066813609
282 475 342 3.42219631915355338
283 284 343 5.20658962617522381
284 285 344 3.86008552536551264
284 386 345 5.1477703708552589
285 440 346 6.27790251345747841
286 476 347 3.1479133186333792
286 477 348 3.65388199466230823
287 351 349 5.01550521240612124
287 476 350 3.14791331863343604
287 478 351 3.21401905640982344
288 289 352 5.84431186869532926
288 478 353 3.21401905640976882
288 479 354 4.28670225365345559
289 290 355 14.2846851289232184
290 291 356 7.0138279381288422
291 292 357 5.77444473986755114
291 369 358 8.43531111612410456
292 293 359 5.24891580473566588
293 294 360 4.28773003079449655
294 295 361 4.28238039673277626
294 363 362 3.53134134096077812
295 296 363 23.0187642858014208
296 297 364 4.28238039673277626
297 298 365 4.99865884887265022
297 365 366 3.87786038004245848
298 299 367 4.0129737520830453
299 300 368 4.407201235748051
299 323 369 8.17573449690296883
300 301 370 4.40898046877746275
301 400 371 6.17912589372088483
301 480 372 2.50848450792681854
301 481 373 3.5065574471312777
302 303 374 3.94815964507174133
302 402 375 8.28908501338666426
303 304 376 4.11866158146633587
303 412 377 8.5376953171305594
304 305 378 5.54656610635476088
305 306 379 6.5871821013917895
305 368 380 4.24483348741709765
305 409 381 2.78261992077513209
306 307 382 31.4924051351493226
307 308 383 2.7917704582373446
308 309 384 4.59733032273359754
308 403 385 6.11608004142920869
308 406 386 6.23765464391668445
309 441 387 358.033680311667354
310 311 388 3.57218351904010367
311 312 389 5.37116501656610268
311 354 390 6.22908668276112554
311 477 391 3.65388199466224517
312 313 392 5.59167916669549925
313 314 393 4.92177449093870312
313 357 394 3.75237429802568778
313 479 395 4.28670225365351243
314 315 396 41.2315154911439521
315 316 397 4.44648107763063205
316 317 398 5.81679057006375011
316 360 399 5.48830112228389666
316 364 400 3.00530365640370922
317 318 401 23.5906143487409601
318 319 402 3.87786038004251443
319 320 403 3.48560511013333052
319 366 404 5.10753533508603041
319 367 405 6.30106838019757642
320 321 406 1.43635405089112078
321 480 407 2.50848450792685496
321 482 408 4.1182091468822275
322 402 409 5.81495915878705105
322 442 410 316.005693856116068
323 483 411 26.5125493765002886
324 325 412 11.5258972041720504
325 326 413 2.39558250987974342
327 328 414 5.5991190152270125
328 329 415 5.03465712109381336
330 331 416 17.6484114301156865
331 332 417 4.46768272407298639
333 334 418 20.9833626874684249
334 335 419 5.48412274244537379
335 336 420 4.70087567843456533
335 393 421 8.63141363368015568
336 337 422 13.2547542487770489
337 338 423 2.31605131521931096
338 394 424 4.33557970851413099
338 469 425 3.64002333722284188
339 340 426 12.5753014454789476
340 341 427 4.64424346399032828
342 343 428 23.2160854731429467
343 344 429 4.39079621759549532
345 346 430 11.2771572365962243
346 347 431 2.43414865187755591
348 349 432 3.54430043530312222
349 350 433 2.03131137913964999
351 352 434 13.6495346336484289
352 353 435 5.37007769762230414
354 355 436 13.0635665744160345
355 356 437 4.73972655132593346
357 358 438 7.93381942539487461
358 359 439 4.65076454019065366
360 361 440 22.060955966352747
361 362 441 0.318785628618243277
363 364 442 8.32379882337495403
365 366 443 6.5262409452334591
367 368 444 22.6603211054298512
369 370 445 32.4527622560202502
371 372 446 24.0909186515637614
372 373 447 2.70841517218622974
374 375 448 41.0502327978070198
375 376 449 2.57792764577181543
377 378 450 14.5458569863467186
378 379 451 1.91925152949538846
380 381 452 33.8245200863555056
381 382 453 3.65724053139842153
383 384 454 16.9187820732111298
384 385 455 5.01239774473061317
386 387 456 9.53561812541183684
387 388 457 5.15211292159804568
389 390 458 10.1004921727047936
390 391 459 4.70087567843456533
392 393 460 13.4363246150851623
394 395 461 12.4309750930382137
395 396 462 2.43686486296080407
397 398 463 15.726596802739083
398 399 464 3.18208938906496197
400 401 465 3.40240445135356184
402 481 466 3.5065574471312777
402 482 467 4.11820914688228346
403 404 468 41.8690979828552514
404 405 469 0.47878468363033122
406 407 470 31.55532832929363
407 408 471 4.09073813013838006
409 410 472 33.7393410423719615
410 411 473 0.52366828478539329
412 413 474 25.5010661026318601
413 414 475 4.73972655132586151
415 416 476 30.6050384478331523
415 440 477 5.79012828804826807
416 417 478 3.45256545347204646
417 418 479 4.6103513010322601
417 422 480 6.85180863477245339
418 444 481 243.182231103383003
419 420 482 22.2338789949073075
419 440 483 6.94237791264013371
420 421 484 6.97121022026675874
422 423 485 18.2009595892508749
423 424 486 4.65423292737089334
425 426 487 5.29893927234521023
425 438 488 5.3273402537989627
425 475 489 3.42219631915350231
425 484 490 3.79721835548739772
426 427 491 4.89597072401067468
427 428 492 4.68471651013988311
429 430 493 4.85441393919830411
429 474 494 2.71466832130180036
429 484 495 3.79721835548735465
429 485 496 2.98233284581485503
430 431 497 9.10998132991908172
431 432 498 4.67753454554243842
433 434 499 4.69599671948800168
434 435 500 4.92208189274291641
434 483 501 3.2623882557536299
434 485 502 2.98233284581478131
435 436 503 13.1261166446210833
436 437 504 0.25506782451415505
438 439 505 4.26360381848803804
439 440 506 7.19181295369473883
441 450 507 9.2639878489872487
442 447 508 7.74421789439447661
443 447 509 8.74515948807981758
443 451 510 281.92703401367163
444 447 511 10.5603110819331096
445 446 512 15.4273397767498039
445 447 513 5.04481455952974933
446 450 514 16.3487568567762303
448 450 515 15.4128824699523577
448 455 516 357.09228350596095
449 450 517 10.8289754122846951
449 453 518 259.419024182870373
451 452 519 1.21124008725998533
453 454 520 0.882835335240149788
455 456 521 2.43453460094513474
