ply
format ascii 1.0
element vertex 608
property double x
property double y
property double z
property int og_index
property int root
element edge 623
property int vertex1
property int vertex2
property int name
property double len
end_header
0 0 0 1 1
1.25863249291279544 7.00116686114355957 0 2 0
2.52584369477978044 11.0140023337223454 0 3 0
13.0859370436712652 35.3022170361727348 0 9 0
15.4091575804274044 40.1598599766628155 0 10 0
17.309974383227825 44.8063010501750654 0 11 0
46.6670338931461401 96.9731621936989541 0 23 0
52.7918880355032343 109.434072345390916 0 24 0
54.5000078089760223 113.276103145459359 0 25 0
55.9599160401706968 118.515752625437585 0 26 0
56.8047235080820201 123.795799299883328 0 27 0
57.5893903016923332 128.801556838311484 0 28 0
-5.28862538339990351 2.77712952158699977 0 33 0
-17.9566580873438966 15.0017780812465418 0 38 0
-19.6503523378923433 17.5612602100350372 0 39 0
-21.9735728746484256 20.5180863477246618 0 40 0
-79.8428844265737609 104.154025670945174 0 62 0
-82.5885086972855333 111.757292882147027 0 63 0
-84.7005273670638417 116.192532088681446 0 64 0
-16.2711224662470499 19.6732788798133527 0 69 0
-13.525498195535306 22.6301050175029559 0 70 0
-10.7798739248235051 26.6429404900817275 0 71 0
-2.54300111268810269 85.1458576429404985 0 83 0
-2.75420297966593353 90.2147024504084385 0 84 0
-3.38780858059942602 94.8611435239206742 0 85 0
-3.38780858059942602 99.0851808634772624 0 86 0
-3.17660671362159519 105.210035005834328 0 87 0
-2.75354398239682041 111.966205400321513 0 88 0
-2.96540484664376436 117.882147024504093 0 89 0
-18.5943430030031891 25.1645274212369117 0 96 0
-49.6410174487441225 108.589264877479593 0 116 0
-51.9642379855002616 112.813302217036181 0 117 0
-53.8650547883007107 118.093348891481924 0 118 0
-56.0046942611776046 123.060173936774731 0 119 0
-57.6666883939016657 128.019836639439916 0 120 0
-59.1451014627464531 133.299883313885658 0 121 0
-61.0459182655469306 137.946324387397908 0 122 0
-63.3691388023030413 141.747957992998835 0 123 0
-62.3131294674139156 143.859976662777115 0 124 0
-9.72386458993435099 89.369894982497101 0 125 0
-42.4601539714979026 132.877479579929997 0 137 0
-44.9945763752318726 136.890315052508754 0 138 0
-47.7402006459436734 141.747957992998835 0 139 0
-48.5850081138549967 144.493582263710607 0 140 0
-47.7402006459436734 146.605600933488915 0 141 0
-9.09025898900085849 99.0851808634772624 0 142 0
-29.7880419528281664 145.33838973162193 0 153 0
18.9995893190504717 39.7374562427071538 0 154 0
51.3822166224028365 64.8918591677714005 0 163 0
55.7220482430855668 68.6382481696052338 0 164 0
59.1279440448380456 72.0513418903150722 0 165 0
62.7183757834611697 75.852975495916013 0 166 0
65.8864037881286322 79.4434072345390945 0 167 0
69.899239260707418 84.3010501750291894 0 168 0
76.0240934030643984 94.2275379229871817 0 170 0
78.7697176737761993 99.2963827304550932 0 171 0
81.3041400775101692 104.365227537923005 0 172 0
83.4161587472884776 109.434072345390916 0 173 0
85.5281774170667859 114.080513418903166 0 174 0
87.3314761619874389 118.999067366715821 0 175 0
88.6962054217342484 127.175029171528593 0 177 0
90.5970222245347259 138.579929988331401 0 178 0
90.5970222245347259 143.01516919486582 0 179 0
4.84906423153586275 6.15635939323226467 0 180 0
101.368317440403985 64.870478413068895 0 204 0
102.213124908315308 67.1936989498250057 0 205 0
0.413825025001472113 -5.24854142357053988 0 206 0
4.00425676362453942 -30.1703617269544395 0 211 0
4.00425676362453942 -30.5927654609100728 0 212 0
60.1822648454532896 64.6312667422535014 0 213 0
63.5614947170985261 61.6744406045638982 0 214 0
68.8415413915442969 76.0361675590563095 0 215 0
73.4616184629277313 72.2301390234095919 0 216 0
76.8672123367018116 69.700111549721413 0 217 0
41.59650055140429 103.281208399196316 0 218 0
30.151178249066902 111.512624467036744 0 221 0
27.0235717299340195 114.686109215999096 0 222 0
48.5661621616726507 121.444568959289654 0 223 0
39.06207814767032 135.595094046804206 0 227 0
35.0492426750915911 143.831966858939552 0 228 0
62.7166872491872027 120.810963358356162 0 229 0
86.1600944837263114 130.103845505380662 0 234 0
92.9185542270168412 133.271873510048067 0 235 0
105.684355928393074 134.110006689337752 0 238 0
110.025905452221025 133.694277244003729 0 239 0
92.4961504930611795 113.418898014132111 0 240 0
100.521821438218694 110.673273743420339 0 242 0
103.901051309863988 108.772456940619861 0 243 0
53.6350069691405338 102.013997197329331 0 244 0
72.8543768641230258 100.324382261506685 0 248 0
60.1822648454532896 112.362888679242985 0 249 0
77.712019804613135 104.337217734085471 0 253 0
86.5824982176819731 100.113180394528854 0 254 0
91.4577971406066013 97.2657455558041875 0 255 0
94.608169162839431 95.8891430549722656 0 256 0
-1.48868031207291551 114.052503615065604 0 257 0
-30.6345379550133998 152.491243405030559 0 290 0
-31.690547289902554 158.616097547387625 0 291 0
-39.5050163680822379 180.79229358005972 0 295 0
-41.1946313039048846 185.227532786594139 0 296 0
-42.8842462397275312 189.240368259172897 0 297 0
-58.0962295080150284 175.028328190949907 0 307 0
-62.5260198686656565 189.240368259172897 0 308 0
-68.3493751848031366 160.89930088879504 0 313 0
-74.3533244194240979 178.891476777259243 0 317 0
-74.5649208432453179 184.273740312337821 0 318 0
-75.0221708116252728 189.105092940235608 0 319 0
-78.2637421930010362 200.134073339051639 0 321 0
-79.2109673599141786 204.02449894762097 0 322 0
-100.753557791652781 156.715280744587147 0 325 0
-102.964302019839209 161.605651988020668 0 326 0
-104.766393264231567 165.163355423700324 0 327 0
63.3653759263165739 156.015363838196407 0 335 0
64.491761350983893 161.007708534682649 0 336 0
65.2517101781265296 166.227235552052804 0 337 0
67.7855320566551427 183.326715983793662 0 340 0
68.3465923509760955 188.341931866222097 0 341 0
69.2213138841496516 193.155954772403561 0 342 0
69.897550726433451 197.477241071308242 0 343 0
70.5311563273669435 200.645269075975676 0 344 0
92.9185542270168412 150.379224735252279 0 346 0
94.608169162839431 154.603262074808868 0 347 0
-57.8795787951534066 108.350053206664199 0 359 0
-69.0988739860029 105.588075218066507 0 361 0
-70.974094547778833 103.914814000129809 0 362 0
-59.1467899970203916 117.009329752755207 0 363 0
-75.6205356212910829 113.418898014132111 0 367 0
-64.8492404054217673 130.948652973291985 0 368 0
-80.689380428758966 126.513413766757537 0 371 0
-81.956591630625951 126.935817500713199 0 372 0
-73.5085169515127745 155.23686767574236 0 373 0
-93.9950980483622516 160.094510616232441 0 378 0
-89.9822625757834658 109.828466275509015 0 379 0
-94.2318298518649442 112.07200389155966 0 380 0
-98.2191353879188398 113.841301748087773 0 381 0
-54.0779451895524801 145.521581794762199 0 382 0
-61.892414267732164 148.900811666407463 0 384 0
-68.8620758780005247 143.831966858939552 0 385 0
-84.0481123378997381 146.829518572659168 0 388 0
-85.5470233692490751 148.900811666407463 0 389 0
-66.2785874062429059 152.762320394527222 0 390 0
-78.7884146376403294 183.940655126713693 0 391 0
-87.025287449775675 188.481495266736999 0 393 0
-90.932521988865517 189.431903668137238 0 394 0
-55.9786130040347416 181.300631789490808 0 395 0
-47.2137355244548189 184.257457927180411 0 397 0
-43.8345056528095256 139.799464928347305 0 398 0
-35.1752291067185183 149.19794800886072 0 401 0
89.3318725981246189 131.902594444893793 0 402 0
50.2756620205118452 104.018555598912201 0 403 0
60.8646571678362989 163.35299240869648 0 404 0
52.6277843557009533 168.844240950120025 0 406 0
50.3045638189448141 170.428254952453756 0 407 0
89.5881110768210647 151.631288791426954 0 408 0
69.4183327804383907 160.184964404029017 0 413 0
86.7368858726203484 143.500016912780524 0 414 0
82.703664415288813 146.680105708079282 0 415 0
77.3384027921069332 150.047274789093223 0 416 0
-180.665306100588168 304.449300729501601 0 442 0
-180.879425120424827 306.376371908031388 0 443 0
-80.8858428567141914 209.808693961706979 0 444 0
-84.0976281542637878 222.013478092395417 0 447 0
-85.5964612931202566 239.142999679326579 0 448 0
-85.3859604037634483 246.467694220859869 0 450 0
-85.1682232534469676 251.561902829851704 0 451 0
-84.9541042336103374 256.914878325767688 0 452 0
-85.3823422732836548 261.197258722500465 0 453 0
-86.8811754121400952 283.037398745837663 0 457 0
-87.5235324716500145 288.604493261590278 0 458 0
-87.5235324716500145 293.743349737669632 0 459 0
-89.1186216593364691 302.47040001198053 0 461 0
-90.0929607096896916 307.232847987377909 0 462 0
-92.0200318882194495 313.014061522967211 0 463 0
-94.1612220865858376 317.510560939536617 0 464 0
-98.2294834634819836 327.145916832185435 0 466 0
-100.798911701521661 332.71301134793805 0 467 0
-102.519532548477855 337.575041461062597 0 468 0
-103.982572832576153 343.159150513582347 0 469 0
-88.3800085509965925 232.933548104064073 0 470 0
-89.2339918120713094 236.966966847232527 0 471 0
-90.7284507954331332 241.626123076561157 0 472 0
-92.2341509080560513 246.423046353772349 0 473 0
-96.3024122849522541 256.700759305931001 0 475 0
-98.4436024833186423 261.625496762173725 0 476 0
-100.156554642011741 266.336115198579819 0 477 0
-116.857838189269614 297.811611114565835 0 485 0
-118.999028387636031 301.451634451788664 0 486 0
-120.969866143771441 305.370995309350974 0 487 0
-135.700311934893904 342.776605280260128 0 495 0
-81.9564379558973997 223.726430251088573 0 499 0
-64.8269163689662378 315.583489761006888 0 521 0
-65.7584693478189024 321.016959489091278 0 522 0
-66.7539875474959956 325.647083693328909 0 523 0
-84.9541042336103374 307.875205046887856 0 528 0
-68.4669397061891232 318.367037018883195 0 532 0
-58.8315838135403339 321.79294133626945 0 533 0
-32.12498204786624 330.742629512689291 0 539 0
-27.9984449570642937 332.498892328101419 0 540 0
-29.711397115757336 215.589907497296252 0 543 0
-31.6384682942871223 220.514644953538948 0 544 0
-106.580125237110934 259.698425583643996 0 545 0
-128.795183157015572 260.911190899984263 0 550 0
-128.634384280284792 261.197258722500465 0 551 0
-94.3753411064224963 238.714761639653318 0 552 0
-118.933326900253689 250.482868929216011 0 557 0
-120.926099566165789 252.204259889361595 0 558 0
-93.9471030667492073 232.719429084227386 0 559 0
-108.22006262027341 233.57860932743688 0 562 0
-109.5777915148239 234.646500262757172 0 563 0
-84.7399852137737071 204.883956505464283 0 564 0
-94.3320818415333804 209.57148088357178 0 566 0
-98.2294834634819836 211.307527100563476 0 567 0
-79.3870097178577225 250.063069690995235 0 568 0
-69.9802440420979792 250.414482625945425 0 570 0
-66.1116304879860763 249.420712631485287 0 571 0
-79.6011287376943528 259.484306563807365 0 572 0
-66.6375035415998127 265.463937323399193 0 575 0
-63.3280832301097689 267.40671029776297 0 576 0
-79.3870097178577225 289.246850321100226 0 577 0
-67.851035264447944 290.52687641354629 0 579 0
-63.9704402896196882 291.816278559139903 0 580 0
-125.208479962898565 297.169254055055887 0 581 0
-134.629716835710695 297.811611114565835 0 583 0
-135.914430954730534 298.025730134402465 0 584 0
10.5429786135308632 249.206593611648657 0 595 0
10.5429786135308632 253.917212048054694 0 596 0
10.9712166532041238 259.056068524134048 0 597 0
11.6135737127140146 264.83728205972335 0 598 0
12.8130152711918868 270.803971013224384 0 599 0
13.7547639110804312 277.684423249921679 0 600 0
14.8253590102635826 283.465636785510924 0 601 0
15.8959541094468477 288.818612281426908 0 602 0
17.2840039600540649 294.06305311417043 0 603 0
18.6795013673231551 300.381039352605512 0 604 0
66.855558463233308 219.581488484683518 0 615 0
66.6421618107303857 223.298192211415312 0 616 0
66.642275103658335 226.741308539408635 0 617 0
66.0814960030870679 232.260321451899927 0 618 0
65.5719702155901132 238.472139702042796 0 619 0
65.3574476917104903 245.138332234752511 0 620 0
65.14332867187386 251.776021849688334 0 621 0
65.14332867187386 257.557235385277579 0 622 0
65.14332867187386 263.766686960540142 0 623 0
65.14332867187386 269.547900496129387 0 624 0
65.3574476917104903 275.757352071391949 0 625 0
66.2139237710571251 281.966803646654512 0 626 0
67.2845188702402766 287.533898162407127 0 627 0
67.9268759297501674 293.743349737669632 0 628 0
69.4257090686066931 298.453968174075726 0 629 0
71.4791757688689131 303.977436475469972 0 630 0
72.8516133859928914 309.159919165907695 0 631 0
73.9222084851761565 313.228180542803841 0 632 0
74.9928035843593079 317.510560939536617 0 633 0
74.4209518773062086 322.329938055668777 0 634 0
76.2775177033792033 326.075321733002227 0 635 0
77.7763508422356153 328.644749971041847 0 636 0
2.83469389941183181 263.552567940703511 0 642 0
-35.7760501504943136 283.457674427869392 0 651 0
-38.7043959488962628 284.107993845020872 0 652 0
3.69116997875835295 252.418378909198225 0 653 0
-10.1981698523926525 259.489898932369556 0 656 0
-11.7253994494797098 261.839615782010355 0 657 0
19.321858426833046 274.04439991269885 0 658 0
31.3125235376849105 280.253851487961356 0 661 0
34.952546874907739 281.966803646654512 0 662 0
8.83002645483770721 290.959802479793325 0 663 0
-1.58626739677373507 298.169865360847382 0 665 0
-0.591210417974366464 298.239849154239096 0 666 0
22.7477627442192443 292.24451659881322 0 667 0
31.1768597584695044 295.68902847880338 0 669 0
34.5243088352344785 297.169254055055887 0 670 0
7.54531233581792549 273.402042853188902 0 671 0
-5.51594787421709043 283.037398745837663 0 674 0
-7.87125709242013727 285.60682698387734 0 675 0
72.2092563264830005 186.897958839186572 0 676 0
82.486969278641709 189.253268057389619 0 678 0
86.9834686952111724 190.109744136736168 0 679 0
74.9928035843593079 196.747433751671991 0 680 0
86.5552306555377982 202.314528267424606 0 683 0
89.5528969332508495 204.455718465790994 0 684 0
61.0750672949777709 230.150000846187709 0 685 0
46.6791781839781947 233.430995754517767 0 688 0
46.0867359064129687 234.432381242920542 0 689 0
73.279851425666152 223.298192211415312 0 690 0
83.8310354351162914 226.742058837521199 0 692 0
88.2681828142309541 226.08173946929162 0 693 0
56.5785678784083075 247.921879492628818 0 694 0
45.0316486232766806 250.885775997954283 0 696 0
42.4467125691901401 253.274854988544803 0 697 0
58.9338770966113543 254.987807147237902 0 698 0
45.5358884821554852 260.656610429518537 0 701 0
44.5879027675565567 262.910210881193564 0 702 0
59.5762341561212452 270.404376575475965 0 703 0
49.2753200244729896 275.565906423843785 0 705 0
47.1573310055962338 277.684423249921679 0 706 0
70.2821851479532143 271.046733634985856 0 707 0
81.3137406816603061 274.050669236002932 0 709 0
85.698754576191277 274.900875992045371 0 710 0
60.2185912156312497 279.611494428451465 0 711 0
50.4378952150007649 285.993208527835066 0 713 0
48.013807084942755 288.390374241753648 0 714 0
74.3504465248494171 289.460969340936856 0 715 0
88.2681828142309541 293.743349737669632 0 718 0
91.9082061514537827 295.242182876526158 0 719 0
63.644495533017448 304.021062689828341 0 720 0
35.5263632747714837 339.010362330922533 0 729 0
35.5949039344176299 341.706010181076863 0 730 0
76.9198747628890942 310.230514265090903 0 731 0
92.9139646670727757 314.840356004496925 0 734 0
97.0470626275331369 315.583489761006888 0 735 0
65.9998047512204948 316.011727800680148 0 736 0
55.6998493092864351 325.796247833272673 0 739 0
54.8656157197151515 327.360035852022065 0 740 0
68.7833520090968022 328.002392911531956 0 741 0
51.4397114023289532 340.849534101730342 0 745 0
50.1549972833091715 342.776605280260128 0 746 0
-84.8516009156857365 230.917647999025689 0 747 0
-68.0387016665158342 186.897958839186572 0 748 0
-59.6025180184817032 182.058948130560964 0 749 0
82.4731737286329007 348.320035896361901 0 786 0
84.7214428289334478 351.572319617777964 0 787 0
88.0402682443855156 355.600082570807672 0 788 0
99.8168143354006929 373.157842197412094 0 792 0
103.028599632950261 376.583746514798349 0 793 0
105.383908851153308 379.153174752838027 0 794 0
32.1552040670226233 369.303699840352579 0 800 0
32.7975611265325142 374.870794356105193 0 801 0
33.2257991662057748 377.01198455447161 0 802 0
33.0253749989319658 400.931083754966721 0 808 0
32.8112559790953355 405.855821211209445 0 809 0
32.5971369592587052 410.138201607942278 0 810 0
32.383017939422075 414.420582004675055 0 811 0
32.5971369592587052 418.702962401407888 0 812 0
33.0253749989319658 424.055937897323929 0 813 0
34.3100891179518044 477.799811876320632 0 823 0
34.7383271576251218 483.795144431746621 0 824 0
34.9524461774617521 488.934000907825975 0 825 0
111.821174298815663 393.00868002101106 0 833 0
113.105888417835502 395.578108259050737 0 834 0
114.17648351701871 398.575774536763674 0 835 0
119.743578032771325 417.204129262551419 0 840 0
120.385935092281272 422.557104758467403 0 841 0
120.848962910061005 427.528209885706644 0 842 0
121.04732000872832 431.452181350407329 0 843 0
121.884768231137741 436.688960067685684 0 844 0
122.527125290647689 440.971340464418518 0 845 0
123.383601369994267 445.681958900824611 0 846 0
124.668315489014049 450.178458317394075 0 847 0
126.595386667543835 455.317314793473429 0 848 0
129.560221499503939 459.574446258874559 0 849 0
134.303671381662923 462.81148048775583 0 850 0
140.454486917976112 469.670345990066721 0 851 0
144.367265313985001 474.373907558934434 0 852 0
157.214406504183444 484.009263451583251 0 855 0
159.997953762059751 487.86340580864271 0 856 0
162.781501019936115 492.145786205375543 0 857 0
165.779167297649053 498.355237780638163 0 858 0
167.325452136432602 503.626857314876816 0 859 0
167.047427367170997 508.064345464011694 0 860 0
166.849762396832261 510.345902891490027 0 861 0
171.774499853074985 473.303312459751226 0 884 0
174.55804711095135 491.503429145865653 0 885 0
176.056880249807818 501.13878503851447 0 886 0
176.485118289481079 506.919998574103829 0 887 0
78.2044881844631163 355.10961350992568 0 889 0
67.4891547028449281 369.341652762130707 0 892 0
65.9997040537746216 372.453254116693529 0 893 0
39.0207075543578981 374.166206275386685 0 894 0
53.6868017046455748 371.827534098697186 0 897 0
55.5078720817791691 372.453254116693529 0 898 0
98.9740331086172205 380.803895890322508 0 899 0
88.6188105122181469 387.631730560682684 0 901 0
86.5551299580920954 388.726299624278226 0 902 0
106.039960763226361 399.646369635946883 0 903 0
96.9551939442783919 403.310351608263545 0 905 0
94.9057717317210745 404.356988072352976 0 906 0
112.891769397998871 441.827816543765039 0 907 0
98.858726168062617 446.105645258178185 0 910 0
94.6916527118844442 447.18079203968108 0 911 0
128.094219806400361 428.124199274220075 0 912 0
137.851272475785152 425.82452184904389 0 914 0
141.369599036272064 423.627699857650612 0 915 0
120.385935092281272 457.672624011676476 0 916 0
116.690935708358325 460.672535984179376 0 917 0
114.39060253685534 462.383242448082569 0 918 0
128.522457846073621 466.237384805142085 0 919 0
116.47427797451212 479.76216108900428 0 922 0
116.103554695548496 479.726883054850418 0 923 0
137.08721863953923 474.373907558934434 0 924 0
132.072979273300632 483.253527259171392 0 926 0
131.734243143623246 484.437501491256512 0 927 0
22.7476620467732005 418.06060534189794 0 928 0
15.4676153723274297 420.415914560100987 0 929 0
15.2534963524907994 420.844152599774304 0 930 0
40.7336597130509972 403.928750032679659 0 931 0
48.3702458805777837 401.262999821242317 0 932 0
52.0819677643929708 400.716964735130091 0 933 0
40.7336597130509972 483.581025411909991 0 934 0
52.2960867842296011 484.651620511093142 0 936 0
55.5078720817791691 484.865739530929773 0 937 0
114.39060253685534 421.700628679120882 0 938 0
109.681462983895926 425.876501770257107 0 939 0
107.53879390208283 427.267723194873497 0 940 0
186.098119349268643 542.194152554776906 0 947 0
187.168714448451851 546.476532951509739 0 948 0
166.39916952429769 547.975366090366265 0 949 0
146.27198165965342 555.469531784648666 0 953 0
143.916672441450373 555.897769824321927 0 954 0
167.683883643317586 517.998703313236547 0 980 0
168.540359722664107 520.782250571112854 0 981 0
172.180383059886992 540.481200396083864 0 985 0
172.394502079723623 545.191818832489957 0 986 0
173.2509781590702 550.116556288732681 0 987 0
179.460429734332763 570.457863173213582 0 992 0
180.745143853352602 574.954362589782932 0 993 0
182.243976992209127 580.30733808569903 0 994 0
183.742810131065596 586.94502770063491 0 995 0
184.665033450798603 593.852286222109456 0 996 0
186.526357388941904 571.528458272396733 0 1003 0
196.859914224887689 570.421596010507301 0 1005 0
201.728807797343393 569.387268074030317 0 1006 0
177.105120516129716 590.799170057694369 0 1007 0
168.585912585673157 596.08670669650769 0 1009 0
167.041526583807581 596.152145553610353 0 1010 0
159.76147990936181 519.283417432256329 0 1011 0
154.342309270376632 523.064714578605845 0 1012 0
151.196719115896201 524.850511948009057 0 1013 0
180.316905813679341 498.727991527938912 0 1014 0
183.314572091392336 497.229158389082386 0 1015 0
177.747477575639664 481.384350921170949 0 1016 0
182.672215031882388 479.885517782314537 0 1017 0
167.041526583807581 486.094969357577043 0 1018 0
172.84509495225825 483.045727862318358 0 1019 0
83.7416329040118512 1152.22394229281963 0 1229 0
83.0962975760871814 1156.83100986554405 0 1230 0
175.37132398625613 1340.27874789142084 0 1275 0
171.945419668869931 1343.70465220880715 0 1276 0
-137.204784130688665 348.558926487748295 0 1277 0
-138.275379229871874 352.413068844807754 0 1278 0
-106.799883313885857 348.987164527421555 0 1305 0
-108.084597432905696 352.413068844807754 0 1306 0
-109.369311551925534 355.838973162194009 0 1307 0
-111.296382730455321 359.478996499416894 0 1308 0
-113.00933488914842 364.189614935822931 0 1309 0
-114.508168028004889 367.401400233372556 0 1310 0
-116.435239206534675 372.75437572928854 0 1311 0
-117.728188382648057 376.264556235658461 0 1312 0
-119.004667444574352 380.676779463244202 0 1313 0
-120.075262543757503 384.530921820303661 0 1314 0
-121.788214702450659 389.883897316219645 0 1315 0
-122.644690781797181 393.738039673279218 0 1316 0
-129.496499416569634 417.077012835472885 0 1321 0
-130.352975495916212 422.21586931155224 0 1322 0
-132.708284714119259 429.495915985997954 0 1323 0
-136.538442072489033 440.106365982606803 0 1325 0
-137.910407469222662 445.49979269009242 0 1326 0
-139.131855309218452 452.192532088681787 0 1327 0
-139.988331388564973 456.046674445741246 0 1328 0
-141.487164527421442 460.97141190198397 0 1329 0
-143.414235705951228 466.752625437573215 0 1330 0
-143.200116686114598 467.180863477246476 0 1331 0
-74.6820303383899216 388.813302217036494 0 1340 0
-75.7526254375731583 392.88156359393264 0 1341 0
-76.3949824970830775 399.305134189031833 0 1342 0
-109.583430571762165 376.608518086347999 0 1358 0
-81.9620770128356924 388.599183197199864 0 1364 0
-102.731621936989711 358.622520420070316 0 1365 0
-87.8380785112525757 360.422825263135451 0 1368 0
-84.9597432905486585 360.763710618436676 0 1369 0
-99.0915985997668827 342.563593932322362 0 1370 0
-92.3935911944664952 343.044465658254808 0 1371 0
-88.8138856476081742 343.634189031505571 0 1372 0
-124.143523920653649 378.535589264877785 0 1373 0
-129.503213394692665 375.96365816803177 0 1374 0
-130.99533255542616 374.8955659276549 0 1375 0
-126.498833138856696 388.813302217036494 0 1376 0
-136.776546091015405 389.669778296383015 0 1378 0
-136.776546091015405 389.883897316219645 0 1379 0
-123.287047841307128 423.714702450408709 0 1380 0
-103.363409451584715 431.063301427895681 0 1385 0
-103.159859976663029 431.20886814469111 0 1386 0
-93.524504084014211 333.142357059510232 0 1387 0
-84.1032672112020805 341.707117852975784 0 1390 0
-80.2491248541425364 344.276546091015462 0 1391 0
-87.100933488915075 317.939906651108799 0 1392 0
-82.3903150525089814 321.579929988331685 0 1393 0
-78.3220536756128354 324.79171528588131 0 1394 0
-117.719953325554513 361.191948658109993 0 1395 0
-126.909027331851263 362.473678087495102 0 1397 0
-129.924737456242951 362.262543757293201 0 1398 0
-146.195366225139736 473.339261447730507 0 1421 0
-146.195366225139736 477.193403804790023 0 1422 0
-146.195366225139736 490.468783034661669 0 1425 0
-146.409485244976395 494.751163431394502 0 1426 0
-146.623604264813025 498.605305788453961 0 1427 0
-147.051842304486314 503.315924224860055 0 1428 0
-147.908318383832864 520.017207772117899 0 1431 0
-149.193032502852702 524.941945228360623 0 1432 0
-149.836537749999621 529.019987156884667 0 1433 0
-150.6918656417092 533.934944061499436 0 1434 0
-151.120103681382432 538.85968151774216 0 1435 0
-151.762460740892351 544.212657013658145 0 1436 0
-151.120103681382432 562.626892719609145 0 1439 0
-151.120103301877407 569.052009752854815 0 1440 0
-151.120518691125312 572.694094354325102 0 1441 0
-150.477746621872512 575.688152929644161 0 1442 0
-136.131772292817715 462.633310455898538 0 1465 0
-120.50108384474305 472.268666348547299 0 1469 0
-116.861060507520165 473.553380467567138 0 1470 0
-144.268295046610007 445.289669849130746 0 1471 0
-157.543674276481653 450.856764364883361 0 1474 0
-159.684864474848041 451.927359464066569 0 1475 0
-150.90598466154583 463.275667515408486 0 1476 0
-157.716437910403187 464.767900773523536 0 1477 0
-162.169029702645759 465.084730584203271 0 1478 0
-138.701200530857392 473.981618507240455 0 1479 0
-134.168744249740996 478.461150717344026 0 1480 0
-131.84939189608491 479.7628320428297 0 1481 0
-154.331888978932056 494.751163431394502 0 1482 0
-158.19983285605548 499.695528290563971 0 1483 0
-162.105188207610951 502.446534384507004 0 1484 0
-139.771795630040572 497.96294872894407 0 1485 0
-124.630204247780568 497.520290936390893 0 1488 0
-121.571678943926258 498.177067748780701 0 1489 0
-160.32722153435796 519.588969732444639 0 1490 0
-166.108435069947234 521.944278950647686 0 1491 0
-171.437060784630319 522.805151133519416 0 1492 0
-159.256626435174752 537.360848378885748 0 1493 0
-164.78242790976185 539.17926877512366 0 1494 0
-169.764751318752673 538.851831058726248 0 1495 0
-157.115436236808364 569.050463314708395 0 1496 0
-164.44931203145012 572.262690954931259 0 1498 0
-170.39081546668001 572.262248612257963 0 1499 0
-96.7329663658681511 640.496029820756576 0 1512 0
-98.4459185245612787 644.350172177816034 0 1513 0
-152.832149563067702 583.112132504537158 0 1544 0
-152.832149563067702 587.180393881433247 0 1545 0
-153.474506622577621 591.891012317839341 0 1546 0
-153.90274466225091 597.029868793918695 0 1547 0
-154.545101721760801 601.526368210488158 0 1548 0
-154.97333976143409 606.665224686567512 0 1549 0
-155.392307894401995 610.642104909395698 0 1550 0
-157.971006039147056 627.43476961072156 0 1554 0
-158.613363098656976 631.717150007454279 0 1555 0
-158.827482118493606 636.856006483533633 0 1556 0
-161.396910356533283 665.119717101970082 0 1562 0
-162.039267416043202 670.900930637559327 0 1563 0
-162.467505455716463 676.253906133475311 0 1564 0
-162.681624475553122 681.606881629391296 0 1565 0
-162.681624475553122 686.103381045960759 0 1566 0
-163.582100380972122 691.236527970027055 0 1567 0
-163.538100554899671 587.822750940943251 0 1575 0
-173.794015140077676 589.979672117100677 0 1577 0
-176.171122725261398 591.034536238492819 0 1578 0
-144.90974582911204 576.260323869764761 0 1579 0
-134.92252178125122 584.023526435617896 0 1582 0
-130.777890519893845 584.8250846632302 0 1583 0
-146.836817007641798 598.742820952611851 0 1584 0
-140.841484452215894 596.173392714572174 0 1585 0
-138.486175234012848 595.531035655062283 0 1586 0
-149.406245245681475 606.022867627057622 0 1587 0
-145.791732071436485 608.028651689063508 0 1588 0
-140.970931656191595 610.718487171013635 0 1589 0
-135.91674699597317 611.375843122973606 0 1590 0
-130.135533460383925 612.232319202320127 0 1591 0
-148.121531126661665 614.587628420523174 0 1592 0
-132.062604638913683 619.512365876765898 0 1595 0
-129.707295420710636 620.79707999578568 0 1596 0
-164.82281467391951 628.933602749577972 0 1597 0
-182.926685955899018 634.281011300164778 0 1600 0
-183.879407439380429 636.213649424023743 0 1601 0
-169.533433110325575 671.971525736742478 0 1602 0
-181.952336260850672 671.971525736742478 0 1604 0
-183.665288419543771 672.828001816089113 0 1605 0
-171.032266249182044 686.53161908563402 0 1606 0
-180.881741161667463 688.886928303837067 0 1608 0
-182.380574300523932 688.886928303837067 0 1609 0
-254.098160857469026 859.247325481341477 0 1637 0
-254.312279877305656 862.673229798727789 0 1638 0
-149.909751516947097 1373.19093928118627 0 1771 0
-148.779999777422233 1375.25164331096744 0 1772 0
-106.371645274212256 339.351808634772397 0 1773 0
-129.924737456242553 345.775379229871589 0 1778 0
-141.487164527421101 348.987164527421214 0 1779 0
-149.870676895437242 349.404193544964414 0 1781 0
-152.19311551925307 349.415402567094475 0 1782 0
0.629316246456369299 3.50058343057177979 0 1783 0
55.2299619245733311 115.895927885448486 0 1784 0
56.3823197741263584 121.155775962660471 0 1785 0
-52.9146463869005004 115.453325554259038 0 1786 0
80.0369288756431843 101.830805134189063 0 1787 0
91.757788225775812 146.697196965059049 0 1788 0
-85.0611637435286525 254.238390577809696 0 1789 0
-91.0564962989545847 310.123454755172588 0 1790 0
-101.659222124999758 335.144026404500323 0 1791 0
-103.25105269052699 340.3670959873225 0 1792 0
-86.6158047333411787 231.925598051544853 0 1793 0
12.2132944919529791 267.820626536473867 0 1794 0
13.2838895911361305 274.24419713157306 0 1795 0
16.5899790347504563 291.440832697798669 0 1796 0
65.2503881817921751 272.652626283760696 0 1797 0
72.1653945774309022 306.568677820688833 0 1798 0
73.3869109355845239 311.19404985435574 0 1799 0
120.617449001171167 425.042657322087052 0 1800 0
137.379079149819518 466.240913238911276 0 1801 0
171.691166193120239 502.382821176695643 0 1802 0
-142.450700116686335 463.862018669778593 0 1803 0
-146.51654475489471 496.678234609924175 0 1804 0
0 12 1 5.97344179059374536
0 66 2 5.26483031314907013
0 586 3 3.55670118121379764
1 2 4 4.20816738736991969
1 63 5 3.68848203568223409
1 586 6 3.55670118121380785
2 3 7 26.5173200267335751
3 4 8 5.38461220513590977
4 5 9 5.02021106801597394
4 47 10 3.61519363024604079
5 6 11 60.0913122576177869
6 149 12 7.91579213950424698
7 8 13 4.20462528998759755
7 149 14 5.97153372174275354
8 90 15 5.75517208169332406
8 587 16 2.7196166419435932
9 77 17 7.95270781138371596
9 587 18 2.71961664194358121
9 588 19 2.6736020899791999
10 11 20 5.0668837080127469
10 80 21 6.62273062067110985
10 588 22 2.67360208997917193
11 112 23 28.0610081155212256
12 13 24 17.9094336862783301
13 14 25 3.06912837495086777
14 15 26 3.76034233427353826
14 19 27 3.98494885624797313
15 16 28 102.332162284248938
16 17 29 8.08381870905445155
17 18 30 4.91243011967317411
17 126 31 7.16334980315932413
17 132 32 7.64120203202859472
18 109 33 44.3899460370560845
19 20 34 4.03500600302475565
20 21 35 4.86223211765010266
20 29 36 5.66714077844751607
21 22 37 59.5464586904788575
22 23 38 5.07324293828017048
23 24 39 4.6894424729551627
23 39 40 7.02067536776114753
24 25 41 4.22403733955658822
25 26 42 6.12849447203498965
25 45 43 5.70245040840143247
26 27 44 6.76940325833056633
27 28 45 5.91973397430454451
27 95 46 2.43977874926183391
28 198 47 102.547283879673017
29 30 48 89.7665317716812723
30 31 49 4.82077225228217809
31 122 50 7.41025293920082095
31 589 51 2.80588655339688797
32 33 52 5.40808728705822706
32 125 53 5.39182940273103828
32 589 54 2.80588655339690529
33 34 55 5.23072448341693175
34 35 56 5.48311937554314088
35 36 57 5.02021106801599526
35 127 58 6.16972326704150387
36 37 59 4.45530826471520935
37 38 60 2.36130865768645082
37 137 61 5.8749851634613961
38 140 62 9.74559288000746982
39 40 63 55.7235452071581321
40 41 64 4.74617166256500411
41 42 65 5.57988777424912286
41 146 66 3.13191907320622898
42 43 67 2.87265596508880483
43 44 68 2.2747137225002354
43 135 69 5.58830392457446035
44 101 70 31.0138176321066794
45 46 71 52.6977564704008685
46 96 72 7.20276829801645757
47 48 73 41.2957130332351667
48 49 74 5.73319884958992176
49 50 75 4.82175641843758918
49 69 76 5.99578454409249062
50 51 77 5.22911255768573824
51 52 78 4.78827750950895314
52 53 79 6.30075737251323353
52 71 80 4.51022399236504778
53 54 81 11.701130729373773
54 55 82 5.76468909119270023
55 89 83 6.00400199285364611
55 590 84 2.8335703892237869
56 57 85 5.49124854142357588
56 91 86 3.59222947541897453
56 92 87 6.77797680473784947
56 590 88 2.83357038922376159
57 58 89 5.10392373680424516
58 59 90 5.23870778923350944
58 85 91 6.99931308998341173
59 60 92 8.3313628050408326
60 148 93 4.77010966048671659
61 62 94 4.43523920653441905
61 148 95 6.79613224833513918
62 155 96 3.89046654849234441
62 591 97 3.86066136952094663
63 64 98 115.777350844420937
64 65 99 2.47205447355920782
66 67 100 25.2017420209287053
67 68 101 0.422403733955632354
69 70 102 4.49021328379219664
71 72 103 5.98589720590656515
72 73 104 4.24253563929692135
74 75 105 14.1369038900979014
74 149 106 8.71042620655097899
75 76 107 4.45566246369932628
77 78 108 17.0643206887509571
78 79 109 9.1623644466524361
80 81 110 25.3925872069928573
81 148 111 3.64632337490460401
82 83 112 12.7970385229475312
82 148 113 3.83916791314247208
83 84 114 4.36140840091459836
85 86 115 8.51697526733915211
86 87 116 3.87715089250192779
88 89 117 19.3128568622829171
88 149 118 3.91196278985799628
90 91 119 19.4268660240926287
92 93 120 5.64592107176969016
93 94 121 3.43800499181779395
95 224 122 136.75513628430113
96 97 123 6.21522276193875012
96 147 124 5.60924867532244509
97 98 125 23.6212896064197153
98 99 126 4.74617166256500145
99 100 127 4.3540380293862091
99 145 128 6.09677462685874527
100 190 129 128.899363113827434
101 318 130 7.19016841332805612
102 189 131 39.8075280856894338
102 318 132 7.75368674448882
103 104 133 19.0070056067687148
103 140 134 8.39634525183006808
104 105 135 5.38642124305280134
105 106 136 4.85294196840208603
105 141 137 4.23660779069474813
105 317 138 7.03406423196205122
106 107 139 11.5210092956789651
107 108 140 4.0040787870177672
108 160 141 6.02180370742508853
108 209 142 5.59541827945252201
109 110 143 5.36685391463761796
110 111 144 3.98808056455263005
110 131 145 9.09561257571407467
111 158 146 159.140950309620081
112 113 147 5.11783642699112562
113 114 148 5.27456012430728194
113 150 149 4.31928711769848572
113 154 150 4.99479869004170496
114 115 151 17.299112621238443
115 116 152 5.04650165968722764
116 117 153 4.8928472591975849
116 274 154 4.12373993972521813
117 118 155 4.37387831837641272
118 119 156 3.2307673230815328
118 277 157 5.14725367647605481
119 234 158 19.4531657450805042
120 121 159 4.54942744500042284
120 153 160 3.55802135708184686
120 591 161 3.86066136952092931
121 360 162 331.885434171409088
122 123 163 11.6507098608778215
123 124 164 2.51321611859351401
125 126 165 16.913557016626406
127 128 166 16.6249285629987611
128 129 167 1.33575789145969637
130 131 168 21.2191907334570473
130 140 169 7.64167949318311823
132 133 170 4.8054430668333552
133 134 171 4.36222653503471935
135 136 172 8.52865303833815069
136 140 173 5.84377998031567358
137 138 174 15.4937692127650877
138 139 175 2.55675367607247583
141 142 176 9.46092784635658646
142 143 177 4.0211637460949996
144 145 178 9.35103618125648417
144 318 179 3.70239533638263207
146 147 180 12.7864782865763544
150 151 181 9.90019536327845451
151 152 182 2.81184174910232265
153 154 183 21.9790144089346668
155 156 184 5.13613084625618033
156 157 185 6.33433973712529319
158 159 186 1.93893019002128719
160 161 187 12.6365938162243907
161 316 188 8.93603472750114136
162 163 189 7.33037301828840171
162 316 190 8.25900885376087679
163 164 191 5.09885975670585267
164 212 192 5.97234717026853978
164 592 193 2.67862808236477568
165 166 194 4.30373903494907761
165 215 195 5.93770226016029401
165 592 196 2.67862808236477568
166 167 197 21.8924456228017803
167 168 198 5.60403104374209082
168 169 199 5.13885647607935425
168 218 200 8.16183956684287892
169 170 201 8.90536503037185767
170 171 202 4.8610952781662089
171 193 203 5.17884818020812254
171 593 204 3.04696706870954692
172 173 205 4.98028136442001657
172 484 206 6.96142796331866709
172 593 207 3.04696706870948386
173 174 208 10.4685824867039745
174 175 209 6.13143562453023883
175 481 210 7.28706689455337919
175 594 211 2.57875323169502524
176 581 212 4.24213083736671415
176 594 213 2.57875323169502524
176 595 214 2.88629350479676638
177 439 215 6.47325155494545257
177 469 216 4.9271002209703747
177 595 217 2.88629350479671842
178 179 218 4.12283326948087936
178 206 219 5.57121066752807881
178 596 220 2.0318411401001395
179 180 221 4.89296887607540754
180 181 222 5.0276839356311207
180 203 223 4.66645843833438345
181 182 224 11.0623717760180966
182 183 225 5.37007769762229348
183 184 226 5.01239774473059363
183 200 227 8.36161502642280574
184 185 228 35.8671228589789379
185 186 229 4.22308718369716285
186 187 230 4.38697971192031222
186 221 231 7.5429484107908058
187 188 232 40.3453192616942147
188 437 233 5.9748368291098064
189 316 234 7.75213398116777519
190 191 235 5.51274743103824072
191 192 236 4.73593777752152079
191 194 237 3.78918207272807317
191 195 238 6.97021456141399831
192 461 239 63.7471451448387398
193 194 240 19.5759781129388486
195 196 241 28.2964028979277984
196 197 242 4.48472601599735743
198 199 243 5.28834968019702245
200 201 244 22.5859755178148802
201 202 245 0.328163187815211588
203 204 246 27.6339721523072086
204 205 247 2.63331155309761078
206 207 248 14.3455817513662929
207 208 249 1.72737338199838719
209 210 250 10.690907218909329
210 211 251 4.2665672232251044
212 213 252 9.49831479873024165
213 214 253 3.99421452014631173
215 216 254 14.3041871585763207
216 217 255 3.83752910451779305
218 219 256 11.6068619974397791
219 220 257 4.08920227571634332
221 222 258 9.44552601623719212
222 223 259 1.30243515088649198
224 225 260 4.71061843640603684
225 226 261 5.15666885696240129
225 259 262 7.01382793812889727
226 227 263 5.81679057006380074
227 256 264 8.87238531309441569
227 597 265 3.04302633574026249
228 271 266 5.87355697179861025
228 597 267 3.04302633574025094
228 598 268 3.47230159556328744
229 230 269 5.87950710608255633
229 262 270 6.65148940034107383
229 598 271 3.47230159556323859
230 231 272 5.45898530189193743
231 265 273 7.38322619765578114
231 599 274 2.71251000163678091
232 233 275 6.47026762373472764
232 268 276 5.75844901941744247
232 599 277 2.71251000163678091
233 325 278 70.706182185712251
234 235 279 3.72282483117342711
235 236 280 3.44311632985722849
235 283 281 6.63768961493576626
236 237 282 5.54742974068920702
237 238 283 6.23268020204248963
237 280 284 5.43302691584300046
238 239 285 6.66964337850281552
239 240 286 6.64114224955938415
239 286 287 9.20960727247559063
240 241 288 5.78121353558924511
241 242 289 6.20945157526256253
241 289 290 6.72006326874722948
242 243 291 5.78121353558924511
243 292 292 5.6325919985221482
243 295 293 5.35297549591599164
243 600 294 3.10657109286859967
244 245 295 6.2682405936613268
244 298 296 6.42357059509910133
244 600 297 3.10657109286854283
245 246 298 5.66910179955500748
246 247 299 6.24258852219431493
246 301 300 7.32399733392156538
247 248 301 4.9433214372063139
248 249 302 5.89282848601525533
249 304 303 7.83480169784920655
249 601 304 2.68056485883029749
250 307 305 4.20677126750914354
250 601 306 2.68056485883029749
250 602 307 2.1033856337545247
251 252 308 4.41417667620091425
251 310 309 8.3971790656520664
251 602 310 2.10338563375457932
252 253 311 4.853185568506305
253 254 312 4.18027936350884843
254 255 313 2.97463649015632692
254 313 314 7.73796632071238655
255 319 315 22.0134742788419082
256 257 316 44.3295588556800695
257 258 317 2.99968739360330483
259 260 318 15.6167482500504988
260 261 319 2.80242743272766637
262 263 320 13.6252624348435489
263 264 321 4.02293114451370659
265 266 322 12.6700422868294389
266 267 323 0.99751497351910523
268 269 324 9.11123012920168662
269 270 325 3.66012063710019619
271 272 326 16.3763494364400692
272 273 327 3.48560511013337937
274 275 328 10.5667775047438237
275 276 329 4.57734183535623185
277 278 330 12.9090204475144859
278 279 331 3.68384290899032685
280 281 332 14.9144911955972965
281 282 333 1.16351224687595645
283 284 334 11.1066922507630998
284 285 335 4.48601142798847885
286 287 336 11.9459225319628857
287 288 337 3.5198853428765986
289 290 338 14.5725086193107209
290 291 339 2.44487053049308223
292 293 340 11.5219623991491282
293 294 341 2.99566203475253134
295 296 342 11.4342078315104914
296 297 343 4.46667643592524843
298 299 344 11.6799822695330455
299 300 345 3.40919443890707496
301 302 346 14.6007227502051968
302 303 347 3.9365302835951006
304 305 348 45.1788317722581851
305 306 349 2.69651908097576598
307 308 350 16.6525719287775296
308 309 351 4.1993745404317302
310 311 352 14.2780837165490713
311 312 353 1.77239348045323664
313 314 354 21.7919762885008588
314 315 355 2.31605131521927943
316 596 356 2.03184114010013595
317 318 357 9.72549326160641314
319 320 358 3.95374042546474547
320 321 359 5.21895358707559076
320 364 360 7.4150620980210924
321 322 361 21.207019907684117
322 323 362 4.69599671948792441
323 324 363 3.48560511013337937
323 370 364 5.85227908186025036
324 337 365 15.2808627403171435
325 326 366 5.60403104374208816
326 327 367 2.18359412075678838
326 367 368 6.26290634016240322
327 328 369 23.9591202946982165
328 329 370 4.92939001982759084
329 330 371 4.2877300307945525
329 394 372 8.15340936362910718
330 331 373 4.28773003079449655
331 332 374 4.2877300307945525
332 333 375 5.37007769762233345
332 391 376 9.87039911267946657
333 334 377 53.9302295648645611
334 335 378 6.01060731280741489
335 336 379 5.14331535455473698
335 397 380 5.99915489088297793
336 433 381 671.564577784064909
337 338 382 2.87270810178211455
338 339 383 3.18310806899992693
338 373 384 8.15340936362912849
339 340 385 19.4896074781056896
340 341 386 5.39137916045414567
341 400 387 6.05620043630020799
341 603 388 2.49631132604202355
342 343 389 3.92898175032373409
342 379 390 7.2697283886795665
342 603 391 2.49631132604196182
343 344 392 5.30331696761151861
344 345 393 4.33028918829030651
345 346 394 4.78784683630354646
345 376 395 9.67334660045297134
346 347 396 4.67642998138732935
347 348 397 5.4883011222839162
348 349 398 5.18781398033047036
348 382 399 6.64114224955940635
349 350 400 5.7427090631080242
350 385 401 6.72006326874730764
350 604 402 4.60642398560266386
351 352 403 6.118278042750525
351 388 404 5.78463370414208544
351 604 405 4.60642398560266386
352 353 406 16.1171162481688484
353 354 407 4.7542137778302056
354 355 408 5.1075353350860615
354 431 409 7.26218187439025886
355 356 410 6.89516439093867906
356 357 411 5.49372089902812721
357 358 412 4.4461892499122726
357 605 413 4.53950274125489894
358 359 414 2.29010386999816262
359 408 415 7.69812396294850121
360 432 416 9.80106278638049133
361 362 417 9.7512349964574554
361 432 418 8.62942153911192911
362 363 419 5.79705250646436809
362 427 420 4.89486906418058432
362 605 421 4.53950274125484388
363 403 422 36.6389691385672762
364 365 423 17.8451954567078275
365 366 424 3.44971393389845371
367 368 425 14.9028975270172843
368 369 426 1.92557078794700143
370 371 427 12.4037853235761428
371 372 428 2.33599205145446298
373 374 429 9.79813158945842666
374 375 430 2.3012125702083579
376 377 431 14.7675696404552372
377 378 432 4.3035382873817607
379 380 433 10.1930389104316568
380 381 434 4.14784867709717631
382 383 435 4.75946344559522849
383 384 436 2.86671402577186729
385 386 437 18.1523434938853931
386 387 438 0.372398025316061254
388 389 439 10.3216082287782243
389 390 440 1.23147762780749082
391 392 441 7.65157245900874727
392 393 442 0.478784683630382069
394 395 443 8.08849012386364308
395 396 444 3.75167078220599581
397 398 445 12.0444990290020293
398 399 446 3.21891468545088433
400 401 447 6.29395832545167089
401 402 448 2.55470699816425828
403 404 449 4.41417667620098353
405 406 450 21.4888350727627824
405 411 451 6.61000361474793419
406 407 452 2.39392341815176835
408 409 453 2.91233353366737502
408 424 454 8.02589380015741227
409 410 455 20.0333378233717774
410 411 456 4.71548226675329474
411 412 457 4.9986588488726591
412 413 458 21.3234362157650637
413 414 459 4.67642998138723609
414 415 460 5.55885306857563055
414 418 461 6.72006326874727833
415 416 462 6.80480890270711125
416 417 463 6.96855193953105978
416 421 464 7.67550237656842071
417 435 465 759.304425192933877
418 419 466 10.4862609134934299
419 420 467 4.9775454694133332
421 422 468 10.0650148787278617
422 423 469 1.54577177059785886
424 425 470 6.60799655897534688
425 426 471 3.61715491298501801
427 428 472 3.35149278541252205
429 430 473 5.14777037085515499
429 432 474 5.17624658672752513
431 432 475 6.55585841089392218
433 434 476 4.65204571184726223
435 436 477 4.84496034904018202
437 438 478 4.00007339618599289
437 582 479 7.79404996897933788
437 583 480 4.30373903494869836
438 577 481 527.297000012475792
439 440 482 3.65886741485590239
440 441 483 3.65886741485595568
441 442 484 4.11866158146641315
441 466 485 7.19771205044058338
442 443 486 5.01239774473054034
443 444 487 3.54430043530317374
443 487 488 5.58354091647462791
444 445 489 5.68928378506443977
445 446 490 3.74073318472617933
445 464 491 7.86140540081879813
446 447 492 4.59315932725867615
447 448 493 4.00007339618597779
447 472 494 5.56709451575258818
448 449 495 5.62036936133636367
449 450 496 3.94815964507180306
449 475 497 4.83074527581443025
450 451 498 24.3827625630311289
451 452 499 5.20974060354597768
452 453 500 7.65157245900869398
452 478 501 7.22314574117840724
453 454 502 11.2814067368742723
454 455 503 5.56519008649781899
455 456 504 6.8032856388116425
455 509 505 6.36135882143038067
456 457 506 3.94815964507169204
457 458 507 5.14777037085517097
458 506 508 5.60732848957123498
458 606 509 3.04696706870949319
459 460 510 0.47878468363033122
459 512 511 8.25926987125114209
459 606 512 3.04696706870949319
460 490 513 6.84816656952005953
461 462 514 4.20677126750909647
462 463 515 6.45560855242363818
462 465 516 7.5429484107908058
463 533 517 244.128865886845119
464 465 518 30.3224907348517014
466 467 519 15.0795240266211472
467 468 520 2.89845070135814264
469 470 521 6.71524689183205492
470 471 522 3.62795609939901142
472 473 523 5.9448381664304506
473 474 524 1.83500425715618176
475 476 525 10.3516180328024276
476 477 526 0.214119019836630287
478 479 527 21.5894988963880863
479 480 528 0.250243996490415177
481 482 529 12.7454062420669025
482 483 530 4.63210263043859793
484 485 531 5.95312488941196527
485 486 532 5.18327265617976707
487 488 533 9.27922122048629916
488 489 534 3.02309200318950566
490 491 535 3.85414235705951569
490 515 536 7.52164490289595022
491 492 537 13.2858738745080203
492 493 538 4.28773003079455428
493 518 539 7.92240373395566166
493 607 540 1.93004276268265373
494 495 541 4.73004374948395334
494 521 542 6.88185325035666118
494 607 543 1.93004276268276742
495 496 544 16.7655061053026913
496 497 545 5.08955099989468351
497 498 546 4.12850154098381328
497 524 547 12.3541293521303626
498 499 548 4.9888262323473187
499 500 549 4.94332143720628725
500 501 550 5.39137916045414212
500 527 551 8.27342149906036894
501 502 552 18.4256088772104079
502 503 553 6.42511703324568106
503 504 554 3.64208462515840115
503 530 555 5.99533313437533533
504 505 556 3.06227736912467119
505 535 557 7.78836863135900526
505 554 558 5.59732189648761747
506 507 559 18.4697185781560762
507 508 560 3.86008552536548777
509 510 561 14.4683984371115457
510 511 562 2.39392341815175769
512 513 563 6.97201789667068983
513 514 564 4.46384977315335707
515 516 565 6.37254805878989394
516 517 566 2.65965592013857455
518 519 567 6.27755794056625938
519 520 568 4.77701108967047094
521 522 569 15.4060227668703114
522 523 570 3.12824756303109996
524 525 571 6.24258852219436911
525 526 572 5.39771738074754648
527 528 573 5.81731335532159477
528 529 574 4.99307140044056297
530 531 575 8.44133418045723438
531 532 576 5.94150345169601302
533 534 577 4.21765555806200076
535 536 578 4.06826137689608913
536 537 579 4.75421377783027577
536 551 580 10.7252043911251533
537 538 581 5.15666885696240307
538 539 582 4.54215032722516998
538 557 583 7.27059411039712522
539 540 584 5.15666885696240307
540 541 585 3.99888867101405721
540 560 586 5.60403104374208816
541 542 587 17.0135105251765424
542 543 588 4.33028918829019016
543 544 589 5.14331535455473698
543 568 590 6.80480890270704641
544 545 591 28.6922243645406851
545 546 592 5.81679057006374656
546 547 593 5.37007769762227749
546 571 594 7.57025054537521758
547 548 595 5.35725616472955224
548 549 596 4.49649941656946339
549 550 597 5.21153088835626477
549 574 598 8.36161502642280219
550 579 599 692.437514102575847
551 552 600 10.4878721369321699
552 553 601 2.60064968539371044
554 555 602 12.8743629266979482
555 556 603 4.22142912825429395
557 558 604 6.52272749090327864
558 559 605 2.44133244464051691
560 561 606 4.13374832206647902
561 562 607 5.52044668152706297
561 565 608 6.96046976874100487
562 563 609 5.0967538126894496
563 564 610 5.84431186869532926
565 566 611 17.0330873693883476
566 567 612 2.68290362871293286
568 569 613 18.9578837620715461
569 570 614 2.15470841249578227
571 572 615 12.4662297890129743
572 573 616 1.91513873452142658
574 575 617 10.2769666194716862
575 576 618 1.49883313885646885
577 578 619 3.43258901509370462
579 580 620 2.35007235874042442
581 582 621 24.7691845465036486
583 584 622 8.62859963477480463
584 585 623 2.32246567328102094
