ply
format ascii 1.0
element vertex 361
property double x
property double y
property double z
property int og_index
property int root
element edge 381
property int vertex1
property int vertex2
property int name
property double len
end_header
0.707706104402859637 -4.37908401400234482 0 1 0
-6.29229389559714036 -1.37908401400234482 0 9 0
-34.2922938955971404 -26.3790840140023448 0 20 0
-39.2922938955971404 -28.3790840140023448 0 21 0
28.245890211213009 -66.0138721199526515 0 28 0
29.1327256342201508 -69.6127479579930224 0 29 0
-3.2914283914507223 2.00481330221704468 0 30 0
-25.0945253824790484 8.23758794687616103 0 35 0
-29.8374580936414873 8.94095074881320784 0 36 0
-34.0090479947180029 9.51356476079347146 0 37 0
-52.7809266411590556 14.1780921820303405 0 41 0
-59.7595626423314457 16.6355881108896 0 42 0
-66.091895135908203 18.9563885647608004 0 43 0
-77.9238671312407405 23.5071470245040928 0 45 0
-79.1753257076701402 24.6448366394399159 0 46 0
-0.902280200085556316 5.30411318553092315 0 47 0
-11.5965625804822139 16.4534714119019867 0 52 0
-11.9378694649630006 20.662922987164535 0 53 0
-12.2791763494437873 24.98614352392066 0 54 0
-24.9075310752314181 62.6436697782964274 0 61 0
-34.6916617636794626 75.9546382730455178 0 62 0
2.73832656770912308 2.23235122520419793 0 63 0
-2.49504566099562908 31.5847432905484453 0 70 0
-3.29161489560499376 35.5835643134125093 0 71 0
-4.42911800638660225 41.1413360560093508 0 72 0
-13.8719418103539738 62.4161318553092457 0 76 0
-14.7796644446444816 67.3924846915228244 0 77 0
-15.2371693482768933 71.9727246207701654 0 78 0
-15.2371693482768933 76.5234830805134578 0 79 0
-2.26750773800858951 37.2731913652275608 0 80 0
3.536422371312824 59.1272318890836317 0 84 0
4.78616787459361603 64.5777421236872868 0 85 0
6.26516437401016901 68.7871936989498494 0 86 0
5.58255060504870926 -2.09086931155192701 0 87 0
7.27529667901262656 27.6469626401067643 0 94 0
6.60647125849095573 32.6086639439906776 0 95 0
6.49421822128772419 36.5112176510841238 0 96 0
8.13474643613915305 56.9570955547672071 0 100 0
8.654312565375335 61.6197491248541809 0 101 0
8.78908882557743709 65.5544409765445977 0 102 0
9.10938841134975519 68.5596557759626961 0 103 0
8.54054360388181522 34.2014294049008214 0 104 0
35.7313254008479362 60.3682905484247812 0 112 0
39.407885108010305 63.5931091062833076 0 113 0
43.228399380751739 67.3930848431740657 0 114 0
51.6589800099494596 75.9546382730455178 0 117 0
11.3847676412212877 61.1646732788798175 0 118 0
37.5516287847452759 64.4639731621937102 0 124 0
42.3299251674757215 62.188593932322064 0 125 0
78.2809169994477543 73.4517211201867184 0 133 0
78.2809169994477543 73.7930280046674767 0 134 0
-16.9437037706805995 19.2976954492415445 0 135 0
-20.1294215487591828 19.9803270925056466 0 136 0
-23.2020144476572909 20.0778379211800484 0 137 0
-54.0323852175884554 17.5911610268378098 0 143 0
-27.7517551125709474 12.4715577596266058 0 144 0
-24.1111483447763248 15.8846266044340751 0 145 0
-18.1951623471100561 24.6448366394399159 0 146 0
-46.8641915862003771 97.5674333338460684 0 152 0
-52.7801775838666458 108.716791560217118 0 153 0
-18.8770270587792197 114.632777557883387 0 169 0
-19.8530620233569266 120.266215255632275 0 170 0
-20.6973304426765026 125.213290976786496 0 171 0
-20.6741224495068536 141.551684431179126 0 174 0
-20.6973304426765026 145.577935084137664 0 175 0
-20.2422545967021961 148.649697044464403 0 176 0
-22.1763269420930555 121.117608363017538 0 177 0
-17.5117995208562434 73.7897203816874168 0 186 0
-45.4989640482774007 99.5015056792369563 0 194 0
-53.2352534298409523 103.824726215993067 0 195 0
-18.8770270587792197 68.7838860759698179 0 203 0
-26.4995474788491947 70.8317273828542824 0 205 0
-36.3974471287908159 70.8317273828542824 0 206 0
-45.3851950867838241 71.9694169977901055 0 208 0
-48.7982639315912934 72.538261805258017 0 209 0
3.99053420143081894 73.7897203816874168 0 210 0
-7.27259298643389229 140.685869739913642 0 224 0
-6.02113441000437888 144.098938584721111 0 225 0
-3.97329310311988593 148.535928082970827 0 226 0
2.51153770201426596 66.0534310001238367 0 228 0
-1.21329443040485785 69.3285623213302671 0 229 0
-5.33852064104291912 73.1071066127259286 0 230 0
-11.8233514461771847 86.0767682229942892 0 233 0
-12.392196253645011 90.2862197982568233 0 234 0
19.6353499286376518 83.3905011313188851 0 235 0
26.7443265001471673 87.8970716068916005 0 237 0
30.4044779162796885 90.1978156860713369 0 238 0
33.3429262667749526 93.8130576045578408 0 239 0
35.1632296506722923 97.681202295339645 0 240 0
35.1632296506722923 102.231960755082937 0 241 0
35.2060751741098557 106.890822378707455 0 242 0
35.5484271304504773 112.461127877044092 0 243 0
35.8457508276724184 117.971392498941682 0 244 0
36.6380674425903408 123.572023194250434 0 245 0
37.5994886934181523 129.363808531198458 0 246 0
38.8120134163505099 134.666706670474298 0 247 0
41.9893673402872309 140.458331816926489 0 248 0
43.5357945413487641 145.027562739917016 0 249 0
47.1089706074983496 149.559848736413073 0 250 0
13.7746648898788635 84.8253096465648895 0 251 0
13.7746648898788635 89.3760681063081535 0 252 0
14.0022028128660168 94.7232092965065107 0 253 0
14.22974073585317 99.2739677562498031 0 254 0
12.0681304674751573 134.883652703741006 0 260 0
12.0681304674751573 138.524259471535629 0 261 0
12.750744236436617 142.961248969785288 0 262 0
12.9782821594237703 150.242462505374533 0 264 0
31.5226228828776129 127.488670206658142 0 265 0
18.5529612726093092 137.272800895106229 0 269 0
8.31375473818684441 140.572100778420065 0 270 0
-2.26675868071629338 144.440245469201898 0 272 0
-9.66174117779905828 144.554014430695474 0 273 0
-15.2364202909845972 147.17070054504785 0 275 0
-26.0444716328748882 147.056931583554274 0 276 0
-30.5952300926181806 148.308390159983674 0 277 0
-34.1220678989191697 149.67361769790665 0 278 0
38.462529533986185 96.3159747574166687 0 279 0
42.6378105119629254 96.8948843275486382 0 280 0
47.6041902865126758 97.3435667207922535 0 281 0
61.6157424387529318 96.9077973929937713 0 283 0
78.2773638006277679 96.5434258683740012 0 284 0
57.8060604034363905 84.8386813131132698 0 287 0
68.4975353682917785 94.9507472194936639 0 290 0
73.8446765584901641 99.0464298332626214 0 291 0
76.8597305131464736 103.540706122599445 0 292 0
81.0121211325858894 107.806639868268448 0 293 0
40.5103708408705643 115.656698211325605 0 294 0
54.5860526559368964 120.219196754174092 0 297 0
66.5932157156812536 118.63952419343012 0 298 0
73.2758317510222241 115.542929249832028 0 299 0
79.1918177486885497 123.734294477369914 0 303 0
78.850510864207763 127.488670206658142 0 304 0
17.6428095806606962 94.3819024120257808 0 305 0
31.2950849598904597 107.237795060800536 0 309 0
46.1988189155497366 100.525426332679203 0 310 0
51.2053162062621823 105.644046546338799 0 311 0
55.4680605144950505 109.701940224353578 0 312 0
63.956686298756722 116.901343405387294 0 315 0
68.7250732912789317 121.117608363017538 0 316 0
76.1200557883618103 125.895904745747984 0 318 0
66.2103324170135465 127.473267226978138 0 319 0
50.8633463367866625 107.920408829762025 0 325 0
56.2104875269849344 116.453080941780669 0 327 0
58.9409426028308872 126.009673707241561 0 328 0
44.6060534546395502 137.841645702574112 0 332 0
36.5284571885952118 142.847480008291711 0 333 0
43.2408259167166307 127.488670206658142 0 337 0
45.6108993740083406 129.760627708869663 0 338 0
47.5640464534726561 131.584352820427114 0 339 0
39.0313743414540113 84.1426958776033729 0 340 0
50.6358084137993956 81.1847028787702669 0 343 0
57.9170219493886407 78.1129409184435275 0 344 0
63.4917010625741796 77.089020265001281 0 345 0
67.8149215993303187 76.9752513035077044 0 346 0
-132.83634113126999 136.222342211932414 0 357 0
-133.405185938737873 137.246262865374661 0 358 0
-76.5207051919466039 192.082902305281436 0 369 0
-77.5446258453888504 194.244512573659506 0 370 0
-21.0895928879717189 161.269145585099807 0 386 0
-20.8876830215848486 165.802272200263872 0 387 0
0.273343816221540692 164.437044662340895 0 391 0
-0.181732029752765811 168.760265199097034 0 392 0
-1.54695956767579901 171.035644428968681 0 393 0
-10.3737077263020865 177.079979122878626 0 395 0
-11.8999350635917835 178.430626926051559 0 396 0
2.62065180748766124 166.135392958637965 0 397 0
17.5516722535087411 155.935315812422118 0 398 0
1.14165530807110827 170.231075572406951 0 401 0
0.869952570296504746 174.15198715136944 0 402 0
-0.451110152839078182 179.332592491893536 0 403 0
11.7221687269742461 162.494786190843342 0 404 0
40.6194849463443006 154.986034732266887 0 417 0
32.2325048127000855 177.93416872425172 0 424 0
33.5658093337420951 180.811588991310146 0 425 0
48.0144674434270655 171.710072071823504 0 426 0
10.5844791120384798 201.517539983142171 0 435 0
9.33302053560908007 202.882767521065205 0 436 0
48.128236404920699 152.824424463888818 0 437 0
51.1997086771676777 160.919558850498333 0 439 0
52.6789948646639914 165.339010228182872 0 440 0
54.7268361715484843 171.141227264355621 0 441 0
56.6607668649533025 175.90500929977361 0 442 0
60.1877463232403898 184.565964720598402 0 444 0
61.8942807456442097 189.344261103328847 0 445 0
62.9182013990864561 192.98486787112347 0 446 0
64.7385047829837958 197.763164253853972 0 447 0
66.2175012824003488 200.721157252687078 0 448 0
67.8102667433104216 204.816839866456064 0 449 0
69.7443390887013948 211.301670671590273 0 450 0
71.3654711743071175 216.623028607371793 0 451 0
72.7023320875345007 221.768415128999891 0 452 0
59.8464394387597167 196.056629831450209 0 454 0
66.2175012824003488 185.931192258521378 0 462 0
70.0631615080756092 186.295312189181118 0 463 0
74.0498062666499663 186.614399187365109 0 464 0
79.5958347462782285 186.402479374206393 0 465 0
86.0133005822837049 185.817423297027801 0 466 0
71.7921803955858877 189.913105910796787 0 467 0
74.1813285869511674 192.188485140668433 0 468 0
91.3604417724820905 205.613222596911157 0 472 0
92.6119003489114903 208.457446634250744 0 473 0
70.9957976651307945 192.302254102161953 0 474 0
82.0308293288779851 212.553761372984525 0 479 0
81.917617968514719 212.666898209513249 0 480 0
66.7863460898682888 218.241577322698845 0 481 0
63.3732772450607627 202.882767521065205 0 484 0
60.4859782021931096 215.736345603065161 0 486 0
62.1218186686313629 217.331425630750175 0 487 0
98.8876779755582902 96.0980730656995519 0 490 0
103.604438893200836 96.5596557759625824 0 491 0
121.590436559478576 161.865956826137619 0 500 0
121.804555579315206 161.437718786464359 0 501 0
81.9784178897002676 129.748103850641712 0 502 0
126.515174015721186 153.515315052508697 0 513 0
132.082268531473915 156.512981330221692 0 514 0
61.2088729655462203 168.289527421236812 0 515 0
69.124183208704153 171.168323831353348 0 517 0
72.5571810168880802 172.143669778296328 0 518 0
-8.13389908801855199 246.599640867196229 0 555 0
-8.34013368790476761 250.441649103788279 0 556 0
78.806307385607397 240.163936151629571 0 560 0
79.6627834649540318 244.01807850868903 0 561 0
80.9474975839739272 247.229863806238654 0 562 0
81.8119159300613319 251.755377795185439 0 563 0
83.0886877823402301 257.293457738560733 0 564 0
84.1592828815234952 262.004076174966769 0 565 0
85.0157589608700164 266.286456571699603 0 566 0
85.6611257350958795 271.875583598363448 0 567 0
86.9428301393998026 277.634764623041463 0 568 0
88.4416632782563283 281.917145019774296 0 569 0
88.8733609738523 285.390712162398756 0 570 0
90.0681302160753603 291.615557016808964 0 571 0
91.0110915162958918 297.761952487685619 0 572 0
92.0816866154791569 302.686689943928343 0 573 0
93.1522817146623083 307.825546420007697 0 574 0
94.2228768138454598 311.465569757230526 0 575 0
94.8652338733554643 315.747950153963359 0 576 0
95.9634501222240033 320.11921691985259 0 577 0
97.4346621113951414 325.383306046612063 0 578 0
99.575852309761558 329.237448403671635 0 579 0
100.936169353241098 332.914155169348589 0 580 0
103.001756627147756 338.444566256647079 0 581 0
103.858232706494391 342.726946653379912 0 582 0
105.357065845350803 347.223446069949375 0 583 0
106.855898984207215 353.00465960553862 0 584 0
108.527396717064903 359.172707318273581 0 585 0
110.924160361103418 366.922395894920157 0 587 0
28.6478073612454409 234.218037724004944 0 590 0
28.7024567438338636 235.239198695386847 0 591 0
35.9825034182795207 242.733364389669248 0 596 0
35.3401463587697435 244.01807850868903 0 597 0
75.3804030682213124 245.731030667382186 0 598 0
50.7567157870076926 273.352384226308686 0 605 0
49.6861206878245412 276.135931484184994 0 606 0
85.8722350402165375 241.87688831032267 0 607 0
95.2268877278686432 242.333519066853228 0 609 0
100.432328389108079 241.66276929048604 0 610 0
87.3710681790730632 250.013411064114962 0 611 0
109.037706530202286 253.247694137625786 0 617 0
114.778302718162877 252.582839302154639 0 618 0
122.486587432282022 250.86988714346154 0 619 0
127.411324888524632 250.013411064114962 0 620 0
90.1546154369493706 260.29112401627367 0 621 0
110.740113934989949 256.863749209165974 0 625 0
80.5192595443006667 277.634764623041463 0 626 0
60.5558142139324218 293.349599687706814 0 631 0
61.0344287391664011 294.764286209972624 0 632 0
82.8745687625037135 286.199525416507072 0 633 0
60.458353665385971 308.189707947311888 0 639 0
59.9638336399832497 310.394974658047374 0 640 0
91.6534485758058963 267.142932651046124 0 641 0
113.493588599143095 287.27012051569028 0 647 0
97.862900151068402 292.837215031442895 0 648 0
110.710041341266788 290.481905813239848 0 651 0
114.861673015362499 290.281820254538161 0 652 0
120.174310155313037 289.282352573163621 0 653 0
122.700706452118538 291.552500912423056 0 654 0
86.9428301393998026 306.326713281151171 0 655 0
63.0080206410076471 326.917465195018735 0 662 0
63.1756189375328177 326.882139185468588 0 663 0
91.2252105361326358 320.458568590369396 0 664 0
86.5023574778930424 322.06200911099188 0 665 0
81.7667430276114828 322.46455934664499 0 666 0
80.9474975839739272 323.884472907755651 0 667 0
91.4393295559691524 323.456234868082333 0 668 0
77.5215932665876153 331.164519582201365 0 671 0
75.3804030682213124 333.519828800404412 0 672 0
100.86056642878134 314.249117015106833 0 673 0
120.403549650097602 317.282852745278433 0 677 0
124.199539590975064 318.103259372166349 0 678 0
103.858232706494391 325.81154408628538 0 679 0
115.461328343782043 326.41685804840472 0 681 0
118.204207035549189 327.73861526481511 0 682 0
94.0087577940089432 339.943399395503604 0 683 0
71.1402186479353986 353.46901106056896 0 688 0
69.8133085524686976 355.359968823741667 0 689 0
98.0770191709050323 347.651684109622636 0 690 0
92.0003080046286641 351.558823092699697 0 691 0
87.1650800321854149 354.921327836795342 0 692 0
108.568851142900371 336.089257038444089 0 693 0
116.063016837182772 337.802209197137188 0 694 0
119.06068311489571 338.016328216973818 0 695 0
111.994755460286569 354.289373724558459 0 696 0
118.239259710470037 353.852860226957546 0 697 0
123.983287234071213 352.246669670703682 0 698 0
111.75818091014321 373.707240728553018 0 699 0
111.546345292029969 377.81908943233708 0 700 0
110.901704830796689 380.773168383162101 0 701 0
111.114750014183755 405.594753863746632 0 709 0
110.901704830796689 408.394521942088602 0 710 0
110.901704830796689 411.60630723963817 0 711 0
110.901704830796689 415.888687636371003 0 712 0
110.681025014629313 422.827808463130623 0 713 0
110.259347771286798 426.380519608366342 0 714 0
109.831109731613424 430.234661965425801 0 715 0
105.548729334880704 371.780169550023231 0 757 0
101.262061395372143 373.913636567082335 0 758 0
98.911039719944938 374.991954847572856 0 759 0
105.976967374553965 377.133145045939216 0 760 0
96.5557305017418912 381.629644462508679 0 762 0
95.4851354025586261 382.4861205418552 0 763 0
116.682918366385934 380.344930343488841 0 764 0
122.816006619483005 380.975481800092325 0 765 0
126.960631318544642 381.415525442672049 0 766 0
105.976967374553965 406.895688803232133 0 767 0
101.908705997657762 409.893355080945071 0 768 0
118.824108564752351 410.321593120618331 0 769 0
123.534727001158444 411.178069199964909 0 770 0
104.264015215860809 426.808757648039602 0 771 0
98.7565582593774707 429.162753844111307 0 772 0
96.1274924620686306 429.59230490591591 0 773 0
145.395598633229838 644.637101889882956 0 809 0
150.718175565660658 647.492662846647136 0 810 0
-108.651454982662813 551.040265038465009 0 853 0
-105.375724467359532 552.633168028004889 0 854 0
116.876394409930754 293.490731381843489 0 855 0
10.5844791120384798 160.788251768439579 0 856 0
-49.7084156235399632 102.687036601057244 0 857 0
-30.3684412269233235 70.493728121353584 0 858 0
-10.0489572513387202 67.9058029753663703 0 859 0
-5.55245783476925681 68.1199219952030006 0 860 0
10.6597714081843833 75.8965134336812213 0 861 0
69.8092401262672411 96.5431175917861282 0 862 0
53.991992777860105 80.2176667060748088 0 863 0
62.12647352465126 121.629568689738662 0 864 0
0 0 0 865 1
-15.0084168964606306 69.6826046561464949 0 866 0
-19.162291947934591 22.3125818659727742 0 867 0
37.1187780680043033 126.467915862724439 0 868 0
64.3598446201663137 120.134546441584391 0 869 0
53.7029155181062379 168.240118746269275 0 870 0
62.4062410723653329 191.164564487226187 0 871 0
70.9276709518308053 188.104209049988924 0 872 0
84.5875209211967558 264.145266373333186 0 873 0
89.4707455949637733 288.50313458960386 0 874 0
95.4143419977897338 317.933583536907975 0 875 0
93.5943303291783195 320.288892755111021 0 876 0
106.106482414779066 350.114052837743998 0 877 0
115.869033712646569 291.886275818190825 0 878 0
111.652263101086646 375.763165080445049 0 879 0
110.901704830796689 410.000414590863386 0 880 0
0 4 1 69.1446802772073426
0 345 2 4.43590179466362411
1 2 3 45.1137013491525494
1 345 4 6.44164848359842246
2 3 5 5.38516480713450374
4 5 6 3.70653266073982568
6 7 7 22.7617183059929218
6 345 8 3.8539301022195902
7 8 9 4.79480238735272746
8 9 10 4.21070648579068152
8 55 11 4.10065150799860767
9 10 12 19.4085969634457811
10 11 13 7.39869222749664068
11 12 14 6.74422342126184393
11 54 15 5.8063483233594857
12 13 16 12.680773967811346
13 14 17 1.69129720287462226
15 16 18 15.9663383718475949
15 345 19 5.38030912163877684
16 17 20 4.22326567408141251
17 18 21 4.3366722494124339
17 51 22 5.18866296136128557
18 19 23 40.3450120519377649
19 338 24 9.56268558900965715
20 58 25 24.87294032914685
20 338 26 6.96503951850110159
21 22 27 30.8246123658533051
21 345 28 3.53296255062126452
22 23 29 4.0773879038455183
23 24 30 5.67298334827855566
23 29 31 1.97576188961762544
24 25 32 23.3600889971380958
25 26 33 5.05846300088220779
26 70 34 4.32716745739635833
26 339 35 4.75847519793084128
26 346 36 2.3015162690234936
27 28 37 4.55075845974329241
27 67 38 2.91125677623936552
27 346 39 2.3015162690235047
28 60 40 38.3237037264377207
29 30 41 22.613520653014298
30 31 42 5.59195186321285753
31 32 43 4.46171639728108271
31 79 44 2.71138342586343395
32 341 45 8.35793025069331641
33 34 46 35.8246120401303543
33 345 47 5.96125873754187374
34 35 48 5.00657640230320578
35 36 49 3.90416779622881327
35 41 50 2.50550147688521685
36 37 51 20.568253664584276
37 38 52 4.69151225910092595
38 39 53 3.93699944222411924
38 46 54 2.76811830433639727
39 40 55 3.02223556581671504
40 341 56 7.49887776447228749
41 42 57 37.7993576100781539
42 43 58 4.89045458126732768
43 44 59 5.38851973265195294
43 47 60 2.05038819288887852
43 48 61 3.24206430889457176
44 45 62 12.0729218043332125
45 343 63 4.85966665482831939
46 47 64 26.4593707430524958
48 49 65 37.9943410840735183
49 50 66 0.341306884480758299
51 52 67 3.25803372019864046
52 53 68 3.07413979579131169
52 56 69 5.71217215830463587
52 347 70 2.52482712143848298
53 54 71 31.1320022841440576
55 56 72 4.99029624141767769
57 347 73 2.52482712143847454
58 337 74 5.85661574531056672
59 333 75 476.306404880497951
59 337 76 6.76710177316871153
60 61 77 5.71736517519184773
61 62 78 5.01860013895248791
61 66 79 2.47435448267485025
62 63 80 16.3384421501663155
63 64 81 4.02631753981178342
64 65 82 3.10528832260378529
64 112 83 5.68844807467907376
64 113 84 5.54791398213803522
65 158 85 12.7044554400982914
66 156 86 89.8258435519946943
67 68 87 38.1236347106315066
68 337 88 5.27892885141992441
69 154 89 87.2394260721785315
69 337 90 3.70579580817491827
70 71 91 7.89307400782810298
71 338 92 3.8836300460602704
72 73 93 9.06529449659983833
72 338 94 6.03847295808535289
73 74 95 3.46014788042051702
75 76 96 71.1549972324818469
75 341 97 6.99409049726091681
76 77 98 3.63526993604524185
77 78 99 4.88677089965965195
77 110 100 3.76985775674114887
77 111 101 3.6689387652700991
78 160 102 16.9422322955086493
79 80 103 4.95992536091515923
80 81 104 5.59418343022232278
80 340 105 4.5043479536683515
81 82 106 14.6985294239942874
82 83 107 4.24771314703139335
84 85 108 8.43714510795337702
84 341 109 11.6927696201185256
85 86 110 4.32320849681084862
86 87 111 4.65880379901432562
86 149 112 10.5398205784342753
87 88 113 4.27504944512359586
88 89 114 4.55075845974329241
88 116 115 3.57060582399377946
89 90 116 4.65905863527815178
90 91 117 5.58081608788621697
91 92 118 5.51828031041065525
91 126 119 5.90191114358031665
91 133 120 6.73603186817810684
92 93 121 5.65639724590746784
93 146 122 7.6770139564448332
93 348 123 2.93551989478991215
94 95 124 5.43975595769305187
94 107 125 6.35959446941992113
94 348 126 2.93551989478992148
95 96 127 6.60594427731368672
96 97 128 4.8238271440626761
96 144 129 3.70055299139044536
96 145 130 5.96066848307777164
97 98 131 5.7714126133675876
98 171 132 8.45913226093102644
98 177 133 3.41999377868130061
99 100 134 4.55075845974326398
99 341 135 9.45653018889637487
100 101 136 5.3519802329897681
101 102 137 4.55644335697509195
101 132 138 3.65657052811871308
102 103 139 35.7092346729441488
103 104 140 3.64060676779462256
104 105 141 4.48919117048425331
104 108 142 6.60448174649120734
104 109 143 4.27656300489673846
105 106 144 7.36957345090926452
106 336 145 10.8140632608954395
107 108 146 16.2574623606608668
109 110 147 11.3097830599669074
111 112 148 6.19245204038071861
113 114 149 4.71969820300449339
114 115 150 3.78185551578285484
116 117 151 4.21522330789778987
117 118 152 4.98660645680643722
117 134 153 5.08543175172308715
118 119 154 14.0246479853833037
119 342 155 8.20160933675282777
120 208 156 20.6680987245399947
120 342 157 8.46812367997183202
121 122 158 14.9466229148447027
121 343 159 5.99173496167278241
122 342 160 2.06305908171586516
123 124 161 5.41193770422238174
123 342 162 4.74882294646138003
124 125 163 5.9531956610585226
126 127 164 14.8849843108817375
127 344 165 7.67118607999905322
128 129 166 7.36520585730728516
128 137 167 3.1579360060377395
128 138 168 3.26890163115884791
128 349 169 2.68757101724919156
129 130 170 14.2631898958303012
130 131 171 3.76985775674129275
131 139 172 3.16105785057491095
131 212 173 3.85860632245506174
132 133 174 19.4669300989429992
134 135 175 7.15997821320677463
135 136 176 5.88536236262849233
135 141 177 2.30190543615955345
136 137 178 11.1344484921368547
138 139 179 8.80947090365897978
140 210 180 65.6180643426476422
140 344 181 7.129285802018412
141 142 182 10.1263979049038397
142 344 183 7.8609742226611603
143 144 184 18.61566024723966
143 344 185 5.41598811097548705
145 166 186 23.3082221932241929
146 147 187 3.28314469446806845
147 148 188 2.67221945141959161
149 150 189 12.0989022282944916
150 343 190 3.49272564695068333
151 152 191 5.66793266716646027
151 343 192 4.45373154090702883
152 153 193 4.32471723769651373
154 155 194 1.17132314906210677
156 157 195 2.39185544230898417
158 159 196 4.53762101802843709
160 161 197 4.34710591486097453
161 162 198 2.6535253663823668
161 165 199 3.83970173971349604
161 167 200 1.97854421233103017
162 163 201 10.7080413559661807
163 164 202 2.03804302538150361
165 336 203 9.59241701786497991
166 336 204 8.4907460016041636
167 168 205 3.93031423524332624
168 169 206 5.34638928742805586
170 218 207 86.6896982032157553
170 336 208 2.05099912110698801
171 172 209 35.755153755772227
172 173 210 3.1713164993594769
174 175 211 48.0381679902237408
174 179 212 7.89609049333686297
175 176 213 1.85202451355863174
177 178 214 8.65869992929588683
178 179 215 4.66045471002941891
179 350 216 3.07649868166051998
180 181 217 5.14137211334332456
180 215 218 7.08159537067631994
180 350 219 3.0764986816604929
181 182 220 9.35276698822024244
182 183 221 5.07389160862389765
183 192 222 5.5081099071120061
183 351 223 1.89092775789148138
184 185 224 5.11327886298444589
184 191 225 4.34412742467583968
184 351 226 1.89092775789142675
185 186 227 3.30713671117964036
186 187 228 4.39448721538675446
186 205 229 3.57241785447028182
187 188 230 6.76710177316875683
188 189 231 5.56281579055834996
189 190 232 5.31622042039899245
189 204 233 4.85675678645984554
190 220 234 19.4664923250688524
191 247 235 49.45234344569689
192 193 236 3.86285980786830363
193 194 237 3.99939407204122199
193 352 238 2.0048651903263357
194 195 239 5.55007584669407894
195 196 240 6.44407932677283757
197 198 241 3.29929988331392421
197 201 242 2.51838331746192967
197 352 243 2.00486519032633792
198 199 244 21.9455101654404743
199 200 245 3.10737170983759103
201 202 246 23.3241494973740551
202 203 247 0.160052353606651487
204 249 248 39.4492666167938992
205 206 249 13.1761008428820023
206 207 250 2.28478758889235678
208 209 251 4.73929236834085987
210 211 252 0.47878468363033122
212 213 253 50.6034147283797111
213 214 254 6.32285888343728431
215 216 255 8.48025688746032102
216 217 256 3.56886167667138521
218 219 257 3.84753947351179049
220 221 258 3.94815964507171691
221 222 259 3.45919863048726928
221 251 260 4.61226484064957276
221 254 261 6.56825580585212787
222 223 262 4.60733067417626518
223 224 263 5.68335075655087429
223 257 264 5.8256863818651059
224 225 265 4.83074527581445601
225 262 266 6.23523997518304895
225 353 267 2.18359412075678838
226 227 268 5.62626334199341738
226 270 269 6.69271803520217201
226 353 270 2.18359412075678838
227 228 271 5.90007900413404407
228 229 272 4.53710068661211885
228 264 273 6.42357059509913597
229 230 274 3.50029021578256172
230 267 275 6.05307251525683832
230 354 276 3.16923362201491976
231 232 277 6.21830791277873729
231 272 278 7.88992310762219962
231 354 279 3.16923362201494152
232 233 280 5.03976317690774867
233 234 281 5.24919229483333982
233 277 282 6.29742929910845017
234 235 283 3.79419869826578804
235 236 284 4.33028918829031539
236 287 285 6.17984734668129665
236 355 286 2.25355563875437648
237 238 287 5.46581183828607475
237 355 288 2.25355563875437648
237 356 289 2.37518809420885013
238 239 290 4.40898046877746275
239 240 291 3.92028507886296529
239 290 292 5.48412274244545284
240 241 293 5.90356651361185225
241 242 294 4.36718824151359897
241 293 295 9.11704605620540676
241 299 296 6.04483439480973939
242 243 297 4.73972655132589793
243 296 298 7.29263103418321279
243 357 299 2.986173585134277
244 245 300 6.39051776130255078
244 302 301 5.29701201144113298
244 357 302 2.98617358513424858
245 246 303 8.11249677581110618
246 305 304 6.83591323033690568
247 248 305 1.0226222589455638
249 250 306 1.43635405089094292
251 252 307 37.0290064187415808
252 253 308 2.98233284581478131
254 255 309 9.4041502227602507
255 256 310 5.24847765930097943
257 258 311 22.1113451298897097
258 259 312 5.77896846725062474
259 260 313 7.89631929014361855
259 263 314 5.88499433138991623
260 261 315 4.99865884887254719
262 263 316 20.9368653366805617
264 265 317 25.4735540331466197
265 266 318 1.49345566390351259
267 268 319 31.445029168903698
268 269 320 2.26003347784992314
270 271 321 29.8705763837825806
271 274 322 3.30786793673489621
272 273 323 13.1247377132680487
273 274 324 4.15645038321831972
274 275 325 5.40583472064158066
274 358 326 1.89447967267232409
275 276 327 3.3965058119713154
277 278 328 31.7615529627648563
278 279 329 0.171280810217829316
280 281 330 4.98762092714524385
280 284 331 3.00530365640364039
280 356 332 2.37518809420884613
281 282 333 4.75269301701044977
282 283 334 1.63930400412701216
284 285 335 15.9102205841537447
285 286 336 3.18310806899988474
287 288 337 19.8410979945745396
288 289 338 3.8836331784405802
290 291 339 11.6512162316056429
291 292 340 3.0447373707568266
293 294 341 26.6937938908893813
294 295 342 2.31006745865885454
296 297 343 7.22441372233265433
297 298 344 5.88947091847505177
299 300 345 7.68743940147371685
300 301 346 3.00530365640364838
302 303 347 6.25974259567813007
303 304 348 5.96436922858460772
305 315 349 6.50160689311882312
305 359 350 2.05865089876307383
306 307 351 3.02359781914964909
306 318 352 5.61146060209818209
306 321 353 5.72400692318297644
306 359 354 2.05865089876307961
307 308 355 24.9934998267207149
308 309 356 2.80786209466688641
309 324 357 5.14777037085517097
309 360 358 1.60589264877478399
310 311 359 4.28238039673283311
310 326 360 8.02589380015730924
310 360 361 1.60589264877478399
311 312 362 6.94262899985537008
312 313 363 3.57764841467618711
313 314 364 3.87786038004247091
313 328 365 6.01060731280741045
314 331 366 393.869058480212857
315 316 367 4.78823595246617373
316 317 368 2.58651758787149477
318 319 369 10.440616612453379
319 320 370 1.37103068561138097
321 322 371 6.16541698992874743
322 323 372 4.16791942141958849
324 325 373 5.05339032168332736
326 327 374 4.78784683630354646
328 329 375 5.98943905709347479
329 330 376 2.66392587758680488
331 332 377 6.04020310746589395
333 334 378 3.64249232572618897
335 358 379 1.89447967267238471
339 340 380 4.50159460167897851
344 349 381 2.68757101724928571
