ply
format ascii 1.0
element vertex 572
property double x
property double y
property double z
property int og_index
property int root
element edge 603
property int vertex1
property int vertex2
property int name
property double len
end_header
0 0 0 1 1
-3.25554259043178718 2.44165694282381196 0 2 0
-9.6038506417737608 7.6505250875145947 0 4 0
-13.5295083541815302 9.70041642249530867 0 5 0
-18.8564893007954879 10.8990317052394232 0 6 0
-21.32380396732799 11.0688448074679258 0 7 0
-25.8815635939324693 11.3943990665110988 0 8 0
-31.0904317386232378 11.5571761960326853 0 9 0
-34.8343057176197135 10.9060676779463392 0 10 0
-86.4346557759627672 4.23220536756127785 0 20 0
-86.4346557759627672 4.39498249708285016 0 21 0
-29.4626604434073442 14.9754959159860164 0 22 0
-93.2712952158694293 38.7409568261377188 0 36 0
-96.3640606767795589 40.8570595099183436 0 37 0
1.45955897306589577 -4.31359393232182242 0 38 0
0.482896195936405093 -66.9827887981327876 0 50 0
0.482896195936405093 -69.0988914819134266 0 51 0
4.71318776327643718 0.383977221151582171 0 52 0
8.94539313083771503 1.19786286875952896 0 53 0
12.0451292047856668 1.84730225794920955 0 54 0
17.5725809954818715 2.33730277541063458 0 56 0
21.3162542237329262 0.0590779800049290316 0 57 0
24.5719975649101343 -2.54601111023697513 0 58 0
60.1238600289082115 -12.4780147442620759 0 64 0
64.7779485567421034 -12.4754160110537953 0 65 0
21.8047863630431493 3.15118842301856716 0 66 0
29.9436428391225036 15.3594731371375985 0 71 0
31.5714141343382835 18.7777928570909296 0 72 0
32.7108540409894886 23.3355524836953805 0 73 0
33.6871833166636634 27.3552301310152188 0 74 0
34.7811200946583767 31.8457736789078751 0 75 0
35.6408423723780743 35.7066143273359842 0 76 0
41.500819035155132 51.1704416318867601 0 77 0
50.0014546382346907 68.3382136059084928 0 80 0
52.0813324540582698 73.9592397649089435 0 81 0
54.8485436559252548 79.3308850391213127 0 82 0
57.1274234692275513 86.0047473495064025 0 83 0
58.5924176349217305 91.2136154941971995 0 84 0
60.0006407198933402 96.2073000892719961 0 85 0
62.0593347872559207 101.062303923625137 0 86 0
64.7779485567421034 106.840219928269562 0 87 0
67.8707140176522898 111.886310943438787 0 88 0
-19.0522731468752227 15.6850273961807716 0 90 0
-29.6327865657783605 37.3343856225518635 0 95 0
-31.4233349905158548 42.7060308967642328 0 96 0
-32.8883291562101476 47.752121911933429 0 97 0
-31.911666379080657 83.7258675362041913 0 104 0
-30.7722264724295655 88.6091814218518152 0 105 0
-29.3072323067352727 93.9808266960641845 0 106 0
-27.3593491811825515 98.9722866831816077 0 107 0
-23.2844785144365005 106.351888539704817 0 109 0
-20.1917130535264278 110.584093907266094 0 110 0
-17.261724722137842 113.188527979611479 0 111 0
-15.4711762974003477 114.653522145305772 0 112 0
-35.4927632285555319 45.1476878395880448 0 113 0
-58.932669879664104 98.538586322668607 0 125 0
-64.6298694129196178 112.862973720568277 0 126 0
-9.44842250510157555 13.4061475828785603 0 128 0
-11.7273023184038721 111.07242529583084 0 149 0
8.78261600131611431 6.24395388392872519 0 150 0
11.2242729441400115 21.2194497999147416 0 153 0
12.3637128507909893 27.0794264626918704 0 154 0
13.6659298869637951 32.2882946073826531 0 155 0
15.4564783117011757 37.8227170111166231 0 156 0
16.7586953478738678 42.3804766377210598 0 157 0
18.5492437726113621 48.8915618185845489 0 158 0
26.6881002486907164 104.724117244488923 0 169 0
26.8508773782123171 108.142436964442254 0 170 0
26.3625459896475149 110.909648166309239 0 171 0
36.780282279029052 17.312798691396651 0 173 0
85.7761982650267782 15.6850273961807716 0 183 0
88.8689637259369647 15.8478045257023723 0 184 0
16.9214724773954686 26.5910950741271108 0 185 0
28.9669800619928992 30.6605233121667879 0 188 0
36.617505149507565 31.4744089597747347 0 189 0
62.9874001320046091 37.6599398815950366 0 195 0
66.405719851957997 37.8227170111166231 0 196 0
20.3397921973488565 41.7293681196347137 0 197 0
33.3619625590757778 41.8921452491563002 0 200 0
42.1519275532414213 42.8688080262858193 0 201 0
63.3857172914555349 45.3070757037528296 0 205 0
67.2196054995658869 44.9849107100664583 0 206 0
38.1609233390989857 43.4216416846367679 0 207 0
56.8017926581748043 72.6333681580043447 0 208 0
84.0858254018979778 70.3605231874206822 0 213 0
87.7294472672764414 70.1917112151805327 0 214 0
-5.86740220763635989 128.303146454387274 0 215 0
2.01163319371801208 136.232870844034665 0 217 0
5.68977398839638226 138.558105614247296 0 218 0
9.59642509691445866 140.999762557071108 0 219 0
12.8519676873461322 142.627533852286973 0 220 0
17.1559555096603162 145.433570877640989 0 221 0
22.2930411995982922 149.138619033150491 0 222 0
34.3385487841957229 159.556355322532056 0 225 0
38.2451998927137993 163.300229301528589 0 226 0
40.361302576494495 165.253554855787627 0 227 0
24.2463667538572736 120.489844237351065 0 229 0
22.7813725881629807 125.535935252520289 0 230 0
21.1209945837587156 130.536813243141694 0 231 0
19.3630528682097065 135.62811728285871 0 232 0
17.5763276076611419 139.317823632131734 0 233 0
16.921395925385923 141.488093945635853 0 234 0
13.6658533349541358 148.650287644585717 0 235 0
12.8813000572797591 154.421449118429535 0 236 0
11.1836942251699156 158.970825545780087 0 237 0
8.94531657882805575 162.811897912963843 0 238 0
-12.8668187770646227 128.628700713430447 0 240 0
-13.1923730361078242 135.302563023815537 0 241 0
-14.3318129427589156 147.999179126499371 0 244 0
-14.8205856664443445 152.920133307692993 0 245 0
-15.0332045992831809 157.859784013300157 0 246 0
-70.0532260740857851 130.615851306816097 0 251 0
-71.3038082753145659 135.953671541901883 0 252 0
-72.9315795705304026 140.999762557071108 0 253 0
-80.2565503990018669 163.300229301528589 0 258 0
-80.4193275285234677 165.253554855787627 0 259 0
-35.3300626510437041 91.0271837939437205 0 260 0
-55.5144267117206027 102.909914249019607 0 265 0
-67.071602907753288 106.002679709929794 0 266 0
-31.9117429310904299 97.863823233850411 0 272 0
-54.5377639345910552 113.327650538401201 0 277 0
-59.2852606026945068 116.120225196300083 0 278 0
-23.1217779369246728 114.629867574573922 0 279 0
-36.1439482986515941 128.95425497247362 0 283 0
-48.9977558558925352 144.415924751670872 0 284 0
-70.9248881948464032 160.799488190054632 0 289 0
-16.2851384970180106 126.349820900128236 0 290 0
-37.0136047820888621 137.412770908919356 0 295 0
-47.863901624205937 135.62811728285871 0 296 0
-63.1727217006614978 136.27922575279581 0 299 0
31.7341147118503386 107.956005264188832 0 300 0
35.4779886908468143 109.258222300361524 0 301 0
40.1246993610058098 111.537633505470609 0 302 0
71.9400657036824214 141.488093945635853 0 311 0
35.9663200794116165 105.839902580408193 0 312 0
51.43143515181373 92.3291133882794668 0 316 0
64.45231774568947 87.1205326854256441 0 317 0
76.146467619924465 92.3147247611872785 0 320 0
79.1022594026322849 94.2827263843754793 0 321 0
66.8939746885132536 96.0732748091129451 0 322 0
81.7729348178245345 105.00323623694851 0 326 0
88.3805557853627306 106.002679709929794 0 327 0
69.0100773722938357 107.142119616580885 0 328 0
77.4558175872780339 108.730444250985158 0 330 0
81.05558495689138 110.560439336534216 0 331 0
-11.3988979207539387 122.119966054586314 0 332 0
-42.3837382636458528 136.767557189509802 0 333 0
-62.0254353405742336 106.026334280661615 0 334 0
-109.170514746086155 133.305701362747641 0 339 0
-112.297923439783119 135.771220546107827 0 340 0
-88.3696854001097449 173.209960336072896 0 341 0
-95.1838045014518457 179.786944628711893 0 343 0
-98.7874216894913388 182.162702459760197 0 344 0
-81.0447145716383375 169.628863486597993 0 345 0
73.2376896193239872 125.506922041169048 0 356 0
74.0515752669318772 128.925241761122379 0 357 0
74.8529380026948274 132.575160112113963 0 358 0
76.0049008211909722 136.250212589593815 0 359 0
77.3071178573636644 140.645195086676665 0 360 0
82.1744411452123131 157.05351974426344 0 361 0
83.0043173906192351 162.294553313047743 0 362 0
83.0043173906192351 167.177867198695367 0 363 0
83.3298716496624365 173.200620990994082 0 364 0
83.818203038227125 177.758380617598505 0 365 0
84.4775254136054627 182.932351384871367 0 366 0
84.4693115563135279 188.338894036501699 0 367 0
84.1437572972703265 192.896653663106122 0 368 0
83.6554259087055243 198.431076066840092 0 369 0
83.818203038227125 205.267715506746754 0 370 0
84.3065344267919272 210.964915040002268 0 371 0
84.4693115563135279 216.824891702779439 0 372 0
84.9576429448782164 222.196536976991808 0 373 0
84.9576429448782164 225.452079567423539 0 374 0
85.2831972039214179 225.777633826466683 0 375 0
48.495565932042723 176.944494969990586 0 379 0
51.4255542634313088 180.68836894898709 0 380 0
54.3555425948198945 185.734459964156315 0 381 0
57.2855309262084802 190.617773849803882 0 382 0
60.8666277756833551 195.338310605929905 0 383 0
71.7726954536296944 213.569349112347652 0 387 0
74.5399066554966794 217.80155447990893 0 388 0
77.3071178573636644 223.661531142686101 0 389 0
79.7487748001874479 225.289302437901938 0 390 0
0.313535593653000433 182.967248762289302 0 394 0
-1.51422046573259195 186.639676887631708 0 395 0
-3.75589264438667669 192.082768015498175 0 396 0
-5.22088681008096955 196.803304771624198 0 397 0
-6.43622912775731493 202.557883411631849 0 398 0
-7.01143523481846387 207.546595320048993 0 399 0
-7.49976662338326605 212.429909205696561 0 400 0
-10.266977825250251 216.499337443736238 0 401 0
-13.1969661566387231 220.731542811297516 0 402 0
-17.1036172651567995 176.944494969990586 0 404 0
-17.5919486537216017 181.665031726116609 0 405 0
-17.9213135516185957 187.203570768220231 0 406 0
-18.0813013496106123 192.422369652066152 0 407 0
-18.7313885603726931 197.617190419232145 0 408 0
-18.8941656898942938 202.337727175358168 0 409 0
-17.9175029127648031 218.289885868473732 0 413 0
-18.0802800422864038 152.03959415318775 0 414 0
-52.1007001122980569 207.546595320048993 0 427 0
-51.7751458532549123 207.546595320048993 0 428 0
5.03407234977896678 143.900737677108395 0 429 0
-9.53293479356625539 157.47721738402231 0 433 0
-11.2436406023797417 160.178450629267104 0 434 0
26.5206534466285575 126.320807688776995 0 435 0
47.1933488958700309 134.296887035334748 0 440 0
50.2861143567802173 136.73854397815856 0 441 0
23.5906651152399718 137.389652496244935 0 442 0
39.0544924197906766 153.667365448403643 0 447 0
42.798366398787266 156.434576650270628 0 448 0
82.0276546134896307 127.785801854471288 0 449 0
97.3030089160110947 127.651798065549031 0 452 0
100.584247378950636 126.646361947820168 0 453 0
83.6554259087055243 141.947412122849357 0 454 0
98.6309218246915407 141.784634993327757 0 457 0
102.37479580368813 141.947412122849357 0 458 0
85.9343057220078208 151.714039894144577 0 459 0
106.246863880746218 156.869150893527319 0 463 0
109.374212373116279 157.57401655692172 0 464 0
88.3759626648316043 164.410655996828382 0 465 0
103.644323229082488 170.299065257455169 0 468 0
107.420886818857298 172.875066731950909 0 469 0
89.1898483124394943 172.061181084342991 0 470 0
102.537572933209731 176.618940710947413 0 473 0
106.444224041727693 177.270049229033759 0 474 0
77.4698949868852651 166.852312939652165 0 475 0
56.797199537643678 179.548929042335971 0 480 0
46.8677946368268294 185.571682834634714 0 481 0
36.4860285697416202 197.239631863416434 0 484 0
34.6595099227079118 202.337727175358168 0 485 0
78.7721120230579572 181.339477467073436 0 486 0
61.6805134232913588 188.176116906980099 0 490 0
51.7511085224745102 194.036093569757213 0 491 0
42.798366398787266 203.802721341052461 0 494 0
41.8217036216576616 206.895486801962591 0 495 0
14.8007001210742146 163.596770349220435 0 496 0
18.8701283591138917 166.36398155108742 0 497 0
32.8919648372680058 174.516370479324593 0 498 0
36.4500583474452924 176.456163581425812 0 499 0
38.2406067721827867 177.921157747120105 0 500 0
34.496732793186311 164.410655996828382 0 501 0
28.3112018713659381 169.61952414151915 0 503 0
21.1490081724161882 170.921741177691842 0 504 0
11.4985795491073759 182.550482260491066 0 507 0
8.28961494021075396 187.687785518415353 0 508 0
26.2764877523461564 170.596186918648698 0 509 0
-9.61586930716384813 184.432242927983594 0 510 0
-11.7319719909444302 197.291636160188943 0 511 0
-24.5913652231498645 181.665031726116609 0 512 0
-27.1957992954952488 197.942744678275346 0 513 0
79.7258618287469289 148.31055430102262 0 514 0
-27.8166697700871737 237.614968940298695 0 541 0
-30.7466581014757594 241.847174307859916 0 542 0
-47.6754795717207571 272.612051787439725 0 549 0
-48.8149194783718485 277.983697061652094 0 550 0
-48.6521423488502478 282.215902429213315 0 551 0
-48.1638109602855025 286.773662055817738 0 552 0
-47.0015481037668792 290.052443312571199 0 553 0
-20.3289218120942223 233.708317831780619 0 561 0
-20.8279475110803105 239.262935891744291 0 562 0
-20.8172532006590245 244.614385509726901 0 563 0
-19.6778132940079331 288.564210480555175 0 572 0
-19.8405904235295338 292.959192977637997 0 573 0
-19.5150361644863324 298.49361538137191 0 574 0
-20.0667403680522511 228.045164804458011 0 580 0
-31.7233208786052501 231.103883759435234 0 581 0
-43.8045032457818024 231.59335425158423 0 583 0
-48.1638109602855025 230.452775241348888 0 584 0
-54.6748961411489631 274.239823082655562 0 585 0
-64.8195353232110847 272.940238854959148 0 587 0
-66.2320723371815916 272.774828916961326 0 588 0
-27.4911155110440859 292.308084459551651 0 589 0
-42.1410571679867871 289.540873257684666 0 592 0
-55.8143360478000545 286.610884926296137 0 593 0
-67.1243630906857334 287.439796926754184 0 595 0
-68.3481750209621737 287.913101962468829 0 596 0
83.32520197712347 244.298476803797712 0 597 0
82.6756220762454177 249.545856733087362 0 598 0
82.6740934590370671 253.576773186528158 0 599 0
83.1657508467474145 257.190276839615706 0 600 0
83.1624248476018693 262.529515310215402 0 601 0
83.32520197712347 266.924497807298224 0 602 0
87.04448231580011 281.175084404925713 0 605 0
89.3223646366490129 286.366122377232841 0 606 0
92.0666882868092671 291.423181348979881 0 607 0
95.230807016068411 296.367785230415734 0 608 0
98.1379207635877719 300.131032229701816 0 609 0
101.067909094976358 302.409912043003999 0 611 0
88.0457387332494363 236.322397457240015 0 612 0
94.8823781731560985 242.99625976762502 0 614 0
100.478865903202404 244.544900845573864 0 615 0
104.649005944451233 246.25180235805675 0 616 0
107.578994275839818 247.554019394229442 0 617 0
110.834536866271492 248.856236430402134 0 618 0
115.555073622397458 249.995676337053226 0 619 0
119.624501860437135 250.809561984661173 0 620 0
127.254398810995212 254.441454021437835 0 622 0
132.972226481207258 255.204544481743994 0 623 0
138.994980273505917 254.390658834136104 0 624 0
145.180511195326176 253.902327445571302 0 625 0
148.110499526714761 255.041767352222394 0 626 0
148.012165614698688 258.967583378000654 0 627 0
150.552156469538545 281.899993723284126 0 632 0
153.807699059970219 286.132199090845404 0 633 0
156.412133132315603 291.178290106014572 0 634 0
159.342121463704188 300.456586488745018 0 636 0
160.318784240833793 302.247134913482398 0 637 0
-2.45834528075249636 206.859737013832898 0 638 0
39.8637083948599411 231.113529312549247 0 648 0
68.8380374497022558 219.719130246038219 0 649 0
60.3736267145798138 225.741884038336877 0 652 0
55.327535699410646 229.322980887811809 0 653 0
49.6303361661550753 235.182957550588924 0 654 0
46.8631249642880903 239.577940047671746 0 655 0
44.0959137624211053 245.763470969492005 0 656 0
43.1192509852916146 249.019013559923735 0 657 0
72.9074656877419329 223.95133561359944 0 658 0
69.084876728264021 225.703058941226459 0 659 0
62.978060786925198 228.671872369725463 0 661 0
49.1420047775902731 230.2996436649413 0 662 0
44.4214680214643067 232.090192089678737 0 663 0
40.8403711719894318 234.694626162024122 0 664 0
36.551651597887826 238.134497761656746 0 665 0
33.6781774730396819 240.717379954322837 0 666 0
73.0702428172635337 227.04410107450957 0 667 0
57.3964106391156292 243.119633561381477 0 672 0
54.5136500518026423 245.926248099013605 0 673 0
77.1396710553030971 252.274556150355465 0 674 0
41.1103999547464127 255.710311088689082 0 681 0
37.9103828406008461 257.320647165524633 0 682 0
78.4418880914759029 261.390075403564254 0 683 0
35.9570572863418647 275.877239930985468 0 692 0
33.6781774730396819 276.528348449071814 0 693 0
89.5107328989437292 194.325898040670779 0 694 0
103.614427689117633 200.007137197451868 0 697 0
108.067325664404507 201.488091739620529 0 698 0
90.1618414170300184 206.208628495746552 0 699 0
109.6950969596204 208.487508309048735 0 703 0
113.438970938616876 208.97583969761348 0 704 0
91.9523898417675127 222.323564318383603 0 705 0
96.2563958766468204 219.293013153760114 0 706 0
100.254023447368354 217.277473303214435 0 707 0
103.021234649235339 215.975256267041743 0 708 0
94.0684925255480948 224.765221261207387 0 709 0
108.067325664404507 226.881323944987969 0 712 0
110.671759736749891 226.718546815466425 0 713 0
114.741187974789568 245.275139580927259 0 714 0
116.206182140483861 224.439667002164185 0 718 0
115.392296492875857 222.974672836469892 0 719 0
110.671759736749891 255.85565299983034 0 720 0
106.407115466114874 265.82422802373884 0 722 0
104.16067455588643 268.063937713949315 0 723 0
95.5334866912423877 252.274556150355465 0 724 0
-7.17888203687846271 223.95133561359944 0 731 0
-4.72288695101678968 228.524632126794131 0 732 0
-3.0814275528186954 233.486569699068014 0 733 0
-2.28334476914290008 238.580200125841372 0 734 0
-1.80723676266620714 242.833482638103476 0 735 0
-1.47318605651423695 247.642904514590839 0 736 0
0.308865921114488629 252.437333279877009 0 737 0
-1.64445963314460641 229.648535146854954 0 738 0
9.08759928690062679 234.593342721487829 0 740 0
13.9821448009276992 235.345734680110468 0 741 0
-16.1316241605657069 237.950168752455852 0 742 0
-4.24889370548999068 239.252385788628544 0 744 0
1.44830582776558003 239.90349430671489 0 745 0
5.34593332721829029 241.203226400718563 0 746 0
9.26160804480173283 241.368488472409183 0 747 0
53.8625415337163531 238.601277270542198 0 748 0
84.4646418837745614 232.904077737286684 0 749 0
80.0696593866916828 213.53359932421796 0 750 0
131.299366052782261 259.24480640441476 0 751 0
130.951550539646973 262.763081212853649 0 752 0
131.415040464073059 266.312721973786779 0 753 0
131.95047457086855 268.685879916666806 0 754 0
139.275445399339901 288.707466847821934 0 758 0
141.209995937604617 293.854090969584149 0 759 0
143.67042789642278 299.125203137203471 0 760 0
149.042073170635149 309.054608038020206 0 762 0
149.530404559199951 309.542939426584951 0 763 0
128.206600591872075 265.430337326235076 0 764 0
118.027418627634233 281.244069920664799 0 768 0
118.27719569105534 287.730804070692386 0 769 0
86.2101011753027251 290.660792402080972 0 770 0
84.5823298800869452 293.753557862991102 0 771 0
82.7917814553494509 296.68354619437963 0 772 0
80.5129016420472681 300.101865914332961 0 773 0
35.5864138940894463 340.796148294729562 0 785 0
35.9119681531326478 341.121702553772764 0 786 0
77.9084675697018838 296.520769064858086 0 787 0
36.7883700129625595 316.406499233281068 0 796 0
36.8886309302621385 317.030687384577959 0 797 0
93.0467406152093872 300.752974432419308 0 798 0
93.6845678328342046 319.367047359985747 0 802 0
96.9533917237274636 335.261725890995649 0 803 0
97.2789459827706651 339.656708388078471 0 804 0
97.4417231122922658 342.912250978510201 0 805 0
97.6045002418138665 343.400582367074946 0 806 0
84.7451070096085459 297.822986101030779 0 807 0
84.1548943468089874 307.10967149975454 0 809 0
81.6523415486983595 314.10069905318943 0 810 0
105.092248199806818 307.426836742804369 0 811 0
108.998899308324894 310.845156462757643 0 812 0
113.393881805407773 314.263476182710974 0 813 0
118.114418561533739 316.705133125534815 0 814 0
127.067160685220983 322.727886917833473 0 816 0
142.530987989771688 332.657291818650265 0 817 0
146.909320022666748 335.630658274707116 0 818 0
151.809284372502134 338.517268481427379 0 819 0
160.599249366667777 342.912250978510201 0 821 0
164.668677604707455 345.516685050855585 0 822 0
161.087580755232466 307.101282483761167 0 823 0
162.887495007166081 313.552177099213964 0 824 0
164.574894112775155 320.12665740314111 0 825 0
167.273111677052839 339.49393125855687 0 829 0
168.41255158370393 341.77281107185911 0 830 0
164.668677604707455 302.706299986678346 0 831 0
188.236062209946681 317.603273042930311 0 837 0
190.713018328161297 320.44900710453129 0 838 0
151.320952983937332 255.989263813983086 0 839 0
154.413718444847518 257.942589368242068 0 840 0
181.271944815909251 279.429170465091488 0 847 0
185.015818794905726 281.056941760307325 0 848 0
155.878712610541697 251.431504187378607 0 849 0
162.87812917996996 245.734304654123093 0 851 0
166.459226029444835 243.943756229385656 0 852 0
158.157592423843994 313.775144794146229 0 853 0
141.554325212642198 325.006766731135656 0 857 0
128.694931980436877 330.378412005348025 0 858 0
116.649424395839446 345.84223930989873 0 862 0
110.626670603540788 319.309567197880199 0 863 0
111.440556251148678 326.146206637786804 0 864 0
113.288213358433381 343.531417100720034 0 867 0
114.207767453015663 348.446673382244114 0 868 0
115.026562993340917 353.202746123627321 0 869 0
115.509984489188355 357.562192635452959 0 870 0
115.672767836588491 360.718279776450345 0 871 0
116.812201525361047 365.049940593445911 0 872 0
109.324453567368096 347.795564864157825 0 873 0
98.4054019269163973 354.801954470756698 0 876 0
95.8139518170763722 355.934421340237066 0 877 0
102.976145516026236 311.333487851322445 0 878 0
96.9533917237274636 322.239555529268728 0 881 0
90.7678608019072044 330.541189134869626 0 882 0
79.2106846058745759 348.935004770808916 0 886 0
78.2340218287450853 351.864993102197445 0 887 0
106.720019495022711 321.914001270225583 0 888 0
99.5578257960728479 331.843406171042318 0 891 0
94.6745119104252808 337.052274315733086 0 892 0
92.5584092266446987 341.77281107185911 0 893 0
90.9306379314288051 345.84223930989873 0 894 0
142.042656601206886 341.447256812815908 0 895 0
118.439972820576941 360.492180966841545 0 901 0
158.483146682887082 353.492764397413282 0 902 0
158.808707638660394 364.097522294018461 0 904 0
159.297032330495085 366.514934759140203 0 905 0
177.528070836912775 343.888913755639692 0 906 0
187.840480886676914 338.525516407648468 0 908 0
191.038572587204499 336.726720056689885 0 909 0
177.690847966434376 353.655541526934883 0 910 0
189.346320282102397 353.588053857291698 0 912 0
194.131338048114571 353.492764397413282 0 913 0
105.743356717893107 284.800815739303857 0 916 0
109.650007826411183 286.103032775476549 0 917 0
108.510567919760092 301.404082950505654 0 918 0
119.251085609696474 301.826395996105703 0 920 0
123.486063835746108 302.055191468592 0 921 0
160.599249366667777 288.056358329735588 0 922 0
175.086413894088992 302.055191468592 0 926 0
178.016402225477577 305.31073405902373 0 927 0
149.855958818243039 288.544689718300333 0 928 0
143.507650766901179 292.776895085861554 0 930 0
136.996565586037718 292.939672215383155 0 931 0
132.438805959433353 294.892997769642193 0 932 0
95.2442318637508833 326.960092285394751 0 933 0
135.460542234525178 327.774712080506163 0 934 0
111.763584293899953 363.065075611543477 0 935 0
98.0903054140867425 370.715600699058029 0 938 0
95.811425600784446 372.506149123795467 0 939 0
179.916780464090721 380.306061711844848 0 940 0
191.687154888998862 385.365542356000788 0 943 0
193.477703313736356 388.621084946432518 0 944 0
194.942697479430535 392.527736054950594 0 945 0
196.158803841954182 398.313478672656629 0 946 0
197.384354422254319 402.945472344332131 0 947 0
204.709325250725783 417.269859742231745 0 950 0
204.383770991682582 423.943722052616749 0 951 0
201.942114048858798 427.687596031613282 0 952 0
203.407108214553091 431.919801399174503 0 953 0
175.897773325404955 381.133336988439567 0 954 0
176.060550454926556 395.946055774903868 0 957 0
176.386104713969758 400.341038271986747 0 958 0
176.658020555722374 405.093174161008449 0 959 0
177.68832175014245 420.688179462185019 0 962 0
177.867476789241096 425.631051270796149 0 963 0
178.408131839439534 429.700384292746605 0 964 0
173.456116382581172 401.480478178637838 0 966 0
168.143527121189322 415.659042669685675 0 969 0
168.735579626455205 418.734853907926038 0 970 0
168.572802496933605 372.506149123795467 0 971 0
132.798883193897723 390.785119406520948 0 979 0
130.808508447925533 392.527736054950594 0 980 0
199.012125717470212 387.481645039781426 0 981 0
213.679834154090031 388.092730009655554 0 984 0
217.731495612452704 388.946639205475719 0 985 0
202.104891178380399 395.620501515860724 0 986 0
216.592055705801613 394.155507350166431 0 989 0
220.173152555276488 393.667175961601686 0 990 0
209.918193395416552 424.269276311659894 0 991 0
218.868071217506326 425.571326296873735 0 993 0
222.452032368578671 426.548156124962134 0 994 0
172.364177689624853 361.755514248586962 0 995 0
204.857251290531394 435.61560071661728 0 996 0
207.461685362876779 437.406149141354661 0 997 0
200.787823052491717 498.122018452905934 0 1011 0
198.020611850624846 503.65644085663979 0 1012 0
195.09062351923626 508.865309001330559 0 1013 0
192.323412317369275 513.911400016499556 0 1014 0
180.148742337064618 529.598482731746344 0 1015 0
182.394007416552654 445.219451358390813 0 1018 0
183.533447323203745 450.91665089164627 0 1019 0
184.510110100333236 456.613850424901727 0 1020 0
186.95176704315702 512.934737239370179 0 1032 0
198.834497498232736 435.941154975660424 0 1033 0
188.091206949808111 449.451656725951977 0 1037 0
179.464019085164068 454.823302000164233 0 1038 0
171.976271127171117 463.450489864808276 0 1040 0
169.371837054825846 467.357140973326352 0 1041 0
172.464602515735919 425.523418686279001 0 1042 0
166.604625852958861 428.45340701766753 0 1043 0
163.186306133005587 430.895063960491314 0 1044 0
201.438931570578006 506.586429188028376 0 1045 0
203.392257124837101 512.120851591762175 0 1046 0
188.085235893118011 523.633933830700926 0 1068 0
186.544824219353018 521.073593715449306 0 1090 0
196.768961493581855 978.16102683780673 0 1214 0
197.625437572928377 977.518669778296726 0 1215 0
28.0410592159585121 1022.60289555257123 0 1254 0
28.2551782357951424 1023.03113359224449 0 1255 0
-25.0583430571768986 379.484247374562813 0 1266 0
-24.8442240373401546 383.124270711785698 0 1267 0
-225.025770885315183 624.536032092183859 0 1394 0
-225.882246964661704 629.88900758809973 0 1395 0
-48.2012823736762925 913.995189312016237 0 1456 0
-48.1831971995337653 915.424154025671442 0 1457 0
-16.1929988274885091 10.2997240638673588 0 1458 0
59.2965291774075922 93.7104577917345978 0 1459 0
-30.0397293895823623 91.2950040589579999 0 1460 0
-12.1328583489092807 125.374333384008366 0 1461 0
78.5164898430552967 144.477874693849628 0 1462 0
83.0043173906192351 164.736210255871555 0 1463 0
83.1670945201408358 170.189244094844724 0 1464 0
84.0623687325095261 208.116315273374482 0 1465 0
88.4550163933229214 222.260050647687706 0 1466 0
75.9235122564301719 220.731542811297516 0 1467 0
75.1072917725527986 223.806433378142799 0 1468 0
-16.631853262345544 224.388353807877763 0 1469 0
-21.0916569384357899 181.665031726116609 0 1470 0
-22.9635939279339709 197.779967548753746 0 1471 0
-23.9417050690697124 232.830066872378382 0 1472 0
113.194805244334475 249.42595638372768 0 1473 0
149.71572625532599 255.51551558310274 0 1474 0
52.4789359327828606 232.252969219200338 0 1475 0
47.025902093809691 233.636574820133831 0 1476 0
51.7464388499356573 236.892117410565561 0 1477 0
83.6870556677181412 295.218552028685338 0 1478 0
96.0988117937391735 331.110909088195228 0 1479 0
112.01027620447428 316.786521690295615 0 1480 0
168.516427647166211 353.636099649721302 0 1481 0
170.388364636664392 351.764162660223008 0 1482 0
116.242484680974712 362.884110184948156 0 1483 0
0 1 1 4.06942823803971709
0 14 2 4.55383409983508436
0 17 3 4.72880295616787549
1 2 4 8.21242875108984016
2 3 5 4.42863895121465223
3 57 6 5.51250443451940075
3 546 7 2.73008262702870663
4 5 8 2.47315146187508272
4 42 9 4.78999854572993833
4 546 10 2.73008262702870974
5 6 11 4.56937177186174637
6 7 12 5.21141091669708345
7 8 13 3.80007035105029356
7 11 14 3.78609945687519511
8 9 15 52.7086746844225047
9 10 16 0.162777129521572306
11 12 17 68.7024516215511767
12 13 18 3.74741094150377529
14 15 19 62.8439718772327396
15 16 20 2.11610268378063893
17 18 21 4.30975313917127956
18 19 22 3.1670388769898814
18 59 23 5.04871577010100481
19 20 24 5.57818271672817456
20 21 25 4.38239631461202261
21 22 26 4.16969469766278245
21 25 27 3.13046492440548185
22 23 28 37.7063240377012363
23 24 29 4.65408925336948531
25 26 30 14.9091743522901119
26 27 31 3.78609945687514626
27 28 32 4.69803108916648693
27 69 33 5.41096250719708127
28 29 34 4.13654774454510665
29 30 35 4.62186964655752863
30 31 36 3.95540300189024041
30 73 37 5.93372081844968502
30 74 38 1.87355859910766931
31 82 39 8.11618476888793516
32 33 40 19.1873870921988932
32 82 41 8.43793836686639054
33 34 42 5.99348202707928568
34 35 43 6.04251857983955265
34 83 44 4.90312961858481788
35 36 45 7.05221464090928851
36 37 46 5.41096250719708216
37 135 47 7.2473447327336098
37 136 48 7.14784975972753767
37 547 49 2.59422329860666645
38 39 50 5.27345081465425114
38 139 51 6.89463675465581538
38 547 52 2.59422329860663581
39 40 53 6.38554415726381563
40 41 54 5.91846540325873427
40 142 55 4.24288318637524853
41 154 56 14.7040589754203257
42 43 57 24.2107919080568266
43 44 58 5.66221128299695309
44 45 59 5.25444977508488531
44 54 60 4.745728059106888
45 46 61 36.1476418632710548
46 47 62 5.01448679394292007
47 116 63 5.15951607251358535
47 548 64 2.78391724273040886
48 49 65 5.35807068577928547
48 119 66 4.67558955692634726
48 548 67 2.7839172427303791
49 50 68 8.43032622493658046
50 51 69 5.24182797022305813
51 52 70 3.92019240079703613
51 122 71 4.99535432056675965
52 53 72 2.31349769112662829
53 145 73 8.50477723560907961
54 55 74 58.4275986724801371
55 147 75 8.10133122879364187
56 111 76 18.841620413176237
56 147 77 7.31592206550075552
57 58 78 98.0553212832455472
58 145 79 11.0524208327750202
59 60 80 15.1752900042017682
60 61 81 5.96972778183070663
61 62 82 5.36917838761882482
61 72 83 4.58384558629142624
62 63 84 5.81686298654885015
63 64 85 4.74014156151520449
64 65 86 6.75279896737568031
64 77 87 3.63980726792563658
65 66 88 56.5495626316888647
66 67 89 3.42219317130361755
67 68 90 2.80996892879543259
67 130 91 4.88679482232429674
68 96 92 10.1295757478314883
69 70 93 49.3775607830052721
70 71 94 3.09704610719541718
72 73 95 12.8435473467977879
74 75 96 28.0163425920908296
75 76 97 3.42219317130367395
77 78 98 13.1601255614395107
78 82 99 5.03680294575323018
79 80 100 21.5002376857256046
79 82 101 4.02911152626833768
80 81 102 3.84740030091028418
83 84 103 27.5880179091020317
84 85 104 3.64753036722597335
86 87 105 11.1786009202450636
86 145 106 8.29633441230046564
87 88 107 4.35148669331333515
88 89 108 4.60690910591095104
88 202 109 5.38271882955045378
89 90 110 3.63980726792550202
90 91 111 5.13791348333994513
91 92 112 6.33380069313914351
91 101 113 3.95244309504382763
91 102 114 4.7463754538207521
92 93 115 15.9472039369764289
93 94 116 5.41096250719711058
94 95 117 2.87982139884147026
94 241 118 3.90948245192051491
95 174 119 14.4440378258414412
96 97 120 5.25444977508491284
97 98 121 5.26931075137831151
97 205 122 3.82076511705215882
98 99 123 5.38625434788464119
99 100 124 4.0995512072113458
99 208 125 4.57992484864543847
100 101 126 2.26693818665730618
102 103 127 5.82424489549407287
103 104 128 4.85578947638241676
104 105 129 4.44569133179368947
104 236 130 5.87214585781749943
105 183 131 22.5030172178384369
106 107 132 6.68179794019242834
106 126 133 4.10830900874052229
106 549 134 3.33610620707851258
107 108 135 12.7690716075842268
108 109 136 4.94516823058891131
109 110 137 4.94422449975796319
109 199 138 3.37653026441540449
110 192 139 19.5204654029553772
111 112 140 5.48236086956354018
112 113 141 5.30213861785036933
112 129 142 8.13760126995259725
113 114 143 23.4863540185005064
114 115 144 1.96009620039850851
115 125 145 10.4872822086405222
115 150 146 11.2477810457444161
115 153 147 4.41977766053221721
116 117 148 23.8043132053705051
117 147 149 7.21840059699002978
118 147 150 5.0462230088221709
118 148 151 50.8001084629706625
119 120 152 27.5616761122740073
120 121 153 5.5079213714061348
122 123 154 19.3629085472374456
123 146 155 9.99913347955639509
124 125 156 27.492571115619846
124 146 157 10.1115159633195582
126 127 158 23.9058640718816235
127 146 159 5.408755342354997
128 129 160 15.3356433696364363
128 146 161 5.59736668079680477
130 131 162 3.96388213496633801
131 132 163 5.17567729810759314
131 134 164 3.45302436320386352
132 133 165 44.8373053949177205
133 251 166 10.3520329695134592
134 135 167 20.5695230854177353
136 137 168 13.2757416554456142
137 138 169 3.55101893146100567
139 140 170 17.3866732686888241
140 141 171 6.6827795195064823
142 143 172 8.68482745710287851
143 144 173 4.03821831114498941
145 549 174 3.33610620707848504
148 149 175 3.98239500563774174
150 151 176 9.56038641972576642
151 152 177 4.31628105082616287
153 542 178 482.249857615326505
154 155 179 3.51387529021790046
155 156 180 3.73685512204776327
155 211 181 8.05705684747564632
156 157 182 3.85136716601110107
157 158 183 4.58384558629138361
158 214 184 6.48049259887165352
158 550 185 4.0189567764552061
159 160 186 5.30632899958291482
159 251 187 9.07937142156466948
160 220 188 5.77342736338404983
160 551 189 2.44165694282381196
161 226 190 5.54398926031911277
161 551 191 2.44165694282381196
161 552 192 3.01577306914121612
162 163 193 4.5838455862913623
162 223 194 5.96972778183065866
162 552 195 3.01577306914121612
163 164 196 5.21581053099790726
164 165 197 5.40654889105328884
164 231 198 5.92359597500029622
165 166 199 4.5693717718616913
166 167 200 5.55592466543689945
166 334 201 5.55402256024926189
167 168 202 6.83857698832019967
168 337 203 6.41303868177087555
168 553 204 2.85904486091001342
169 170 205 5.86223702030106963
169 371 206 4.95471987678426995
169 553 207 2.85904486091006982
170 171 208 5.39379648272212808
171 172 209 3.25554259043173033
171 554 210 3.49795011746183615
172 173 211 0.460403248427179113
173 370 212 7.17330019072143621
174 175 213 4.75409549679856358
175 176 214 5.83505494022505733
175 227 215 5.49116529097760786
175 228 216 6.67981491657251691
176 177 217 5.69487367092823327
177 178 218 5.92517695189398275
177 232 219 5.02767936289740369
177 233 220 6.50497817450407112
178 179 221 21.2499090902860033
179 180 222 5.05658186020483758
180 310 223 6.01568028229834173
180 371 224 6.98524204871583088
180 555 225 3.24024629943586229
181 182 226 2.93450643481458862
181 555 227 3.24024629943586229
181 556 228 2.20459326435845115
182 370 229 8.95679659310070875
183 184 230 4.10212390700557616
184 185 231 5.88662341098956254
184 247 232 8.3969922374664705
185 186 233 4.9426384827797305
186 187 234 5.88151615428940389
186 248 235 6.52937192825752089
187 188 236 5.0217634921194243
188 189 237 4.90766971696506538
188 308 238 4.60460665666834945
189 190 239 4.92114864846540012
190 191 240 5.14746480272445339
191 354 241 6.82527670957492472
191 557 242 5.01704256446576391
192 193 243 4.74572805910688711
193 194 244 5.54832370692921995
193 247 245 8.44246999274047027
193 558 246 3.49970828471418827
194 195 247 5.22125060550992526
195 196 248 5.23533916614535055
196 197 249 4.7233424245794513
196 248 250 7.00698350846982354
196 559 251 4.23533454016442246
197 198 252 16.0374820336912265
198 265 253 9.98922863679018214
199 200 254 65.3486567928361097
200 201 255 0.325554259043144611
202 203 256 20.1507116975610785
203 204 257 3.19737007703580112
205 206 258 22.9710758464894553
206 207 259 3.9404170873955362
208 209 260 22.5279276127398695
209 210 261 4.65553973308636682
211 212 262 15.2857190057694439
212 213 263 3.43182570033903822
214 215 264 15.0558061063435531
215 216 265 3.74741094150388632
217 218 266 21.0306470817529458
217 251 267 7.08014758026675395
218 219 268 3.2057985270696161
220 221 269 16.3852621687582491
221 222 270 4.57145667640162934
223 224 271 14.1497793127514768
224 225 272 3.96053849697351446
226 227 273 24.4047738532334293
228 229 274 15.6381678880467341
229 230 275 5.41541745183177259
231 232 276 18.8999339542387403
233 234 277 13.262752048744904
234 235 278 3.24331132893978591
236 237 279 4.92114864846540012
237 246 280 8.53028262925293035
238 239 281 4.05250869291173732
238 246 282 7.68975787723642412
239 240 283 2.31349769112662829
241 242 284 8.21882635485874324
242 246 285 2.25697401987015489
243 244 286 15.2221840576692244
243 246 287 5.1378042409359983
244 245 288 6.05717249424436943
249 558 289 3.49970828471407458
250 559 290 4.23533454016442246
251 550 291 4.01895677645523364
252 253 292 5.14746480272447116
252 266 293 7.59316489457099042
252 560 294 6.15716162153629298
253 254 295 35.6594472751140188
254 255 296 5.49116529097760164
255 256 297 4.2353345401643665
255 269 298 6.95384202142238284
256 257 299 4.58384558629136762
257 258 300 3.47868674606964845
257 273 301 6.62804805945056241
257 274 302 7.65225656317042446
258 544 303 635.029240159364463
259 260 304 5.57698919133999649
259 265 305 5.6692187575073465
260 261 306 5.35146030370044024
260 364 307 4.87635217909702057
261 262 308 44.0309143553926319
262 263 309 4.39799585533679771
263 264 310 5.54398926031905592
263 272 311 7.67818184318489205
264 540 312 81.4677008756270453
265 557 313 5.01704256446568575
265 560 314 6.15716162153633739
266 267 315 12.1029636726805556
267 268 316 4.50604973655650021
269 270 317 10.3000192384497247
270 271 318 1.42218889864362241
272 273 319 15.1692917543698265
274 275 320 11.3678882287962075
275 276 321 1.31214835194797552
277 278 322 5.28743323077810512
277 370 323 11.4512293395851792
278 279 324 4.03091674328437222
279 280 325 3.64679799793835846
279 328 326 5.68556070693567506
280 281 327 5.33923950654043011
281 282 328 4.39799585533679771
281 331 329 4.85610858268278811
282 283 330 14.737620308006985
283 284 331 5.66882907641167844
284 285 332 5.75370817304424342
284 384 333 5.3038075450717681
285 286 334 5.87032834491896249
286 287 335 4.7553483908807106
286 393 336 4.89898258628564953
287 288 337 3.75640306814746472
288 402 338 6.43155025434262306
289 290 339 9.63942757006600104
289 370 340 4.9506731212170223
290 291 341 5.80680326004501524
291 292 342 4.50594948228929315
291 353 343 9.17629264359112717
292 293 344 3.20633760408533064
293 294 345 3.50632667722403779
294 350 346 7.0013090709010557
294 561 347 2.42805429134138739
295 296 348 4.1500187989859656
295 347 349 4.79018549884222899
295 561 350 2.42805429134138739
296 297 351 8.52613461085111801
297 298 352 5.76852323535692957
298 299 353 6.07749727190642108
298 372 354 4.37289131088042637
299 300 355 6.20477721839005447
300 301 356 3.14374854639208046
301 302 357 3.92704736748995709
301 562 358 1.6736756664629393
302 303 359 24.5618937933667567
303 304 360 5.3394868509369946
304 305 361 5.67856596074788644
304 468 362 7.05886282236807272
304 471 363 4.62994189657320288
305 306 364 9.75170935272305783
306 307 365 2.03959158695068821
307 412 366 4.91465123020899952
307 417 367 4.37406045243034569
308 309 368 49.0705208159573303
309 321 369 4.66122762736760698
310 311 370 10.4200779757927151
311 312 371 6.18767235547344452
312 319 372 7.67818184318489205
312 320 373 6.26216120560835421
312 563 374 4.08648409424346237
313 314 375 5.19358536903000001
313 563 376 4.08648409424350323
313 564 377 3.02892330478064631
313 565 378 2.72013198122053268
314 315 379 6.77630065895343137
315 316 380 3.39888624969198272
317 318 381 4.2048449400275274
317 325 382 3.09704610719536078
317 556 383 2.20459326435844716
318 319 384 6.96180420010694867
320 321 385 5.0487157701009453
321 322 386 4.42801665336891404
321 564 387 3.02892330478064631
322 323 388 5.49780248892604106
323 324 389 3.86369434186548988
325 326 390 22.4737077223443187
326 327 391 4.02335603279316167
328 329 392 36.6544028224241458
329 330 393 3.58235841467358451
331 332 394 45.3767467872075585
332 333 395 2.37007078075756805
334 335 396 15.2657175946911678
335 336 397 4.69270995633481736
337 338 398 19.7173578019061431
338 339 399 3.7755873603539456
340 341 400 5.26390618359391826
340 344 401 3.23103376564575218
340 554 402 3.49795011746172246
341 342 403 4.47698861773521273
342 343 404 3.05830460304995055
344 345 405 14.242658052112585
345 346 406 2.60951589975781451
347 348 407 21.1031614471199447
348 349 408 1.67589312096583787
350 351 409 10.8493648059448411
351 352 410 3.1721910818187955
353 463 411 42.174872756096299
354 355 412 5.19104544955786373
355 356 413 5.22639583528420459
355 361 414 3.2771745070904541
356 357 415 5.15577414692993141
357 358 416 4.27984707237838613
357 365 417 2.07730984362752391
357 366 418 3.95933374023220352
358 359 419 4.8210090914989836
359 360 420 5.11490532037240353
361 362 421 11.8170823340718663
362 363 422 4.95203689892175092
364 365 423 11.9644642945260919
366 367 424 4.10862551721048952
367 368 425 3.91916063032145301
369 565 426 2.72013198122062105
372 373 427 3.53542547069985114
373 374 428 3.57977268017431927
374 375 429 2.43281078273145779
374 381 430 3.32756503764599776
375 376 431 21.3283921600105302
376 377 432 5.49820203664843543
377 378 433 5.81707391285328601
377 472 434 2.53763052600230088
377 473 435 4.31151446542159444
378 379 436 11.2894630090736499
379 380 437 0.690604872640788736
381 382 438 19.2557619339722734
382 383 439 6.49154130500187065
384 385 440 3.49497318812707114
385 390 441 7.22481113758113036
385 566 442 1.71689365449661246
386 387 443 4.10830900874045923
386 399 444 2.26137215464212771
386 566 445 1.71689365449660158
387 388 446 60.6906703184943765
388 389 447 0.460403248427219303
390 391 448 45.8097999661365378
391 392 449 0.632189132900261352
393 394 450 18.6782969312358489
394 475 451 7.75157294544885822
395 396 452 4.40702356758453551
395 448 453 4.29743953360781816
395 449 454 2.89816439575223361
395 567 455 4.23787529159944665
396 397 456 3.25960947845140359
397 398 457 0.514746480272438856
399 400 458 9.43132037678741852
400 401 459 7.42544522302987264
402 403 460 5.1910338653785475
402 442 461 4.44295098464847982
402 465 462 6.92520562513994875
403 404 463 5.56783448546081239
404 405 464 5.31461719151776002
404 568 465 2.87752030266991676
405 406 466 10.7910192294753777
406 476 467 9.79383980136423915
407 408 468 5.29251353066565766
407 476 469 8.5924843949360028
408 409 470 5.68701759406451313
408 452 471 7.5840115645550501
409 410 472 9.82856523125812132
410 411 473 4.83149283573392818
411 454 474 10.0934946637614189
411 569 475 8.98499158694737332
412 413 476 6.69729293476040421
413 414 477 6.78757003708516304
413 427 478 4.7351550175997783
414 415 479 19.5950721561094241
415 416 480 2.54786508754790608
416 457 481 9.35791546360216486
416 570 482 10.1848389178499392
417 418 483 28.1494997195566619
418 419 484 3.7727329564808616
420 421 485 3.65796103275037021
420 424 486 6.44564547798050747
420 562 487 1.67367566646304833
421 422 488 34.9623525821282328
422 423 489 4.08242963933679359
424 425 490 9.03954791118325218
425 426 491 4.00378799471807678
427 428 492 20.2234015807258345
428 476 493 6.69295991632181764
429 430 494 19.6955372333234848
429 476 495 7.2493265486420384
430 434 496 3.56998115732186294
431 432 497 6.88491457308430288
431 447 498 4.69521029570338566
431 568 499 2.87752030266986658
432 433 500 17.4893263684119802
433 434 501 5.00053237625004954
434 435 502 4.82603916873712269
434 439 503 4.92652989517803164
435 436 504 4.38616805789701747
436 437 505 3.16028233861467589
437 453 506 2.77642649733736535
437 477 507 4.55951386246794765
437 571 508 2.2395085713502394
438 571 509 2.2395085713502132
439 440 510 13.1368704972129393
440 441 511 2.8280903242754718
442 443 512 12.4843907339189801
443 475 513 5.02042774003291026
444 445 514 21.9452654973425183
444 475 515 5.73255200836681311
445 446 516 3.08847888163465134
447 448 517 12.4235048632349496
449 450 518 5.17313810314785449
450 451 519 4.38290834653008421
452 453 520 30.8362677348758254
454 455 521 10.6100123921769391
455 456 522 2.46624087047097396
457 458 523 11.624681797935251
458 459 524 3.66925862228397959
460 461 525 11.6705821525759692
460 512 526 9.69448164314904659
461 462 527 4.78596647524991159
463 464 528 4.11797184217958279
465 466 529 10.7790223430267744
466 467 530 4.24115408153779949
468 469 531 20.224324764401505
469 470 532 4.37988460809051539
471 472 533 7.63339759317780331
473 474 534 4.95869474104084595
475 567 535 4.2378752915995026
477 478 536 15.7503960151800406
478 479 537 2.89816439575232332
480 481 538 12.9807081034471921
480 512 539 20.0290943343790033
481 482 540 3.71545706736666004
482 483 541 4.17230521285338085
482 503 542 5.65050038879923289
483 484 543 5.91216815756371883
484 485 544 4.79138180479451048
484 506 545 6.52748654379561177
485 486 546 16.1014231500391283
486 487 547 6.68179794019234308
487 488 548 4.46970703704917494
487 509 549 5.54398926031910921
488 489 550 4.47859019991027196
489 513 551 3.97011933518607352
490 491 552 14.8158464505833756
490 512 553 19.6973681555265863
491 492 554 4.40702356758459146
492 493 555 4.75990900466848377
492 497 556 3.14374854639208046
493 494 557 15.6456276257609304
494 495 558 4.94611749197257833
495 496 559 4.10509185364243745
495 529 560 5.40394626070188888
496 520 561 16.0642483697853287
497 498 562 15.1533960407261006
498 499 563 3.13227408479483449
500 501 564 40.3728793164467206
500 512 565 11.3995910484457283
501 502 566 2.64543085579419968
503 504 567 14.7934388074030441
504 505 568 4.14066679266610205
506 507 569 14.5659490604463908
507 508 570 3.61423881202895148
509 510 571 9.07627161467185672
510 511 572 3.71469703279271668
512 569 573 8.98499158694727384
512 570 574 10.1848389178499961
513 514 575 3.16056015581464278
513 524 576 6.03154613828237274
514 515 577 64.9637977779289315
515 516 578 6.18767235547331929
516 517 579 5.97638176247531216
516 532 580 4.50219294676426784
517 518 581 5.75504060533963369
518 535 582 9.20266803638002884
519 535 583 10.6575605175442405
519 538 584 524.97152305847078
520 521 585 5.81002631858025609
521 522 586 5.7803073189888865
521 525 587 4.78741900395433095
521 526 588 5.64111416904846319
522 523 589 56.5330930743699938
523 535 590 8.1490236961284257
524 525 591 17.3324742928959949
526 527 592 11.6206595527565089
527 528 593 4.69521029570332349
529 530 594 6.55165308226593179
530 531 595 4.2007854425405986
532 533 596 5.86901286962917101
534 535 597 2.98801098231551787
534 536 598 479.57651090643742
536 537 599 1.0705950991832196
538 539 600 0.47878468363033122
540 541 601 3.6463155170916135
542 543 602 5.42106059128375506
544 545 603 1.4290791532995879
