ply
format ascii 1.0
element vertex 536
property double x
property double y
property double z
property int og_index
property int root
element edge 553
property int vertex1
property int vertex2
property int name
property double len
end_header
0.642357059509947703 -2.56942823803967713 0 2 0
0 0 0 3 1
-2.14119019836635971 2.35530921820304684 0 4 0
-4.5893953317819296 5.02365931500728635 0 5 0
-6.85180863477245339 8.99299883313885573 0 6 0
-10.4918319719953388 13.703617269544921 0 8 0
-13.4894982497082765 16.2730455075845981 0 9 0
-16.0589264877479536 17.9859976662777115 0 10 0
-18.6283547257876307 20.1271878646441138 0 11 0
-20.5554259043173602 23.1248541423570657 0 12 0
-22.4824970828471464 27.1931155192532117 0 13 0
-24.5476492452307866 32.0037782690498034 0 14 0
-25.0519253208868236 35.7578763127187926 0 15 0
-25.7894365491608255 40.4374749369739988 0 16 0
-20.5554259043173602 76.8687281213535698 0 22 0
-19.7974590212365342 81.3795479962968216 0 23 0
-17.7718786464410528 88.0029171528588279 0 24 0
-15.4165694282380628 93.5700116686114711 0 25 0
-8.13652275379229195 107.059509918319748 0 26 0
5.13885647607935425 126.330221703617326 0 31 0
-30.6190198366394384 37.0425904317386312 0 32 0
-33.8308051341890632 37.2567094515752757 0 33 0
-36.1861143523920532 36.8284714119019867 0 34 0
-39.3761437113125794 37.0440927553588466 0 35 0
-43.0379229871645634 37.2567094515752757 0 36 0
3.6400233372228854 -41.9673278879813552 0 66 0
3.85414235705951569 -47.3203033838973397 0 67 0
-39.397899649941678 39.8261376896149386 0 68 0
-35.5437572928821623 41.3249708284714217 0 93 0
-34.9014002333722146 50.1038506417736471 0 95 0
-35.3296382730455321 54.8144690781797124 0 96 0
-36.1861143523920532 59.9533255542590666 0 97 0
-36.5807845857828511 64.6186334742466926 0 98 0
-36.6143523920653706 68.0898483080513586 0 99 0
-36.4002333722286835 71.301633605600955 0 100 0
-36.4002333722286835 73.8710618436406321 0 101 0
-38.9696616102683606 52.4591598599766797 0 115 0
-47.7485414235706003 65.7345390898483402 0 118 0
-49.4404613232155725 70.1614942271811373 0 119 0
-50.3179696616102774 74.2992998833139211 0 120 0
-51.8168028004667462 78.1534422403734084 0 121 0
-53.3156359393232151 81.5793465577596635 0 122 0
-55.0838129502980678 85.5722309375689463 0 123 0
-7.28004667444571396 1.71295215869309914 0 136 0
-28.0495915985997613 -3.2117852975495893 0 141 0
-29.7625437572928604 -3.42590431738625512 0 142 0
-23.767211201866985 17.5577596266044367 0 143 0
-40.7346563153514012 13.913088684318879 0 147 0
-43.2520420070011937 13.0612602100350017 0 148 0
-27.835472578763131 26.7648774795799369 0 149 0
-68.089848308051387 34.2590431738623238 0 158 0
-67.8757292882146999 34.2590431738623238 0 159 0
8.56476079346560937 3.85414235705950858 0 160 0
12.6732963104454939 5.73378852647359594 0 161 0
16.9972083912478524 7.78075244513163256 0 162 0
21.7151093736460439 8.96392510442765911 0 163 0
26.7648774795799227 9.63535589264877501 0 164 0
32.3319719953325944 10.2777129521587014 0 165 0
53.3534264961448912 10.7148363695014055 0 169 0
56.0991831971995225 11.3483080513418884 0 170 0
27.1931155192532401 16.0589264877479536 0 171 0
95.06884480746794 101.278296382730503 0 190 0
97.6382730455076171 104.918319719953359 0 191 0
99.5653442240374034 108.986581096849505 0 192 0
105.774795799299909 117.123103850641826 0 195 0
107.487747957993065 119.906651108518133 0 196 0
108.558343057176216 122.47607934655781 0 197 0
10.0635939323220782 13.4894982497082765 0 200 0
16.2730455075846407 127.400816802800506 0 224 0
-9.20711785297550023 18.4142357059509862 0 225 0
-11.3483080513418599 52.8873978996499545 0 230 0
-11.9906651108518076 58.2403733955659391 0 231 0
-12.4189031505250682 63.1651108518086346 0 232 0
-13.2753792298716462 91.2147024504084243 0 239 0
-9.6353558926487608 56.0991831971995509 0 240 0
4.92473745624272397 78.5816802800466974 0 246 0
8.13652275379229195 83.0781796966161323 0 247 0
-14.9883313885647453 102.777129521586971 0 248 0
-14.560106384281255 110.278330937322551 0 249 0
-14.9883313885647453 116.052508751458618 0 250 0
-15.8460897787775821 120.979192108679285 0 251 0
-18.6343621087165161 129.547900068940692 0 253 0
-17.7718786464410528 133.182030338389779 0 254 0
-20.3413068844807299 113.911318553092229 0 255 0
-22.6966161026837767 117.337222870478456 0 256 0
-25.2660443407234538 121.191365227537972 0 257 0
-27.5618694452558088 125.765373397200108 0 258 0
-24.623687281213563 82.4358226371062131 0 261 0
-52.0309218203033765 112.412485414235732 0 269 0
-53.3156359393232151 116.266627771295248 0 270 0
-30.8331388564760687 118.621936989498295 0 271 0
-50.7335495671898116 123.321285853160134 0 275 0
-53.8056754993600634 124.030720811461435 0 276 0
-40.8967327887981469 70.4451575262544054 0 277 0
-49.6756126021003865 80.5087514585764552 0 280 0
-38.1131855309218395 64.4498249708284874 0 281 0
-46.677946324387392 69.5886814469078132 0 283 0
104.490081680280127 103.419486581096891 0 284 0
110.913652275379263 89.9299883313885857 0 287 0
112.626604434072306 87.3605600933489086 0 288 0
111.984247374562528 118.836056009334925 0 289 0
116.052508751458618 117.123103850641826 0 290 0
119.90665110851819 114.553675612602149 0 291 0
124.40315052508754 111.984247374562472 0 292 0
-14.029377533061961 98.3741961572626167 0 293 0
-124.053424269584241 148.875572117886435 0 299 0
-133.260542122559798 159.260344579963487 0 300 0
-171.909025203073298 206.580647963860883 0 312 0
-127.907566626643813 151.766178885681086 0 319 0
-97.6097253197592636 131.103693471445325 0 320 0
-99.5705470005198094 134.251871683430238 0 321 0
-102.021556246783859 137.098029531460327 0 322 0
-121.376936521626249 163.221546446941318 0 331 0
-134.054928936184467 168.22747629026577 0 332 0
-169.76783500470691 209.792433261410508 0 341 0
-127.158150057215551 158.939166050208513 0 342 0
-126.622852507623975 162.579189387431398 0 343 0
-129.192280745663652 170.822771651142034 0 344 0
-127.184941069795741 175.957266463222822 0 345 0
-126.72991201754229 181.314603623137401 0 346 0
-128.307015284801423 154.119010166656977 0 347 0
-127.318739322093052 165.523325910185179 0 348 0
-177.778568523751034 218.541758374510607 0 349 0
-175.423259305547987 218.862936904265553 0 363 0
-173.335598862140728 213.188782878594566 0 375 0
-289.271774875940537 370.104725787631537 0 400 0
-288.415298796593959 370.532963827304798 0 401 0
-204.480643020631305 513.564469078179968 0 451 0
-205.765357139651201 519.131563593932583 0 452 0
-21.2560867846697192 137.828083586803984 0 483 0
-22.540800903689501 144.037535162066519 0 484 0
-23.6113960028727661 150.032867717492422 0 485 0
-24.6819911020559175 155.385843213408407 0 486 0
-25.9817467414976022 160.623310339894687 0 487 0
-27.0364619323621014 165.901405637006633 0 488 0
-27.8940029517999619 171.987980539768728 0 489 0
-28.7502524789521203 176.797745197072345 0 490 0
-29.6067285582986415 181.508363633478439 0 491 0
-31.747918756665058 187.717815208741001 0 492 0
-33.8041326645735012 193.975365069074911 0 493 0
-34.959704054214626 199.066123260082861 0 494 0
-35.6020611137245169 203.776741696488955 0 495 0
-36.0302991533978343 208.701479152731622 0 496 0
-36.2444181732344646 213.412097589137716 0 497 0
-37.1008942525810426 219.407430144563648 0 498 0
-37.5291322922543031 222.619215442113273 0 499 0
-38.1579971460453748 227.783488177186598 0 500 0
-38.9845027404587654 233.0157903458595 0 501 0
-39.2420844509474591 237.607546830677961 0 502 0
-39.027965431110772 241.675808207574164 0 503 0
-39.6703224906207197 246.172307624143571 0 504 0
-40.7409175898038711 251.097045080386295 0 505 0
-41.8352256702889918 255.840972978705111 0 506 0
-43.7385838675168657 260.304162933361795 0 507 0
-44.8091789667000739 263.515948230911363 0 508 0
-46.5221311253931731 266.941852548297618 0 509 0
12.7888373693559743 144.037535162066519 0 510 0
16.4288607065788597 155.171724193571777 0 512 0
18.7880478550489443 159.825550089618787 0 513 0
21.3522439206543595 164.802296238876608 0 514 0
24.3512644405345213 170.374174601973181 0 515 0
26.9206926785741985 173.800078919359407 0 516 0
29.0903646300813534 176.038187852508912 0 517 0
30.7748350356337141 180.651887554131861 0 518 0
32.0595491546535527 184.934267950864665 0 519 0
35.2713344522031207 189.859005407107361 0 520 0
42.1231430869756309 212.769740529627825 0 527 0
42.6675930060622477 216.615047595461476 0 528 0
44.2643332853419906 220.692144263583486 0 529 0
47.2619995630549852 230.113381136395617 0 531 0
47.047880543218298 237.393427810841331 0 532 0
47.2564931945788658 242.632791254496965 0 533 0
47.047880543218298 251.311164100222925 0 534 0
46.8337944043396988 257.097061133967713 0 535 0
46.6196425035450375 262.873591171401472 0 536 0
4.43819559572705202 141.89634496370013 0 537 0
-4.88304118090957218 160.300190648338315 0 545 0
7.8640999131132503 170.374174601973181 0 546 0
-14.1901591300605787 191.571957565800517 0 554 0
-18.3589017602485001 194.932767581515634 0 555 0
-22.3266818838528707 199.922599339429439 0 556 0
-25.7525862012391258 223.689810541296424 0 560 0
-25.1102291417291781 229.471024076885669 0 561 0
-24.0396340425460266 238.249903890187909 0 562 0
-18.2584205069567815 259.019448814341956 0 565 0
-19.329015606139933 232.040452314925346 0 566 0
10.4302529132773998 249.811397923533036 0 573 0
13.4311944288659788 252.167640179569503 0 574 0
36.7701675910597032 215.981525827177393 0 575 0
26.9206926785741985 224.760405640479632 0 578 0
24.3512644405345213 227.54395289835594 0 579 0
53.2573321184808606 234.823999572801654 0 580 0
64.8197591896594076 232.468690354598664 0 582 0
68.6739015467189233 230.969857215742195 0 583 0
53.4714511383174909 246.386426643980258 0 584 0
62.1433051821223899 247.886614445595399 0 586 0
65.8903542888426159 248.313497822509987 0 587 0
36.7701675910597032 177.225983236745662 0 588 0
51.116141920114444 178.724816375602131 0 591 0
56.040879376357168 178.724816375602131 0 592 0
24.3512644405345213 184.934267950864665 0 593 0
21.1121566570401455 187.411697979709828 0 594 0
18.7841699247819065 189.4307673674341 0 595 0
-44.8091789667000739 153.03053399520536 0 600 0
-47.4324959950737366 156.978407198750801 0 601 0
-49.5474871954523337 161.358090787868974 0 602 0
-51.6609876014725273 164.592961066383907 0 603 0
-52.0892256411457879 167.590627344096845 0 604 0
-33.0326328756848397 163.094127927527438 0 605 0
-53.4462986674840295 173.981494116117574 0 610 0
-55.3010109386954127 176.583626177235715 0 611 0
-37.7432513120909334 177.225983236745662 0 612 0
-57.7997916470060318 186.974574337331859 0 617 0
-57.6563201568984596 187.075458149231054 0 618 0
-40.5267985699672408 195.640218942696663 0 619 0
-67.3609316200028161 200.884090556919347 0 624 0
-70.2893423272601581 202.277908557632486 0 625 0
-44.5950599468634437 212.769740529627825 0 626 0
-63.651652712324335 220.478025243746856 0 630 0
-65.1504858511808038 222.405096422276586 0 631 0
-46.0938930857198557 223.261572501623164 0 632 0
-75.0254751013820851 229.277074429854906 0 639 0
-74.9999607636661949 229.6851430967223 0 640 0
-47.3786072047397511 234.395761533128393 0 641 0
-72.9849988993145757 237.550990848439142 0 646 0
-73.5011276248097829 238.249903890187909 0 647 0
-95.9836247076568725 137.185726527294037 0 648 0
-89.482145083100761 141.806985091619282 0 650 0
-85.9200307753348511 144.037535162066519 0 651 0
-15.260754229243787 140.611630844680292 0 652 0
-7.33835049528812533 165.663556165567115 0 658 0
7.22174285360335944 161.16705674899768 0 659 0
13.8594324685391825 160.310580669651131 0 660 0
24.7795024802077819 158.811747530794662 0 661 0
32.6708179231028453 160.725603578582877 0 663 0
35.0572154323664904 163.094127927527438 0 664 0
16.6429797264154899 174.442435978869327 0 665 0
4.8664336354003126 188.574291288087522 0 669 0
3.58171951638053088 190.501362466617309 0 670 0
16.6429797264154899 134.61629828925436 0 671 0
27.9912877777574067 134.188060249581099 0 673 0
32.0595491546535527 135.044536328927649 0 674 0
-12.6913259912041099 132.046870051214682 0 675 0
5.93702873458352087 134.61629828925436 0 679 0
-30.6773236574818498 149.176391638145844 0 680 0
-43.952702887353496 155.385843213408407 0 683 0
-53.3739397601656265 157.955271451448084 0 684 0
-57.0299258664742865 160.760535814138905 0 685 0
-59.583391335428189 163.736484987037358 0 686 0
-26.8231813004223341 183.435434812008197 0 687 0
-20.8278487449964587 190.929600506290569 0 689 0
-14.404278149897209 199.922599339429439 0 690 0
-6.54758414499912078 206.051322933792619 0 692 0
-1.98537499937214079 209.772074251914887 0 693 0
-33.4608709153581572 220.906263283420117 0 694 0
-27.8937763996054855 227.54395289835594 0 696 0
-34.7455850343779957 245.95818860430694 0 697 0
-20.2830287201618944 263.995136277183462 0 702 0
-36.0302991533978343 261.802996072218264 0 703 0
-32.3902758161749489 265.657138429277779 0 704 0
-30.2490856178085323 268.226566667317456 0 705 0
10.2388437382637676 135.280177078094908 0 706 0
1.79739435107512691 164.021977013486207 0 707 0
-90.2142934706149049 334.850276283060225 0 720 0
-87.5397902874897227 340.083825696063172 0 721 0
-85.2895560143722378 344.699751195545673 0 722 0
-83.1483658160058212 349.196250612115136 0 723 0
-75.5110685186019737 366.047608834631433 0 724 0
-66.0188442290746025 378.316437309898106 0 728 0
-65.8047252092379722 378.530556329734793 0 729 0
-48.4610846024701232 272.541641510598083 0 730 0
-50.6022748008365397 278.108736026350698 0 731 0
-52.9575840190395866 281.748759363573583 0 732 0
-55.0987742174060031 284.532306621449891 0 733 0
-57.6682024554456802 287.315853879326255 0 734 0
-59.0854659696643694 289.374644058244485 0 735 0
-60.6658687331586179 293.525305454588761 0 736 0
-61.3082257926685088 297.165328791811646 0 737 0
-62.7303390787266721 301.966281453531337 0 738 0
-65.5906061894013419 305.944208605113886 0 739 0
-71.1577007051539567 316.221921557272594 0 741 0
-74.5836050225402118 320.504301954005427 0 742 0
-78.2236283597630973 324.786682350738147 0 743 0
-78.6518663994363578 349.196250612115136 0 749 0
-82.5060087564958735 361.829272782476892 0 750 0
-84.8710446516180923 370.997466747761791 0 752 0
-87.8589842524119149 375.318771032185168 0 753 0
-90.7418516968573385 379.580142611946258 0 754 0
-14.8443984881176902 277.038140927167547 0 758 0
47.8924743240177122 327.998467648287772 0 794 0
48.1065933438543425 333.137324124367183 0 795 0
48.3207123636910865 337.205585501263272 0 796 0
48.3191919491600856 340.55185743339257 0 797 0
47.8924743240177122 347.26917943358535 0 798 0
47.4642362843444516 352.622154929501335 0 799 0
-10.1337800517115966 271.899284451088135 0 808 0
1.42864701946689365 280.035807204880484 0 811 0
5.71102741619972676 282.391116423083531 0 812 0
-58.9529165744655188 304.231256446420787 0 813 0
-51.2446318603464874 313.010136259723026 0 816 0
-49.5316797016533883 316.436040577109225 0 817 0
-47.112158915433497 321.035980646666076 0 818 0
-37.1127765511282632 341.059727858322844 0 822 0
-36.4704194916183155 341.916203937669366 0 823 0
-49.9599177413266489 286.24525878014299 0 824 0
-47.3904895032869717 311.725422140703131 0 829 0
-44.1787042057373469 281.106402304063636 0 830 0
-19.849743030088348 301.878493277990628 0 837 0
-17.8420647658306279 305.087732525767308 0 838 0
-53.8140600983861646 269.758094252721776 0 839 0
-64.4074022177284178 275.19853195622062 0 841 0
-67.0894393282578108 277.894617006514068 0 842 0
-63.0211779513616648 289.457044077692615 0 843 0
-72.6565338440104824 292.66882937524224 0 845 0
-76.7247952209065716 296.308852712465068 0 846 0
-93.2119597483278994 343.843275116199152 0 847 0
-96.958749472968293 348.468910699663581 0 848 0
-100.492006422773613 351.123321790644923 0 849 0
-69.6588675662974879 325.857277449921412 0 850 0
-59.2066782358829187 336.302576663558227 0 853 0
-55.5270122570792637 340.417370798812897 0 854 0
38.8994754908788991 258.409786201379859 0 855 0
32.3021879007566213 265.089673377428539 0 857 0
29.4782386180667118 268.25926111386525 0 858 0
53.8878068794437013 332.709086084693865 0 859 0
58.9647201612995673 329.816234648117586 0 860 0
63.0949247324191447 327.570229608614511 0 861 0
41.8971417685918368 344.913870215382303 0 862 0
35.2594521536559569 350.266845711298288 0 864 0
34.1888570544728054 352.193916889828074 0 865 0
-15.5819327589987324 267.155971568134305 0 866 0
-116.477725867772563 462.604142357059914 0 883 0
-116.587531830269825 468.56618292962969 0 884 0
-114.080230217703502 475.528216531891758 0 885 0
-122.258939403361808 466.244165694282742 0 898 0
-134.096725543770106 470.602627342321284 0 901 0
-138.317865891109761 471.597141190198727 0 902 0
-81.3622066145636609 377.170653442240791 0 903 0
-77.7745381848217221 385.791523787815208 0 905 0
-75.3668740591377855 392.373103850642167 0 906 0
29.1129364817197711 638.742631449348096 0 1023 0
37.6776972751853805 636.601441250981679 0 1046 0
37.8918162950220108 641.740297727061034 0 1047 0
38.7505315320811405 648.361233858902665 0 1048 0
21.2008038871864528 1025.73716452742133 0 1161 0
29.3373266409787448 1035.15840140023352 0 1162 0
34.476183117058099 1038.15606767794657 0 1164 0
40.899753712157235 1042.86668611435266 0 1165 0
25.4831842839191722 1021.02654609101546 0 1194 0
21.2008038871864528 1039.86901983663961 0 1195 0
4.07128230025523408 1089.11639439906662 0 1207 0
6.6407105382949112 1095.11172695449272 0 1208 0
24.1984701648993337 1030.2336639439909 0 1209 0
111.987268297921673 131.147899649941564 0 1210 0
113.057863397104938 133.503208868144583 0 1211 0
113.700220456614716 136.07263710618426 0 1212 0
115.973289332521972 147.316469643633098 0 1215 0
116.483767714491023 151.060968494749034 0 1216 0
117.340243793837658 153.844515752625341 0 1217 0
118.624957912857553 157.698658109684857 0 1218 0
119.909672031877335 161.981038506417633 0 1219 0
120.983291088501346 164.375266081462996 0 1220 0
122.907338309590273 167.976371061843537 0 1221 0
125.048528507956689 171.830513418903024 0 1222 0
126.975599686486476 176.112893815635829 0 1223 0
129.330908904689522 180.395274212368633 0 1224 0
131.153031640613335 185.38537400376066 0 1225 0
133.185051261748981 191.315344224037233 0 1226 0
135.540360479952028 196.454200700116587 0 1227 0
137.681550678318445 200.522462077012733 0 1228 0
140.679407528970046 206.914352912756897 0 1229 0
143.248645194071059 212.941365227537858 0 1230 0
144.747478332927585 218.294340723453843 0 1231 0
146.888668531293888 222.790840140023192 0 1232 0
149.243977749496935 228.143815635939177 0 1233 0
151.813405987536612 233.925029171528479 0 1234 0
153.740477166066398 238.635647607934516 0 1235 0
155.453429324759554 244.630980163360448 0 1236 0
157.56270384471793 251.175352501537077 0 1237 0
159.307571681819013 256.193407234538995 0 1238 0
161.020523840512169 261.54638273045498 0 1239 0
162.959220381012187 266.845844153178064 0 1240 0
163.804071098388476 270.539381563593793 0 1241 0
120.552029091387226 149.133897316219247 0 1243 0
132.255141157620869 151.905731590980423 0 1246 0
137.03919361880844 152.131563593932214 0 1247 0
119.053195952530814 129.649066511085067 0 1248 0
125.048528507956689 130.933780630104906 0 1249 0
130.615623023709304 132.004375729288114 0 1250 0
118.196719873184293 123.011376896149244 0 1251 0
126.975599686486476 127.293757292882049 0 1253 0
134.041527341095616 127.721995332555309 0 1254 0
115.413172615307985 167.762252042006878 0 1255 0
94.8577467109905115 177.825845974328956 0 1260 0
92.5024374927874646 179.110560093348795 0 1261 0
126.547361646813215 158.769253208868037 0 1262 0
135.565343746515282 157.056093703950012 0 1264 0
138.323907737828335 158.126896149358117 0 1265 0
129.545027924526039 170.331680280046555 0 1266 0
134.898003420442137 170.974037339556503 0 1267 0
141.107454995704643 169.689323220536664 0 1268 0
134.041527341095616 178.254084014002217 0 1269 0
142.843249781504369 175.351901997394322 0 1271 0
146.032192451947367 174.399941656942701 0 1272 0
127.832075765832997 192.814177362893702 0 1273 0
121.775439314722576 200.01217273732081 0 1275 0
120.552029091387226 202.87777129521578 0 1276 0
142.392169114724538 196.025962660443327 0 1277 0
152.641326413733395 194.743739519732713 0 1279 0
156.952262463615966 193.67065344224028 0 1280 0
144.319240293254211 203.734247374562301 0 1281 0
152.963518448518812 203.904446141633287 0 1283 0
156.952262463615966 203.09189031505241 0 1284 0
141.749812055214534 229.642648774795703 0 1285 0
134.469765380768877 236.280338389731526 0 1287 0
133.185051261748981 237.565052508751364 0 1288 0
152.884001086719763 220.435530921820202 0 1289 0
162.253977225375252 219.274136062681748 0 1291 0
166.159380316591523 217.866102683780525 0 1292 0
137.467431658481701 211.870770128354593 0 1293 0
129.205748950636348 218.132272413252963 0 1295 0
128.046194785669627 219.364935822636994 0 1296 0
162.947595019041955 247.414527421236755 0 1297 0
168.942927574467831 247.414527421236755 0 1298 0
173.653546010873924 247.200408401400125 0 1299 0
151.385167947863351 245.059218203033765 0 1300 0
140.954600457338984 253.899579627950743 0 1303 0
137.895669698155075 255.551050175029104 0 1304 0
167.658213455447935 261.54638273045498 0 1305 0
177.880863663816058 261.591043496419218 0 1307 0
183.503020923359259 261.118144690781719 0 1308 0
167.402204298357219 279.241832015896307 0 1310 0
168.472799397540371 282.239498293609245 0 1311 0
169.543394496723636 285.879521630832073 0 1312 0
170.542789617671133 289.404459116698888 0 1313 0
171.898703714926683 291.874854186258005 0 1314 0
173.183417833946464 295.08663948380763 0 1315 0
175.538727052149511 300.011376940050297 0 1316 0
177.2920403851233 302.43760474951381 0 1317 0
178.964631369535709 306.00670949547623 0 1318 0
185.388201964634959 315.856184407961621 0 1320 0
188.031782811834205 320.842899717708633 0 1321 0
190.527058440714313 325.063302260937121 0 1322 0
193.451790899834691 329.687631726419966 0 1323 0
200.670670159624819 339.992533577861252 0 1326 0
203.588318650749216 345.190490125581277 0 1327 0
206.800103948298897 349.901108561987314 0 1328 0
213.866031602907924 360.392940533982653 0 1330 0
216.863697880620975 364.675320930715486 0 1331 0
219.219007098824022 368.315344267938372 0 1332 0
232.922624368368929 402.146149402127435 0 1338 0
234.849695546898602 407.92736293771668 0 1339 0
235.492052606408606 413.280338433632664 0 1340 0
237.205004765101648 431.480455119747035 0 1345 0
183.675249805941803 322.493874022897444 0 1346 0
179.488832173144374 330.404605171062144 0 1348 0
177.465798230679297 333.842182074239361 0 1349 0
198.235343154833345 322.279755003060814 0 1350 0
207.646758566901667 324.240949367418921 0 1352 0
207.014222968135527 329.773920697343215 0 1353 0
184.103487845615064 299.797257920213667 0 1354 0
198.105200760418484 303.296055517356933 0 1357 0
204.658913749932481 303.865519297109813 0 1358 0
167.83044233803048 298.726662821030459 0 1359 0
145.760584470615981 303.604226851698058 0 1364 0
145.776183294856651 303.865519297109813 0 1365 0
162.477466842114495 284.808926531648922 0 1366 0
145.70094663196187 293.065794463034763 0 1371 0
145.776183294856651 293.159568305277844 0 1372 0
154.983301147832094 269.82059514308412 0 1373 0
145.56206427502002 273.032380440633688 0 1375 0
144.919707215510016 274.102975539816953 0 1376 0
177.251679210842667 286.093640650668704 0 1377 0
184.977658824792911 285.991154697983802 0 1379 0
191.169415500224204 285.237164571322182 0 1380 0
198.235343154833345 347.545799343784324 0 1381 0
194.305877228564214 357.713907965063299 0 1383 0
193.738843738263881 360.392940533982653 0 1384 0
211.296603364868361 368.101225248101684 0 1385 0
209.549898516964049 379.995809833392002 0 1387 0
208.513056106992053 384.160151735849695 0 1388 0
240.615300978463438 406.150568598688892 0 1389 0
245.799900167863257 404.420431599606786 0 1390 0
248.75182373225573 403.152902320975954 0 1391 0
237.83175372058713 438.69665961385806 0 1392 0
238.259991760260391 442.122563931244258 0 1393 0
238.259991760260391 469.958036510007446 0 1399 0
238.259991760260391 475.739250045596691 0 1400 0
237.403515680913756 481.092225541512676 0 1401 0
237.192541139733294 489.345480649448859 0 1403 0
236.118801561893974 492.440533592854536 0 1404 0
235.690563522220714 498.00762810860715 0 1405 0
235.904682542057344 503.360603604523135 0 1406 0
235.904682542057344 507.428864981419338 0 1407 0
235.904682542057344 511.711245378152057 0 1408 0
235.904682542057344 515.99362577488489 0 1409 0
232.264659204834516 538.26200383789535 0 1413 0
230.55170704614136 543.614979333811334 0 1414 0
227.982278808101682 550.466787968583844 0 1415 0
244.683562355359527 436.983707455164904 0 1421 0
252.820085109151819 434.628398236961914 0 1423 0
256.460108446374761 433.986041177451966 0 1424 0
242.756491176829741 478.094559263799738 0 1425 0
250.838932434322146 484.474895732426035 0 1427 0
256.031870406701387 487.301677116775181 0 1428 0
230.76582606597799 496.508794969750738 0 1429 0
223.485779391532219 501.861770465666723 0 1431 0
220.916351153492542 503.360603604523135 0 1432 0
240.615300978463438 493.725247711874431 0 1433 0
249.639878739948699 493.815218360771496 0 1435 0
254.747156287681605 494.367604771384322 0 1436 0
240.615300978463438 511.068888318642166 0 1437 0
251.107132950458777 506.786507921909447 0 1439 0
254.533037267844975 505.287674783052921 0 1440 0
235.048206462710823 543.614979333811334 0 1441 0
243.046033905126251 547.462868865072096 0 1443 0
247.467109613235834 549.396192869400693 0 1444 0
327.931856288209019 1058.33277049040544 0 1547 0
329.644808446902175 1060.47396068877174 0 1548 0
-19.5139827155553576 135.505056962596882 0 1549 0
-29.1784905186253809 179.153054415275392 0 1550 0
-36.672656212907782 216.409763866850653 0 1551 0
-37.3150132724176729 221.013322793338489 0 1552 0
31.417192095143605 182.793077752498277 0 1553 0
47.1521868688985819 240.013109532669148 0 1554 0
-49.5316797016533314 275.325188768474391 0 1555 0
-51.7799294099380631 279.928747694962112 0 1556 0
120.446481560189341 163.178152293940315 0 1557 0
139.180479103644302 203.718407494884815 0 1558 0
141.964026361520609 209.927859070147406 0 1559 0
148.066323140395411 225.467327887981185 0 1560 0
156.508066584738799 247.903166332448791 0 1561 0
161.989872110762235 264.196113441816522 0 1562 0
189.279420626274259 322.953100989322877 0 1563 0
235.904682542057344 495.224080850730843 0 1564 0
-80.0079535250684444 357.190027352682989 0 1565 0
0 1 1 2.6485060057205736
0 25 2 40.3335488346474236
1 2 3 3.18310806899992293
1 52 4 9.39199343897587546
2 3 5 3.62129819462544988
3 4 6 4.56882590648291753
3 43 7 4.26619110245291289
4 5 8 5.98116662873773208
5 6 9 3.94815964507174133
6 7 10 3.08806842029238027
6 69 11 4.78784683630350294
7 8 12 3.34464601056913535
8 9 13 3.56365071796569088
8 46 14 5.74541620356422911
9 10 15 4.50159460167895453
10 11 16 5.23520100340744587
10 49 17 5.37007769762227838
11 12 18 3.78781552902967888
12 13 19 4.7373585568290526
12 20 20 5.71340806480088226
13 14 21 36.9715803110911665
14 15 22 4.57405834462464167
15 16 23 6.92618183697580303
15 87 24 4.94046509290551583
16 17 25 6.04483439480976514
17 104 26 5.00044897534596711
18 19 27 23.6039647965727255
18 104 28 10.4957330652779923
19 261 29 10.3010470962705263
20 21 30 3.21891468545094206
21 22 31 2.39392341815171728
21 28 32 4.41417667620092757
22 23 33 3.19730822326047326
23 24 34 3.66794674505629503
23 27 35 2.78213000003335864
24 108 36 149.416112681242424
25 26 37 5.35725616472955135
27 105 38 140.104158749353047
28 29 39 8.82247515472641197
29 30 40 4.7300437494839267
30 31 41 5.20974060354596791
30 36 42 4.33557970851407593
31 32 43 4.68197208251224151
32 33 44 3.47137713595687813
32 95 45 1.54167083629715163
33 34 46 3.21891468545091675
34 35 47 2.56942823803967713
34 93 48 4.57734183535623185
35 263 49 273.479955113247115
36 37 50 15.9250404539559192
37 38 51 4.73925360523910921
38 39 52 4.2298293738491024
38 96 53 2.82127694493027681
39 40 54 4.1353251488382865
40 41 55 3.73942792015304359
41 42 56 4.36687252077100663
41 94 57 3.79419869826580403
42 109 58 63.1871197290641646
43 44 59 21.9470687434484475
44 45 60 1.72628272673602412
46 47 61 17.6039493018795916
47 48 62 2.65760088616103207
49 50 63 41.3002286331681248
50 51 64 0.21411901983668713
52 53 65 4.51808962023532867
53 54 66 4.78396038516169675
53 67 67 8.18300554890805287
54 55 68 4.86399909759648796
55 56 69 5.09421016714841279
56 57 70 5.60403104374214855
56 60 71 6.43782937090181484
57 58 72 21.076891977599729
58 59 73 2.8178832894710566
60 61 74 109.163634476406401
61 62 75 4.45552818035782483
62 63 76 4.50159460167895453
62 97 77 7.01382793812889727
63 64 78 10.2602195661827729
64 65 79 3.26838498876773276
65 66 80 2.78354725787629853
65 100 81 4.62219437817197676
66 353 82 9.76496990605956938
67 68 83 115.961853066920369
68 261 84 9.92451053406477257
69 70 85 34.5746672708459926
70 71 86 5.39137916045414567
71 72 87 4.9433214372062606
71 74 88 3.18310806899994247
72 73 89 28.1011492692693032
73 104 90 7.19908769079101152
74 75 91 27.0291892881690679
75 76 92 5.52576436348536593
77 78 93 7.51341462543676286
77 104 94 4.50615298316249291
78 79 95 5.79003506755829278
79 80 96 5.0007957725041754
79 83 97 5.76533105081202368
80 81 98 9.05318189692762054
81 82 99 3.73507436847310581
82 242 100 5.20582406158857847
82 519 101 2.9036837438673766
83 84 102 4.15743934474549359
84 85 103 4.63210263043857395
85 86 104 5.11784755993542273
85 90 105 6.13143562453023883
86 203 106 33.1427902404313031
87 88 107 41.0476142884042403
88 89 108 4.0626227582793355
90 91 109 20.4628168593197728
91 92 110 3.15297569022866231
93 94 111 13.4297463077241552
95 96 112 10.2039036523220794
97 98 113 14.9784172174404269
98 99 114 3.08806842029234074
100 101 115 4.41417667620087606
101 102 116 4.63210263043862192
101 389 117 6.26653020362794422
102 103 118 5.17884818020804527
105 120 119 6.75179080659575614
106 107 120 62.6836012163716774
106 120 121 7.13938006285155513
107 124 122 6.7603668137215287
108 120 123 2.38649832751723734
109 110 124 3.70888766588543817
110 111 125 3.75606986372393425
110 226 126 4.63395250082477439
111 112 127 33.3341370394930649
112 121 128 6.3720647530487593
113 114 129 55.3436067294895793
113 121 130 7.2586968386262738
114 124 131 4.92586334205054133
115 116 132 3.67917291821490444
115 120 133 4.95517850868083531
116 121 134 3.02526004223845835
117 118 135 5.51293474925996385
117 121 136 5.62087916852699365
118 119 137 5.37662653374737154
122 124 138 6.95660305564915671
122 125 139 189.731299628927559
123 124 140 6.04601935441871152
123 127 141 301.876780187423719
125 126 142 0.957569367260738713
127 128 143 5.71340806480089469
129 130 144 6.34096043459814851
129 229 145 6.61000361474793419
129 519 146 2.90368374386741079
130 131 147 6.09017128794789464
131 132 148 5.45898530189191522
131 244 149 7.11764602201193419
132 133 150 5.39633455442533805
133 134 151 5.38244499268088905
134 135 152 6.14668777854804738
134 208 153 6.62079104939029595
135 136 154 4.88538630114295813
136 211 155 9.00318920335784689
136 520 156 2.39392341815176835
137 138 157 6.5682558058522007
137 249 158 3.38551896523277218
137 520 159 2.39392341815176835
138 139 160 6.58672497449537087
139 140 161 5.22026476300500075
140 141 162 4.75421377783027133
140 214 163 6.53676997753540601
141 142 164 4.94332143720623751
142 143 165 4.71548226675329474
143 217 166 8.37531137471195919
143 521 167 3.02810021815008357
144 254 168 3.93653028359513169
144 521 169 3.02810021815013197
144 522 170 1.62010436517061263
145 146 171 5.20242096398930265
145 220 172 8.58881540383694997
145 522 173 1.62010436517055623
146 147 174 5.29717825657168007
147 148 175 4.59897553303457673
147 223 176 8.50678025077374933
148 149 177 4.07389219118537937
149 150 178 4.54215032722512113
150 151 179 5.0397631769077238
150 256 180 4.92939001982759084
151 152 181 4.86850717155296042
152 153 182 4.85209614479174078
153 154 183 3.38551896523275619
153 258 184 7.8526526735909723
154 155 185 3.83027746904282784
155 270 186 5.92597477285981356
156 157 187 11.7234937866506854
156 261 188 9.12106288376051744
157 158 189 5.21764884523902861
158 159 190 5.59849119826215702
158 232 191 4.95242408237696097
158 233 192 6.07662111321872445
159 160 193 6.32771306016684232
160 161 194 4.28238039673278781
160 236 195 8.71598553605190673
161 162 196 3.11714740970017035
162 163 197 4.91158482406009345
163 197 198 6.90513090694420661
163 523 199 2.23546819648202755
164 165 200 5.87950710608256166
164 200 201 7.70828471411903138
164 523 202 2.23546819648201645
165 166 203 27.205208225086146
166 167 204 3.88365963299355421
167 168 205 4.37861813369080544
167 188 206 5.93135535576884187
168 169 207 9.9789402132926881
169 170 208 7.28319480288450904
170 191 209 6.72006326874728188
170 524 210 2.62175745126349868
171 172 211 8.68087982221510579
171 194 212 7.26054274001752731
171 524 213 2.62175745126349868
172 173 214 5.78985641963224218
173 174 215 5.78049827523444737
173 321 216 8.04218028417132658
174 289 217 65.4885541846293791
175 176 218 23.5788609441243118
175 261 219 8.79893154672932631
176 262 220 7.64721600615573394
177 178 221 33.1133356374927033
177 262 222 8.78381070946112885
178 179 223 5.35476041279879755
179 180 224 6.37508431956433785
179 250 225 4.70330158991128666
179 251 226 6.36690418271180292
180 181 227 24.8247636236754801
181 182 228 5.81679057006375011
182 183 229 8.8439190771286782
182 185 230 6.32648333709304733
182 255 231 3.38551896523275619
183 184 232 21.5961781428283928
184 330 233 8.56542988926709725
185 186 234 34.753419015464516
186 187 235 3.81543281281624669
188 189 236 13.2450370287624963
189 190 237 3.78815216263370136
191 192 238 11.8551179702673046
192 193 239 4.13532514883831315
194 195 240 8.82058399865987397
195 196 241 3.77128710464462635
197 198 242 14.467995052203376
198 199 243 4.92473745624272397
200 201 244 4.07792579394446442
201 202 245 3.08158456285328342
203 204 246 4.7399889306439702
204 205 247 4.86362170799394455
204 245 248 3.82690738324654767
204 246 249 6.02121397908653577
205 206 250 3.86410011323034963
206 207 251 3.02810021815007602
208 209 252 23.2222767495328384
209 210 253 3.19547318444092587
211 212 254 22.483527720217289
212 213 255 0.175389885617726726
214 215 256 27.9280932055223587
215 216 257 3.24319562923537186
217 218 258 20.7207070026896858
218 219 259 2.44133244464048671
220 221 260 30.2255518753622781
221 222 261 0.408865525947116448
223 224 262 25.9415774238284662
224 225 263 0.868831572405043828
226 227 264 8.01944445550380713
227 228 265 4.20285759434730011
229 230 266 31.1539508557964382
230 262 267 9.28205882390320802
231 232 268 6.69271803520211961
231 262 269 6.12977376364474935
233 234 270 8.1283160934448091
234 235 271 3.36226124264058113
236 237 272 18.5284558421904428
237 238 273 2.31605131521927943
239 240 274 11.3640607984802884
239 261 275 6.43845422450237148
240 241 276 4.15743934474548382
242 243 277 19.2576593067485149
243 261 278 4.35274021418242629
244 245 279 14.821868441529217
246 247 280 4.60822553203563334
247 248 281 3.92128287436840717
249 250 282 9.64968566231111069
251 252 283 10.0030355640419018
252 253 284 5.88708269516838456
254 255 285 8.66848189333139629
256 257 286 23.2627367273452208
257 330 287 5.66490802860778064
258 259 288 5.30133786925597761
259 260 289 3.34464601056914468
263 264 290 5.87732989842243114
264 265 291 5.13520423164311435
264 315 292 6.8049222137380827
265 266 293 4.98028136442008051
266 535 294 8.58851884407981991
267 268 295 15.5333117911714389
267 535 296 9.93371654874141008
268 269 297 0.302810021815036523
270 309 298 6.03344694156734107
270 525 299 2.98233284581480174
271 306 300 7.08860087060629596
271 525 301 2.98233284581480174
271 526 302 2.16778985425704196
272 273 303 3.51181303636898123
272 304 304 5.40411973551163616
272 526 305 2.16778985425708948
273 274 306 3.7881521626337431
274 275 307 2.49945051352205505
275 276 308 4.44135822941168179
275 312 309 3.93657447104468039
276 277 310 3.69626737228645652
277 278 311 5.00715015337632341
278 279 312 4.89949307252340827
278 298 313 4.40443327729154799
279 280 314 11.746193079453672
280 281 315 5.48412274244545284
281 282 316 5.62036936133630949
281 318 317 7.27374632997309245
282 283 318 25.3612354694138986
283 535 319 8.10798611680784198
284 285 320 9.56099183059017044
284 535 321 5.26904906953100571
285 286 322 5.25370857362375787
286 287 323 5.14492103370292853
286 337 324 6.75555979444476229
287 331 325 89.5110513703398141
288 330 326 9.90965327553590569
288 340 327 369.615223188645643
289 290 328 5.14331535455479383
290 291 329 4.07389219118526835
290 324 330 5.79705250646437253
291 292 331 3.34627227753760215
292 293 332 6.73086196455410057
293 294 333 5.37007769762227749
293 327 334 6.4413891330598565
294 341 335 285.420146283204019
295 296 336 14.3984618651867855
295 330 337 7.22366839130340566
296 297 338 4.88735750438556593
298 299 339 11.7511027030070885
299 300 340 3.83027746904277722
300 301 341 5.19745413433007641
300 305 342 5.17441992101427761
301 302 343 22.4236339501413013
302 303 344 1.07059509918318563
304 305 345 25.7707574969396944
306 307 346 32.1752147276333744
307 308 347 3.78549713541604982
309 310 348 11.9378678927555377
310 311 349 3.80291962322012234
312 313 350 10.303650380908957
313 314 351 5.45898530189185305
315 316 352 5.95272524073496534
316 317 353 4.41925366020919252
318 319 354 14.8253578717514038
319 320 355 5.52009714507736593
321 322 356 9.40072991305073025
322 323 357 4.2451120091435568
324 325 358 5.84325576246547129
325 326 359 4.70139643475959801
327 328 360 8.54626631049627505
328 329 361 2.20449023438870384
331 332 362 5.96305166323151248
332 333 363 7.39976170260933674
332 334 364 6.12834626154343365
333 344 365 573.830286996208201
334 335 366 12.6270988839606311
335 336 367 4.33671345901003047
337 338 368 9.34451984532333135
338 339 369 7.0081411704892691
340 342 370 9.27656907961897836
341 342 371 5.14331535455473698
342 343 372 6.67639027621090619
343 348 373 379.535441483970317
344 352 374 5.40411973551174629
345 346 375 6.05306118275542993
345 352 376 7.11764602201192886
346 347 377 7.96568799562418572
348 352 378 9.29631698718304555
349 350 379 53.1480421917926833
349 352 380 10.0908912535284561
350 351 381 6.5227274909034616
353 354 382 2.58720996050713659
354 355 383 2.6485060057205323
354 386 384 7.12730143593138887
355 356 385 11.4721856926537882
356 357 386 3.7791347983984771
357 358 387 2.91233353366740833
357 383 388 4.50159460167900605
358 359 389 4.06262275827935415
359 360 390 4.47093639296400003
360 395 391 7.37390589998159562
360 527 392 1.31196260997158687
361 362 393 4.08288069733877368
361 392 394 6.519040857544252
361 527 395 1.31196260997158687
362 363 396 4.40898046877738814
363 364 397 4.69599671948795105
363 398 398 4.73972655132580734
364 365 399 4.88735750438554106
365 366 400 5.31236549879817943
365 401 401 5.17441992101427761
366 367 402 6.26846476850969037
367 368 403 5.65290433273861126
367 404 404 5.55885306857550621
368 369 405 4.59733032273354691
369 407 406 6.51217575443246233
369 528 407 3.52999341901191244
370 410 408 4.83336878233106138
370 528 409 3.52999341901186403
370 529 410 3.27589146730688929
371 372 411 5.55885306857552131
371 419 412 5.87950710608268867
371 529 413 3.27589146730679248
372 373 414 4.98028136441992864
373 416 415 6.44138913305983607
373 530 416 2.9241164551548402
374 375 417 6.32648333709309973
374 413 418 7.64257942264872536
374 530 419 2.9241164551548402
375 376 420 5.08955099989465065
376 377 421 6.23523997518311912
377 425 422 4.09073813013845111
377 531 423 3.43794445494827272
378 379 424 5.31276171801001862
378 422 425 6.56817008335873531
378 531 426 3.43794445494818346
379 380 427 5.62036936133636367
380 428 428 6.63768961493576626
380 532 429 2.82147282669341681
381 382 430 3.78893010450070999
381 469 431 8.51260424700685725
381 532 432 2.82147282669337773
382 431 433 9.46625745693736675
383 384 434 12.0769170712207572
384 385 435 4.78937971400807516
386 387 436 6.13143562453021929
387 388 437 5.66910179955501814
389 390 438 9.79061397254134391
390 391 439 7.07889267038238312
392 393 440 23.7267158172544725
393 394 441 2.68290362871295995
395 396 442 9.17929104802187723
396 397 443 2.95910344044627527
398 399 444 5.39137916045425847
399 400 445 6.34096043459813163
401 402 446 9.2824749288910251
402 403 447 3.32799997673751236
404 405 448 9.41297255432201574
405 406 449 3.11582856870707525
407 408 450 10.3315457009678759
408 409 451 4.44248616833921517
410 411 452 8.6732626156258199
411 412 453 4.07066650430662236
413 414 454 9.97160340273103607
414 415 455 1.81686013089009846
416 417 456 9.44453435337491598
417 418 457 4.1514733891693929
419 420 458 10.3975890715888042
420 421 459 1.69234303329021718
422 423 460 5.9953325554258754
423 424 461 4.71548226675329474
425 426 462 13.8533897076491055
426 427 463 3.47626413802932177
428 429 464 10.2336911452010142
429 430 465 5.64201077023145103
431 432 466 3.18310806899990784
432 433 467 3.79419869826582001
432 466 468 6.52272749090325288
433 434 469 3.66387430011493764
434 435 470 2.81804095762256956
434 472 471 7.48135806444069207
435 436 472 3.45919863048722664
436 437 473 5.45898530189189479
436 463 474 6.47333890317846716
437 438 475 2.99344100108850819
438 439 476 3.94158207941800232
438 460 477 7.30528903507828353
439 440 478 11.7734535904305702
440 441 479 5.64409862388529859
441 454 480 4.65887282374434086
441 533 481 2.45143825595162168
442 443 482 5.47160698175272664
442 457 483 8.19547366359942764
442 533 484 2.45143825595162168
443 444 485 12.6342440131184794
444 445 486 5.96082418711925666
445 446 487 5.70135868464392903
445 475 488 5.84823291030957559
446 447 489 12.6898045913474
447 448 490 5.22731144804474823
448 449 491 4.33557970851413099
448 478 492 6.53676997753540601
449 450 493 36.5862476696631234
450 451 494 6.09393413741894996
451 452 495 5.39137916045415277
451 481 496 6.03317529296896282
452 453 497 18.48116729616806
453 484 498 7.24337086956275478
454 455 499 8.95165649917498385
455 456 500 3.98868415616268779
457 458 501 9.67487587052724152
458 459 502 5.56901005758390166
460 461 503 14.447406863683554
461 462 504 6.57840732589392996
463 464 505 22.958042362228209
464 465 506 0.261757646205313499
466 467 507 19.3364404862559986
467 468 508 0.120225159316065006
469 470 509 9.95857249633555952
470 471 510 1.24851770443897392
472 473 511 7.7278066795310103
473 474 512 6.23749563838333909
475 476 513 11.0582125175234705
476 477 514 2.73838318802405878
478 479 515 12.036968433187333
479 480 516 4.2914782608888391
481 482 517 5.46566032518652722
482 483 518 3.2125508870992161
484 485 519 3.4525654534720398
484 499 520 7.0626826819214461
485 486 521 27.8776200472168476
486 487 522 5.78121353558924511
487 488 523 5.42106059128377193
487 502 524 5.07602093342420613
488 489 525 8.28494277507571297
489 490 526 3.276014255692838
490 508 527 4.67642998138736044
490 534 528 2.79177045823730108
491 492 529 5.35725616472955135
491 505 530 5.14777037085515499
491 534 531 2.79177045823730108
492 493 532 4.06826137689620282
493 494 533 4.28238039673271942
494 495 534 4.28238039673283311
494 511 535 4.75421377783027133
495 496 536 22.595654014372105
496 497 537 5.62036936133636367
497 498 538 7.31773482971191136
497 514 539 4.49649941656946339
498 517 540 527.929517333152717
499 500 541 8.48731872307612534
500 501 542 3.69626737228652225
502 503 543 10.3029841048417055
503 504 544 5.91246968532449202
505 506 545 9.09423065044546775
506 507 546 2.97463649015637621
508 509 547 9.02544025415436124
509 510 548 5.1370628472120492
511 512 549 11.3811803478383347
512 513 550 3.73942792015301428
514 515 551 8.89853751249546931
515 516 552 4.82531368125946969
517 518 553 2.74206137122265581
