ply
format ascii 1.0
element vertex 277
property double x
property double y
property double z
property int og_index
property int root
element edge 300
property int vertex1
property int vertex2
property int name
property double len
end_header
0 0 0 1 1
3.97432905484248522 6.42007001166859936 0 2 0
13.1458576429404843 19.5659276546090837 0 7 0
14.0630105017502842 23.2345390898482833 0 8 0
14.0630105017502842 26.5974329054842258 0 9 0
13.7572928821469986 30.2660443407234254 0 10 0
13.1458576429404843 34.2403733955659106 0 11 0
12.2287047841306844 38.520420070011653 0 12 0
11.3142530526662881 41.4139078236495095 0 13 0
10.373777998942046 45.0143248657486765 0 14 0
9.78296382730451342 49.5262543757292519 0 15 0
7.33722287047845612 66.9521586931154786 0 19 0
6.73293401329380004 72.270657767649169 0 20 0
7.03150525087511369 78.5694282380396487 0 21 0
5.80863477246208504 95.9953325554258754 0 24 0
6.29468358816495765 103.579803238152209 0 25 0
8.86581096849471351 111.281213535589217 0 26 0
9.77217743062635691 117.608751728262007 0 27 0
9.78296382730451342 124.427071178529701 0 28 0
9.47724620770128467 147.050175029171498 0 29 0
5.19719953325551387 -2.1400233372228854 0 30 0
34.2403733955659391 9.78296382730454184 0 40 0
41.0972064812900157 27.0969453569710197 0 41 0
46.1633605600933379 42.4947491248540814 0 44 0
46.7620182643748876 46.6560560953312233 0 45 0
-11.3115519253206571 3.51575262543758527 0 46 0
-8.86581096849459982 64.047841306884493 0 58 0
16.2030338389733402 73.8308051341890632 0 60 0
38.8638807431063356 102.875009520223102 0 64 0
36.9918319719955093 108.071178529755002 0 65 0
34.546091015169452 111.739789964994202 0 66 0
31.1142838405198745 115.399012200612049 0 67 0
27.8203033838975102 118.465577596266087 0 68 0
-6.42007001166842883 149.648774795799341 0 69 0
-9.4772462077010573 356.925320886814461 0 121 0
-7.64294049008145748 357.536756126021032 0 122 0
12.8401400233373693 132.834305717619571 0 123 0
24.1516919486582538 122.439906651108487 0 127 0
8.12022667732929904 139.003992114215549 0 128 0
16.2030338389733402 35.0046674445740962 0 129 0
17.4259043173864256 39.8961493582263529 0 130 0
18.3430571761962824 44.4819136522753524 0 131 0
18.6674258054034112 50.110101402370816 0 132 0
22.3173862310386539 68.9393232205367497 0 136 0
25.6486227474909469 86.008673505526815 0 137 0
26.9031505250877103 90.3395565927654332 0 138 0
27.8203033838975102 95.5367561260209754 0 139 0
27.8265820702042106 104.853362618015979 0 141 0
28.1174397191386447 108.235501977097584 0 142 0
27.914855083422367 110.478803921782145 0 143 0
29.0431738623105389 125.191365227537915 0 144 0
29.3488914819138245 130.388564760793429 0 145 0
28.4317386231040246 135.585764294048971 0 146 0
26.9270183219439332 139.500426552549158 0 147 0
24.7631271878648249 144.145857642940427 0 148 0
22.9288214702451683 149.343057176195998 0 149 0
22.3173862310386539 153.623103850641769 0 150 0
20.1773628938158822 197.340723453908936 0 158 0
20.1773628938158822 202.232205367561221 0 159 0
20.1773628938158822 206.817969661610221 0 160 0
7.03150525087534106 154.540256709451569 0 163 0
7.03136475112586368 159.718409448031082 0 164 0
7.03150525087534106 193.366394399066508 0 170 0
6.72578763127205548 198.563593932322021 0 171 0
7.03150525087534106 202.537922987164507 0 172 0
-0.305717619603115054 69.2450408401400068 0 176 0
49.244925175146534 53.3263021310124259 0 177 0
53.342640442886875 66.2378262340999129 0 181 0
53.9473844727942264 69.8918338327621029 0 182 0
54.1190940427813416 73.4125848168219193 0 183 0
54.5616773979478467 77.1575125978717153 0 184 0
54.4421247084021047 81.1466055149097656 0 185 0
54.7478423280053335 84.5094993305457081 0 186 0
55.5000767742594689 87.2582442371416676 0 187 0
55.9723732057871075 90.703899334000198 0 188 0
56.0025146508579041 94.3750530815736681 0 189 0
56.887865665228162 99.7953803107090778 0 190 0
56.887865665228162 103.769709365551535 0 191 0
57.1935832848315044 113.85839081245939 0 193 0
56.9126755662350092 119.195740962411776 0 194 0
57.4993009044347332 127.004248455399875 0 195 0
57.3543911664479538 133.539400540994876 0 196 0
56.887865665228162 141.372976576753445 0 197 0
57.4977327614968772 147.47897070144424 0 198 0
58.1107361436413044 158.187445654933128 0 200 0
57.4696660019530441 166.493516748575189 0 201 0
57.4993009044347332 172.250456156683413 0 202 0
56.5821480456249333 185.396313799623954 0 204 0
4.91587033267279594 225.445321967651921 0 205 0
6.13874081108582459 241.036920567418633 0 206 0
2.16441175624333937 260.908565841631003 0 210 0
1.24725889743353946 264.27145965726686 0 211 0
21.4246217912491943 222.693863391222521 0 212 0
22.0643043693569325 227.318290018376956 0 213 0
22.9532098892655654 233.088262457733663 0 214 0
26.2188044727286638 243.2915691073772 0 216 0
27.0550858499808555 248.287747475289336 0 217 0
28.7584269596551394 252.627328979470633 0 218 0
32.7817216479419358 264.392157509191748 0 221 0
35.7689614935820828 271.935822637105957 0 222 0
56.2764304260217045 191.510666191689324 0 223 0
55.6650427543141291 198.280093672604721 0 224 0
55.6618078392117468 205.306036194916999 0 225 0
56.4970707530636673 211.493368843417443 0 226 0
57.4993009044347332 216.273793379553922 0 227 0
58.4164537632445331 220.553840053999693 0 228 0
59.9699892297253427 225.873529584648509 0 229 0
60.8621947200707041 230.948239120510834 0 230 0
61.5901045883097709 234.65499664754924 0 231 0
63.6136532965001038 238.591179610592462 0 232 0
65.4993167822233318 242.653557203186665 0 233 0
68.6529995060723763 248.152088893281075 0 234 0
70.9508761669785031 250.819884394723147 0 235 0
74.2971809952871354 254.179526011631651 0 236 0
77.0652285590438737 255.405648688772146 0 237 0
81.3452752334895877 257.851389645598317 0 238 0
83.4852985707124731 259.685695363217917 0 239 0
36.3803967327885402 278.980097992278104 0 244 0
38.4294412181284315 282.31368105422905 0 245 0
40.6604434072343111 285.705885623549989 0 246 0
107.918319719953388 278.980097992278104 0 268 0
108.529754959159845 283.260144666723818 0 269 0
107.918319719953388 287.540191341169589 0 270 0
107.918319719953388 296.100284690061073 0 272 0
109.141190198366417 299.768896125300273 0 273 0
110.804065107005556 303.432072573628034 0 274 0
99.6588161674859521 863.103867457732804 0 382 0
98.7109911321938966 866.512310034955817 0 383 0
189.758481935144744 824.044303078522944 0 484 0
190.369917174351258 825.572891176539315 0 485 0
30.2447656260673057 81.1682637958306827 0 491 0
24.4574095682615393 78.4165694282380343 0 494 0
-19.8929239888684606 56.0994189883627996 0 496 0
27.8203033838975102 271.935822637105957 0 497 0
16.0002605835643408 286.634417502190843 0 501 0
14.6744457409570259 289.667444574095498 0 502 0
50.4434072345392792 219.35239206534402 0 503 0
47.3830010041840524 220.988131911916355 0 504 0
44.3290548424739086 222.10385064177342 0 505 0
31.1831971995334243 226.995332555425705 0 508 0
-3.05717619603251478 237.084014002333504 0 509 0
-10.5657394064589312 241.721592992307308 0 511 0
-14.9747591771717339 244.114307336980858 0 512 0
68.4807467911320487 226.078179696615905 0 513 0
89.8790123786463369 227.303854493370238 0 517 0
93.243873978996703 227.30105017502899 0 518 0
32.7117852975497954 144.451575262543571 0 519 0
43.1061843640608799 153.317386231038313 0 520 0
46.7747957993000796 156.985997666277513 0 521 0
50.4434072345392792 159.431738623103683 0 522 0
65.4235705950993633 170.131855309217997 0 523 0
77.6522753792300477 189.392065344223852 0 528 0
78.5694282380398477 193.060676779463051 0 529 0
119.229871645274386 282.941656942823556 0 530 0
143.075845974329241 288.750291715285698 0 535 0
146.438739789965155 288.444574095682412 0 536 0
102.415402567094702 304.341890315052297 0 537 0
99.9696616102685311 306.787631271878467 0 538 0
96.9124854142359027 308.927654609101296 0 539 0
67.2578763127189632 260.62427071178513 0 540 0
66.0350058343058777 263.681446907817758 0 541 0
65.1178529754960778 267.044340723453729 0 542 0
64.5373660072465327 271.765626756834081 0 543 0
63.3039226176323382 277.061585600634828 0 544 0
61.4529397852548414 282.011485017000723 0 545 0
55.0291715285882788 295.476079346557526 0 548 0
55.6406067677947931 295.781796966160812 0 549 0
56.557759626604593 246.561260210034789 0 550 0
44.0274631136454104 269.781918063383671 0 555 0
42.8004667444575944 272.547257876312528 0 556 0
64.812135355892849 132.222870478412887 0 557 0
107.918319719953502 160.043173862310198 0 568 0
111.281213535589472 162.488914819136312 0 569 0
28.126021003500739 201.315052508751251 0 570 0
48.0666765506878733 196.200764669682655 0 574 0
14.3635522177881398 229.454444596462849 0 575 0
5.53178659224221292 233.297267906632896 0 576 0
-1.22804638197845861 202.55129407137531 0 577 0
-3.31337218401631617 205.194567971898095 0 578 0
-7.03668115444060049 208.66564646344068 0 579 0
47.3813426851390318 12.1416949696908603 0 580 0
86.2074803747539704 14.89315354612026 0 588 0
89.87609180999317 15.8103064049300599 0 589 0
0.606546885839122751 39.9619983535881715 0 590 0
-10.0935698002751906 48.8278093220829419 0 593 0
-13.7621812355143902 51.5792678985123416 0 594 0
3.35800546226852248 49.1335269416861991 0 595 0
-7.34211122384579085 56.7764674317678555 0 599 0
-23.8508626824222461 63.807972682643026 0 600 0
-49.5329752401178212 97.1289777566567523 0 609 0
-49.2254251094934148 97.1311932193991368 0 610 0
-0.310605972970677158 126.174367081709534 0 611 0
-33.9395441293300451 148.797470932351303 0 620 0
-35.7738498469496449 150.326059030367674 0 621 0
62.6672236653024015 90.7111232077305374 0 622 0
88.8206114725234102 114.132788397009563 0 629 0
92.0161151472159986 116.391403254404963 0 630 0
61.444353186889316 80.3167241412194528 0 631 0
92.0161151472159986 90.7111232077305374 0 638 0
95.9904442020585407 91.6282760665403373 0 639 0
40.0441198146606325 114.557097536785363 0 640 0
51.0499541203782314 115.168532775991878 0 643 0
66.9472703397481155 121.588602787660534 0 644 0
90.8411945193792576 125.235363294455027 0 649 0
91.0989622884061987 125.257214222899734 0 650 0
44.6298841087096321 160.414740477275473 0 651 0
41.2283215938988974 167.196056179919026 0 653 0
39.1269669558508326 171.420574782993071 0 654 0
39.4326845754540614 46.3820683652567709 0 655 0
27.8154150305299481 46.3820683652567709 0 657 0
-15.3086889668497292 60.3477258891809356 0 658 0
28.4268502697364625 23.7589645146150019 0 659 0
33.3183321833887476 22.2303764165986877 0 660 0
38.6732788798132674 19.1073512252041695 0 661 0
49.8270836419652028 146.351729975525132 0 662 0
48.909930783155346 151.854647128383988 0 663 0
22.0067802580678631 112.722791819165764 0 664 0
14.3638397679861782 118.837144211231077 0 666 0
77.0090658431350334 263.994784607670226 0 667 0
71.8118663098795196 270.720572238942111 0 668 0
69.6718429726566342 234.645893125756515 0 669 0
95.6578406389343741 256.351844117588485 0 676 0
99.020734454570345 260.326173172431027 0 677 0
49.1887624592376937 208.965613079082004 0 678 0
44.9087157847919229 211.717071655511404 0 679 0
40.6623424315948796 214.771798097437681 0 680 0
50.1059153180474937 224.862929298451945 0 681 0
42.167251079800792 229.675870067924279 0 683 0
37.8772105339167524 231.894434549327116 0 684 0
52.2459386552703791 228.531540733691145 0 685 0
40.2804774496819959 238.360422433795065 0 688 0
36.6543400555037238 241.983115996234915 0 689 0
43.4119019836641655 71.6907817969658367 0 690 0
39.7432905484249659 73.8308051341887221 0 691 0
35.2596633832461066 75.9930216149017497 0 692 0
20.7887981330223965 92.1738623103847772 0 693 0
13.1458576429407117 98.288214702450091 0 695 0
33.6289381563595953 125.802800466744173 0 696 0
33.9346557759628809 130.69428238039643 0 697 0
37.2975495915988517 142.005834305717343 0 700 0
36.9918319719955662 153.317386231038199 0 701 0
36.0746791131857663 158.208868144690484 0 702 0
35.4632438739791951 163.100350058342769 0 703 0
37.7561260210036949 148.578763127187671 0 704 0
50.1376896149360505 100.428238039672976 0 705 0
43.4119019836641655 105.319719953325261 0 706 0
-2.44574095682582993 156.98599766627774 0 707 0
-24.4574095682610277 165.546091015169168 0 712 0
-27.2088681446904843 167.380396732788768 0 713 0
38.8261376896152797 123.662777129521601 0 714 0
47.3159920216671139 123.96849632999124 0 716 0
15.8973162193702251 150.260210035005798 0 717 0
64.506417736289734 125.497082847141201 0 718 0
19.2492831274788614 249.26139107610561 0 719 0
15.8646533016114972 252.94575740345141 0 720 0
14.0520835942232907 255.375743468170981 0 721 0
61.1325970131264853 261.184378240633066 0 722 0
56.5863231542716107 262.101724472556668 0 723 0
58.3811384366970856 274.33023588357355 0 724 0
55.629679860267629 277.387412079606236 0 725 0
53.7953741426480292 280.75030589524215 0 726 0
10.8440155258041955 43.2141163446991072 0 727 0
14.3584175875691358 44.7481192590120145 0 728 0
8.95159525231690623 131.715531646372625 0 729 0
35.7689614935824807 109.905484247374602 0 730 0
32.554635845567077 108.153340253426279 0 731 0
28.4317386231040246 121.828471411902001 0 732 0
31.3360560093350955 125.49708284714103 0 733 0
57.2059882353348712 123.099994708905825 0 734 0
57.4268460354413151 130.271824498197361 0 735 0
61.0028593203622336 126.250665651270538 0 736 0
57.1211284158380863 137.456188558874146 0 737 0
39.2847141190198386 272.241540256709243 0 738 0
57.9578773338396331 218.413816716776807 0 739 0
59.1932214964849095 223.213684819324101 0 740 0
60.4160919748980518 228.410884352579671 0 741 0
40.6149539812930129 277.430469465270789 0 742 0
0 1 1 7.55066820823770612
0 20 2 5.6205500506916497
0 25 3 11.8453249631446056
1 2 4 16.1308340960871952
2 3 5 3.78151811171000585
3 4 6 3.36289381563594247
3 211 7 14.3734099957707659
4 5 8 3.68132763085598214
5 6 9 4.02108747578421699
5 39 10 5.33256014951966506
6 7 11 4.37721017337036855
7 8 12 3.03454994185801485
8 183 13 10.8056935207492479
8 261 14 1.86061120359116328
9 10 15 4.55044715258196319
9 186 16 8.13565547628157937
9 261 17 1.86061120359115018
9 262 18 3.99352201400121221
10 11 19 17.6100790952383264
11 12 20 5.35271869508694209
12 13 21 6.30584286377118186
12 27 22 9.59775236780242302
12 65 23 7.66139508192289931
13 14 24 17.5006839721885257
14 15 25 7.60002888075969274
15 16 26 8.11926207086272811
15 236 27 8.65676008446615874
16 17 28 6.39212325783928215
17 18 29 6.81832798215604008
18 191 30 10.2436904622453522
18 217 31 7.22715074449457617
18 263 32 7.33572284773532246
19 38 33 8.15981381569089592
19 60 34 7.87927486544053757
20 21 35 41.9075809136421356
21 213 36 10.3244782617999356
22 23 37 16.2605538622530759
22 213 38 8.34919393759446216
23 24 39 4.20414875443737124
24 66 40 7.11737373643385407
24 208 41 7.33445305389441593
25 132 42 59.8130360983037264
26 65 43 10.1145905713853015
26 210 44 7.42977328092965195
27 131 45 9.44266661705455768
28 29 46 5.52310953875054711
28 130 47 26.0460777719059848
29 245 48 6.98482807609005896
29 264 49 2.20456110658472459
29 265 50 4.43795673854850925
30 31 51 5.01669292000381351
30 200 52 6.17782669181535393
30 264 53 2.20456110658472459
31 32 54 4.5004589293129742
32 37 55 5.40869682076308678
32 49 56 7.9873333316766475
32 266 57 3.41802689676161053
33 34 58 238.76443157081701
33 38 59 18.0203114884905489
34 35 60 1.93352799758254146
36 37 61 15.3913132038820315
36 38 62 7.76805073529817847
38 263 63 7.33572284773532246
39 40 64 5.04202414894666973
40 41 65 4.67658032401858925
41 42 66 5.63752714919745124
41 209 67 9.6610636709330393
41 262 68 3.99352201400126905
42 43 69 19.3454550142012565
43 131 70 9.71585794282970028
44 45 71 4.50892318187961383
44 131 72 7.68498751845146266
45 46 73 5.27750436806021206
45 235 74 6.38357130766515724
46 47 75 9.31661094631953191
47 48 76 3.39462292695265377
48 49 77 2.2524307202783902
48 216 78 7.58128809477005206
48 265 79 4.43795673854850925
50 51 80 5.20618346309532498
50 266 81 3.41802689676161053
50 267 82 2.31317353501196177
51 52 83 5.27750436806021206
52 53 84 4.19389601478733542
53 54 85 5.12469070829840323
53 146 86 7.61428936346259011
54 55 87 5.51140276646191829
55 56 88 4.32350003899361912
55 251 89 7.09106730044955125
56 57 90 43.9974266716992872
57 58 91 4.89148191365228513
58 59 92 4.58576429404899955
58 173 93 8.00139582267257587
59 92 94 15.9262760606905385
60 61 95 5.1781527404856158
60 246 96 9.78773949945967914
60 251 97 9.84486686880622486
61 62 98 33.7152864512338084
62 63 99 5.20618346309532498
63 64 100 3.98607008206090896
63 177 101 8.89748435847719854
64 88 102 23.1015804185917766
66 67 103 13.6338131189326308
67 68 104 3.7037125796678132
68 69 105 3.52493569702814957
68 232 106 10.6879654311135806
69 70 107 3.77098980528308925
70 71 108 3.99088400562341095
71 72 109 3.37676147783321134
71 197 110 7.05123441386935124
72 73 111 2.84981670001221232
73 74 112 3.47787333951955624
74 75 113 3.67127748134538168
74 194 114 6.69485435686421937
75 76 115 5.49215747129970655
76 77 116 3.9743290548424568
76 244 117 6.77977769658021678
77 78 118 10.1377498364857743
78 79 119 5.34473720304037414
79 201 120 7.11265833064378494
79 202 121 10.3159526939274677
79 268 122 3.91525601191892791
80 250 123 10.6261738536867991
80 268 124 3.91525601191892791
80 269 125 3.26837924719652673
80 270 126 3.58368645622016579
81 170 127 7.57305749356765645
81 269 128 3.26837924719655382
81 271 129 3.92372780501205298
82 83 130 6.13637532472303615
82 214 131 8.63959652911025699
82 271 132 3.92372780501208451
83 84 133 10.7511733087922678
84 85 134 8.33077354986920859
85 86 135 5.75701568315343071
85 149 136 9.96177808225251837
85 150 137 8.74654821965411067
86 87 138 13.1787616589798411
87 100 139 6.12199056167937794
88 176 140 7.87606550680489281
89 90 141 20.4247738562828332
89 176 142 7.76341527508221052
90 91 143 3.48571716891443772
92 93 144 4.66845964218065212
93 94 145 5.83804204971667051
93 139 146 9.12461001748130229
93 175 147 7.99154178374665758
94 95 148 10.7136850399587722
95 96 149 5.06568503027300387
96 97 150 4.66190289123860069
96 253 151 7.86629124836031135
97 98 152 12.4494377337232507
98 99 153 8.11359879815911711
99 117 154 7.07076150999516706
99 133 155 7.94865810968457254
99 272 156 3.52901966361883179
100 101 157 6.79698045491441682
100 174 158 9.45500303684955057
101 102 159 7.0259432670290991
102 103 160 6.24345652971620524
102 223 161 7.4359141645340614
103 104 162 4.88435502620488649
104 136 163 7.69827288091421558
104 273 164 2.18860508668519804
105 229 165 10.0855820274531869
105 273 166 2.18860508668519804
105 274 167 2.7709460996250086
106 143 168 8.51321771936849281
106 274 169 2.77094609962502458
106 275 170 2.57627189512163746
107 108 171 3.77755266548802604
107 220 172 9.55419004818303463
107 275 173 2.57627189512162769
108 109 174 4.42586553037600616
109 110 175 4.47868713868264567
110 111 176 6.33873532099869408
110 167 177 9.7581549053561627
111 112 178 3.52098991567025754
112 113 179 4.74182958340188065
113 114 180 3.02745175595215521
113 159 181 9.54392710911931452
114 115 182 4.92954849487565205
115 116 183 2.81857718531008672
115 218 184 7.51957535616270878
116 120 185 32.2994394124511572
117 118 186 3.91297320893308287
118 119 187 4.06010130512984624
118 276 188 5.34997396820690607
119 126 189 589.905786065345865
120 121 190 4.32350003899355517
121 122 191 4.32350003899361113
121 153 192 10.7048555117171933
122 123 193 8.64701709316641498
123 124 194 3.8670559951650465
124 125 195 4.0229360737358002
124 156 196 8.13317251264679264
125 128 197 533.732437849217376
126 127 198 3.53777516240829559
128 129 199 1.64633976600847309
130 131 200 6.40822222090200277
132 210 201 6.25006578050520023
133 134 202 18.9029167998913401
134 135 203 3.31014172140474772
136 137 204 3.47011975880683066
137 138 205 3.25137131727183393
137 226 206 4.73585442632535525
138 139 207 14.0389915468948772
140 141 208 8.82788688870511606
140 176 209 9.38667820752750615
141 142 210 5.01642674358381857
143 144 211 21.5241351386207427
144 145 212 3.36486276892740266
146 243 213 6.51759564596952679
147 148 214 5.18820004679230173
147 243 215 7.14686457087741989
148 149 216 4.40912221316951225
148 205 217 4.04436934816811267
148 215 218 5.55783768582915627
150 151 219 23.4401765148888401
151 152 220 3.78151811171000585
153 154 221 24.7361812038244757
154 155 222 3.37676147783318781
156 157 223 3.45880003119492141
157 158 224 3.73175912639694163
159 160 225 3.29267953201686225
160 161 226 3.48571716891454741
160 256 227 5.50172374611930604
161 162 228 4.75683791286816149
162 163 229 5.43769828793528198
163 164 230 5.28466098041261745
163 219 231 10.6110110886575821
163 258 232 5.62974913907867514
164 165 233 15.0027755040994233
165 166 234 0.683605379352318021
167 168 235 26.4769451057875216
168 169 236 3.02533045649057852
169 272 237 3.52901966361883179
169 276 238 5.34997396820690607
170 171 239 52.2290498515405659
171 172 240 4.15820918703465114
173 174 241 20.6182846869983223
175 176 242 9.63158216793902078
177 178 243 3.36682054969221323
178 179 244 5.09032568542440966
180 181 245 39.203785052966019
180 213 246 11.1512663992748529
181 182 247 3.78151811171000585
183 184 248 13.9172780972207182
184 185 249 4.58576429404899955
186 187 250 13.3605617600769424
187 210 251 8.73042083206589581
188 189 252 42.3959946711014553
188 210 253 9.21640058041547228
189 190 254 0.307558110155223052
191 192 255 40.5818898577124472
192 193 256 2.38773093942539116
194 195 257 35.6168604347160098
195 196 258 3.91312979710884123
197 198 259 32.5161068114905092
198 199 260 4.07878177923122109
200 201 261 11.0347680558817061
202 203 262 24.8896554129334113
203 204 263 0.258692260848719935
205 206 264 7.59170404643647956
206 207 265 4.7182887515035361
208 209 266 11.7615792693668801
211 212 267 5.12476115394508458
212 213 268 6.19909190669348398
214 215 269 5.57882304412420993
216 217 270 9.88127842885760188
218 219 271 8.49982954237561295
220 221 272 34.1848216866557451
221 222 273 5.20618346309542535
223 224 274 5.08815524853961154
224 225 275 5.23096934513532386
226 227 276 9.29236932705913254
227 228 277 4.82974908700972438
229 230 278 15.5785251635456028
230 231 279 5.12569810355634559
232 233 280 4.24716490692631332
233 234 281 4.97775980394763895
235 236 282 9.78821123127068304
237 238 283 4.90102627768134269
237 249 284 5.62055005069168878
237 267 285 2.31317353501190937
238 239 286 12.0119705091321869
239 243 287 6.58890625473765557
240 241 288 4.97672228258825111
240 243 289 4.79986398908294642
241 242 290 4.92954849487567337
244 245 291 8.31641837406928985
246 247 292 23.6667173772271049
247 248 293 3.30684165987716572
249 250 294 8.54837398074077903
252 270 295 3.58368645622016579
253 254 296 5.00302651324480951
254 255 297 3.03154106336573959
256 257 298 4.63790147684614151
258 259 299 4.11300991870869304
259 260 300 3.83063079412963425
