ply
format ascii 1.0
element vertex 476
property double x
property double y
property double z
property int og_index
property int root
element edge 513
property int vertex1
property int vertex2
property int name
property double len
end_header
0 0 0 1 1
-5.60676779463238972 3.07467911318553888 0 2 0
-17.0011668611435312 10.1283547257876307 0 7 0
-19.5332555425904388 11.3943990665110846 0 8 0
-22.0025017989505045 12.6155037010121305 0 9 0
-25.32088681446902 14.1073512252041979 0 10 0
-28.033838973162176 15.7351225204200773 0 11 0
-30.9276546091014666 17.0011668611435169 0 12 0
-33.821470245040814 18.8098016336055878 0 13 0
-51.4393472123850302 37.7479906157934693 0 19 0
-54.6207701283546498 42.6837806301049909 0 20 0
-57.5145857642939973 47.386231038506395 0 21 0
-69.3515128529029425 68.7161604900141469 0 25 0
-73.7922987164526489 74.6966161026837483 0 26 0
-77.7712952158692588 79.9416569428237551 0 27 0
-100.921820303383811 111.954492415402484 0 33 0
-104.900816802800364 117.018669778296299 0 34 0
-107.432905484247271 120.63593932322047 0 35 0
-33.4597432905483743 15.7351225204200773 0 37 0
-63.9922434797482538 8.69917392670544132 0 43 0
-66.9194865810968054 9.04317386231038256 0 44 0
-56.4294049008167917 38.7047841306884237 0 45 0
-70.9873031382849717 36.337017158121796 0 48 0
-75.6009334889147908 36.3535589264877359 0 49 0
0.79496028986636702 -5.24504084014012051 0 50 0
5.13568374377535974 -81.2077012835471805 0 64 0
4.59309331203672855 -82.8354725787630457 0 65 0
4.76145329450491772 4.85890230060586248 0 66 0
15.7941254065236194 29.8180621605826133 0 73 0
16.2702069927518096 34.9260706798095129 0 74 0
16.8793062700008818 40.4890073181089036 0 75 0
17.4218967017394561 46.0957751127413644 0 76 0
19.4113949514477895 58.2136280882373285 0 78 0
19.9553714922018344 63.8447714025154767 0 79 0
21.0391662466636262 69.7888906319946614 0 80 0
23.0286644963719596 79.1937914487974979 0 82 0
24.4752087453003355 84.9187420496117227 0 83 0
25.1990262233264275 90.5881905153086393 0 84 0
25.7416166550650587 96.1949583099410859 0 85 0
26.1033436095574984 101.620862627327341 0 86 0
26.1033436095574984 105.418995649497731 0 87 0
26.1033436095574984 109.578855626160504 0 88 0
26.1033436095574984 115.185623420792979 0 89 0
26.4650705640498813 115.909077329777801 0 90 0
1.14418374958074764 7.02926402756034463 0 91 0
11.071881876594432 55.3696501794162828 0 101 0
11.4534019526146267 60.0222628606994135 0 102 0
12.1768558615994493 65.0864402235932573 0 103 0
13.8046271568152861 83.5345149027064906 0 106 0
13.8046271568152861 88.9604192200927741 0 107 0
13.7476836737570238 93.293764150195102 0 108 0
15.2515349747849882 111.206626921376397 0 112 0
15.9749888837698109 115.54735037528539 0 113 0
17.7836236562318959 118.079439056732298 0 114 0
-26.889655223581542 19.6897074347949541 0 115 0
-27.6131091325664215 57.4901741792525058 0 121 0
-27.6131091325664215 63.2778054511311723 0 122 0
-27.0705423789936503 68.3321997166409005 0 123 0
-27.4390869198442147 87.8962087377525449 0 127 0
-27.9748360870588044 91.4925079015396818 0 128 0
-28.1556995643050527 96.3758217871873057 0 129 0
-28.8791534732898754 105.961586081236362 0 131 0
-28.6988114166783248 110.131296165306395 0 132 0
-29.2408804277822583 114.281306034561936 0 133 0
-29.2408804277822583 117.175121670501255 0 134 0
-29.0600169505360668 119.526346874701972 0 135 0
-16.9421639750401027 15.5298474581321386 0 136 0
-12.4205770438849186 69.42716367750225 0 145 0
-12.60144052113111 82.811060993721668 0 146 0
-16.0378465888090886 105.05726869500532 0 151 0
-16.4049447955211463 109.019168117160262 0 152 0
-17.1230274522862942 113.015261693838482 0 153 0
-17.6656178840249254 116.813394716008844 0 154 0
-18.0273448385173651 119.707210351948191 0 155 0
20.6774392921712433 35.6056934324612797 0 156 0
39.3063774485306681 50.617362043896577 0 161 0
44.1896913341783488 53.5111776798359244 0 162 0
20.1348488604326121 41.2124612270937405 0 163 0
38.6329595782087836 62.8541640062643694 0 169 0
48.5465338005593594 72.7892366038681473 0 170 0
54.1371825827197881 78.2894740625664554 0 172 0
56.8501347414128873 80.8215627440133915 0 173 0
59.5630869001060432 84.0771053344451218 0 174 0
67.7019433761853975 92.9394157195093555 0 175 0
70.9574859666171847 95.1097774464638519 0 176 0
23.7521184053567822 64.724713269100846 0 177 0
29.5948807246371643 66.4243651905942727 0 178 0
35.8071602550861599 67.2566587544047252 0 179 0
39.6681044030231078 67.618528905040165 0 180 0
46.902643492871448 66.5333480415629595 0 181 0
51.3295206628410483 66.5443866987332626 0 182 0
54.6797730144584193 65.6290306553318885 0 183 0
-34.4859212679223219 88.9604192200927741 0 184 0
-73.6694808080282542 94.8306518954557873 0 192 0
-77.1697018980274834 96.7375487416797171 0 193 0
-32.3155595409677971 65.0864402235932573 0 194 0
-67.7648010812246753 75.033931472134725 0 202 0
-80.7869714429516534 75.7573853811195477 0 203 0
-87.1171931465689795 77.927747108074044 0 204 0
-90.5535992142469013 79.1937914487974979 0 205 0
7.29354197595182541 88.9604192200927741 0 206 0
-11.1545327031614647 104.514678263266688 0 211 0
7.29354197595182541 58.2136280882373285 0 212 0
-6.63294577200622371 72.8635697451802002 0 216 0
-15.6761196343166489 76.6617027673505902 0 217 0
-17.7071134683718014 79.6179440126653333 0 218 0
-19.4742526564870104 82.811060993721668 0 219 0
-34.291703718021779 108.286443371280257 0 220 0
-56.5379114193053738 99.7858599407084625 0 225 0
-57.8039557600288276 96.8920443047691435 0 226 0
-12.2435524263153752 76.1548415689219382 0 227 0
-29.770116786866538 124.202429368946582 0 228 0
-34.6535862480025116 159.576439996161696 0 235 0
-34.6534306725141619 163.992394363112425 0 236 0
-34.1108402407755307 168.875708248760048 0 237 0
-33.0256593772982683 173.216431702669041 0 238 0
-31.7596150365748713 174.482476043392495 0 239 0
-19.2800351065864675 124.021565891700391 0 240 0
-21.8121237880333751 135.235101480965312 0 242 0
-23.419474252278917 141.574228463454006 0 243 0
-25.2485298557113538 147.352954456461276 0 244 0
-26.5145741964348076 151.87454138761646 0 245 0
-31.7596150365748713 161.098578727173106 0 248 0
-36.8237923994686867 168.152254339775226 0 249 0
-39.0401543383701437 172.361254788226148 0 250 0
-41.3453793306238708 177.014564724839403 0 251 0
26.11669768221185 122.032067641992086 0 252 0
26.11669768221185 127.819698913870752 0 253 0
26.2975611594580414 133.96905714024183 0 254 0
26.6597559987645809 138.485856201626547 0 255 0
25.7549707277194102 154.225766591817177 0 256 0
25.9358342049656017 159.651670909203432 0 257 0
25.9358342049656017 164.896711749343467 0 258 0
25.5741072504732188 169.41829868049868 0 259 0
17.4352507743938645 123.29811198271554 0 262 0
19.424749024102141 128.543152822855603 0 263 0
23.2228820462725025 141.746186661828801 0 266 0
29.1913767953973888 152.05540486486268 0 267 0
33.4309284598387535 162.641970886249425 0 269 0
34.9790080672760268 167.428800430790403 0 270 0
36.3790919764280716 172.118357954503864 0 271 0
38.234550657707814 175.567656906869757 0 272 0
11.1050290707765384 119.680842437791398 0 280 0
7.12603257135998547 123.29811198271554 0 281 0
2.2427186857123047 127.819698913870752 0 282 0
-18.4579656110630594 139.37583081868965 0 287 0
-19.6417620610788504 145.00172925226056 0 288 0
0.208384815068484386 144.667307092553358 0 292 0
5.31739779889784359 143.012231002552255 0 293 0
63.0128470404383734 93.8173651915836047 0 294 0
85.6207816962144079 143.735684911537106 0 305 0
87.9720069004151242 146.629500547476425 0 306 0
31.0000115678594739 135.054238003719092 0 307 0
35.1555791581259314 131.438859346073343 0 308 0
38.234550657707814 127.819698913870752 0 309 0
44.926499315817523 112.988893779681661 0 310 0
58.1295331547906926 93.6365017143373848 0 314 0
66.6301165853625434 84.0507374202883568 0 315 0
59.0338505410217635 79.1674235346407329 0 319 0
30.2765576588746512 97.7963616910001576 0 320 0
36.0641889307532892 94.7216825778146188 0 321 0
49.5021299857957047 83.1414245515802577 0 322 0
51.0758575421886007 82.2421026478262718 0 323 0
30.4574211361208427 90.2000956466594346 0 324 0
37.8728237032153743 89.8383686921669948 0 326 0
52.0198198410525379 89.1138946552704851 0 327 0
59.214714018267955 88.9340513059359807 0 329 0
29.9148307043822115 70.8477035813151304 0 330 0
43.8413184523402606 84.7741913292731795 0 334 0
29.9148307043822115 82.4229661250724632 0 335 0
40.5857758619085303 84.9550548065193709 0 338 0
1.51926477672748206 122.032067641992086 0 339 0
-12.7689499257230068 119.319115483298987 0 343 0
-37.1855193539610696 119.319115483298987 0 344 0
-46.6770200410510938 121.045978270028712 0 346 0
-50.5694166701804875 122.755521550976937 0 347 0
-23.8016220377416516 119.319115483298987 0 348 0
-21.6312603107871837 109.914214666496122 0 349 0
32.6277828630753106 107.924716416787845 0 350 0
38.7357156602320174 107.020147347842283 0 351 0
43.1178645433554379 105.573491212587129 0 352 0
32.8086463403215589 116.425299847359639 0 353 0
38.5962776122001969 119.680842437791398 0 355 0
48.0011784290030619 119.319115483298987 0 356 0
51.599047886624021 119.681476641362707 0 357 0
55.9591714278362247 120.042569392283809 0 358 0
35.7024619762609063 137.586326685166 0 359 0
61.7587618137498566 133.976408074870676 0 364 0
61.927666176961111 133.96905714024183 0 365 0
40.404912384662282 164.534984794851056 0 366 0
64.2788913811618272 162.364623067896559 0 371 0
68.8004783123170114 161.279442204419297 0 372 0
-44.600921921055658 167.971390862529006 0 373 0
-57.2613653282901964 163.268940454127602 0 376 0
-60.6977713959681751 162.545486545142751 0 377 0
-111.158681547660308 114.616665074897554 0 378 0
-115.68026847881552 115.520982461128597 0 379 0
-118.212357160262428 115.882709415621008 0 380 0
18.8821585923635098 162.545486545142751 0 381 0
-16.7479464251395598 170.141752589483502 0 388 0
-18.7374446748478363 170.322616066729694 0 389 0
43.2853739479472779 67.7993923822864133 0 390 0
51.6184479739271751 93.3652064984680692 0 391 0
45.6951690941138509 88.6175402207551031 0 392 0
62.8253065268649493 89.5802574333760901 0 393 0
41.3335640978801848 120.610970379837539 0 394 0
26.2975611594580414 147.081659240591961 0 395 0
21.1673211140895887 112.957507456056646 0 396 0
11.5815568200405323 125.256223908798773 0 397 0
-53.3764101284506296 192.852949185633321 0 417 0
-56.0613836700412662 197.059024375543373 0 418 0
-58.7743358287343654 201.218884352206175 0 419 0
-65.0948140325075997 213.526615003902776 0 422 0
-68.9050691403386963 218.188346248166084 0 423 0
-72.3390966221999747 222.922501621751081 0 424 0
-31.6448142418031466 180.781311423384665 0 427 0
-30.3787699010796928 186.749806172509494 0 428 0
-28.7320685229905166 192.289194076519806 0 429 0
-27.1232273106479624 198.32506871626677 0 430 0
-25.7209712955460077 203.476298414093918 0 431 0
-23.6868212429700407 208.272559964808266 0 432 0
-21.154732561523133 213.155873850455833 0 433 0
-18.4946441316859023 218.14625652564493 0 434 0
-16.3680197362333502 222.116230072310344 0 435 0
-14.6436473806596155 225.454590303197989 0 436 0
-13.7393299944286014 227.444088552906265 0 437 0
-12.4732856537051475 229.433586802614542 0 438 0
23.6994097955364964 192.537437444388132 0 441 0
23.8802732727826879 197.963341761774387 0 442 0
23.9329589261781166 203.042008410229158 0 443 0
23.9752137632114 208.987669755190979 0 444 0
23.3573407553381003 214.696046581838146 0 445 0
22.063691299312552 224.43872131279133 0 447 0
21.1673211140895887 228.890996370875911 0 448 0
38.5302149297255596 181.685628809615679 0 449 0
39.8574756154570196 185.767612425432134 0 450 0
40.8814401339262758 191.271393103664678 0 451 0
42.139102640699889 197.743991924078131 0 452 0
43.2346833456008426 204.422097931638262 0 453 0
43.5943554665761894 209.355202915353146 0 454 0
43.055179725930941 224.058621431271234 0 457 0
42.8709383836345523 227.986678984644897 0 458 0
43.4135288153731835 230.337904188845613 0 459 0
45.0413001105890203 178.61094969643014 0 460 0
81.0331320825844159 177.525768832952878 0 468 0
81.2139955598306074 178.2492227419377 0 469 0
47.7542522692821763 205.197880851622728 0 470 0
72.0635947867426125 209.553010996433642 0 476 0
78.5010434011375082 209.900331260024103 0 477 0
18.4543689553964327 196.335570466558494 0 478 0
3.08097338946873833 198.68679567075921 0 481 0
-0.898023109947814646 200.495430443221295 0 482 0
17.1883246146729789 210.623785169008926 0 483 0
9.80398752555061037 212.251457751705829 0 485 0
5.61306207091570286 212.975010373209642 0 486 0
-16.0905551986292608 211.708966032486188 0 487 0
-8.57234947827629412 207.808781635553288 0 489 0
-5.41961004110299882 205.740471283361359 0 490 0
-34.3577664004963026 197.059024375543373 0 491 0
-39.0436693507649011 201.007571415974013 0 492 0
-52.0823871706246564 212.975010373209642 0 493 0
-63.6576497143819893 218.581778167842089 0 497 0
-73.2434140084309888 216.049689486395181 0 498 0
-77.7528733156124758 216.410465070596075 0 499 0
-80.6588165755255204 217.134870349872443 0 500 0
-60.2212436467040106 195.069526125835097 0 501 0
-65.1574220851699124 196.71129058188987 0 502 0
-68.5409636000296132 197.601614807282004 0 503 0
-37.7941724681742244 181.504765332369431 0 504 0
-48.1033906712081034 195.43125308032748 0 508 0
-26.0380464471707 179.876994037153594 0 509 0
-17.083624953669414 179.886396924233821 0 511 0
-13.5584665171823531 180.238720991646034 0 512 0
-28.5701351286176077 207.729969533069635 0 513 0
-39.9645341951287492 209.719467782777912 0 516 0
-48.2842541484542949 205.740471283361359 0 517 0
-51.7832142625259166 204.493182393138312 0 518 0
-23.1442308112314095 220.752139894796557 0 519 0
-33.4129180230610245 227.296933529258098 0 521 0
-34.9003568322349338 228.529269416383528 0 522 0
-10.3029239267506227 222.922501621751081 0 523 0
15.1988263649647024 227.624952030152514 0 529 0
37.2641705890020489 194.165208739604026 0 530 0
33.6829723991427272 203.644138143515505 0 532 0
33.2851740895854959 205.378744328868919 0 533 0
-44.9382798193994972 207.458674317200263 0 534 0
-11.9418377921425076 234.456936427459397 0 551 0
-9.95233954243423113 249.468605038894594 0 554 0
-9.38594698905950509 254.220883790623787 0 555 0
-8.68629520171077729 260.139550196420828 0 556 0
-6.15420652026386961 281.481440511473352 0 560 0
-6.15420652026386961 287.449935260598181 0 561 0
-5.79247956577142986 292.333249146245748 0 562 0
-4.70729870229416747 302.280740394787244 0 564 0
-3.80298131606315337 307.164054280434812 0 565 0
-3.62211783881696192 312.047368166082379 0 566 0
20.794451589421044 242.595792903538694 0 569 0
41.9511774164226949 243.35163683577602 0 587 0
41.9444669260351475 247.17211878936908 0 588 0
41.4128879954887452 251.819830243095311 0 589 0
39.9767117905706755 257.902083097796435 0 590 0
38.6999358367956461 265.022864082068395 0 591 0
37.0484172228439661 269.22019317075717 0 592 0
35.6252567236101072 272.799993603655366 0 593 0
33.9974854283942136 276.598126625825785 0 594 0
32.5505776104245683 280.757986602488472 0 595 0
32.1888506559321854 292.514112623491997 0 597 0
30.1784554645427647 297.402451050216882 0 598 0
27.6672637247770012 301.376423008556117 0 599 0
43.9449766769356529 264.661137127576012 0 604 0
57.5097374704012054 276.959853580318168 0 608 0
61.1270070153253755 280.938850079734721 0 609 0
48.1048366535983973 248.56428765266358 0 610 0
66.3865172627975539 255.427961285216924 0 615 0
66.5529113327116306 255.617963265265672 0 616 0
-7.23938738374107515 229.754486019057964 0 617 0
-2.54639694616298584 232.22460176954192 0 618 0
12.1130046816031154 240.063704222091786 0 619 0
14.6450933630500231 241.872338994553871 0 620 0
-13.9313360418507841 257.245734560481537 0 621 0
-18.1016245745070705 257.789034253930026 0 622 0
-20.4424212227142448 258.873505855697431 0 623 0
-11.9418377921425076 288.715979601321578 0 624 0
-17.7184937682880559 294.351908488223785 0 626 0
-19.8998307909756136 296.49310912290855 0 627 0
-10.4949299741728623 308.610962098404457 0 628 0
-16.041221009416347 309.504954503900422 0 629 0
-21.1658751316991243 310.057869916374102 0 630 0
36.7104375870873696 302.280740394787244 0 631 0
49.7326079488142909 313.85600293854452 0 635 0
53.5307409709846524 316.930682051730059 0 636 0
43.9449766769356529 279.311078784518827 0 637 0
54.4350583572157234 286.003027442628536 0 640 0
59.1375087656170422 288.715979601321578 0 641 0
37.4338914960721354 225.775489519641411 0 642 0
27.4864002475307529 232.10571122325868 0 645 0
14.4642298858038316 232.648301654997255 0 646 0
8.13400818218650556 235.903844245429042 0 648 0
2.1655134330616761 239.159386835860772 0 649 0
-1.99434654360112518 243.861837244262148 0 650 0
20.9808863517553164 233.844328126122178 0 651 0
5.01761929747118529 236.907631168438428 0 652 0
27.0071227720598017 337.125327678267467 0 657 0
26.25707901547662 342.694001031482003 0 658 0
25.2936595665275945 348.409301815795743 0 659 0
24.9729920836117003 353.93367073544357 0 660 0
25.0801127984365735 360.908748274888808 0 661 0
25.0784408083407584 367.21258429806494 0 662 0
25.0800515935300155 373.953799090169241 0 663 0
6.98699441733407411 343.120660233693343 0 673 0
6.23932937106991403 347.813297899327495 0 674 0
3.45403059002950386 363.783145647928905 0 675 0
1.41989990158145929 373.418501540577608 0 677 0
0.456364312316566156 378.236179486902074 0 678 0
-0.40011176702995499 382.625619393553166 0 679 0
-1.57776637613147841 387.122118810122515 0 680 0
-3.07659951498794726 321.280520210356144 0 681 0
-3.07659951498794726 328.346447864965285 0 682 0
-2.64836147531468669 335.30531600965594 0 683 0
-2.75542098523300183 342.692422194019969 0 684 0
-2.75542098523300183 349.223052299037477 0 685 0
-2.64836147531468669 354.147789755280201 0 686 0
-2.43424245547799956 358.64428917184955 0 687 0
-2.00878042477552299 362.971195837567848 0 688 0
-0.396805697952913761 373.698532684519591 0 691 0
0.884602351989883573 380.484429195186749 0 692 0
3.23991157019287357 385.302107141511101 0 693 0
5.48816127847760526 389.049189988652302 0 694 0
20.5835521769606089 367.958466534743366 0 696 0
16.9435288397377803 370.849073302538045 0 697 0
10.091720204965327 373.418501540577608 0 698 0
6.66581588757912868 375.345572719107395 0 699 0
-4.79000481218480445 378.967621562340014 0 700 0
-8.91955031565282752 377.583251838563683 0 701 0
-12.4978363878000778 381.12678625469664 0 702 0
20.690611686878924 349.651290338710737 0 703 0
10.841136774393533 353.291313675933679 0 705 0
-7.78721795139398409 358.965467701604553 0 706 0
-24.3817937050473574 370.100115610510557 0 710 0
-26.6296916970181883 372.990263500904348 0 711 0
21.547087766225502 343.334779253529973 0 712 0
11.2693748140668504 346.760683570916171 0 714 0
-8.75075354065887723 351.578361517240523 0 715 0
-14.0372959894878591 353.832772453618304 0 716 0
-19.2425855126541592 354.897206324708463 0 717 0
-8.21545599106724467 326.847614726108759 0 718 0
-24.0860830673432247 332.369541037521572 0 721 0
-27.3791082664464511 334.448839930309418 0 722 0
2.06225696109135015 349.651290338710737 0 723 0
1.52695941149977443 357.252515542911397 0 724 0
4.57815544417189813 355.111325344545094 0 725 0
20.1548609987834766 374.364062635852406 0 726 0
7.84301735817678036 383.035882939236217 0 729 0
-4.56731993100987665 400.615697851840537 0 730 0
22.4511268875560859 420.871642249436036 0 742 0
24.8654794351895134 420.934949450321142 0 748 0
25.4007769847810891 423.932615728034079 0 749 0
-6.71707599071459072 396.204202659189377 0 750 0
-21.0549224758223659 412.113875266229797 0 754 0
-23.8465975776455821 415.474914444486785 0 755 0
0.991208723404383818 389.352394024416981 0 756 0
-3.02486354758440257 392.756705016384103 0 757 0
-182.500936875861129 458.042590431738859 0 809 0
-181.644460796514551 464.894399066511482 0 810 0
-180.359746677494712 470.889731621937358 0 811 0
-173.171436967132735 453.028393471799632 0 864 0
-58.3119053706101909 537.694865810968736 0 889 0
-58.3119053706101909 540.692532088681787 0 890 0
20.9121319689464826 442.62602100350091 0 891 0
20.9213788862564343 446.462418061108224 0 892 0
20.055655889599791 449.47782963827342 0 893 0
20.055655889599791 454.616686114352774 0 894 0
20.4711740952000127 461.067474281020168 0 895 0
21.7686080482929469 465.322637106184743 0 896 0
21.7686080482929469 471.317969661610618 0 897 0
20.4838939292730515 474.315635939323556 0 898 0
18.3427037309068055 479.026254375729536 0 899 0
17.0579896118868533 483.308634772462369 0 900 0
16.2015135325403321 488.019253208868463 0 901 0
15.2530661873550457 492.93846259111524 0 902 0
31.618082960778338 441.341306884481014 0 918 0
36.3303055325533251 457.603843016035398 0 922 0
38.0416535558775877 461.468494749125171 0 923 0
38.898129635224052 465.750875145858004 0 924 0
43.1805100319568282 476.456826137689973 0 928 0
43.1805100319568282 482.023920653442588 0 929 0
43.1805100319568282 488.019253208868463 0 930 0
42.7522719922835677 502.579346557760005 0 932 0
43.1805100319568282 507.289964994165985 0 933 0
44.1052568649057548 512.884188099437779 0 934 0
-172.267933589425979 635.655241788780017 0 964 0
-172.053814569589321 636.083479828453278 0 965 0
23.5410832724962233 430.617737464825268 0 1028 0
13.417966274663911 450.548424737456685 0 1029 0
3.99672940185172365 450.548424737456685 0 1031 0
0.999063124138785952 450.120186697783424 0 1032 0
30.9757259012683335 427.20945157526296 0 1033 0
47.6906077585134653 440.420882362788916 0 1038 0
50.2464376865659119 445.1954492415407 0 1039 0
25.6227504053523489 477.313302217036608 0 1040 0
30.3333688417583858 479.668611435239654 0 1041 0
34.1875111988179583 483.522753792299113 0 1042 0
7.85087175891129618 488.447491248541837 0 1043 0
-1.35972543015304836 490.067596030182358 0 1045 0
-4.35391237177719859 491.231038506418145 0 1046 0
50.0323186667291679 479.240373395566394 0 1047 0
58.5266475566444342 481.171418865340456 0 1049 0
63.307697896600871 483.094515752625853 0 1050 0
27.3357025640454481 468.10618436406105 0 1051 0
35.6863443376743703 463.823803967328331 0 1053 0
38.6825001537076218 509.628256344109218 0 1054 0
24.7647638643260279 517.122422038391619 0 1057 0
21.3388595469397728 518.621255177248145 0 1058 0
25.8602124849526263 727.270591178843461 0 1061 0
26.9308075841358345 739.047137269858581 0 1062 0
20.721356008873272 736.691828051655534 0 1091 0
28.2155217031556731 729.625900397046507 0 1126 0
26.2884505246258868 732.302388145004556 0 1127 0
-107.717429920825765 986.487562060083178 0 1154 0
-114.35511953576156 990.341704417142751 0 1155 0
-2.17618774830992834 1102.28224910043423 0 1202 0
-0.249116569780198915 1104.63755831863705 0 1203 0
-29.4807467911318213 16.3681446907818042 0 1204 0
16.5747566313763741 37.7075389989592082 0 1205 0
24.8371174843134099 87.753466282460181 0 1206 0
25.4703214391957431 93.3915744126248626 0 1207 0
-31.7022146391889805 177.63189373338858 0 1208 0
-24.334002053995107 144.463591459957655 0 1209 0
28.6487863636587576 134.511647571980461 0 1210 0
48.656808534020513 90.9913733596115719 0 1211 0
-22.4207769022465868 210.71421690763205 0 1212 0
-19.824688346604546 215.651065188050353 0 1213 0
21.0741037329224241 231.367662248499045 0 1214 0
25.7753692910021073 345.551651423638873 0 1215 0
5.40874240762087766 351.462311621936237 0 1216 0
24.4709301286386562 427.275176596429674 0 1217 0
0 1 1 6.39448956148857661
0 24 2 5.30494253288404671
0 27 3 6.80296766437888323
0 44 4 7.12177711122431401
1 2 5 13.4866147377115411
2 3 6 2.8309612083865483
3 4 7 2.75468212375731847
3 66 8 4.88013205878607526
4 5 9 3.63830841829768747
5 6 10 3.1638187060712939
6 54 11 4.11678251767150716
6 462 12 1.5793224185932242
7 8 13 3.41252526363776187
7 18 14 2.83096120838654164
7 462 15 1.57932241859321865
8 9 16 26.1231864940103975
9 10 17 5.87226317833541689
10 11 18 5.52152232434874612
10 21 19 4.3707634210202313
11 12 20 24.5387954684036984
12 13 21 7.44892129244323886
13 14 22 6.58352994654890455
13 96 23 6.03692880537336407
13 97 24 7.07465038096598953
14 15 25 39.5669274927716828
15 16 26 6.44036532389392757
16 17 27 4.41544018772165625
16 195 28 6.7030215395827808
17 402 29 350.946927405361805
18 19 30 31.4849621231903321
19 20 31 2.94738666110995506
21 22 32 14.7566157107766074
22 23 33 4.61366000506683438
24 25 34 76.2495341765669536
25 26 35 1.71582160090816238
27 28 36 28.2763891839206458
28 29 37 5.13014665572438844
29 74 38 4.45932546771009708
29 463 39 2.79809158049192241
30 31 40 5.63296098686490065
30 77 41 3.33495773834397813
30 463 42 2.7980915804919162
31 32 43 12.2801258789856966
32 33 44 5.65735675937360583
33 34 45 6.04211589462359733
33 85 46 3.89738178924279488
34 35 47 9.62150410852481919
35 36 48 5.90487507453552496
36 169 49 5.98484624056755088
36 464 50 2.85773326461241206
37 163 51 5.27269709787827878
37 464 52 2.85773326461240496
37 465 53 2.81648049343244589
38 39 54 5.43794851493071629
38 159 55 4.80938485639286117
38 465 56 2.81648049343244589
39 40 57 3.79813302217038995
40 41 58 4.15985997666277285
41 42 59 5.60676779463247499
41 178 60 6.73086057624343237
41 207 61 5.98160565930468202
42 43 62 0.808846059538991913
43 126 63 6.13289279445435298
43 181 64 6.36454549178174656
44 45 65 49.8896501309510043
45 46 66 4.6682290357739582
46 47 67 5.11559164919091902
46 102 68 4.53603293259650187
47 48 69 18.5356257849130266
48 49 70 5.42590431738628354
49 50 71 4.33371905451961137
49 100 72 6.51108518086346066
50 51 73 18.0307465596703906
51 52 74 4.40059832997071343
52 53 75 3.11169292040048795
52 142 76 6.38766508287415125
52 207 77 5.80237885149675581
53 134 78 5.23028782890489019
54 55 79 37.8827246580292254
55 56 80 5.78763127187866644
56 57 81 5.0834319188221766
56 95 82 5.03827347249365243
57 58 83 19.6022228528931066
58 59 84 3.63598608985611849
59 60 85 4.8866620614853753
59 92 86 6.9861078808712973
60 61 87 9.61639857641209517
61 62 88 4.17360820424943668
62 63 89 4.18526232483910032
62 107 90 5.88930608187865623
62 177 91 7.0708841746636466
63 64 92 2.89381563593931901
64 65 93 2.35817123175359811
65 111 94 4.72969230188787826
65 173 95 8.12814457042001237
65 176 96 5.2624767846029501
66 67 97 54.2330628685367699
67 110 98 6.73000650266572276
68 69 99 22.595496855851831
68 110 100 6.66583385027650444
69 70 101 3.97887020706165773
70 71 102 4.0600993307449782
70 101 103 6.91789389795961807
70 177 104 5.30240343529125813
71 72 105 3.83669373689317039
72 73 106 2.91633594162493992
73 117 107 4.49253788310188096
73 172 108 5.27269709787822283
73 176 109 5.78730462309988614
74 75 110 24.0686460712498906
75 76 111 5.67634772019531031
77 78 112 28.6704521096947182
78 201 113 6.78971598513243091
79 80 114 7.84482630032552564
79 201 115 7.25109290730644318
80 81 116 3.71100828698471519
81 82 117 4.2377667436366524
81 158 118 2.73948740049036132
81 162 119 5.94644522314013901
82 204 120 6.39740259145689016
83 84 121 3.9126752464195409
83 204 122 5.92161560314816793
85 86 123 6.08495588922705011
86 87 124 6.26778505859892299
86 167 125 4.43489464456190241
87 88 126 3.87786535601862825
88 201 127 3.62178830939047502
89 90 128 4.42689093269194789
89 201 129 3.83242837288758675
90 91 130 3.47304873356380384
92 93 131 39.7238265904180921
93 94 132 3.98595073489552298
95 96 133 37.4647717780494318
97 98 134 6.69194865810974004
98 99 135 3.66220629329527547
100 101 136 24.3590122258798978
102 103 137 20.296564041667672
103 110 138 6.50471961326038972
104 105 139 3.58668346170527164
104 110 140 3.46978758887603789
105 106 141 3.64948995955363609
107 108 142 24.6869479996792123
108 109 143 3.1586448371864746
111 112 144 35.7521148393009014
112 113 145 4.41595436969121558
113 114 146 4.91336533166150868
113 122 147 4.09247331935268743
113 123 148 4.69200437460048292
114 115 149 4.47431532301567536
115 116 150 1.79045707721677205
116 268 151 9.25896485863031948
116 466 152 3.14994072828050742
117 118 153 11.4961388074932227
118 119 154 6.53973290089332071
119 145 155 5.42674121378245644
119 467 156 3.03064013463763038
120 121 157 4.69548896800655235
120 146 158 6.0798112687645931
120 467 159 3.03064013463762061
121 122 160 10.6214531320892966
123 124 161 4.75688396108955924
124 125 162 5.19301026680044675
124 192 163 7.08470475000780997
125 209 164 20.1141229615781221
126 127 165 5.78763127187866644
127 128 166 6.15201740843109413
128 129 167 4.53129770182297165
128 468 168 2.41301975488867759
129 206 169 8.60343041968186917
130 131 170 5.42891787180763874
130 206 171 7.16468242299995417
131 132 172 5.24504084014003524
132 133 173 4.53603293259649387
132 198 174 7.4352269372687072
133 227 175 23.7473864053644093
134 135 176 5.60968418900114862
134 208 177 6.1725144978608304
135 136 178 13.7635828090292947
136 206 179 6.1579963695826434
137 138 180 11.4246026649863204
137 206 181 5.75433006263623881
138 139 182 5.0309330704605415
139 140 183 4.89409692597970469
139 189 184 6.14935822637109464
140 141 185 3.91668101595327922
141 234 186 6.12511204505977425
142 143 187 5.37745777324237917
143 144 188 6.65518616431975296
143 171 189 5.74793122571992132
143 208 190 4.86681606860684024
144 145 191 23.7261123490569084
146 147 192 19.8596456402898269
147 148 193 5.37040878636164098
149 150 194 54.884333186465561
149 204 195 4.2412561345542068
150 151 196 3.72859610251306028
152 153 197 5.50814894818879708
152 186 198 5.34083447919764076
152 468 199 2.41301975488867759
153 154 200 4.75167209824692716
154 205 201 7.84663312381518363
155 156 202 23.4474485568157931
155 205 203 8.42646041816718139
156 204 204 6.20511121807763022
157 158 205 16.5083205143068028
157 204 206 6.71209141448343427
159 160 207 6.55364992872574437
160 203 208 11.4024704701346504
161 162 209 1.81256677347954542
161 203 210 6.66939233011354293
163 164 211 7.45550590631905763
164 203 212 7.91703919221829633
165 166 213 7.25260520564282274
165 203 214 6.34409763444851027
166 204 215 3.66796409773567422
167 168 216 20.312459740914214
168 203 217 4.2670941990609581
169 170 218 11.572216543492015
170 203 219 6.28646948698512453
171 172 220 14.5911730456350988
173 174 221 9.66318579579807491
174 175 222 4.25126919259332325
178 179 223 6.1745516642972218
179 180 224 4.61476357005764903
181 182 225 6.64451754016821816
182 205 226 2.8909990130163119
183 184 227 3.61607110590417102
183 205 228 6.79161026136702084
184 185 229 4.37505031621358764
186 187 230 26.3408560528830051
187 188 231 0.169064248591229066
189 190 232 24.0390854694710008
190 191 233 4.64998557873576779
192 193 234 13.6001389868040867
193 194 235 3.51173350646080351
195 196 236 4.61113199887330882
196 197 237 2.5577958245954453
198 199 238 36.6922065730979199
199 200 239 1.99770240100818808
202 469 240 3.79557531122015002
203 469 241 3.79557531122013225
209 210 242 4.99000515252425814
210 211 243 4.96634115227685324
210 265 244 4.61113199887325553
210 269 245 8.12276381282913285
211 212 246 13.8411069001417086
212 213 247 6.02077920044355164
213 214 248 5.84848457700131164
213 261 249 5.26214778463392907
213 262 250 4.83684700390359001
214 405 251 259.516237456362148
215 216 252 6.10129476775287038
215 270 253 5.67922838402959318
215 466 254 3.14994072828050653
216 217 255 5.77896563233391714
217 218 256 6.24661129839790874
218 219 257 5.33867861288408907
218 258 258 7.34448256279646916
219 220 259 5.2097880282460256
220 273 260 4.91336533166145273
220 470 261 2.75037395623167402
221 255 262 5.26682395723916486
221 470 263 2.75037395623167402
221 471 264 2.82754264775000852
222 223 265 4.50368974070784578
222 277 266 5.33003606218832715
222 471 267 2.82754264775008535
223 224 268 3.75740722464828414
224 225 269 2.1853817105100859
224 280 270 5.02527145476014603
225 226 271 2.35817123175357679
226 286 272 5.05138379882071931
226 315 273 5.24372648099106264
227 228 274 5.42891787180763874
228 229 275 5.078939919333612
228 249 276 5.66481041615336256
229 230 277 5.9458114921536076
230 231 278 5.74171864939939258
230 252 279 6.98131348400007301
231 232 280 9.86607142871537235
232 233 281 4.5416112451198094
233 281 282 6.10129476775291302
233 472 283 2.47841952653993447
234 235 284 4.29234331894389864
234 243 285 7.20054733207963693
235 236 286 5.59822338685853627
236 237 287 6.59365228617355115
236 282 288 4.63236525928638088
237 238 289 6.76737740407330879
238 239 290 4.94619943137754259
238 246 291 4.58566706105509514
239 240 292 14.7210372277511361
240 241 293 3.93237600120169795
241 242 294 2.41301975488867759
241 334 295 5.8694835980428941
242 297 296 13.1958149165684233
243 244 297 36.1905113027778071
244 245 298 0.745719220502598756
246 247 299 24.8387103068723576
247 248 300 6.44681130703197436
249 250 301 15.7232854592176601
250 251 302 4.37076342102019488
252 253 303 7.61508865708518101
253 254 304 4.25292658793822209
255 256 305 8.5222910942906509
256 257 306 3.77063305980469154
258 259 307 6.12770023661646857
259 285 308 8.73860178856699576
260 261 309 12.9262899921923218
260 285 310 9.02597547795574684
262 263 311 4.5238680645307543
263 264 312 2.9948738268043158
265 266 313 5.20204268586297669
266 267 314 3.49871839522691275
268 269 315 17.4416670665168105
270 271 316 8.95443186459468699
271 272 317 3.54272130583451128
273 274 318 11.8143588601470721
274 285 319 5.46345427627531333
275 276 320 3.71462669127571088
275 285 321 3.76135160230826004
277 278 322 12.2389494336455993
278 279 323 1.93161226692468424
280 281 324 26.1453087013189425
282 283 325 10.1562174466074353
283 284 326 1.77963538775584951
286 287 327 15.1852950147317376
287 288 328 4.78591201952722134
288 289 329 5.95987622746068979
288 319 330 5.45987946947033365
289 290 331 21.5023174770008012
290 291 332 5.96849474912488631
291 292 333 4.89669285287169309
291 322 334 5.92448681422326029
292 293 335 10.017046017105006
293 294 336 4.96634115227685324
294 295 337 4.88666206148531668
294 325 338 6.84658448253419394
295 356 339 9.36545198991725236
296 340 340 8.75345038661718533
296 349 341 102.311480020023993
297 298 342 3.82048784691320309
298 299 343 4.67801217575359196
298 312 344 6.31571764126646329
299 300 345 6.24951213136613593
300 301 346 7.23434023682243499
301 302 347 4.51055265028375718
301 309 348 5.25749938700357067
302 303 349 3.85231838584996522
303 304 350 4.13224561753410224
304 305 351 4.40431348329592076
304 331 352 10.3108046027051667
305 306 353 11.7656385683040341
306 307 354 5.28559754424765504
307 308 355 4.70090811221984772
307 328 356 8.15257611915341052
308 342 357 36.8426629856318968
309 310 358 18.493784751846821
310 311 359 5.37745777324244045
312 313 360 21.4980897637009178
313 314 361 0.252562346609734478
315 316 362 5.30336035622588042
316 341 363 8.89635352742294039
317 318 364 3.11169292040048795
317 341 365 7.76564812938043492
319 320 366 4.20552981234299939
320 321 367 2.57980766788881022
322 323 368 8.1484311649265635
323 324 369 3.05662744941579412
325 326 370 5.61787919669929448
326 327 371 5.15439572853897232
328 329 372 17.4673829179231035
329 330 373 4.88666206148536286
331 332 374 12.4869626214174936
332 333 375 5.42891787180750818
334 335 376 11.8388454068770557
335 340 377 6.73383247364010096
336 337 378 7.13133445352848305
336 340 379 6.62550306126703337
337 341 380 3.27405984483818635
338 339 381 6.27833376533259102
338 341 382 3.63385627778091402
340 472 383 2.47841952653993225
342 343 384 5.61895795958565891
343 380 385 4.75337925037262998
343 473 386 2.89796653232014156
344 345 387 5.53366782477684627
344 375 388 4.76766035633735452
344 473 389 2.89796653232014156
345 346 390 6.97590005152152592
346 347 391 6.30383624491028982
347 348 392 6.74121498454950352
347 368 393 4.55635425746318834
348 395 394 47.0316618046300192
349 350 395 4.75182609975717973
350 381 396 5.13900321881501299
350 388 397 4.56356769703642051
350 474 398 3.74234897512762954
351 352 399 9.84786467682476641
351 390 400 8.74437671088576352
352 353 401 4.91308677170275665
353 354 402 4.47221801443019196
353 364 403 4.61715687080211712
353 365 404 2.28867091767806796
353 371 405 6.84929896789086001
353 372 406 5.29711209058693822
354 355 407 4.64815849359152899
355 401 408 5.81744376332249313
356 357 409 7.06592765460908367
357 358 410 6.97203224847779524
357 385 411 5.35297549591593658
358 359 412 7.38788193718153785
359 360 413 6.53063010501750796
360 361 414 4.92590100911330175
360 382 415 6.4413891330598565
360 388 416 4.83667330022642972
361 362 417 4.50159460167892433
362 363 418 4.34777405500871339
362 377 419 5.36260219556257667
362 389 420 4.19858953282597991
363 364 421 10.8534479600103531
365 366 422 5.36260219556257489
366 367 423 4.36981196553601858
366 392 424 5.13072655969382563
366 400 425 4.63265456590431413
367 394 426 36.3244288185243249
368 369 427 4.64815849359150945
369 370 428 7.31773482971183853
369 391 429 4.76107175424135232
370 371 430 3.9307027004093773
372 373 431 4.35541336698613701
373 374 432 5.03594751486170011
375 376 433 10.5887695402086468
376 390 434 6.52206850750484346
377 378 435 20.0576191948334213
378 379 436 3.66142051813967084
380 381 437 10.878419945814116
382 383 438 5.74716449506451887
383 384 439 5.31300842140390639
385 386 440 16.8918924313369097
386 387 441 3.89454732253670866
389 390 442 3.7275317162130599
390 474 443 3.74234897512761711
391 392 444 15.1872972746561921
393 401 445 8.00892877247173018
393 406 446 148.444556646823457
394 432 447 9.80685356618037041
395 396 448 3.04508564397392378
396 436 449 6.46666131718113757
396 475 450 3.46948531266639826
397 398 451 21.5444824223436733
397 401 452 5.05150202636341739
398 399 453 4.3692143723921868
400 401 454 5.26480482219738288
402 403 455 6.90513090694431142
403 404 456 6.13143562453021929
403 405 457 14.5806111527262487
404 430 458 166.263495914121989
406 407 459 2.99766627771305139
408 409 460 3.83640820157315821
408 432 461 12.2926912635787069
409 410 462 3.13722541215036888
410 411 463 5.13885647607935425
410 433 464 6.72347360302863439
411 412 465 6.46415681666227115
412 413 466 4.44856668279805945
413 414 467 5.9953325554258754
413 448 468 6.22420088719445808
414 415 469 3.26136374545164864
415 416 470 5.17441992101410353
415 439 471 5.94927298031281726
416 417 472 4.47093639296410394
417 418 473 4.78784683630353669
418 419 474 5.00980771217556153
418 442 475 8.3616150264229212
419 453 476 237.970250439069332
420 421 477 17.0095194118647015
420 432 478 13.4250834285186187
421 422 479 4.22661153585347193
422 423 480 4.36718824151356522
422 449 481 3.33091023996532121
423 424 482 11.9546322552830144
424 425 483 5.56709451575261483
425 426 484 5.9953325554258754
425 445 485 7.39563498993635182
426 427 486 14.5734627443063278
427 428 487 4.73004374948383699
428 429 488 5.67014010908071509
428 450 489 5.06948708471052178
429 456 490 247.965626684677375
430 431 491 0.478784683630343932
432 475 492 3.46948531266634363
433 434 493 9.46008765263673546
434 435 494 3.02810021815007602
436 437 495 21.761288129275556
437 438 496 5.41560296742681579
439 440 497 5.26663151993384737
440 441 498 5.45058039267017502
442 443 499 9.40010313248795626
443 444 500 3.2122817181720289
445 446 501 8.71984790654988728
446 447 502 5.15332358687908698
448 449 503 9.42718004111806174
450 451 504 16.0544131309698805
451 452 505 3.73942792015306624
453 457 506 5.04998698288334236
454 457 507 6.77526850752952736
454 460 508 374.825630989102649
455 457 509 7.08940928719896846
455 458 510 288.268980286042563
456 457 511 3.29805851859692289
458 459 512 7.67550237656840384
460 461 513 3.04320305606956465
