ply
format ascii 1.0
element vertex 355
property double x
property double y
property double z
property int og_index
property int root
element edge 372
property int vertex1
property int vertex2
property int name
property double len
end_header
-7.4855756608980073 28.944051987353447 0 1 0
-16.3513866293927776 32.9183810421959038 0 2 0
-39.2802080996378322 44.5356505871200454 0 8 0
-42.0316666760672319 46.0642386851364165 0 9 0
-45.0888428720998604 47.2871091635494452 0 10 0
-72.6034286363939145 61.3501196652997578 0 17 0
-75.9663224520298854 63.7958606221259004 0 18 0
-79.3292162676657995 66.2416015789520145 0 19 0
-82.6921100833017704 70.2159306337944997 0 20 0
-84.2278110090470591 73.587651850654666 0 21 0
-85.7492862793344557 79.6931768414957844 0 23 0
-86.0513657839325106 82.3022410338831492 0 24 0
-86.0550038989376844 84.5846587551480695 0 25 0
-85.7492862793344557 90.3932935276101261 0 27 0
-85.4435686597311701 94.3676225824526114 0 28 0
-85.1378510401278845 99.2591044961048681 0 29 0
-84.2206981813180846 103.844868790153896 0 30 0
-82.0635653524081476 109.19156156933326 0 31 0
-79.6349338872690851 121.270773107540123 0 33 0
-78.1206042394937299 128.186638635785528 0 34 0
-77.4949105500461997 134.11091313087735 0 35 0
-71.3964992826578282 157.079753763399935 0 39 0
-71.9919933971874002 164.071239851997518 0 40 0
-71.3805581579808859 167.434133667633461 0 41 0
-68.017664342344915 174.465638918508603 0 43 0
-62.8204648090894011 194.948719431927486 0 44 0
-59.1518533738502015 204.425965639628799 0 46 0
-52.4736058197743773 219.915432090884309 0 47 0
-52.0968408942812857 224.266352769558097 0 48 0
-8.70844613931109279 36.8927100970383606 0 49 0
-10.237034237327407 42.3956272498971884 0 50 0
-20.9371509234417772 79.9988944610990416 0 60 0
-20.9371509234417772 82.4446354179251841 0 61 0
-21.8543037822515771 85.8075292335611266 0 62 0
-28.2743737939201765 103.233433550947353 0 66 0
-30.7201147507463475 107.819197844996353 0 67 0
-33.4715733271757472 112.710679758648638 0 68 0
-37.1401847624149468 118.82503215071398 0 69 0
-61.9033119502796012 175.68850939692166 0 81 0
-69.5462524403612861 194.031566573117686 0 82 0
-18.4914099666156631 89.4761406688003262 0 90 0
-19.7142804450286917 109.653503562615953 0 95 0
-20.9239891577228718 114.347118251902032 0 96 0
-21.8543037822515771 118.82503215071398 0 97 0
-34.8382562803539031 167.26513551763756 0 108 0
-33.1658557075724616 173.85420367930206 0 109 0
-27.051503315507091 186.38862608303603 0 110 0
-21.7705880196593284 198.177156378641399 0 112 0
-17.5199660485710069 204.781619902088465 0 113 0
-13.5999280529633779 209.011729933677799 0 114 0
-9.93131661772417829 212.374623749313713 0 115 0
-7.17985804129477856 214.514647086536598 0 116 0
-35.305879044795347 184.55432036541643 0 121 0
-50.5917600249587167 207.483141835661428 0 127 0
-51.8146305033717454 209.317447553281085 0 128 0
-62.2090295698828299 216.348952804156198 0 129 0
-4.88898874565711594 23.5175642393954263 0 133 0
-3.54472100893440256 18.1118357631583677 0 134 0
-2.15335674421567091 12.1855578085562186 0 135 0
-0.932757618668460964 5.97519837875817927 0 136 0
0 0 0 137 1
0.660450155163857744 -6.25489356165831367 0 138 0
6.57542198946538292 -37.9316773008613239 0 144 0
6.72828079926705414 -40.6831358772907237 0 145 0
-7.79330613188818688 -1.55128056807249948 0 146 0
-90.7537598593800112 6.64594240715763362 0 163 0
-90.9484986639768636 6.85595397101735671 0 164 0
7.18685722867195409 -2.16271580727902801 0 165 0
13.1483508109356535 -5.52560962291497049 0 166 0
17.4283974853813675 -6.90133891112967035 0 167 0
22.1670205892320382 -7.20705653073295593 0 168 0
99.6664371586603011 19.5432351845529411 0 186 0
100.277872397866872 19.5432351845529411 0 187 0
-11.0033411377224866 23.2118466197921549 0 188 0
-17.8589010543067275 23.3628469766701556 0 190 0
-23.8434811610596853 22.9061290001888835 0 191 0
-30.0523726115348495 22.7642508187539931 0 192 0
-55.7895488996288691 17.8617864637979409 0 197 0
-56.7081252684109245 17.0974942277268127 0 198 0
19.7212796324058672 -4.14988033470027062 0 199 0
27.822796551892452 -0.0226924700561710324 0 202 0
30.268537508718623 2.72876610637324291 0 203 0
32.5614196557431228 5.48022468280265684 0 204 0
35.1600194223709082 8.99597730824021369 0 205 0
43.1086775320558218 20.9189644727676693 0 208 0
43.1086775320558218 25.8104463864199261 0 209 0
43.1086775320558218 32.3833752078901824 0 210 0
42.1915227262555277 46.9023442325743645 0 211 0
37.6998771293682466 63.2551231209776574 0 212 0
35.3128782321725225 69.8337836092904354 0 213 0
33.1728548949496371 73.960971473934535 0 214 0
0.613928407201683513 27.4918932942378973 0 218 0
27.2113613126859377 45.3763740410290382 0 223 0
31.3385491773300373 47.9749738076568093 0 224 0
34.2428665635611083 49.8092795252764233 0 225 0
38.0643368086019223 52.8664557213090944 0 227 0
42.3443834830476931 57.1465023957548368 0 228 0
37.3000427595937367 72.2795245661165637 0 235 0
30.8799727479251374 51.4907264330943946 0 239 0
31.3384009273917172 56.337417087588662 0 240 0
31.796951120060271 60.8953728926921372 0 241 0
33.3257137047513083 65.7065957446463216 0 242 0
27.2113613126859377 3.03448372597651428 0 243 0
30.727113938123523 42.6249154645996384 0 251 0
47.6944418261048781 24.8932935276101261 0 252 0
104.557919072312643 69.3752071798855354 0 268 0
107.615095268345272 72.2795245661165637 0 269 0
31.9499844165366085 8.23168325923205657 0 270 0
41.5800894340395075 34.5233985451130536 0 276 0
45.5544184888819927 41.5549037959881957 0 277 0
-4.43041231625221599 38.0391511705506247 0 289 0
-3.20754183783913049 43.5420683234094383 0 290 0
-2.29038897902933059 49.1978442860698806 0 291 0
0.613928407201683513 45.0706564214257668 0 300 0
28.739949410702252 56.6879259663499369 0 307 0
-41.116526668644326 50.5735735742845804 0 308 0
-42.9508323862639259 54.2421850095237943 0 309 0
-47.0780202509080254 58.827949303572808 0 310 0
-51.0523493057505107 61.8851254996054791 0 311 0
-84.3755698425066498 62.1908431192087505 0 318 0
-102.871485828504319 53.6307497703172658 0 322 0
-105.775803214735333 53.9364673899205229 0 323 0
-87.2798872287376639 69.8337836092904354 0 324 0
-62.3052354748174366 10.2988569191815031 0 332 0
-65.2682186173024093 10.2188477866532992 0 333 0
-27.6649514061005561 18.6260823257431412 0 334 0
35.7714546615774225 57.1465023957548368 0 339 0
39.9771757166303701 54.983946346545423 0 340 0
39.1343484772133934 58.3693728741679081 0 341 0
-68.3269044518747251 87.5276645827807158 0 342 0
-70.510378144509616 92.3056654376774475 0 343 0
-73.5241039851302958 97.7692048394901576 0 344 0
-75.9698449419564099 102.202110323737514 0 345 0
-82.5427737634266236 83.4004767181366162 0 346 0
-71.689798267510696 88.9033938709954157 0 347 0
-68.4797632616763394 95.4763226924656294 0 348 0
-62.4687065407368323 104.396818502416153 0 350 0
-61.2953992009996114 108.010745096199599 0 351 0
-74.1355392243368101 66.5860076399569323 0 352 0
-75.8169861321547387 81.1075945711121022 0 355 0
-77.4984330399727241 88.5976762513921301 0 356 0
-77.8057847176619362 93.2209868006733871 0 357 0
-78.2627270889809097 97.0049107904820005 0 358 0
-43.2580596444068419 58.9430671498752474 0 359 0
-46.1560199857318594 88.0025887240455802 0 365 0
-45.8566594110346273 92.2662876866313297 0 366 0
-35.7679779641267714 109.692192004017556 0 367 0
-56.4039172873473262 117.946567733305784 0 372 0
-56.2510584775457119 117.946567733305784 0 373 0
-13.909168162493188 113.666521058860013 0 374 0
-2.44475742737074597 119.933732260726998 0 377 0
-0.151875280346189356 123.449484886164583 0 378 0
-82.3899149536250093 127.88239037041194 0 379 0
-92.9966662694691308 137.270598953504731 0 382 0
-95.5357725965654936 139.652518725137753 0 383 0
-72.7598099361221102 127.270955131205397 0 384 0
-66.3397399244535109 131.398142995849497 0 386 0
-65.422587065643711 137.206777768311582 0 387 0
-88.6571261554919943 104.189274851158757 0 388 0
-88.6571261554919943 96.0877579316722006 0 392 0
-99.2859322380970184 96.6228635488298551 0 394 0
-102.872995467043893 97.0049107904820005 0 395 0
-27.9721786642435291 114.125097488264913 0 416 0
52.4315552914157479 94.2534522140526008 0 419 0
65.424554124554561 107.552168666794699 0 420 0
75.8189531910655887 125.742367033189083 0 424 0
77.1946824792803454 130.022413707634797 0 425 0
78.4175529576933741 135.983907289898497 0 426 0
79.5175404560990842 140.398146550978282 0 427 0
80.0989998655113595 146.531165166211224 0 428 0
79.4875646263047884 150.811211840656966 0 429 0
78.9370744515903198 156.03533740467978 0 430 0
78.4175529576933741 161.205610907168051 0 431 0
59.9216369716957615 104.494992470762014 0 433 0
61.3061591070273266 109.712903710327083 0 434 0
62.6730955481251613 114.125097488264913 0 435 0
63.6879585002346289 118.97857117761265 0 436 0
64.8882956543712339 127.351643901994322 0 438 0
65.424554124554561 131.09242537624624 0 439 0
55.6415902972499907 94.4063110238542151 0 442 0
58.2401900638777761 114.430815107868199 0 443 0
52.9859328180460807 120.016225632946089 0 445 0
50.5972495737960912 122.838049646958041 0 446 0
81.6275879635277306 128.188107990015197 0 462 0
86.3425665954976012 128.646684427289813 0 463 0
90.3405401222207729 129.25811965862664 0 464 0
81.0161527243211594 134.455319191882182 0 465 0
87.0474065409582636 134.150237914447388 0 466 0
92.0219870300387583 135.219613240890368 0 467 0
83.7676113007505592 144.238283019186724 0 468 0
88.5062344046011731 146.378306356409581 0 469 0
92.1748458398403727 148.671188503434081 0 470 0
82.8504584419407593 157.384140662127209 0 471 0
87.5894734081726938 157.842405545828001 0 472 0
90.7991165516257297 158.607011140540266 0 473 0
13.3018142229787486 90.723665162230418 0 475 0
12.8411235527926237 95.6291815022673006 0 476 0
59.193140998625438 100.811134860626026 0 477 0
-76.3037745425616549 85.3620681383478939 0 478 0
42.9223493049191234 39.1498391650172266 0 479 0
-118.157172836781854 74.5468290524530346 0 482 0
-121.037314315610388 75.7563141397131403 0 483 0
-107.127162623661718 110.455263964683951 0 484 0
-112.171503347115618 112.748146111708451 0 485 0
-76.4086522952427458 166.052234989918645 0 486 0
-85.8972522721537075 174.944818409252207 0 489 0
-88.7902158891750446 180.573821921073858 0 490 0
-29.6338564959427231 175.52948119761993 0 493 0
-36.5125029370162792 178.128080964247715 0 494 0
-60.052759646467905 185.159586215122857 0 499 0
-77.4786639638541601 188.675338840560443 0 500 0
-98.8788973360829004 198.305443858063398 0 505 0
-101.324638292909071 199.834031956079713 0 506 0
-67.1769408884359223 186.235767273234387 0 507 0
-32.0795974527688941 180.268104301470572 0 508 0
-55.6361007484126162 212.068906129710427 0 509 0
-79.9171442781786254 229.157834683210382 0 511 0
-91.3815550133011811 236.189339934085552 0 512 0
-153.900808222169587 281.741265254972518 0 527 0
-156.040831559392473 284.492723831401918 0 528 0
-86.1843554800456673 237.870786841903538 0 529 0
-85.8786378604423817 230.380705161623467 0 546 0
-51.9439820844796145 227.782105394995682 0 547 0
-50.8739704158681434 232.673587308647967 0 548 0
-50.1096763668600147 237.717928032101923 0 549 0
-49.9549471910400484 242.622701838765778 0 550 0
-47.5110766002322293 260.035314263140435 0 553 0
-45.9824885022159151 265.538231415999348 0 554 0
-45.1556262444421463 272.872043447295368 0 555 0
-42.008159447373373 286.938464788228089 0 558 0
-40.7852889689603444 291.524229082277088 0 559 0
-40.0209949199521589 295.804275756722859 0 560 0
10.1166946949838348 231.450716830234938 0 568 0
13.63244732042142 233.132163738052924 0 569 0
20.2053761418916906 235.119328265474138 0 570 0
25.2497168653455901 238.176504461506823 0 571 0
28.3068930613782754 239.399374939919909 0 572 0
31.3163050495655284 241.309347304432691 0 573 0
41.4788448450877922 249.493981126316186 0 576 0
44.3570680905498875 252.239514963257164 0 577 0
47.2613854767809016 257.130996876909421 0 578 0
-85.5729202408391529 232.597157903747217 0 584 0
-57.460845421945919 227.640317267820279 0 585 0
-75.6510437883404165 244.301927536198406 0 590 0
-77.4853495059600164 246.747668493024577 0 591 0
-44.4678465888069923 236.811845855918392 0 592 0
-19.6892024082570174 233.298842728344965 0 597 0
-16.3418255853063101 233.143234420679136 0 598 0
-12.8260729598687249 218.46878867972228 0 599 0
-15.8832491559014102 221.831682495358194 0 600 0
-25.2076365538010805 229.474622985439936 0 601 0
-46.1492934966249777 224.583141071787651 0 602 0
-27.0419422714206803 225.958870360002351 0 606 0
-18.7875665421324811 227.793176077621951 0 607 0
-10.847173582711946 229.036121331288683 0 609 0
-6.4060029482001255 229.016046556035036 0 610 0
-47.3721639750380632 211.895859858251953 0 611 0
-45.8352385599853847 216.97348482034991 0 612 0
-44.0092701594021491 220.30309439734188 0 613 0
-21.6918839283634952 208.532966042616039 0 614 0
-25.9574176506024514 211.336706390421995 0 615 0
-29.1819656086436225 214.341600815078124 0 616 0
-21.204961793184907 226.159485865949108 0 617 0
10.5527703213883797 236.637492668809983 0 618 0
4.28555911952139468 244.127574349090111 0 620 0
1.22838292348865252 247.643326974527696 0 621 0
-53.6479297952981824 268.126407487946722 0 622 0
-75.7818083449916458 278.741904554141229 0 627 0
-75.8124572165351651 278.97938298386282 0 628 0
-47.9921538326376549 294.570981583629532 0 629 0
-65.0783847609393433 313.794062152778451 0 634 0
-66.3352110088338236 317.194085434271528 0 635 0
47.3917434835823315 246.87903292551951 0 636 0
52.1303665874330022 244.127574349090111 0 637 0
55.0346839736640732 241.834692202065611 0 638 0
33.023015362228648 234.191751711983869 0 639 0
37.3913205133140991 230.887071186352358 0 640 0
41.4302499013185752 228.688834559125013 0 641 0
-29.8984439901817041 332.58024145510467 0 729 0
-27.8041523069925915 338.496092156889063 0 730 0
-26.1584078313715622 343.629885328293085 0 731 0
-22.7177810284595125 354.598077658298621 0 733 0
-21.0048288697664134 359.522815114541345 0 734 0
-19.5059957309099445 364.661671590620699 0 735 0
-17.6174525025369348 372.058759429150314 0 737 0
-17.1506865127068977 374.939384542779294 0 738 0
-16.5083294531970068 378.793526899838866 0 739 0
-15.4377343540137986 385.431216514774633 0 741 0
-14.3179062589808836 389.826895011392367 0 742 0
-13.0824251358107517 395.06657240742345 0 743 0
-11.3835706194628301 399.970062702703217 0 744 0
-8.38525404557282172 403.188111870159673 0 745 0
-5.59954350398538736 406.128781032760116 0 746 0
-2.64045515673649334 408.991659798805131 0 747 0
0.821213511225664661 413.031322912738233 0 748 0
4.67535586828518035 416.885465269797805 0 749 0
19.4495682370132954 451.57274648333339 0 756 0
22.0189964750529725 466.561077871898192 0 757 0
-10.312975520279565 373.419304242959925 0 772 0
1.522395939422438 369.754922731759393 0 775 0
6.1741890071416492 368.708685806553831 0 776 0
-15.8800700360322367 360.572163052761539 0 777 0
2.2628028557013522 356.281376379741346 0 781 0
7.03066508648817035 356.718020695701966 0 782 0
-33.8660677023099765 341.729689307137164 0 783 0
-66.3044567873749884 354.516567499207667 0 790 0
-65.9839206778059406 354.79094951717218 0 791 0
-19.5200933732551221 390.54882582989103 0 792 0
-48.6402800710381484 390.120587790217769 0 798 0
-51.4238273289144558 392.261777988584186 0 799 0
-17.3789031748887055 398.471229563846691 0 800 0
-48.0718561707628851 413.47317987385145 0 807 0
-50.1391132098946173 415.172513111104649 0 808 0
-13.7388798376658769 405.965395258129092 0 809 0
-37.8828735434353803 424.054409473856367 0 815 0
-40.0755192775725391 426.520821162446509 0 816 0
6.60242704681490977 402.967728980416155 0 817 0
28.0691489257472426 395.915034687112666 0 822 0
28.2284480503155919 395.901801325807014 0 823 0
-0.463500607794173902 418.170179388817587 0 824 0
-12.7040948184954914 425.6366995663642 0 827 0
-15.8800700360322367 428.447892340976296 0 828 0
70.5127673936452766 305.465603561829653 0 833 0
72.5193654612234582 309.209276140525276 0 834 0
75.3055404904495731 313.482809890117778 0 835 0
71.2346513422036196 313.063418497584848 0 863 0
74.018198600079927 306.211609862812338 0 894 0
18.3846121947677261 463.507323117141254 0 919 0
15.1728268972181581 540.376051238495279 0 935 0
16.2434219964013096 543.587836536044847 0 936 0
22.6669925915005592 457.083752522042005 0 943 0
20.6272228461148188 459.60220972720731 0 1007 0
-93.3873912542483708 701.450661539892167 0 1029 0
-93.802073295974651 706.244379687025685 0 1030 0
-41.2458493185854991 964.374667343744704 0 1111 0
-42.8434584314249491 967.187050820492004 0 1112 0
149.553374341430754 761.522592521053525 0 1145 0
149.125136301757379 767.517925076479401 0 1146 0
346.406794091429106 472.965717347277064 0 1194 0
347.477389190612257 476.391621664663262 0 1195 0
-8.09701090010457847 32.9183810421959038 0 1196 0
-6.18728220327756162 26.2308081133744366 0 1197 0
-77.6477693598478709 65.0187311005389574 0 1198 0
-81.0106631754837849 68.2287661063732571 0 1199 0
-52.0204114893804217 226.024229082276889 0 1200 0
-32.0958440389610473 110.264938801822495 0 1201 0
-32.6227265801707063 177.061153990386316 0 1202 0
-53.7253656258922092 210.693176841495756 0 1203 0
-4.21685487729575925 20.8147000012768899 0 1204 0
31.4149785822309013 4.10449539458794987 0 1205 0
39.5557620969218533 56.6766596103566656 0 1206 0
77.8061177184868598 133.003160498766647 0 1207 0
-23.2062991734929938 227.817054425694522 0 1208 0
-13.7001656973958461 392.446733709407908 0 1209 0
-0.909620822755414338 411.011491355771682 0 1210 0
0 1 1 9.71585794282970738
0 340 2 4.02108747578419834
0 341 3 3.00786605781984262
1 2 4 25.8561967128938228
2 3 5 3.14755553901820839
3 4 6 3.29267953201684094
3 115 7 4.60125878164604885
4 5 8 31.1209105541615578
5 6 9 4.15820918703466802
6 138 10 3.33716760261058454
6 342 11 2.07910459351732557
7 119 12 6.47103766806303238
7 342 13 2.07910459351727983
7 343 14 2.60309173154769091
8 9 15 3.70498060690740161
8 122 16 4.60366544011630197
8 343 17 2.60309173154769091
9 10 18 6.29390945294353266
10 11 19 2.62649347745166484
11 12 20 2.28242062079384089
11 133 21 3.67645747758970565
12 13 22 5.82766806307374363
13 14 23 3.98607008206090896
14 15 24 4.90102627768134269
14 159 25 3.64497152227495125
15 16 26 4.67658032401860613
16 17 27 5.7654441040122606
16 158 28 4.44977625335136384
17 18 29 12.3209481504011684
18 19 30 7.07971682250812417
19 20 31 5.95722426019114426
19 152 32 4.2801379628207048
19 155 33 5.43843652565898328
20 21 34 23.8549907762800082
21 22 35 7.01680062189976184
22 23 36 3.41802689676163851
22 204 37 4.84058029147731439
23 24 38 7.79563232871815082
24 213 39 11.8001159914923104
25 26 40 10.1952283194091873
25 213 41 9.74137665577064027
26 215 42 8.41279120495691757
27 28 43 4.36720305930385955
27 215 44 8.45986665574808505
28 251 45 5.95597807885470676
28 344 46 1.75953703705017772
29 30 47 5.71127645667980666
29 110 48 4.42898414156922726
29 340 49 4.02108747578418946
30 31 50 39.3867648864181348
31 32 51 2.44574095682614256
32 33 52 3.48571716891452033
32 40 53 7.44471053305509045
33 34 54 18.6174368563267407
34 35 55 5.19719953325555029
35 146 56 5.38414618493284269
35 345 57 2.80611473435221104
36 37 58 7.13049893325305728
36 162 59 5.67837293355589878
36 345 60 2.80611473435221104
37 38 61 62.3811015600674779
38 213 62 11.7921927938276454
39 213 63 8.14789076719539196
39 221 64 39.9990369624699866
40 41 65 20.5448806923786833
41 42 66 4.84700051795440423
42 43 67 4.57353235320197626
42 149 68 7.04776036300127373
42 162 69 7.05168551052256642
43 44 70 53.1661347040274634
44 45 71 6.7979955071256466
45 208 72 5.42826627249607441
45 346 73 3.25261733789814222
46 47 74 12.9258860087895044
46 214 75 7.92101745559140369
47 48 76 7.85408973552260914
48 49 77 5.76719418490137059
48 259 78 5.61048096528126283
49 50 79 4.97672228258821914
50 51 80 3.48571716891452255
50 248 81 6.74673702462217939
51 232 82 25.2195097741940799
52 53 83 28.0071454548311678
52 214 84 5.36474985976758045
53 54 85 2.20456110658477167
54 256 86 5.13650843178421201
54 347 87 2.35447229393020008
55 215 88 7.84360840605573095
55 216 89 21.9439034513946005
56 91 90 6.78803275090748581
56 341 91 3.00786605781984262
56 348 92 2.78518204552206905
57 58 93 6.0874185754176402
57 73 94 9.03554785075843014
57 348 95 2.78518204552205528
58 59 96 6.32917265308571331
59 60 97 6.04756417416949965
60 61 98 6.28966516399168807
60 64 99 7.94619983804871044
60 67 100 7.50521528594409393
61 62 101 32.2901172035687694
62 63 102 2.75570138323093383
64 65 103 84.7450281549978399
65 66 104 0.286405410162967389
67 68 105 6.84459352676356847
68 69 106 4.49571246966323912
69 70 107 4.74847472176942986
69 79 108 3.58159640913805077
70 71 109 88.1574890201560777
71 72 110 0.611435239206571168
73 74 111 6.8724086887519249
74 75 112 6.00198220292133122
75 76 113 6.21051225440791299
75 125 114 5.73780745312761375
76 77 115 26.2295884461509168
77 78 116 1.19495822830901988
79 80 117 9.22040168382351055
80 81 118 3.68132763085601633
81 102 119 3.07242405219799863
81 349 120 1.79079820456904892
82 83 121 4.37186885329249719
82 107 122 2.81857718531006807
82 349 123 1.79079820456901251
83 84 124 14.5810477817959736
84 85 125 4.89148191365225671
85 86 126 6.57292882147025637
85 104 127 4.67658032401863366
86 199 128 6.76902893267027572
87 127 129 8.37947643994404778
87 199 130 7.78687628709871316
88 89 131 6.9983239104589412
88 128 132 5.09198031437575338
89 90 133 4.64901920343679542
89 97 134 3.15126509309165614
89 101 135 4.58066616652063185
90 207 136 121.613656132958326
91 92 137 32.0571520695622922
92 93 138 4.87713034654431077
93 94 139 3.43507451821006171
93 98 140 3.54553365022488842
93 103 141 5.38488415157273081
94 95 142 4.8959738785721596
95 127 143 2.85354502961337575
96 127 144 3.2062940095004886
96 179 145 39.7156392168139121
97 163 146 27.0905852754420025
98 99 147 4.86832278059817192
99 100 148 4.58096380693766658
99 114 149 2.62198527049185914
99 126 150 4.50628277475661498
100 101 151 5.04826508530578
102 103 152 39.8527515479809651
104 105 153 74.0617277743124447
105 106 154 4.21679804751808884
107 108 155 28.2242254889327526
108 199 156 4.81722060637387361
109 199 157 3.56540657826207674
109 338 158 542.806242378005777
110 111 159 5.63715437062016278
111 112 160 5.72965715433573219
111 113 161 4.11584941502109292
112 195 162 44.8760014558126699
113 114 163 32.2898073367611147
115 116 164 4.10163227611397208
116 117 165 6.16951487806297205
117 118 166 5.01414177399821348
117 143 167 3.82169480123128125
118 129 168 31.4605006240822576
119 120 169 20.6580462279718517
120 121 170 2.9203634607527249
122 200 171 32.1099088041826661
123 124 172 2.96406318487613207
123 125 173 37.3155220536267578
126 128 174 3.57833299487580847
127 350 175 1.74438173355442583
128 350 176 1.74438173355441206
129 130 177 5.25327036576479145
130 131 178 6.23961587259863304
130 134 179 3.60090039295630726
130 135 180 3.76516456874396566
131 132 181 5.06283516027995972
133 198 182 6.54010337669063002
134 198 183 5.81633604698392848
135 136 184 10.8099404700317869
136 137 185 3.79962044666785914
138 139 186 14.7000515549155111
139 198 187 4.28223169513450497
140 141 188 4.63351545685063293
140 198 189 3.4491113038917951
141 142 190 3.8114140540429009
143 144 191 29.4763955693153115
144 145 192 4.27419531575685596
146 147 193 24.8688774148210996
147 148 194 0.15285880980161437
149 150 195 13.6599152610706867
150 151 196 4.19735929644046735
152 153 197 14.273294377911899
153 154 198 3.48146560212751366
155 156 199 8.48020384790550708
156 157 200 5.88059582748879706
158 202 201 19.7340372439787437
159 160 202 10.7723503300170265
160 161 203 3.60735120321223945
163 197 204 9.41924853526610306
164 165 205 21.2132112072960766
164 197 206 9.17998073646729829
165 166 207 4.49571246966325599
166 183 208 4.79742936351985261
166 351 209 3.04281193710461606
167 168 210 4.54922858853092382
167 186 211 3.01484698127701201
167 351 212 3.04281193710461606
168 169 213 6.16052046336897252
169 170 214 4.32350003899359958
169 189 215 4.32620138261171316
170 171 216 5.25304933739764568
171 172 217 5.19630933193485411
171 192 218 4.13930483091447687
172 326 219 147.892898695728405
173 174 220 5.39847193631703082
173 197 221 3.75519816714597754
174 175 222 4.61908748218460552
175 176 223 4.95844266526850941
175 180 224 4.44343496579014197
176 177 225 8.47047816742588289
177 178 226 3.77902357560120494
179 197 227 7.32361118332485095
180 181 228 7.6683872435771514
181 182 229 3.69709323758749386
183 184 230 4.73722659883986896
184 185 231 4.04445859942950037
186 187 232 6.0389649101928784
187 188 233 5.08822313102966906
189 190 234 5.19944697099655784
190 191 235 4.32620138261171316
192 193 236 4.761120619539434
193 194 237 3.29945917140679024
195 196 238 4.92710122241926296
200 201 239 3.12379082436279676
202 203 240 5.54100007890625168
204 205 241 13.3086756611798371
205 206 242 6.32889556127367747
207 214 243 5.33256014951956203
208 209 244 24.8884733465271388
209 213 245 7.20500687287992925
210 211 246 23.4938971917448995
210 213 247 10.5866428935102128
211 212 248 2.8841342550744975
214 346 249 3.25261733789815199
215 347 250 2.35447229393015389
216 241 251 6.61942187469060528
217 218 252 77.7016454864091912
217 241 253 6.8296419861469051
218 219 254 3.48571716891452255
220 241 255 5.30895613365784858
220 332 256 471.874822150860837
221 241 257 2.23743737811893872
222 223 258 5.00714692040808096
222 242 259 5.51868507502355676
222 344 260 1.75953703705017528
223 224 261 5.10191324187752393
224 225 262 4.90721379322174656
224 245 263 5.714125318412548
225 226 264 17.5843823026607922
226 227 265 5.71127645667983419
227 228 266 7.38027777957665965
227 266 267 8.09058994122752217
228 229 268 14.4173148864897662
229 230 269 4.74601373444586994
230 231 270 4.34775170965219981
230 269 271 7.82442342718004724
231 278 272 38.3941215506580846
232 233 273 3.89715027001550718
233 234 274 6.86674713027615002
233 263 275 4.66601985970651256
234 235 276 5.89844891712086383
235 236 277 3.2926795320169151
236 237 278 3.56434495354303538
236 275 279 7.02574901634816396
237 238 280 13.3025255979667385
238 239 281 3.97770349580083815
239 240 282 5.6887305079034256
239 272 283 6.1598719481807942
240 322 284 53.9507573027393263
242 243 285 24.7460854166824582
243 244 286 3.05717619603269686
245 246 287 25.0450094643176655
246 247 288 3.35099172488417141
248 249 289 4.54481915028872852
249 262 290 6.85933724264385081
250 352 291 2.59863133977771499
251 252 292 19.314339871762634
252 262 293 5.84042701217400584
253 254 294 8.03949523505391284
253 262 295 2.91766062240392809
254 255 296 4.44121600481800538
256 257 297 5.30513100565434925
257 258 298 3.79742814746048163
259 260 299 5.10448213567966036
260 261 300 4.40761840873696542
262 352 301 2.59863133977771499
263 264 302 9.76626855752434153
264 265 303 4.65906029332745408
266 267 304 24.9560003129087136
267 268 305 0.239448027575820316
269 270 306 25.8353177788251465
270 271 307 3.62488214044146106
272 273 308 5.47951395820416387
273 274 309 3.70031998888038904
275 276 310 5.47749972793133466
276 277 311 4.59839046521389516
278 279 312 6.27561528298843285
279 280 313 5.39113227492992664
279 304 314 6.87044167358100566
280 281 315 11.4967853304867234
281 282 316 5.21413886570839669
282 283 317 5.35297549591599164
282 301 318 5.23108824236252534
283 284 319 7.64383413714446824
284 285 320 2.91819662369278809
285 286 321 3.90730545265953211
285 298 322 7.00463673104185247
286 287 323 6.72795663460717819
287 288 324 4.5360780866352588
288 307 325 5.25204102027193631
288 353 326 2.69168315465382513
289 290 327 5.18944349074335509
289 310 328 5.48191699071256711
289 353 329 2.69168315465383801
290 291 330 4.39837955631738442
291 292 331 4.05064418893837352
291 313 332 6.03113688609824905
292 293 333 4.11731449805524807
293 316 334 11.0326159152516379
293 354 335 2.65998252065791707
294 295 336 5.45058039267017502
294 319 337 5.29701201144113298
294 354 338 2.65998252065791707
295 296 339 38.1679515682791859
296 331 340 8.1153650788526619
297 331 341 7.09668089245954548
297 334 342 533.582760789135591
298 299 343 12.3935217223066871
299 300 344 4.76799648159937117
301 302 345 19.0179577687569434
302 303 346 4.78781458605324151
304 305 347 34.9505358636984411
305 306 348 0.421934697933150249
307 308 349 29.2421829341458697
308 309 350 3.51181303636898123
310 311 351 34.2786974055662981
311 312 352 2.67605775667737333
313 314 353 30.3738424386165917
314 315 354 3.30013362351344153
316 317 355 23.0304088967439426
317 318 356 0.159847843087377539
319 320 357 14.3938337017681235
320 321 358 4.24141761660404626
322 323 359 4.24753106890179577
323 324 360 5.10155486125443947
323 325 361 4.0626227582793355
323 326 362 3.35149278541244566
324 336 363 484.881016215389593
325 330 364 155.828998824088302
327 328 365 78.5828340736915578
327 331 366 4.50324473260967828
328 329 367 3.38551896523273799
330 331 368 3.24087755221329621
332 333 369 4.81162081526459051
334 335 370 3.23447920038278891
336 337 371 6.01060731280730476
338 339 372 3.5892888234691247
