ply
format ascii 1.0
element vertex 506
property double x
property double y
property double z
property int og_index
property int root
element edge 546
property int vertex1
property int vertex2
property int name
property double len
end_header
0 0 0 1 1
2 5 0 2 0
-0.372812135356127783 -4.87572928821468565 0 8 0
-5.58168028004689631 -79.9842473745624147 0 23 0
-4.90956826137713165 -80.4883313885647453 0 24 0
26.1756126021001592 10.4148191365227802 0 27 0
30.208284714118804 10.246791131855332 0 28 0
33.9049008168025807 9.91073512252044964 0 29 0
58.941073512251819 8.23045507584599534 0 33 0
67.0064177362891655 8.06242707117854707 0 34 0
74.184400192863734 8.06481825481515102 0 35 0
-4.4118849830818192 3.32650849766820045 0 44 0
-9.9568091371075127 10.8877687077032022 0 46 0
-12.1411731977842692 14.5843848103869789 0 47 0
-13.4853972351238269 18.2810009130707698 0 48 0
-14.3255372584610541 23.3218410530941043 0 49 0
-15.5017332911331778 27.8585971791151223 0 50 0
-14.9976492771308472 32.3953533051360978 0 51 0
-14.3255372584610541 36.428025417154771 0 52 0
-13.8214532444587235 39.7885855105036796 0 53 0
-13.6534252397912894 44.3253416365246835 0 54 0
-13.4853972351238269 48.5260417532107908 0 55 0
-11.301033174447042 64.1526461872831533 0 56 0
-11.301033174447042 68.5213743086366946 0 57 0
-11.4696004255664548 73.319853183954848 0 58 0
-8.10850108576559592 92.0452949620789127 0 62 0
-7.26836106242839719 109.016123433490833 0 63 0
-5.58808101575394289 115.401187610853725 0 64 0
-6.26019303442370756 125.482867890900422 0 67 0
-14.3255372584610541 56.9274419865830055 0 68 0
-14.3255372584610541 75.4105225000019175 0 69 0
-14.4929280556911237 81.3870341983270293 0 70 0
-14.8296212724633847 86.6683988127207101 0 71 0
-14.9976492771308472 96.2459950787650484 0 73 0
-15.5017332911331778 100.278667190783722 0 74 0
-16.0058173051355084 104.815423316804726 0 75 0
-16.1738453098029424 108.848095428823399 0 76 0
-16.677929323805273 113.048795545509506 0 77 0
-17.8541253564773967 124.978783876898063 0 80 0
-18.6942653798146239 32.3953533051360978 0 81 0
-23.7351055198379584 44.3253416365246835 0 84 0
-25.2473575618449502 48.3580137485433283 0 85 0
-26.927637608519376 53.2308258838992288 0 86 0
-28.4398896505263963 57.767582009920261 0 87 0
-33.6487577952171932 74.0662984626623597 0 88 0
-35.8331218558939497 78.7710825933507977 0 89 0
-42.722270047259201 97.2541631067697381 0 90 0
-46.4188861499429777 108.007955405486172 0 92 0
-19.1983493938169545 81.7955866773648381 0 93 0
-23.7351055198379584 86.8364268173881442 0 94 0
-41.3067979489104573 108.445074092816498 0 100 0
-40.5169287078934417 70.9235438429771534 0 101 0
-81.2006831161039599 122.290335802218948 0 113 0
-81.0326551114365543 123.802587844225968 0 114 0
-18.6942653798146239 58.7757500379249223 0 115 0
-26.927637608519376 63.4805341686133602 0 117 0
-41.5460740145870773 66.8410942619622688 0 118 0
-79.0163190554272035 88.5167068640625985 0 127 0
-81.2006831161039599 90.1969869107370528 0 128 0
-30.7922817158706152 48.0219577392084602 0 129 0
-39.5297379585777549 48.0219577392084602 0 131 0
-44.6962789828420455 48.1847757626211148 0 132 0
-50.897308018895643 48.8452093268826957 0 133 0
-57.5087344579943078 50.0382937952177826 0 134 0
-60.0291545280059609 51.0464618232224439 0 135 0
-18.1901813658122933 24.8340930951011103 0 136 0
-21.88679746849607 26.6824011464429987 0 137 0
-25.7330575762506726 28.1806233832736268 0 138 0
-30.9603097205380777 29.7069052304569823 0 139 0
-34.4236266236537176 30.8926496572184988 0 140 0
-39.0256539445753958 31.8912692911337672 0 141 0
-70.6930283823641616 44.6505718580378925 0 147 0
-72.1271708640619806 46.3416776925340059 0 148 0
-23.2310215058356277 23.8259250670964349 0 149 0
-45.6425905395923337 29.6627609638910315 0 153 0
-46.2508581452755152 30.2109892444593413 0 154 0
-34.6569258232218544 33.2354933284733249 0 155 0
-42.0501580285894079 44.4933696411921176 0 158 0
-45.0746621126033915 52.2226578558945675 0 159 0
-52.971978331973304 66.5050382526273438 0 162 0
-54.3162023693128617 68.5213743086366946 0 163 0
129.674462741538889 11.3918527217055328 0 169 0
135.723470909566913 8.53537664235898319 0 170 0
66.4959329865797599 14.7524128150544271 0 171 0
67.5041010145844211 56.0873019632458067 0 180 0
68.5122690425890823 60.4560300845993766 0 181 0
68.5122690425890823 65.8329262339575791 0 182 0
67.6225990512066346 70.9016588710613291 0 183 0
66.4959329865797599 76.4186905280066071 0 184 0
65.3197369539076362 82.6357267007020369 0 185 0
63.4490950791567343 87.5740145777977261 0 186 0
62.4632608745611151 92.8854349854161683 0 187 0
62.2952328698936526 98.0943031301069368 0 188 0
62.7993168838959832 103.135143270130271 0 189 0
62.4632608745611151 108.007955405486172 0 190 0
61.6231208512238595 114.056963573514167 0 191 0
61.2870648418889914 119.097803713537502 0 192 0
-7.7724450764307278 16.4326928617288672 0 195 0
-2.05949291773760024 38.78041748249899 0 201 0
-1.21935289440037309 43.3171736085200223 0 202 0
0.124871142939184665 46.1736496878665719 0 203 0
2.98134722228573423 49.1981537718805839 0 204 0
6.50993532030207689 51.5505458372247745 0 205 0
16.7596436050162083 55.0791339352411455 0 209 0
20.6242877123673907 53.7349098979015594 0 210 0
23.9848478057162993 52.0546298512271335 0 211 0
6.17387931096718034 42.8130895945176917 0 220 0
3.48543123628806484 52.39068586056203 0 221 0
4.99768327829505665 57.4315260005853361 0 222 0
7.85415935764160622 59.615890061262121 0 223 0
15.4154195676766221 70.369682359978583 0 226 0
18.7759796610255307 73.8982704579949257 0 227 0
22.6406237683767131 76.9227745420089377 0 228 0
48.8529924964980751 64.6567302012854839 0 235 0
50.1972165338376044 68.6894023133041287 0 236 0
49.8611605245027931 76.5867185326740412 0 237 0
45.1563763938142984 83.3078387193718299 0 238 0
39.2753962304537367 86.5003708080532761 0 239 0
31.2100520064163902 89.6929028967347222 0 240 0
28.1855479224024066 96.582051088099945 0 241 0
27.1773798943977454 102.295003246793044 0 242 0
18.1038676423557376 127.331175942242311 0 247 0
24.3209038150512242 57.095469991250468 0 248 0
20.7923157170348532 70.369682359978583 0 251 0
16.4235875956812833 80.7874186493601485 0 252 0
15.5834475723440562 87.0044548220556067 0 253 0
14.2392235350044984 93.8936030134208295 0 254 0
12.7269714929975066 98.9344431534441355 0 255 0
10.5426074323207217 103.471199279465168 0 256 0
8.86232738564629585 108.007955405486172 0 257 0
5.16571128296251914 125.31483988623296 0 261 0
3.31740323162063078 128.507371974914406 0 262 0
13.0630275023324032 102.295003246793044 0 263 0
13.9031675256696303 108.680067424155965 0 264 0
14.9113355536742915 125.31483988623296 0 269 0
-22.8949654965007312 107.167815382148945 0 270 0
-28.8721642630965789 113.451946971235003 0 272 0
-29.4480576785310575 117.081467657528179 0 273 0
-24.5752455431751855 83.3078387193718299 0 274 0
-34.488897818554392 87.8445948453928054 0 276 0
-44.4025500939336268 88.348678859395136 0 277 0
-48.1550605192393277 89.9544697405524687 0 278 0
-50.7876142712965191 92.0452949620789127 0 279 0
-17.6860973518099343 65.4968702246226826 0 280 0
-27.3091016097085628 69.8956001349087614 0 282 0
2.47726320828340363 60.1199740752644516 0 283 0
-8.09013915685736151 68.6597059559817353 0 286 0
-4.91596899708414981 44.157313631857221 0 287 0
-8.780613104435389 46.8457617065363365 0 288 0
52.2135525898469837 61.1281421032691696 0 289 0
63.6394569072332388 59.9519460705970175 0 291 0
74.2252212012822383 56.9274419865830055 0 292 0
80.2742293693102056 56.0873019632458067 0 293 0
83.8028174673265767 56.0873019632458067 0 294 0
71.2007171172681979 77.5948865606787024 0 295 0
92.0324566485396645 81.7935407490767261 0 300 0
92.2042177006987913 81.7955866773648381 0 301 0
52.5496085991818518 70.7057383693134796 0 302 0
60.9510088325540664 74.5703824766646903 0 304 0
53.2217206178516449 77.9309425700135989 0 305 0
60.1108688092168677 84.4840347520439252 0 307 0
67.3360730099169587 89.8609309014021562 0 308 0
37.9311721931142074 90.8690989294068459 0 322 0
37.8660702451256839 96.0582328345189183 0 323 0
38.1023019519540185 101.56850154748949 0 324 0
49.0210205011655376 88.1806508547277303 0 330 0
49.8611605245027931 92.8854349854161683 0 331 0
49.7010783082311605 98.9754533317305629 0 332 0
50.0341005194600825 106.283114231393142 0 333 0
50.1972165338376044 111.368515498835052 0 334 0
53.2217206178516449 96.582051088099945 0 339 0
59.9428408045494052 105.991619349476878 0 342 0
52.0455245851795212 86.8364268173881442 0 343 0
60.1108688092168677 92.3813509714138377 0 345 0
25.4970998477232911 89.8609309014021562 0 346 0
18.6079516563580682 92.8854349854161683 0 348 0
8.35824337164396525 94.7337430367580566 0 349 0
-1.55540890373526963 97.4221911114371437 0 351 0
-20.7106014358239463 98.9344431534441355 0 352 0
-26.8459216923953647 100.75560998276336 0 353 0
-28.4398896505263963 101.958947237458176 0 354 0
6.17387931096718034 106.327675358811717 0 355 0
-1.21935289440037309 110.192319466162957 0 357 0
32.2182200344210514 14.0803007963846483 0 358 0
34.5706120997652988 47.5178737252061296 0 364 0
34.4082894825341441 51.8179009238101855 0 365 0
35.914836137104885 55.2471619399085796 0 366 0
43.1400403378049759 59.9519460705970175 0 369 0
45.3244043984817608 60.7920860939342447 0 370 0
-17.5180693471425002 46.3416776925340059 0 371 0
-22.2228534778309381 49.534209781215452 0 372 0
-1.38738089906783557 52.39068586056203 0 373 0
-8.94864110910282307 55.4151899445760137 0 375 0
48.6849644918306694 57.4315260005853361 0 376 0
51.5995094334429041 53.6720570640854078 0 377 0
55.6620980935890657 49.2788508660436833 0 378 0
59.270728785879669 45.1654816598618822 0 379 0
38.4352562071164812 50.7104058138875757 0 380 0
48.6849644918306694 53.3988538885666912 0 382 0
55.2380566738609673 55.2471619399085796 0 383 0
58.7666447718772815 56.2553299679132408 0 384 0
-63.5238402148817443 135.578071245768911 0 385 0
-72.8860600626132111 147.854102744499528 0 388 0
-76.1500443189489147 151.479084564408709 0 389 0
-54.6424597215159906 134.004172078994458 0 390 0
-19.8606627553549515 130.811639990313012 0 410 0
-20.0712799954270054 135.616749059745217 0 411 0
-21.2048867926945377 141.39740428436204 0 412 0
-24.2293908767085213 158.200204751106469 0 413 0
-6.25039437729196834 131.987836022985107 0 429 0
-6.75447839129429894 137.700788181678234 0 430 0
-7.09053440062916707 143.077684331036465 0 431 0
-7.76264641929896015 150.134860527069151 0 432 0
-6.58645038662683646 173.658781180511369 0 436 0
-7.2580888752392525 191.171388225388625 0 437 0
-7.42659040996403519 203.73579401598397 0 440 0
-8.77081444730362136 209.616774179344588 0 441 0
-9.27489846130595197 213.817474296030696 0 442 0
-9.44292646597341445 186.260881530569748 0 447 0
-27.7579789747248356 228.771966711433265 0 456 0
11.7135500730495892 142.364686299934505 0 457 0
9.35831589059597491 148.837104512243968 0 458 0
7.04511553205423979 154.341187034949257 0 459 0
5.00748193542682429 158.872316769776262 0 460 0
2.48706186541517127 163.073016886462369 0 461 0
0.302697804738386367 166.60160498447874 0 462 0
-4.40208632595005156 177.18736927852774 0 465 0
58.6117526625877758 196.282132076313815 0 477 0
59.008267016467812 200.60090633599242 0 478 0
59.2718346829979055 204.570527735287044 0 479 0
59.6143687282084329 208.605774130073826 0 480 0
59.6021044557482469 212.795486050364673 0 481 0
59.9526394616812013 216.505922370709754 0 482 0
60.4567234756835319 220.538594482728456 0 483 0
60.7927794850184569 224.571266594747158 0 484 0
61.4648915036882499 225.579434622751819 0 485 0
63.496078212580926 184.672655281060543 0 496 0
64.4832041761526398 190.223077876754871 0 497 0
66.0016476297092254 194.326225754607094 0 498 0
67.5138996717162172 198.862981880628126 0 499 0
69.5302357277255965 203.903822020651432 0 500 0
17.4415542808177406 143.581768345038824 0 509 0
18.9538063228247324 147.446412452390035 0 510 0
24.6667584815178316 159.712456793113461 0 511 0
47.1825111069554168 201.551429955307185 0 520 0
50.6445060623137238 205.922319152562181 0 521 0
53.5675752843183091 209.448746174677126 0 522 0
54.4077153076555646 209.784802184011994 0 523 0
1.64692184207797254 182.396237423218508 0 524 0
27.8207670306841806 197.811358578317879 0 531 0
31.7239346775505169 201.551429955307185 0 532 0
6.35170597276641047 162.736960877127501 0 533 0
16.3590811377263208 164.769489187280158 0 535 0
21.6422543975038479 165.929492965808947 0 536 0
-18.5164387180154222 147.782468461724932 0 537 0
-11.6272905266501994 146.438244424385346 0 539 0
-0.705470223266274843 145.934160410383015 0 540 0
4.16734191208962557 147.446412452390035 0 541 0
12.7367701501293027 151.143028555073812 0 542 0
17.6095822854852031 152.48725259241337 0 543 0
27.3552065561969471 153.663448625085493 0 544 0
31.1721246939712273 154.166901889142878 0 545 0
33.7402707335598393 155.175700667092485 0 546 0
37.2737754156237315 138.346891443022884 0 549 0
36.5967468129064173 142.405572312366701 0 550 0
5.67959395409661738 139.213040223685255 0 551 0
-1.54561024660347357 136.692620153673573 0 553 0
-11.4592625219827369 132.491920036987466 0 554 0
-16.2848311411383975 131.978356498183501 0 555 0
-25.5736149140481075 130.475583980978115 0 556 0
-30.6144550540714135 133.164032055657231 0 557 0
-32.9668471194156609 136.692620153673573 0 558 0
146.125086827537984 166.259385303722183 0 569 0
148.981562906884562 170.460085420408291 0 570 0
-28.2625371172979385 233.272135916066873 0 601 0
-29.0842722742781632 238.389553629446254 0 602 0
-29.763150059367689 243.697417348860711 0 603 0
-30.2540478778664976 249.199742659846436 0 604 0
-31.2948301132647373 255.384636507616449 0 605 0
-31.9197265266317629 260.627312474097437 0 606 0
-32.7853454722717288 265.654730833022995 0 607 0
-33.807461271323632 275.11110907826037 0 609 0
-34.1435172806585001 279.98392121361627 0 610 0
-34.1322442351163602 284.017884362177881 0 611 0
-34.3103597895520522 289.198893024040899 0 612 0
-34.6476012946608307 294.266301610348989 0 613 0
-34.3115452853259626 298.635029731702502 0 614 0
-33.9754892759910376 301.995589825051411 0 615 0
-33.6016412610684938 305.201816953944103 0 616 0
-33.3033772573213014 305.35614991840032 0 617 0
-15.3243807579048053 237.640864037420442 0 619 0
-17.1726888092466652 242.849732182111154 0 620 0
-18.684940851253657 248.394656336136791 0 621 0
-20.1971928932606488 255.283804527502014 0 622 0
-20.9190987453205821 259.936303021862784 0 623 0
-22.2024329759287866 265.308812918066621 0 624 0
-23.0536689726072268 270.910408961574319 0 625 0
-26.2462010612886161 293.594189591679196 0 630 0
-26.6904932939136188 297.859742295553247 0 631 0
-26.9183130799584092 301.155449801714212 0 632 0
62.808641412456609 230.247631832052889 0 635 0
63.6703229057146132 233.390825126767538 0 636 0
69.5297615991543694 251.251132415483369 0 640 0
71.3728458055883834 255.718130034510068 0 641 0
73.5624337111730142 260.660700676860188 0 642 0
76.0828537811846672 266.037596826218419 0 643 0
79.3271896711783029 271.767826495776546 0 644 0
82.299889953880097 276.959417129602286 0 645 0
86.5005900705662043 282.336313278960461 0 646 0
89.9754376008276608 287.150479029893631 0 647 0
92.8856542479290965 290.905741517000138 0 648 0
96.4142423459454108 295.610525647688519 0 649 0
109.774194895217136 257.483592815481302 0 661 0
109.856482719340875 256.964084574176468 0 662 0
55.24738120242165 220.333979556673683 0 663 0
36.2072819059260382 230.821015472539955 0 668 0
36.0921886703330301 230.919743850722625 0 669 0
57.0956892537635099 229.575519813383096 0 670 0
40.7969728010214681 234.112275939404071 0 673 0
39.4527487636818819 235.120443967408733 0 674 0
26.010508390286418 278.975753185611609 0 683 0
25.5371089091358954 279.830035993701699 0 684 0
72.554265683168353 269.734212928902195 0 685 0
67.8494815524799151 272.758717012916179 0 686 0
62.9766694171240715 275.11110907826037 0 687 0
58.0583730671041849 277.861569943637164 0 688 0
33.9078246096562452 286.873069404981493 0 693 0
32.3955725676492534 289.225461470325683 0 694 0
68.5215935711497082 258.140280606848592 0 695 0
62.9766694171240715 278.471669171609278 0 697 0
59.0716398958970785 288.691568163707188 0 699 0
57.9358292771007086 291.913909545004799 0 700 0
82.299889953880097 286.032929381644237 0 701 0
70.0658875081353472 303.156293179380611 0 705 0
69.8658176084892375 305.188121913732857 0 706 0
89.3570661499127255 292.92207757300946 0 707 0
-41.2006934766911286 278.975753185611609 0 712 0
-47.4177296493865583 281.496173255623262 0 713 0
-48.7619536867261161 282.840397292962848 0 714 0
-8.93931658054191303 269.566184924234733 0 715 0
0.134195671500037861 274.438997059590633 0 717 0
1.31039170417216155 275.951249101597625 0 718 0
-4.2345324498534751 210.084271271959608 0 719 0
5.67911982552567451 221.846231598680674 0 722 0
7.52742787686759129 225.542847701364451 0 723 0
-12.4679046785582273 250.410992392146113 0 724 0
-3.66063713473505459 255.549879874471515 0 726 0
-1.71411237984182208 256.460000560174137 0 727 0
-40.696609462688798 292.41799355900713 0 728 0
-46.9441212507869636 293.735458648836413 0 729 0
-50.2742057287331079 295.442497643021113 0 730 0
-20.8693049119304419 297.29080569436303 0 731 0
-10.8619711602353277 297.279939916478952 0 733 0
-6.75495251986512812 297.458833699030436 0 734 0
-32.6312652386515083 230.583687841387757 0 735 0
-36.4959093460026907 235.288471972076195 0 736 0
45.6697849363773116 207.395823197280492 0 737 0
35.9189811381004915 214.685841369113632 0 739 0
34.5799366283260383 216.469335449322443 0 740 0
72.8903216925032211 199.498506977910665 0 741 0
94.4686015274922966 205.38558113724423 0 746 0
94.565934294603494 205.37948714127117 0 747 0
70.5379296271590306 189.920910711866327 0 748 0
96.8084380609650452 190.008906648554046 0 753 0
96.9183263599477414 190.088938716533789 0 754 0
-81.6564496580538162 338.731686647008019 0 790 0
-82.5044481820607416 341.940027400241149 0 791 0
-34.1123828378369467 312.367098578771049 0 792 0
-34.7844948565066829 317.74399472812928 0 793 0
-35.1205508658416079 323.456946886822379 0 794 0
-32.4321027911624924 334.546795194873653 0 797 0
-29.0715426978136406 356.894519815643662 0 798 0
-19.9980304457716329 399.573633001174358 0 807 0
-19.4939464317693023 404.446445136530258 0 808 0
-31.7599907724926993 350.845511647615695 0 809 0
-28.56745868381131 314.71949064411524 0 822 0
-28.5977574839546946 319.212759122360808 0 823 0
-29.5078578500136359 325.193803724293957 0 824 0
-30.41576673515317 337.571299278887636 0 827 0
-38.9851949731927903 306.65414642007795 0 828 0
-43.2351419333339777 310.553714606245592 0 829 0
-45.5382871552230881 313.207238602108305 0 830 0
-39.4892789871951209 318.416106746799016 0 831 0
-48.9921513617532014 323.217395183502219 0 833 0
-51.5872953232510838 325.641310947499107 0 834 0
-23.190562534453079 320.600470807475801 0 835 0
-7.69566439139575209 324.149667646910302 0 838 0
-2.85917396969239235 325.137226933496777 0 839 0
-36.6328029078485997 343.284251437580735 0 840 0
-50.856422666426198 349.190147454923022 0 843 0
-55.3712982199141095 349.346745896735627 0 844 0
55.0449788763646666 332.520660481732477 0 851 0
54.7089228670297416 333.696856514404601 0 852 0
107.469716332607277 313.197439944976395 0 854 0
108.813940369946806 314.877719991650849 0 855 0
111.502388444625922 319.918560131674155 0 856 0
114.526892528639905 324.455316257695131 0 857 0
117.383368607986426 327.479820341709171 0 858 0
124.440544804019112 339.745864682432568 0 861 0
126.792936869363302 343.442480785116345 0 862 0
129.313356939375012 346.971068883132716 0 863 0
132.001805014054071 350.163600971814105 0 864 0
135.255125184313158 353.939389333622216 0 865 0
137.714757172747227 356.884721158511866 0 866 0
145.700056364678062 367.69130644856034 0 869 0
147.964465457461301 372.511325592584228 0 870 0
150.484885527472954 378.224277751277327 0 871 0
151.661081560145078 382.929061881965765 0 872 0
153.005305597484607 388.137930026656534 0 873 0
156.197837686166054 394.186938194684501 0 874 0
169.640078059561631 409.813542628756863 0 877 0
173.297677017677074 414.65328867811229 0 878 0
175.704253545902816 420.980624383990175 0 879 0
102.764932201918782 318.910392103669494 0 881 0
95.2700571072936668 327.884930974306144 0 883 0
93.6914199498768312 330.336296421055692 0 884 0
108.981968374614212 326.303624309037048 0 885 0
104.06737674034423 328.510198363880534 0 886 0
102.764932201918782 329.832212407053362 0 887 0
123.096320766679582 347.139096887800122 0 888 0
97.303604752742217 354.330408103564992 0 893 0
95.203671991883823 355.036413107170006 0 894 0
141.747429284765872 350.49965698114903 0 895 0
145.464911619334316 347.276921885107072 0 896 0
146.45221341545431 346.971068883132716 0 897 0
142.755597312770533 376.039913690600542 0 898 0
138.153308562129666 379.573843396407483 0 899 0
133.575919572524128 381.718499449649414 0 900 0
146.95629742945664 390.154266082665856 0 901 0
133.978160594046585 407.674104603511296 0 905 0
132.169833018721533 410.149598638091675 0 906 0
168.631910031556913 418.382970866796541 0 907 0
167.455713998884846 421.239446946143062 0 908 0
-13.3424190232851458 401.916226409386923 0 909 0
3.29321763706735737 409.477771705619489 0 913 0
5.98080151347093647 410.317626642759137 0 914 0
-18.519441532297833 410.9476992614766 0 938 0
-191.089442445214587 608.774383033063486 0 1056 0
-190.875323425377928 608.988502052900003 0 1057 0
-72.1114674843390162 886.559793660124342 0 1140 0
-70.6126343454825474 888.272745818817498 0 1141 0
0.115519253208731243 983.725787631271942 0 1178 0
1.61435239206520009 989.07876312718804 0 1179 0
317.988926492922928 982.07510274486981 0 1300 0
319.273640611942824 984.644530982909373 0 1301 0
-30.7519154417497873 344.737547884693413 0 1302 0
-35.0087606777427709 241.195364666660794 0 1303 0
-5.7743313049047913 181.248742517510323 0 1304 0
65.6169075060548721 218.551010538099149 0 1305 0
67.3298596647479144 221.976914855485347 0 1306 0
-22.8851668393689636 150.722958543405184 0 1307 0
21.9685781945104281 154.738784262857166 0 1308 0
14.9875850017576511 133.688585520616584 0 1309 0
-51.4595410523969292 122.730202111241937 0 1310 0
-8.19251508809932716 99.7745831767813911 0 1311 0
18.7320923778940482 100.293771500276364 0 1312 0
22.8003537547901942 98.5808193415832648 0 1313 0
41.6428275004143416 100.722009539949653 0 1314 0
44.1051962285356467 104.040854347417536 0 1315 0
54.5970282005309286 107.680877684640393 0 1316 0
57.8088134980804966 110.571484452435016 0 1317 0
63.804146053506372 118.06565014671736 0 1318 0
77.8623412026190067 133.627938272936746 0 1323 0
82.1113222495389437 137.871659481606372 0 1324 0
64.8747411526895803 110.892662982189961 0 1325 0
72.6887128281110222 121.062106442639617 0 1328 0
75.901870674276438 124.16804221206155 0 1329 0
-38.6895979352405277 87.6765668407253713 0 1330 0
-34.9929818325567226 66.5050382526273438 0 1331 0
-12.0571591954505379 56.2553299679132408 0 1332 0
-14.3051695892394264 65.4783733824347109 0 1333 0
-15.2496912841320125 30.1269752421256101 0 1334 0
-12.8031013818432484 66.999873845535717 0 1335 0
-11.7211031861156698 108.93210943115713 0 1336 0
-7.73043807526386217 104.395353305136098 0 1337 0
-13.191348226955796 56.5913859772481374 0 1338 0
-14.3153534238502402 61.2029076845088582 0 1339 0
-16.8456387247540533 81.5913104378459479 0 1340 0
-11.8471241896162383 100.026625183782556 0 1341 0
62.9561779768589531 90.229724781606933 0 1342 0
62.0431908628925157 111.032459489500184 0 1343 0
3.23338922928689954 50.794419816221307 0 1344 0
4.24155725729156075 54.9111059305736831 0 1345 0
50.0291885291701988 72.6380604229890992 0 1346 0
47.5087684591585457 79.9472786260229213 0 1347 0
42.2158863121339891 84.904104763712553 0 1348 0
47.0886984474899464 85.7442447870497801 0 1349 0
35.2427241184350351 88.0966368523939991 0 1350 0
29.6977999644093984 93.1374769924173336 0 1351 0
13.4830975140010025 96.4140230834324825 0 1352 0
11.6347894626591142 101.202821216454652 0 1353 0
12.8949994976649691 100.61472320011859 0 1354 0
11.8028174673265767 102.883101263129106 0 1355 0
49.4410905128341938 90.5330429200719493 0 1356 0
10.535932981822782 145.600895406089251 0 1357 0
13.3505675374036059 138.026635910275559 0 1358 0
54.8263865393907963 203.261612744277272 0 1359 0
-28.6734046957880651 235.830844772756564 0 1360 0
-29.4237111668229261 241.043485489153454 0 1361 0
-23.1284805417624284 240.619642905778733 0 1362 0
-32.0465164760104813 239.792459148053524 0 1363 0
-24.2240454553106588 246.046036842498779 0 1364 0
-27.0610797512802606 262.968062696082029 0 1365 0
-34.4795732899933967 296.450665671025718 0 1366 0
-30.5010192896197907 298.247386013627874 0 1367 0
-17.9288148302501611 245.622194259123944 0 1368 0
0 1 1 5.38516480713450374
0 2 2 4.88996165426921081
0 11 3 5.52543101386684743
1 5 4 31.6003238466281999
2 3 5 76.0768863922874772
3 4 6 0.840140023337210051
5 6 7 4.03617117741622078
6 7 8 3.71185994509909811
6 183 9 4.32846812854596052
7 8 10 25.0971032500379145
8 9 11 8.06709432587503095
9 10 12 7.17798285485911869
9 83 13 6.70943395026349343
10 81 14 57.2726536585939812
11 12 15 9.39342645464456893
12 13 16 4.29376489344692036
13 14 17 3.9334347424588807
13 97 18 4.74363026077712924
14 15 19 5.11037225415952889
15 16 20 4.68674655323529077
16 65 21 4.04665022017758247
16 471 22 2.28233744438467889
17 18 23 4.08829780332763004
17 39 24 3.69661610268377672
17 471 25 2.28233744438467889
18 19 26 3.39815609326321688
19 20 27 4.53986668937994509
20 21 28 4.20405933362972473
20 148 29 5.4860564557603011
20 189 30 4.35902341898362167
21 469 31 7.86013741635017382
22 23 32 4.36872812135354138
22 469 33 7.9334311636492858
23 24 34 4.80143878801183099
23 146 35 3.21387243630645569
23 472 36 2.13803006501006498
24 25 37 19.0425621388515971
25 454 38 7.72974479905557832
26 27 39 6.60245299750745485
26 182 40 6.16229964576077638
26 473 41 4.45353463808772609
26 474 42 4.64381650637558963
27 28 43 10.1055090457846646
28 209 44 6.50497551210755098
29 54 45 4.74363026077716654
29 475 46 1.18292789323648639
29 476 47 4.27547782646898789
30 31 48 5.97885538871900035
30 470 49 9.9321700013411256
31 32 50 5.29208602654852633
31 477 51 2.36156225290686095
32 33 52 9.58022106295408449
33 34 53 4.06405524768375237
34 35 54 4.56467488876938621
34 178 55 5.37952094626796562
34 478 56 3.66328989546058548
35 36 57 4.03617117741624831
36 37 58 4.23083705234547836
36 135 59 6.92797211305652016
36 473 60 4.45353463808772609
37 38 61 12.0188295050244598
38 205 62 6.16833873688016876
39 40 63 12.9626263595603657
40 41 64 4.30689570359060792
41 42 65 5.15438057788944626
41 59 66 5.55509833534090713
41 190 67 3.24515978982408226
42 43 68 4.78216084898278648
43 468 69 10.9218203033838623
44 45 70 5.18714180121904977
44 468 71 7.67981733027681823
45 467 72 9.35238500448499899
46 47 73 11.3719375312549253
46 467 74 10.3919581695847931
47 453 75 15.5612579796997625
48 49 76 6.78175681252721496
48 138 77 5.5855096848486161
48 477 78 2.36156225290683031
49 50 79 27.9391097852000847
50 453 80 17.5254978539325847
51 52 81 66.1996096451109963
51 468 82 7.07369639817081897
52 53 83 1.52155829625647665
54 55 84 9.48663697190944077
55 468 85 8.61379140718126735
56 57 86 43.4348060547557253
56 468 87 6.56170334498577201
57 58 88 2.75586418112877141
59 60 89 8.73745624270713961
60 61 90 5.16910590568174655
61 62 91 6.23609922938875894
61 77 92 4.54185372484169303
61 78 93 4.05557216580674229
62 63 94 6.71821480068889088
63 64 95 2.71457549204444737
65 66 96 4.13294244616063366
66 67 97 4.12775807036195097
66 73 98 3.15695959024511064
67 68 99 5.4455212107748423
68 69 100 3.66067668840099891
69 70 101 4.70912907401683167
69 76 102 2.35443092582006441
70 71 103 34.2111415032067043
71 72 104 2.21734156170788799
73 74 105 23.2591441434451909
74 75 106 0.818867344408382047
76 77 107 13.4839164910419136
78 79 108 16.4338186440771175
79 80 109 2.4233343461695096
81 82 110 6.68954074722239689
83 84 111 41.565907793981161
84 85 112 4.4835463832770035
85 86 113 5.37689614935820259
85 150 114 4.89881606101350897
85 151 115 6.71481618013327175
86 87 116 5.14621834360020003
87 88 117 5.63089821652977207
88 89 118 6.32731980224463442
88 154 119 4.84958047913954449
88 158 120 5.84486325986783939
89 90 121 5.2807185288217946
90 160 122 4.54881632437298222
90 161 123 4.50983189325117095
90 479 124 2.70106718841904803
91 92 125 5.21157756913650605
91 173 126 2.40579490444785771
91 479 127 2.70106718841908622
92 93 128 5.06598164331881229
93 94 129 4.8843865272807605
94 171 130 3.22771256776078941
94 464 131 3.75989028229478883
94 480 132 3.05353627273702033
95 96 133 5.05202958806463709
95 460 134 5.16696286881589906
95 461 135 4.56359934428637448
95 480 136 3.0535362727369999
96 236 137 65.9949597107670627
97 98 138 23.2006544785757995
98 99 139 4.61389113501851522
99 100 140 3.1569595902450982
99 147 141 3.79088457611597862
100 101 142 4.16017794644609751
101 102 143 4.24083510579660494
101 106 144 7.13871877064110016
101 481 145 1.61604160144730025
102 103 146 11.5097647313651237
103 104 147 4.09174930061040687
104 105 148 3.75722040560058668
104 122 149 4.99583173772202205
105 106 150 43.9029126054997221
107 191 151 4.87281213535590041
107 481 152 1.61604160144730025
107 482 153 2.63139580621314462
108 109 154 3.59595633197281872
108 145 155 3.68514183981612709
108 482 156 2.63139580621314462
109 110 157 13.1532077618982388
110 111 158 4.87281213535590929
111 112 159 4.90745341605008534
111 123 160 4.06405524768374882
111 124 161 7.2797054357772808
112 113 162 34.833126323832488
113 114 163 4.25080964354019297
114 157 164 3.09828331820347236
114 483 165 3.95223155666939574
115 159 166 3.61943398939258243
115 483 167 3.95223155666936732
115 484 168 4.10208636794785342
116 484 169 4.10208636794787651
116 485 170 3.34582533984896635
116 486 171 3.10965320345198704
117 162 172 4.57085590025182054
117 485 173 3.34582533984891617
117 487 174 4.33710844311835864
118 174 175 5.71542262460692108
118 487 176 4.33710844311830623
118 488 177 3.76191399944257032
119 120 178 5.80122617557762155
119 456 179 5.74416144916012517
119 488 180 3.76191399944257032
120 121 181 27.2743672929100676
121 452 182 7.08010409833767529
122 123 183 13.7356230913733235
124 125 184 6.27354557100025101
125 126 185 7.01906696542725594
126 175 186 4.4835463832770035
126 176 187 5.94068707647971994
126 489 188 2.63139580621314462
127 489 189 2.63139580621314462
127 490 190 2.51761804572127934
127 491 191 1.68866054777294861
128 129 192 4.83792281689583348
128 181 193 5.2196974040823747
128 490 194 2.51761804572127934
128 492 195 1.3906791898737354
129 130 196 17.9058497866586244
130 131 197 3.68897055964343057
132 133 198 6.4400993631974579
132 455 199 6.01192357458018289
132 491 200 1.68866054777294594
132 492 201 1.39067918987370964
133 134 202 16.7535242430135689
134 452 203 8.37409278236704502
135 136 204 8.67490552325747366
136 137 205 3.67492498401952128
138 139 206 10.9040013012692167
139 467 207 4.20405933362975137
140 141 208 4.08165393511454067
140 467 209 5.75235229564014894
141 142 210 3.36182827706019216
143 144 211 10.6139556466207932
143 470 212 3.38097835971940919
144 468 213 8.39868591844324186
145 146 214 13.6282031105341783
147 148 215 4.70778367458940217
149 150 216 11.50514800168229
149 188 217 6.89733980923086332
151 152 218 6.1070725454739847
152 153 219 3.52858809801637108
154 155 220 21.7650717543474883
155 156 221 0.171773236743592822
157 158 222 9.25288921546529508
159 160 223 9.53392845499182329
161 272 224 110.663568423036196
162 163 225 5.1895422677549865
163 164 226 5.51533015407540095
163 457 227 6.00122558511958193
164 263 228 37.1307374451878545
165 172 229 3.30976784937838264
165 486 230 3.10965320345195195
165 493 231 2.3896039930912707
166 167 232 6.09212194349492187
166 170 233 4.99583173772194122
166 493 234 2.38960399309126048
167 168 235 7.31524515089064487
168 169 236 5.08801659638077286
168 458 237 6.33874084327703713
168 459 238 4.77221664364855158
169 227 239 85.6129225856251139
170 171 240 11.5758648636532602
172 173 241 9.78852405804650161
174 175 242 7.52920632990092642
176 177 243 10.3453551603059086
177 454 244 7.04165654740546021
178 179 245 6.39990650485678714
179 180 246 1.99718662124621349
181 182 247 8.37223081201693553
183 184 248 34.6194131847765476
184 185 249 4.30308988295613215
185 186 250 3.74559927634156864
185 197 251 4.17648254149300691
186 187 252 8.65760793649671001
187 188 253 2.34035929044868007
188 193 254 4.75254966118382072
189 190 255 5.68570618776933312
191 192 256 8.20146916125177228
192 469 257 3.22004968159870719
193 194 258 4.75690854454711598
194 195 259 5.98371851945430411
194 198 260 2.92732167548955502
194 199 261 3.96484317351844728
195 196 262 5.47193034492458263
197 198 263 10.6712593055990155
199 200 264 3.66978701536658614
201 202 265 15.4478197125089114
201 453 266 17.6242746114517495
202 203 267 4.87791824657603446
204 437 268 513.150692272993751
204 453 269 11.7146647450113761
205 206 270 4.80972273535130146
205 268 271 3.76135602449011452
205 269 272 5.72282762355523733
206 207 273 5.89075879634371979
207 450 274 9.47572178114205421
208 365 275 191.227347029718743
208 450 276 7.59711452547246413
209 210 277 5.73514804174130877
209 266 278 6.65356952565736126
209 267 279 5.23320246521639731
210 211 280 5.38738766401615532
211 212 281 7.0891092830828013
211 255 282 5.64584097260969564
211 256 283 6.99489100279067255
212 213 284 23.563861528714714
213 447 285 7.63328569490465281
214 215 286 12.5806697184653302
214 447 287 10.0329673761853986
215 216 288 6.03264999352710873
216 217 289 4.23083705234547836
216 342 290 4.56030787250091141
217 290 291 24.7894241430806268
218 219 292 46.7093751423418766
218 447 293 6.21129036046846039
219 274 294 4.52836634886903688
220 265 295 6.80745910273336197
220 494 296 3.44381059181662685
220 495 297 4.63664828963985443
221 222 298 5.97041207250449535
221 257 299 5.374033424800297
221 258 300 4.09038370755845104
221 494 301 3.44381059181660021
222 223 302 4.96820765950239007
223 224 303 4.89881606101354095
224 225 304 4.1499855801001484
224 251 305 3.87922772184035791
225 226 306 11.6330561417364002
226 447 307 4.28693467043648457
227 228 308 4.33693840616804138
228 229 309 3.97836171917259529
228 496 310 4.95655958459554569
229 230 311 4.0497583926412215
230 231 312 4.18972987045778389
231 232 313 3.72695753634521143
231 247 314 6.00382344551697589
231 448 315 8.32489746861119606
232 233 316 4.06405524768378079
233 234 317 4.04665022017760911
233 314 318 5.21335920381069329
234 235 319 1.2116671730847508
235 300 320 4.85774937622776815
236 237 321 5.63751795196712013
237 238 322 4.3750992022092543
237 362 323 6.06226074023555395
238 239 324 4.7821608489827776
239 240 325 5.42915098408891605
239 359 326 5.41385314677812346
240 312 327 69.5811108822067013
241 242 328 4.14998558010009866
241 452 329 10.1929893367948701
242 451 330 7.89097814344983028
243 244 331 47.5911190620619138
243 451 332 5.65840925520781024
244 245 333 5.57584804721279959
245 246 334 4.5803953125175747
245 356 335 5.1883585507016825
245 496 336 4.95655958459562385
246 247 337 0.904858497348177249
248 249 338 30.8352675552373583
248 447 339 7.50944357660591333
249 250 340 5.405816458641449
251 252 341 10.2236763969044624
252 253 342 5.40902287470014009
254 255 343 7.05030728077309377
254 450 344 5.26614349583878916
256 257 345 5.10207843383714899
258 259 346 5.05482307989440827
259 451 347 4.90614310817673616
260 261 348 3.84997782585306769
260 451 349 5.49291469447573011
261 262 350 2.75917543027754819
263 264 351 4.11476100497645447
265 266 352 8.82180517724824043
267 268 353 4.85281979951540343
269 270 354 5.71295215869308937
270 271 355 4.24083510579663603
272 273 356 5.07989537906105593
274 354 357 5.12967235294334678
274 497 358 2.59148667377561592
275 497 359 2.59148667377561148
275 498 360 2.67555098582346806
275 499 361 6.35961896197530763
275 500 362 3.27765687722730847
276 277 363 5.52417998404478539
276 498 364 2.67555098582352402
276 501 365 6.0164518896590975
277 278 366 6.2718529614224785
278 279 367 5.27978662608218752
279 280 368 5.10139505573844065
279 502 369 5.3931030111944338
280 281 370 9.51483836680643691
281 282 371 4.8843865272807605
282 283 372 4.03397889998310522
282 336 373 7.12882449177565114
283 284 374 5.18406943481967186
284 285 375 5.07861808106860835
285 348 376 6.32508833689492445
285 503 377 2.19081714433876096
286 287 378 3.37732109554589721
286 503 379 2.1908171443388178
286 504 380 3.83019268655184408
287 288 381 3.22794899902538779
288 289 382 0.335827455472522296
288 379 383 5.57601214574788351
289 367 384 7.05747059134216848
290 291 385 5.5270742713870602
291 499 386 6.35961896197531473
291 505 387 2.873721024753908
292 293 388 7.05317439463572615
292 345 389 6.53583581979892347
292 501 390 6.01645188965904865
292 505 391 2.87372102475396307
293 294 392 4.7081727134067215
294 295 393 5.52365905286151015
295 296 394 5.66590513128151763
295 339 395 13.9296616224689398
295 502 396 5.39310301119440805
296 297 397 22.9366207907933877
297 298 398 4.28862862200705486
298 299 399 3.30357228180029772
298 351 400 5.84892494692056975
298 504 401 3.83019268655184408
299 375 402 13.7325536445365675
300 301 403 3.25916539680981465
300 317 404 5.75235229564015249
301 302 405 18.806371215679583
302 303 406 4.83229004928271078
303 304 407 5.40585791072090327
303 328 408 3.7411833287706413
304 305 409 5.9383103262039878
305 306 410 6.58492577277717306
305 322 411 5.11037225415951291
306 307 412 5.98243765366614344
307 308 413 6.82326121963020249
308 309 414 5.93723481395355268
308 332 415 5.5956100722751998
309 310 416 4.75093225379352901
310 311 417 5.88098016336049412
310 335 418 4.06405524768377369
311 393 419 20.8827022654743288
312 313 420 0.525984884557209487
314 315 421 21.7702658300749192
315 316 422 0.151636887127928277
317 318 423 16.9871004468517626
318 319 424 1.68028004667446562
320 321 425 0.976681209480285917
320 328 426 48.5853963012574965
322 323 427 5.59308668541754539
323 324 428 5.4109191950689377
324 325 429 5.635128566287392
324 329 430 3.36056009334890859
325 326 431 25.8574551671176209
326 327 432 2.79654334270874916
329 330 433 11.10541039781371
330 331 434 3.4166576854279076
332 333 435 21.1096849683832879
333 334 436 2.04165520362372988
335 391 437 52.5683918028844914
336 337 438 6.70850624967443743
337 338 439 1.90101986447354032
339 340 440 10.3286849254681208
340 341 441 1.91581401650263539
342 343 442 15.4640226159123042
343 344 443 4.1329424461606461
345 346 444 10.2051639379171064
346 347 445 2.14878530429542236
348 349 446 6.38491329661918083
349 350 447 3.74211768360175379
351 352 448 10.0121375518726818
352 353 449 4.11091292753615267
354 355 450 6.08855219184840202
356 357 451 12.1808234037599021
357 358 452 2.23022226096346277
359 360 453 22.4377489251892506
360 361 454 0.0975233527953293378
362 363 455 26.5871523408320343
363 364 456 0.135943260805472588
365 366 457 3.31851651880391518
367 368 458 5.41874033024499902
368 369 459 5.72282762355518226
368 382 460 4.75254966118378075
369 370 461 11.4441662321750108
370 445 462 10.3283333560742108
371 372 463 43.9332165991026216
371 445 464 12.2725555239516311
372 373 465 4.89881606101356226
373 433 466 6.65156344512466102
373 436 467 6.57388507628675622
374 439 468 544.198757798943802
374 445 469 6.19059263735097876
375 376 470 4.49337063181809793
376 377 471 6.04989067724486063
376 385 472 5.58242787171679211
377 378 473 12.4545416943212306
378 445 474 7.17412817233981492
379 380 475 5.76790093557301908
380 381 476 3.51364020778022468
382 383 477 10.6516584361888569
383 384 478 3.55107586681156961
385 386 479 15.9353479354508778
386 387 480 4.93628533856700091
388 389 481 15.5776132208081712
388 445 482 6.05779728549152097
389 390 483 4.51759054535278981
391 392 484 1.22326233845555743
393 394 485 2.15180837850717799
394 395 486 5.71295215869308937
394 413 487 7.27000303850848972
395 396 488 5.45250227888133132
396 397 489 4.16017794644609928
396 416 490 5.84486325986783939
397 398 491 14.1612892330251885
398 399 492 4.38163428867760452
399 400 493 4.33629465036459738
399 419 494 5.22780462730213102
400 401 495 4.17372905056208587
401 402 496 4.98404152103292475
402 403 497 3.83728668165878917
402 422 498 7.34722881019815777
403 404 499 13.6895792837081949
404 405 500 5.32542327784714153
405 406 501 6.24422450724136624
405 425 502 6.29152138311844578
406 407 503 4.84958047913955159
407 408 504 5.37952094626795141
408 409 505 6.83979246425867604
408 428 506 6.3762144653102979
409 410 507 20.6697620430639333
410 411 508 6.06639695046892147
411 412 509 6.76954856109949699
411 431 510 5.97326634240909726
412 443 511 596.598487615786098
413 414 512 11.7232750187351513
414 415 513 2.91569679978812646
416 417 514 5.38722377399945351
417 418 515 1.85582405039390674
419 420 516 26.8245206838982782
420 421 517 2.2154369016610862
422 423 518 4.9199284961357943
423 424 519 1.03359126130133783
425 426 520 5.80256158173786218
426 427 521 5.05490252614917068
428 429 522 22.0712208392814411
429 430 523 3.06563522535281763
431 432 524 3.08915727976941668
433 434 525 18.5547868920238663
434 435 526 2.81575272496402507
436 441 527 585.769579190305308
437 438 528 0.302810021814936048
439 440 529 2.27611640214332578
441 442 530 5.55885306857561545
443 444 531 2.87270810178203817
446 500 532 3.27765687722728272
448 449 533 3.83027746904275146
452 495 534 4.63664828963989084
454 474 535 4.6438165063755612
454 478 536 3.66328989546055706
455 456 537 4.41417667620092757
457 458 538 4.13255255372345687
459 460 539 4.32101519131507406
461 462 540 21.0763320292225593
462 463 541 6.00524850726406179
464 465 542 12.9230818575140116
465 466 543 4.46891713373038346
469 475 544 1.18292789323649461
470 472 545 2.13803006501006498
470 476 546 4.27547782646898789
