ply
format ascii 1.0
element vertex 203
property double x
property double y
property double z
property int og_index
property int root
element edge 217
property int vertex1
property int vertex2
property int name
property double len
end_header
0 0 0 1 1
-1 -3 0 2 0
2.74504084013983629 8.572345390898505 0 3 0
6.49183197199511142 15.7777129521587085 0 5 0
7.93879105488542791 18.9626065743098877 0 6 0
9.6621936989496362 23.2712952158693724 0 7 0
13.6971995332553433 47.4813302217036721 0 12 0
14.2736289381562074 52.0927654609101864 0 13 0
14.2736289381562074 57.857059509918372 0 14 0
13.4089848308049113 68.2327887981330719 0 16 0
13.120770128354593 72.8442240373395862 0 17 0
13.1376361457340636 78.1749657116449725 0 18 0
14.8500583430569577 92.4428238039673715 0 21 0
15.4264877479578217 97.6306884480747215 0 22 0
15.7147024504082538 102.818553092182071 0 23 0
15.7147024504082538 109.447491248541468 0 24 0
15.7147024504082538 114.347141190198414 0 25 0
15.7147024504082538 118.670361726954525 0 26 0
0.007001166860959529 -67.5163360560094219 0 44 0
0.583430571761709871 -69.1015169194866701 0 45 0
-3.8838973162195316 2.51983663943991587 0 46 0
-7.63068844807480673 5.97841306884481583 0 47 0
-10.2631483576758455 9.34860999873919241 0 48 0
-12.3862310385065939 13.9043173862310425 0 49 0
-14.4037339556595043 19.2362893815636085 0 50 0
-15.988914819136653 23.7036172695449352 0 51 0
-16.277129521587085 29.1796966161027171 0 52 0
-15.7102103516276657 34.5947311565331574 0 53 0
-14.2596266044342883 38.6907817969661778 0 54 0
-11.8098016336057299 46.3284714119020009 0 56 0
-12.2421236872813779 6.410735122520407 0 57 0
-61.6709451575264893 23.9918319719953388 0 69 0
-65.9837723941552667 25.6038172099658823 0 70 0
4.04200700116666667 2.80805134189029104 0 71 0
29.6071337029731012 16.7030371124430985 0 78 0
33.8722287047839927 17.9393232205367781 0 79 0
39.9247374562426103 19.2362893815636085 0 80 0
83.0128354725786721 23.7036172695449352 0 88 0
86.1831971995331969 23.7036172695449352 0 89 0
-11.9150224465890915 50.8135847131557057 0 90 0
-10.3091297978143075 56.7018577586632659 0 91 0
-8.5961776391212652 63.6607259033540629 0 92 0
-3.56438067296016925 74.9019744447776361 0 93 0
10.3533556164213678 95.5644598590133114 0 99 0
-17.9103550020150806 20.3016243864345824 0 100 0
-20.1586047102997554 22.8710526244742596 0 101 0
-22.3304442343812752 26.3684997101352963 0 102 0
-26.5848438235418598 36.8646560017111824 0 104 0
-23.6915685376043257 53.2759534412770392 0 105 0
-21.6574378491561674 57.1300957983365549 0 106 0
-20.693902259891388 60.8771786454777555 0 107 0
-18.5527120615249714 64.5172019827006125 0 108 0
-15.3409267639754034 68.4784038496784433 0 109 0
-12.3432604862623521 71.5831296373096961 0 110 0
6.39215374944353698 22.442814584800999 0 111 0
-1.85142851426712696 45.6747282370763514 0 115 0
-2.8149641035319064 51.1347632429106511 0 116 0
-2.92202361345027839 55.6312626594800861 0 117 0
-3.45732116304191095 59.6995240363762321 0 118 0
-4.10053835486519347 63.6113183112517788 0 119 0
-4.52791626222506238 65.6948565918021359 0 120 0
34.7629238777982437 24.1557667434940981 0 121 0
33.6923287786150922 67.0866302207402896 0 129 0
32.8358526992685711 72.2254866968196438 0 130 0
32.1974514356356849 77.4011484699824166 0 131 0
31.872317110003678 96.4209359383598894 0 136 0
-14.9126887243020292 51.4559417726655965 0 137 0
-18.5527120615249714 54.7747865801335365 0 138 0
-26.7962943252355217 58.8430479570296825 0 139 0
-46.8164226799613061 88.712651224240858 0 146 0
-47.7799582692261993 92.5667935813003737 0 147 0
-29.4727820731935708 46.4241448065045859 0 148 0
-56.4517785726101238 65.3736780620471905 0 155 0
-59.5565043602414335 67.836046790168524 0 156 0
-28.2951274640920474 53.5971319710320131 0 157 0
-50.0282079775108741 69.3348799290250213 0 163 0
-56.5588380825283821 74.5807959150226623 0 164 0
-24.0127470673592143 24.048707233575783 0 165 0
-41.035209144372061 37.7523245031206898 0 170 0
-44.6752324815950033 42.034704899853466 0 171 0
-18.3387944365796329 37.2086690655673067 0 172 0
-23.9058889523322478 45.9875488788695179 0 174 0
-26.3139111429909462 45.1005963637572904 0 175 0
-1.42183105908316065 63.0038684117176899 0 176 0
8.32058434348391529 70.8192126357550364 0 179 0
19.3477138650708866 72.7462838142847943 0 180 0
25.343046420496762 75.1015930324878127 0 181 0
-6.6677470450807732 93.7299477582754434 0 182 0
-4.09831880704109608 92.3381741293372897 0 191 0
-2.92066419793957266 102.294708551740996 0 193 0
-2.49242615826631209 106.255910418718827 0 194 0
-2.1833998220064359 111.438596922250696 0 195 0
-2.1712476285114235 122.31483690646678 0 197 0
20.5253684741724101 101.652351492231105 0 198 0
27.9647085827588171 103.67075380911794 0 200 0
32.6230930949425328 104.435898750107413 0 201 0
37.815788245242743 103.833593878732898 0 202 0
-9.45129430295708062 85.7004845144014666 0 203 0
-45.1021111057575581 112.89360003365465 0 212 0
-47.8856583636338655 116.533623370877535 0 213 0
-6.02538998557088235 72.9604028341214246 0 214 0
-7.84540165418229662 84.9510679449732322 0 215 0
-21.3196945896478383 66.0062674693608642 0 216 0
-31.0621099922150279 93.4135020084507346 0 223 0
-73.3506164099512716 103.798274470527758 0 224 0
-23.4608847880142548 61.8309465825463747 0 228 0
-32.025645581479921 91.700549849757607 0 235 0
-71.8517832710948596 96.4111682861636723 0 236 0
-50.4041947841246838 97.5769273941631354 0 242 0
-87.2303628106175211 130.913348354200423 0 245 0
-88.9691708158643451 142.837586489777152 0 246 0
-85.5432664984781468 133.523409126883337 0 262 0
-87.1491591472529308 142.730526979858837 0 263 0
-88.0591649815586379 137.377551483942852 0 276 0
-251.068739030575443 468.07518909177918 0 356 0
-249.896732788798317 468.033255542590723 0 357 0
-42.6295215869312187 537.407817969661892 0 412 0
-42.2012835472579582 539.549008168028195 0 413 0
38.4941972260279499 73.9162672920016348 0 414 0
47.4252955497524908 77.5523425950162846 0 416 0
53.2684095947561218 77.7704096490611505 0 417 0
-8.39837160542276706 132.990057051935196 0 418 0
-7.54189552607624591 135.987723329648134 0 419 0
-7.39982565777472701 138.424235218407205 0 420 0
-15.2501802401951636 150.547816678539618 0 425 0
-17.6054894583982104 155.472554134782342 0 426 0
-18.4619655377448453 160.397291591025066 0 427 0
-17.8723416645434554 164.721591511269878 0 428 0
-17.1772514187249499 167.891457285307411 0 429 0
-17.3913704385615802 171.531480622530296 0 430 0
-1.9748010103235174 137.91479450817792 0 447 0
0.80874624755279001 156.971387273638811 0 452 0
1.19292305554472478 162.274609309022935 0 453 0
1.87934134673594144 166.178505126614311 0 454 0
10.0158641005282334 225.703592641200089 0 465 0
15.8083326011031886 242.802668660963093 0 466 0
14.2982444972610665 227.202425780056615 0 490 0
12.7994113584045408 239.83544795041837 0 491 0
33.3548372627219578 112.862869187291068 0 497 0
8.08879292199844713 112.00639310794449 0 527 0
6.00595717491955838 118.126144236289463 0 528 0
1.87934134673594144 125.710010377489425 0 530 0
44.2749072743905572 115.860535465004006 0 533 0
46.8443355124302343 120.14291586173681 0 534 0
49.4079999448888429 125.058686087102501 0 535 0
51.3408349289996977 129.992390774222258 0 536 0
52.8396680678561097 134.488890190791665 0 537 0
63.5456190596880788 165.107910027431103 0 544 0
65.2188652353410134 168.903413567759628 0 545 0
66.3291663175643862 172.387956701876874 0 546 0
56.2655723852424217 129.35003371471231 0 573 0
69.5007357650725908 128.726791548500557 0 576 0
74.2515700515200479 129.13591469487568 0 577 0
50.9125968893264371 116.717011544350555 0 578 0
65.2223017143774086 114.366794322992916 0 581 0
68.4703565159309164 115.646416445167375 0 582 0
67.6138804365842816 167.67733826547078 0 583 0
74.8939271110300524 173.672670820896712 0 585 0
80.8892596664559278 176.45621807877302 0 586 0
-13.7513471013387516 157.399625313312072 0 587 0
-8.08038841095060434 159.200598972540774 0 588 0
-2.83127708967015224 159.540815511678488 0 589 0
-11.3960378831357048 168.747933364653989 0 590 0
-7.07587527635712377 168.112589238986004 0 591 0
-5.18658630787319908 169.176171404327249 0 592 0
5.09112664428550943 161.039648650534957 0 593 0
9.24546883821130905 159.553462597602163 0 594 0
11.7288162592213894 159.969053551351749 0 595 0
2.73581742608246259 110.93579800876131 0 596 0
-17.2843109286433219 136.201842349484764 0 597 0
-13.1089900418288607 136.73713989907634 0 598 0
-1.43066725990752275 130.917762031709742 0 599 0
-0.233955659276489314 -75.0796382730454752 0 600 0
-2.58926487747953615 -128.18115519253206 0 610 0
-2.08913111870685952 -127.7432975602525 0 611 0
4.26254375729286039 -71.4396149358226182 0 612 0
43.2322053675612779 -121.115227537922976 0 624 0
44.3028004667444293 -122.185822637106156 0 625 0
-10.0834305717620509 381.529171528588222 0 650 0
-14.5799299883315143 383.670361726954638 0 674 0
-16.9510175436840882 424.422077655620456 0 725 0
-13.0950937943742929 421.703593486290629 0 753 0
-12.638657269597843 402.77413423477185 0 851 0
-70.6980363803530736 638.654616020754816 0 869 0
-70.9121633250875902 640.461535178266786 0 870 0
72.7616989852978122 628.684989087251665 0 918 0
73.8322940844809636 631.896774384801233 0 919 0
-34.0897337599045613 751.963973472244106 0 962 0
-32.5909006210481493 756.246353868976939 0 963 0
168.038620965883524 787.721849784963069 0 980 0
170.608049203923201 791.361873122185898 0 981 0
13.2276493980779151 234.268353434665642 0 982 0
478.642362896403711 719.641467036772269 0 1099 0
480.783553094770014 721.140300175628795 0 1100 0
1.05075845974306503 51.1435239206533367 0 1101 0
7.90256709451557526 53.0705950991830946 0 1103 0
11.9017476862034073 113.176767149071452 0 1104 0
-22.6745031933802466 55.2030246198067971 0 1105 0
-25.002739840297636 49.1882749025171506 0 1106 0
-21.1756700545238346 59.0036372219071552 0 1107 0
-19.6233071607082366 62.6971903140891982 0 1108 0
-6.93539581987658948 78.9557353895473284 0 1109 0
-4.48628139299194117 133.452742680678966 0 1110 0
0 1 1 3.16227766016837952
0 2 2 9.00113074646149336
0 20 3 4.62971219973781167
0 33 4 4.92168395330015152
1 18 5 65.0068469000639766
2 3 6 8.13193435156770761
3 4 7 3.49817637805443482
4 5 8 4.6405726460719503
4 54 9 3.80840317598741773
5 6 10 24.7971542037433501
6 7 11 4.64732243600871797
7 8 12 5.76429404900818554
7 195 13 6.44566364441850848
8 9 14 10.4134769937904643
9 10 15 4.62043317018049393
10 11 16 5.33076835556736928
10 84 17 5.20984210373231438
10 85 18 6.22771391342941349
11 12 19 14.4714937408083699
12 13 20 5.21979026632425569
13 14 21 5.1958644401377212
13 43 22 5.47777055071516372
13 93 23 6.49402481523560215
14 15 24 6.62893815635939632
15 16 25 4.89964994165694634
16 17 26 4.32322053675611073
16 196 27 3.98853349365606968
17 136 28 110.965528407491263
18 19 29 1.68673330101966856
19 172 30 6.03374304794019878
19 175 31 4.35919444002481171
20 21 32 5.09903860583389612
21 22 33 4.27645560270724534
22 23 34 5.02612672642575742
22 30 35 3.54223829569735038
23 24 36 5.70089847127022953
24 25 37 4.74023383691879285
24 44 38 3.66487787454743374
25 26 39 5.48365869876173928
26 27 40 5.44463005348592866
27 28 41 4.34532208893809546
27 80 42 3.70703731893119626
28 29 43 8.02165027364093675
29 39 44 4.48634737225816949
30 31 45 54.4477577261151922
31 32 46 4.60423448365110577
33 34 47 29.4411200908048514
34 35 48 4.44065746433314423
35 36 49 6.18990980623561438
35 61 50 6.27992897773126924
36 37 51 43.3615864195551524
37 38 52 3.17036172695452478
39 40 53 6.10333111160125164
39 66 54 3.06571781226510387
40 41 55 7.16659270177700858
41 100 56 9.64846828135397594
42 43 57 25.1476165709474522
42 100 58 3.13468772863626866
44 45 59 3.41417460321492694
45 46 60 4.1169191193611665
45 77 61 4.03004760354240776
46 47 62 11.3642934842764998
47 82 63 8.2403955102028128
48 74 64 4.61474922803182785
48 197 65 2.17899638401299667
48 198 66 4.29281795808355415
49 67 67 3.89702498448935586
49 68 68 5.41683034437245059
49 197 69 2.17899638401299667
49 199 70 1.93449158017807177
50 105 71 2.92675000447891742
50 199 72 1.93449158017810019
50 200 73 2.11154359184857698
51 52 74 5.09967499243865685
51 102 75 3.14221392245975917
51 200 76 2.11154359184860985
52 53 77 4.31570681684014801
53 100 78 6.46624845812187132
54 55 79 24.7231220885946641
55 56 80 5.54440105842964659
56 57 81 4.49777375396686985
56 194 82 3.86573249018704423
57 58 83 4.10332719842614235
58 59 84 3.96432375126024938
59 60 85 2.12691881420472617
59 83 86 2.74671952643874162
60 100 87 7.41826056103390918
61 62 88 43.0872100583768827
62 63 89 5.20974060354596791
63 64 90 5.21488551778334664
63 118 91 5.90555685812538655
64 65 92 19.055942166392331
65 95 93 8.0500492826601171
66 67 94 4.92590100911341455
68 69 95 36.4984931542376856
69 70 96 3.97275900858085329
71 72 97 33.3446416031538888
71 82 98 3.42494467604631314
72 73 99 3.96264835300998275
74 75 100 26.8706521144079886
75 76 101 8.3766797778539086
77 78 102 21.9499923225589271
78 79 103 5.62036936133638942
80 81 104 10.4010274159795344
81 82 105 2.56617529307111525
82 198 106 4.29281795808352662
83 84 107 12.5704953126679424
85 86 108 6.44138913305984584
87 101 109 8.85751664716150167
87 121 110 39.7953848618412849
88 89 111 10.0640992900494766
88 100 112 19.4733567649959127
89 90 113 3.9842826267186231
90 91 114 5.19189143476571502
90 168 115 7.01682826016981576
91 92 116 10.8781321582231989
92 171 117 8.6347426130081093
93 94 118 7.72698467024132718
94 95 119 4.72080427936542346
95 96 120 5.22750935743139422
95 138 121 8.45868076453098539
96 142 122 13.7583677180279551
97 98 123 45.0646778029495678
97 101 124 1.77215021765156111
98 99 125 4.58234713136815319
100 201 126 6.06400223191087928
101 201 127 6.06400223191087928
102 103 128 29.1884251856519263
103 108 129 19.7851043727299363
104 108 130 23.7748485773262672
104 111 131 32.5844042650358787
105 106 132 31.667099905851309
106 108 133 19.2951518221139686
107 108 134 21.479246872371931
107 109 135 39.4045402702061196
109 113 136 6.51711862260681407
110 113 137 5.53534939126758196
110 114 138 370.900879248069941
111 113 139 4.60262517327307386
112 113 140 5.4297750670122058
112 116 141 408.812115977737903
114 115 142 1.17275617811720934
116 117 143 2.18359412075667692
118 119 144 9.74453536344983817
119 120 145 5.84718179835196317
121 122 146 3.11761998759151648
122 123 147 2.44065032963419526
122 170 148 5.61730954655842218
122 202 149 3.97025246312532243
123 124 150 14.6448138817413973
124 125 151 5.45898530189194631
125 126 152 4.99865884887266887
125 159 153 4.30906215267310877
126 127 154 4.36431278806621403
127 128 155 3.24518096186431393
128 129 156 3.6463155170916064
128 162 157 5.84431186869533725
129 179 158 214.566946076702351
130 131 159 19.3675521408087405
130 171 160 7.0181582352560401
131 132 161 5.31711912377206364
132 133 162 3.96378261577111601
132 165 163 4.08914649374225636
133 134 164 60.3170578309751733
134 191 165 9.14716853713983902
135 185 166 394.671464088611629
135 191 167 8.91596669891657356
136 191 168 7.14657312888937035
137 178 169 144.518660017267678
137 191 170 5.58354091647472384
138 189 171 694.930251934631769
139 140 172 6.4644844049768766
139 168 173 5.45898530189192055
139 196 174 3.98853349365617804
140 141 175 8.64055497718321242
141 171 176 6.170642937983712
142 143 177 4.99407081775550044
143 144 178 5.54411149155977689
143 153 179 5.31860611651503756
144 145 180 5.29880109227646656
145 146 181 4.73972655132584375
145 150 182 4.96645362455165973
146 147 183 32.5545597900231627
147 148 184 4.14796334229023067
148 149 185 3.65715864390786738
148 156 186 2.69060559374075137
149 192 187 716.878460552949718
150 151 188 13.2583164231191368
151 152 189 4.76841778435830843
153 154 190 14.531762943113204
154 155 191 3.49103033064066359
156 157 192 9.4327826018111125
157 158 193 6.61000361474788267
159 160 194 5.95006542731460009
160 161 195 5.26012518450820288
162 163 196 4.3666310935352346
163 164 197 2.16809128702345566
165 166 198 4.41217724577834502
166 167 199 2.5178820969767246
169 170 200 4.20949497855358512
171 202 201 3.97025246312544589
172 173 202 53.6206420629778293
173 174 203 0.664720304195345335
175 176 204 63.3478198445499103
176 177 205 1.51405010907500182
178 182 206 21.3980752373774479
179 182 207 19.2021525824302408
180 182 208 22.0732848820872078
180 183 209 224.906194561736726
181 182 210 18.9349613639970187
181 187 211 334.43206174777697
183 184 212 1.8195623622852577
185 186 213 3.38551896523273799
187 188 214 4.53710068661208155
189 190 215 4.45552818035780085
192 193 216 2.61365572402228086
194 195 217 7.12259184838720394
