ply
format ascii 1.0
element vertex 264
property double x
property double y
property double z
property int og_index
property int root
element edge 297
property int vertex1
property int vertex2
property int name
property double len
end_header
2 5.5 0 1 0
-2.9938893278111891 2.60137565222083822 0 3 0
-3.85736657401889715 8.53778171989880263 0 4 0
-8.60649142816123458 23.3248295612057461 0 7 0
-10.3334459205766507 28.073954415348112 0 8 0
-11.3489265041126828 31.6888449978942219 0 9 0
-15.2984400862709435 46.5307805530378005 0 10 0
-16.5452805781882262 51.534834743218255 0 11 0
-17.4571332017901568 57.1083768190821672 0 12 0
-17.7775662891509683 61.6090337788525915 0 13 0
-18.212675792221944 66.9304304946948037 0 14 0
-18.4576975318180985 72.0999619580179285 0 15 0
-18.1047411364459094 76.4286802029795354 0 16 0
-18.5364797595498203 80.9619357455700026 0 17 0
14.815785717856329 21.2844262011526268 0 22 0
18.4855640142391167 23.9827925955517003 0 23 0
22.7837942977296279 26.4987413930269042 0 24 0
28.7393563129555787 29.4874600401257965 0 25 0
35.1075010037372977 32.4016957460767685 0 26 0
42.986730875382591 35.315931452027769 0 27 0
52.2691112721154241 37.2587552559950836 0 28 0
76.4464741659310221 42.4396187332413035 0 34 0
77.4178860679147647 42.7634227005692082 0 35 0
0.349394705736244759 -6.856925705786864 0 36 0
8.22354854812158464 -108.412777129521558 0 56 0
8.54735251544946095 -110.679404900816778 0 57 0
0 0 0 58 1
-13.2314383328953227 29.2615401906387831 0 59 0
-16.6853473177261549 32.3916452081417106 0 60 0
-60.4531625342726784 41.6945991681593569 0 70 0
-60.075078939663058 41.8898949164264138 0 71 0
-6.44312836572271408 6.80833997314542216 0 72 0
-13.7826849584881757 27.4238592263542671 0 78 0
-12.1636651218487941 42.3188417234371173 0 79 0
-10.759948647583883 51.3305202148514184 0 80 0
-9.7891026947776254 59.4804519918151584 0 81 0
-8.92562544856991735 64.6613154690613499 0 82 0
-8.70975613701796192 70.4897868809633223 0 83 0
-7.95421354658617474 74.3754344888980086 0 84 0
-6.73146184548011206 78.175532743055868 0 85 0
-5.47171646373908516 80.5277098681278574 0 86 0
-4.39236990597942167 83.5498802298548071 0 87 0
-3.42095800399579275 86.6799852473577062 0 88 0
-2.44954610201216383 90.1338942321885384 0 89 0
12.9851096739505465 28.7190750956658007 0 90 0
9.85500465644759061 34.0078732286879699 0 91 0
8.31174984293852503 37.818294177757025 0 92 0
6.97678281102537312 42.7258836653604419 0 93 0
5.52408652989061011 47.8552388623315323 0 94 0
4.67414117920134231 52.5726340221535509 0 95 0
4.55692344441933983 58.4902373266394022 0 96 0
4.89001049075329774 65.3089234037171309 0 97 0
5.21381445808117405 70.2739175694114238 0 98 0
5.865677503986376 74.9429418182981237 0 99 0
6.61696498316871384 87.2196585262375379 0 100 0
26.1531376786178953 37.0300435904149481 0 102 0
20.2031701885125585 86.4382918277771921 0 111 0
20.0008622993880181 89.5942209533087066 0 112 0
19.8929276436120972 92.8322606265875834 0 113 0
34.1403022060392232 38.0014554923986054 0 114 0
29.1753080403449303 90.1338942321885384 0 124 0
29.8229159750006829 91.644979413051999 0 125 0
45.7972450298431113 43.5061229369727016 0 126 0
47.2003955549306511 87.8672664608932905 0 135 0
46.8765915876027748 91.3211754457241227 0 136 0
5.96935704851296123 35.087219786447605 0 137 0
-9.68116803900159084 38.3252594597264817 0 140 0
-17.7762672221988396 41.1315605099015045 0 141 0
-24.6951725454467805 48.8140378690851549 0 143 0
-27.4903862420354699 53.8678498914650845 0 144 0
-19.3952870588382211 53.0043726452574049 0 145 0
-25.6614292327349176 61.4789369096518783 0 147 0
-28.8935367671230097 64.1216421901815465 0 148 0
0.5726242597147575 48.471117102666966 0 149 0
-7.738344235034333 49.5504636604266011 0 151 0
-13.7333875775193519 40.108668534367979 0 152 0
-14.106488925816052 34.6554811633437509 0 153 0
-21.65668651999556 67.6655674474998818 0 154 0
-41.404034541980991 79.916871891711537 0 159 0
-46.5895920042429452 83.3160925350144623 0 160 0
-21.4408172084437183 73.386104203625905 0 161 0
-51.0417566308145183 95.4515620820841661 0 169 0
-51.7704554814891935 96.2682512281299978 0 170 0
-20.9011439295638866 77.1638171557846135 0 171 0
-36.9834076401822927 99.6142255571848239 0 176 0
-39.4018022485746542 104.995923426395137 0 177 0
-41.3819752117310031 109.23261935010666 0 178 0
-42.5960097405323381 112.782253561852258 0 179 0
-43.1356830194121699 115.912358579355157 0 180 0
-17.4460648115267531 103.316774249644254 0 184 0
-16.6916923543013809 109.328344577021454 0 185 0
-16.25995373119747 114.940946677371528 0 186 0
-15.8339786654356658 120.736305948523295 0 187 0
-15.7620650907601885 125.300399064712479 0 188 0
-21.4408172084437183 108.8966059539176 0 190 0
-25.357375806324626 109.714488743075236 0 191 0
-29.5541164724161263 111.830499374736831 0 192 0
-33.7453679669034159 114.83301202159555 0 193 0
-37.0913422959582704 118.610724973754259 0 194 0
-40.2549245883489561 122.677979881915121 0 195 0
8.9936189459074285 106.113437559011828 0 200 0
9.32055968770566778 112.67431890607628 0 201 0
9.42849434348158866 117.8551823833225 0 202 0
20.3298945768538033 110.299756479005111 0 209 0
19.1793167980332555 126.463004665875445 0 210 0
30.5836868755702653 96.3761858839059471 0 212 0
31.9868374006578051 116.559966514010966 0 215 0
32.328437009233312 122.110160987114028 0 216 0
32.3106413679856814 125.950281566519692 0 217 0
47.2056238650684463 96.2682512281299978 0 219 0
48.3929050786041444 116.452031858234989 0 222 0
-1.47290588989062599 94.3254274241626547 0 223 0
1.87423501873070109 101.23630847538567 0 224 0
4.14945939623419235 105.669905135201248 0 225 0
5.97458535865075646 108.356932675037797 0 226 0
12.1268607378806337 112.242580282972426 0 227 0
17.7394628382307928 117.8551823833225 0 229 0
22.9203263154769274 117.747247727546551 0 230 0
29.8281442851384782 121.524960679705231 0 232 0
34.3613998277289738 122.712241893240815 0 233 0
41.5930217647185145 121.201156712377326 0 234 0
45.8024733399810202 121.524960679705231 0 235 0
-1.36497123411459143 76.8400131884567088 0 236 0
3.16828430847579057 78.6749023366480742 0 237 0
11.1554488358970048 82.0208766657029287 0 238 0
15.6887043784875004 87.2017401429491201 0 239 0
23.4599995943567592 89.6842372257962666 0 240 0
26.4821699560836805 90.9794530951078286 0 241 0
35.8724850085924345 91.519126373987632 0 242 0
40.7295445185106928 92.0587996528674353 0 243 0
53.573768555850279 92.4905382759712893 0 244 0
57.5483875436708558 94.5782943738694257 0 245 0
58.2149587542166955 97.1317284743376774 0 246 0
11.8030567705527574 74.2495814498336131 0 247 0
15.3649004111595104 78.4590330250961472 0 248 0
-0.177690020579120755 107.601390084606066 0 249 0
-11.1870249097272563 117.747247727546551 0 252 0
-20.4694053064599757 118.826594285306157 0 253 0
-33.5294986553515173 130.807341076438007 0 257 0
-2.22844848032241316 97.8872710647694362 0 258 0
-4.17127228428967101 101.988787984256021 0 259 0
-8.27278920377625582 105.334762313310847 0 260 0
6.18522636006491666 81.2832524585595877 0 261 0
3.91489308740983688 53.6346205598430856 0 262 0
-4.55037656227489151 59.962098315015254 0 264 0
1.7561999718906236 60.5424385295047216 0 265 0
-3.79699323769511921 64.0720255018121918 0 266 0
2.51174256232241078 66.5867792529586495 0 267 0
-5.04368334199500623 70.7962308282211836 0 269 0
-14.6498677060557156 64.8598247605432334 0 270 0
-14.8657370176076711 68.6375377127019419 0 271 0
-14.3260637387278393 74.2501398130519874 0 272 0
-7.62944513369882316 83.4112863573471941 0 273 0
-14.7531324149123293 107.588649251162963 0 278 0
-34.397239766137659 108.452126497370671 0 279 0
-42.38440429355893 103.055393708572495 0 280 0
-46.1033678947399608 101.203301784191041 0 281 0
-49.4001569189965153 101.004635248829203 0 282 0
-35.2535598110877686 120.741043085709407 0 283 0
-39.8452752597612516 133.908529611474563 0 285 0
-41.8375738134214998 139.197869223398982 0 286 0
-42.8089857154051288 142.22003958512596 0 287 0
-47.3422412579955676 154.524590343585714 0 290 0
-48.8533264388590851 159.273715197728052 0 291 0
-50.0406076523946695 164.022840051870389 0 292 0
-46.9105026348917136 162.080016247903075 0 299 0
-47.3422412579955676 138.766130600295156 0 307 0
-48.663827439706381 144.287115640403385 0 308 0
-49.39299971773886 150.53100807987505 0 309 0
-49.7168036850667932 154.740459655137613 0 310 0
-62.8848316897341988 145.673948569956735 0 311 0
-57.2674656017583743 148.290769703554304 0 312 0
-52.523104735241759 149.235792210563545 0 313 0
20.006090609525927 119.150398252634034 0 314 0
10.1717529431052753 133.037066115012124 0 336 0
9.9558836315533199 139.189341494242001 0 337 0
9.52414500844952272 144.262270315712271 0 338 0
12.2225114028485677 140.052818740449709 0 368 0
26.1460819979477037 192.940800070671457 0 379 0
28.628579080794907 193.264604037999334 0 393 0
54.6408311228019556 136.059236476739073 0 394 0
55.1071446348504423 142.237244487741521 0 395 0
54.7487657785778765 149.766937760286339 0 396 0
57.0153935498731244 133.792608705443854 0 409 0
66.1898392908299229 142.535315823296855 0 412 0
68.8882056852289679 146.960636710111316 0 413 0
70.4035922961310234 154.270285390317497 0 414 0
71.1548334565242158 159.804860747450903 0 415 0
51.2452648475432397 126.411205314910319 0 427 0
41.6887231899791004 126.250025155154617 0 428 0
49.5679530616243937 136.719686765422978 0 431 0
57.6630522448215288 147.189348375691338 0 432 0
62.0883731316359899 152.154342541385631 0 433 0
76.6595516613908785 155.28444755888853 0 434 0
84.2149775657082955 157.766944641735677 0 436 0
88.6402984525227566 158.306617920615508 0 437 0
74.7167278574236207 145.678263194827878 0 438 0
83.2435656637246666 145.678263194827878 0 440 0
88.6402984525227566 146.757609752587484 0 441 0
-1.37827043077481903 246.545847689533389 0 466 0
-5.69565666181324559 261.980503465496099 0 467 0
-4.72424475982961667 249.56801805126031 0 482 0
-2.78142095586224514 261.440830186616267 0 483 0
27.8381834810221562 211.945214875501165 0 490 0
31.3259302693420523 227.765217584515824 0 493 0
46.5447167337528072 259.498006382648953 0 494 0
47.9257827541080133 277.832814384936967 0 497 0
36.1829897792603106 220.53359564752634 0 500 0
-3.70837788723940776 254.608556221713457 0 525 0
49.0172684759397725 295.711520125781249 0 575 0
47.0901972974099863 300.422138562187342 0 597 0
27.8248662228947978 202.896022317903487 0 604 0
37.2376007641196338 248.854497492529561 0 605 0
30.8140301690204979 213.310740199647455 0 609 0
32.0987442880402796 219.734310794746648 0 610 0
42.3764572401989881 258.703972405015008 0 611 0
44.9458854782386652 277.97468419031253 0 614 0
47.3002593241844806 286.859441621855581 0 615 0
36.4814595243628901 234.154633767994994 0 616 0
-4.83310361542748979 307.242646127549904 0 683 0
-6.01444124288138937 312.233727364174968 0 684 0
-60.6231491891863925 514.833418636234342 0 806 0
-57.6254829114734548 539.242986897611218 0 807 0
-59.2844842998227932 583.943632779855989 0 814 0
-58.0537209511467154 589.775075579058239 0 815 0
-55.4842927131070383 517.831084913947279 0 849 0
-63.1925774272260696 537.530034738918175 0 850 0
58.2421683536758792 507.740716616120608 0 898 0
54.1448120455900153 608.891543410697182 0 899 0
53.2688138832405684 617.267698835295505 0 901 0
55.0011215225990782 621.036452475207625 0 902 0
63.1378899556414126 504.506411107423673 0 932 0
49.0057889671729754 605.619883046969562 0 933 0
-57.6254829114735116 527.252321786759467 0 1051 0
57.7649850449250835 556.998417886719267 0 1052 0
-253.734539089848454 778.163360560093452 0 1077 0
-253.734539089848454 780.732788798133129 0 1078 0
486.046674445740564 846.467327887981696 0 1381 0
485.83255542590382 847.323803967328217 0 1382 0
169.474505020197853 814.753142775500919 0 1387 0
170.759219139217748 820.106118271416904 0 1388 0
290.645638686039661 1310.35934409672473 0 1495 0
291.928330231340851 1313.25004970118698 0 1496 0
-347.944893869063208 1131.02103271656188 0 1541 0
-350.086084067429567 1134.44693703394819 0 1542 0
61.8789100982646687 988.846003545033454 0 1583 0
62.7353861776113035 993.12838394176606 0 1584 0
-1.4969446639056514 1.30068782611041911 0 1585 0
-11.7824421267359867 28.6677473029934617 0 1586 0
-13.6526146128860546 51.4326774790348225 0 1587 0
-18.3351866620200781 69.5151962263563519 0 1588 0
-18.2812193341319471 74.2643210804987461 0 1589 0
31.9234286583464382 30.9445778931012683 0 1590 0
39.0471159395599443 33.8588135990522687 0 1591 0
-10.2745256711807542 55.4054861033332884 0 1592 0
-9.35736407167382822 62.0708837304382541 0 1593 0
-8.81769079279388279 67.5755511750123219 0 1594 0
-8.33198484180206833 72.4326106849306655 0 1595 0
5.09911385454597621 50.2139364422425274 0 1596 0
4.61553231181039791 55.5314356743964765 0 1597 0
4.72346696758631879 61.8995803651782808 0 1598 0
6.02545193202558949 78.1130971384288557 0 1599 0
-45.250700626563912 141.742492431901184 0 1600 0
69.6458989906800525 150.615461050214435 0 1601 0
0 14 1 20.7331335060438242
0 26 2 5.85234995535981284
1 2 3 5.99887572425718751
1 31 4 5.44020208615316658
1 247 5 1.9830865204995749
2 3 6 15.5772925007280989
3 4 7 5.05337102329786703
4 5 8 3.75481487417412296
4 248 9 1.56594380450971227
5 75 10 8.750947548462916
6 7 11 5.15705047004070849
6 75 12 6.61006143205137064
7 8 13 5.64764078873604802
7 70 14 3.20656803846052796
7 249 15 2.89446929391952379
8 9 16 4.5120494714714221
9 10 17 5.33915567173677275
10 77 18 3.52159569405678496
10 149 19 4.12080205362412766
10 250 20 2.58766744401025273
11 80 21 3.24856351038554747
11 150 22 4.98904419605587535
11 250 23 2.58766744401027582
11 251 24 2.17154207081614858
12 13 25 4.55376811586919228
12 83 26 2.89141745874537426
12 151 27 4.36170162970497977
12 251 28 2.17154207081611084
13 89 29 22.4199259737286525
14 15 30 4.55504708461113594
15 16 31 4.98043993251919925
15 44 32 7.25860660667641167
16 17 33 6.66341939763053048
17 55 34 7.97364994451649967
17 252 35 3.5016437765916022
18 59 36 5.68267390677971296
18 252 37 3.50164377659161374
18 253 38 4.20044739045935511
19 20 39 9.48351992473849315
19 62 40 8.65899684562175054
19 253 41 4.20044739045935511
20 21 42 24.8042142710345033
21 22 43 1.02395805215495184
23 24 44 102.758907893563148
23 26 45 6.86582164020280938
24 25 46 2.28963981072657052
26 247 47 1.98308652049966083
27 28 48 4.66122780993293162
27 32 49 1.91857868452695346
27 76 50 5.46445905439837087
27 248 51 1.56594380450970139
28 29 52 45.8574184983182036
29 30 53 0.425543926997109745
31 32 54 22.1979175078716544
33 34 55 9.12034918041748277
33 75 56 2.71088437848545105
34 74 57 3.50694946682863717
34 249 58 2.8944692939195229
34 254 59 4.10377660921143583
35 144 60 5.26082072228461506
35 149 61 7.25015088669183783
35 254 62 4.10377660921143583
35 255 63 2.62616351949863125
36 146 64 5.16237648955624273
36 150 65 7.14809546546759478
36 255 66 2.6261635194986499
36 256 67 2.9162338108864061
37 148 68 3.67885819667167979
37 151 69 6.75893225671717879
37 256 70 2.91623381088643008
37 257 71 1.97921082372526236
38 39 72 3.99197550891928454
38 122 73 7.03507373229195831
38 257 74 1.97921082372526236
39 40 75 2.66827578307223989
40 41 76 3.20912802596724678
41 42 77 3.27737677173563258
41 152 78 3.24004078545491048
42 43 79 3.58791420728124466
43 111 80 4.30380954543222405
44 45 81 6.1456442390083037
45 46 82 4.11107567779081595
46 47 83 5.08591894893445762
46 65 84 3.59799546056452391
47 48 85 5.33109850048909806
48 73 86 4.98961768273819573
48 258 87 2.39667604157665837
49 143 88 1.30547810059106228
49 258 89 2.39667604157668634
49 259 90 2.95938206669100401
50 145 91 3.47211488096450749
50 259 92 2.95938206669100579
50 260 93 3.41340836987641749
51 52 94 4.97554178704547123
51 147 95 2.69982849656116208
51 260 96 3.41340836987638951
52 53 97 4.71430937331321331
53 133 98 5.9777270894219976
53 261 99 3.17417904687313479
54 100 100 19.170768666988085
54 142 101 5.95208494891018347
55 56 102 49.9602709446639395
56 57 103 3.16240685671216815
57 58 104 3.23983808478841162
57 125 105 4.93139639075221137
57 126 106 3.46030833232476764
58 103 107 17.4770147895476633
59 60 108 52.5483620400145028
60 61 109 1.64401169729848551
61 105 110 4.79198153512758473
61 127 111 3.40639240880819916
61 128 112 6.0508779924597702
62 63 113 44.5142748684586209
63 64 114 3.46905409077927507
64 109 115 4.95800575196126125
64 129 116 6.19114505892063161
64 130 117 6.79849900880984848
65 66 118 16.0339546071533761
66 75 119 4.42730517537008428
67 68 120 10.3835115589127138
67 75 121 4.17027382973523864
68 69 122 5.77531259475614167
70 71 123 10.600525638604779
71 72 124 4.17497428897324685
73 74 125 8.401628249663883
75 76 126 5.46593606984192082
77 78 127 23.3900597486290529
78 79 128 6.20037959936949257
80 81 129 37.1773738896512356
81 82 130 1.09452417800780544
83 84 131 28.0377752140932621
84 85 132 5.90011054450372718
85 86 133 4.67660959606521232
85 154 134 6.08202148207622262
85 155 135 3.55831006862769161
86 87 136 3.75150408160735882
87 88 137 3.17628787557641479
89 90 138 6.05871732342929725
90 91 139 5.62918294031502597
90 94 140 4.76870895724535604
90 153 141 2.60471773238828419
91 92 142 5.81099336072375117
92 93 143 4.56465962974985739
92 136 144 5.52527359106145521
92 137 145 5.01339992230277609
93 201 146 125.29001664962621
94 95 147 4.00104530184739815
95 96 148 4.70001417143938305
96 97 149 5.1557415843492862
96 154 150 5.90501875837083379
97 98 151 5.04645017409284957
98 99 152 5.15274833546977451
98 158 153 2.81348533314480642
99 166 154 17.7571914845044887
100 101 155 6.56902232443351064
101 102 156 5.18198767460723086
101 114 157 5.46217613032160898
101 115 158 2.8393174924429867
102 174 159 15.3066410425224966
103 173 160 8.85656303621007446
104 173 161 7.35919611712784416
104 179 162 69.5564905556645812
105 106 163 20.2472142338264831
106 107 164 5.56069680722144
107 108 165 3.84016181289568914
107 118 166 2.5678635294643124
107 119 167 2.12024508934893596
108 207 168 95.1226651507903966
109 110 169 20.2336228455489291
110 188 170 10.3595893833495509
111 112 171 7.67877784327165713
111 139 172 3.6410952646267507
112 113 173 4.98331469103788383
113 114 174 3.24826134701736224
113 135 175 4.73865552506247578
115 116 176 7.95104860292552917
116 173 177 2.61059104451899548
117 118 178 7.95199632987917049
117 173 179 3.2344398504057863
119 120 180 7.3878098421232794
120 121 181 4.22188720523621708
120 189 182 5.04977537275365318
121 188 183 7.31432608172905585
122 123 184 4.89052389837498414
123 142 185 3.98816119297134364
124 125 186 6.88416677487486162
124 142 187 5.0246592849894105
126 127 188 3.28802339459699322
128 129 189 4.8869493890180884
130 131 190 4.48957922556832933
131 132 191 2.63900414629508617
133 134 192 5.51418286644639632
135 136 193 15.1231714986334893
137 138 194 18.1189053863674197
138 160 195 11.8078395744981197
139 140 196 4.53839237771444015
140 141 197 5.29320179584423389
142 261 198 3.17417904687314012
143 144 199 10.5808766104687333
145 146 200 6.57996497088486176
147 148 201 8.68523471098360034
152 153 202 25.5283094507080186
155 156 203 4.15462811371467744
156 157 204 3.30276948374105572
158 159 205 14.050640077932357
159 160 206 5.65211173431572167
160 161 207 3.17445346140346274
160 262 208 4.25729279188543952
161 162 209 13.1387432627921292
162 163 210 4.98373005930877078
163 164 211 4.89528585071873046
163 165 212 3.41319350718292602
163 169 213 4.61475879858800209
164 235 214 662.069042631878006
165 221 215 364.593579662886214
166 167 216 5.67695920795524422
167 168 217 6.28632523870205873
167 172 218 6.27562116765240852
167 262 219 4.25729279188548482
168 169 220 4.22188720523627659
170 171 221 6.1969794748396323
171 172 222 4.83756421874566112
174 175 223 6.15606139520619511
175 176 224 5.0912675304273014
175 177 225 2.42552971705673182
176 199 226 103.656595110448777
177 178 227 55.1300316495086165
178 211 228 10.0957796363487819
179 211 229 9.66489381423437166
180 181 230 6.19558159300072564
180 188 231 10.228116915116539
181 182 232 7.53821704272501858
181 190 233 7.81831737038190688
181 191 234 5.57279073963448024
182 241 235 1199.54716933978739
183 184 236 12.7238827030457351
183 188 237 9.36907152578264402
184 185 238 5.18311162813405257
185 196 239 5.96792698886850292
185 263 240 3.73253802420492287
186 187 241 5.58532789233159299
186 192 242 8.58021467642455882
186 193 243 6.33762987905914166
186 263 244 3.73253802420484382
187 237 245 858.743105780309293
189 190 246 13.2857293051578367
191 192 247 6.65091211914987657
193 194 248 7.95579996570030268
194 195 249 4.45810634678147188
196 197 250 8.53074773031843137
197 198 251 5.50360915994549149
199 208 252 8.39265569611676199
200 208 253 7.63510858423023286
200 225 254 262.366456628356161
201 208 255 5.14188783917165626
202 208 256 6.89486886634669371
202 219 257 46.1558636266973252
203 204 258 16.2421803964648568
203 211 259 9.04920235677406204
204 218 260 8.21000128289157161
205 206 261 18.4789546744262694
205 218 262 27.2682174178571906
206 217 263 9.04827490937716128
207 218 264 13.6243078234456316
209 217 265 9.0170623967495267
209 239 266 539.114351910148571
210 217 267 13.5643235861718203
210 231 268 205.352062791066146
211 213 269 10.835194952244068
212 218 270 14.7192983220786751
212 227 271 261.827998621314919
213 214 272 6.55078236227030963
214 218 273 15.071625907495461
215 216 274 19.6558541436741336
215 218 275 25.247198371003396
216 217 276 9.19140853318103623
219 220 277 5.12898142915620081
221 233 278 12.7755688160903382
222 223 279 44.931994856991615
222 233 280 11.9906651108517508
223 224 281 5.9599080144589589
225 233 282 9.66149055162900972
226 233 283 11.6886237373906905
226 243 284 670.106386169255416
227 234 285 49.2600125697678592
228 229 286 8.47748386709728763
228 234 287 52.0192476799928585
229 230 288 4.14781795113174034
231 234 289 52.766266524146026
232 234 290 49.4041535729329269
232 245 291 395.997194421167308
235 236 292 2.56942823803967713
237 238 293 0.882835335240177321
239 240 294 5.50498292708397496
241 242 295 3.16251110544400271
243 244 296 4.03998958630667016
245 246 297 4.36718824151337603
