ply
format ascii 1.0
element vertex 405
property double x
property double y
property double z
property int og_index
property int root
element edge 433
property int vertex1
property int vertex2
property int name
property double len
end_header
0 0 0 2 1
3.48132265979273825 -79.8310968494749034 0 15 0
3.65110095617546904 -80.8497666277712881 0 16 0
-3.14003089913376243 2.68115519253223056 0 17 0
-5.00759215934380109 5.39760793465592315 0 18 0
-8.40315808699841682 9.30250875145873124 0 19 0
-13.3267286820976096 15.0749708284715638 0 20 0
-16.6416212982715592 19.408389086997758 0 21 0
-19.7456491263041585 22.8532308466088665 0 22 0
0.595091621286314876 -5.80775962660430878 0 32 0
1.77587461740318986 4.01981964434494898 0 33 0
5.8505537305886719 12.8482910562468646 0 35 0
8.56700647271236448 15.2251872056050814 0 36 0
11.0938396356589806 17.4187671158923649 0 37 0
13.9999119569597497 18.9603097260251303 0 38 0
16.5465864027006546 19.9789795043215008 0 39 0
18.9234825520588856 20.8278709862351548 0 40 0
20.7910438122688674 21.6767624681487945 0 41 0
33.6941943373562935 23.5443237283588189 0 45 0
37.4293168577763709 23.7141020247415497 0 46 0
42.85911544055881 24.1680730438352924 0 47 0
-12.6551208859909821 22.8425346854130282 0 85 0
-11.4666728113118666 92.4516362023321676 0 100 0
-9.25955495833636633 109.089909247839699 0 101 0
-8.75022006918817397 114.862371324852518 0 102 0
-9.76888984748455869 131.33086607397729 0 103 0
-9.76888984748455869 135.745101779928234 0 104 0
-9.93866814386728947 141.687342153323755 0 105 0
5.68093512334382922 19.6167470541411433 0 108 0
15.6978546099248888 89.0560702746776087 0 121 0
15.528076313542158 92.96097109148036 0 122 0
15.1885197207766964 96.3565370191349757 0 123 0
15.3582980171594272 99.5823246504068322 0 124 0
16.7582851592139264 103.397339231966697 0 125 0
19.4329771303449661 105.354786727419651 0 126 0
22.3192081688513326 107.052569691246958 0 127 0
25.205439207357756 110.278357322518787 0 128 0
29.1103400241605641 119.955720216334385 0 130 0
17.904972462900389 24.8798742420057692 0 131 0
21.3005383905549479 34.2176805430559057 0 134 0
23.1680996507649866 37.4434681743277622 0 135 0
25.006201596620258 40.9571501598327075 0 136 0
26.3938872820368715 43.2159302513405805 0 137 0
27.7521136530987178 46.1021612898469755 0 138 0
29.280118320543238 50.1768404030324859 0 139 0
30.2987880988396228 54.5910761089834864 0 140 0
36.9201416577660666 74.2853584893801155 0 144 0
38.7877029179761621 79.7182639736274723 0 145 0
40.9948207709516055 83.7929430868129543 0 146 0
43.2019386239271057 88.5467353855294164 0 147 0
46.0881696624335291 93.6400842770112831 0 148 0
50.8419619611499343 98.2240982793450144 0 149 0
55.5957542598663395 102.808112281678689 0 150 0
59.6704333730518783 106.543234802098766 0 151 0
65.9522303392128606 110.617913915284248 0 152 0
71.0698010031376839 113.723824268804577 0 153 0
77.666932789621228 117.23926747421072 0 154 0
104.321530224107505 128.686400144049003 0 155 0
108.566582731278004 131.670422666742752 0 156 0
113.49015332637714 134.89621029801458 0 157 0
117.734610735945466 138.291776225669196 0 158 0
121.631400220753903 141.49467915384821 0 159 0
125.186059122412189 144.556610396826414 0 160 0
127.581751926143738 147.12024763757114 0 161 0
29.9592315060741612 42.7065953621923882 0 162 0
77.7026089688376942 98.6419827493871537 0 179 0
79.0251591606830743 104.845451838271458 0 180 0
80.3833855317449206 111.297027100815171 0 181 0
83.4393948666340179 116.050819399531605 0 182 0
31.1476795807533335 51.5350667740943322 0 183 0
52.7176899407929227 76.1647769822077692 0 191 0
56.9539806309281857 80.5671554555411262 0 192 0
60.3495465585828015 83.7929430868129543 0 193 0
75.1202583438802662 98.7334331684931783 0 197 0
81.4020553100413053 105.18500843103692 0 198 0
93.6260926495978083 119.106828734420731 0 202 0
110.264365695105312 127.595743553557242 0 203 0
131.826209335712065 114.862371324852518 0 209 0
135.731110152514702 113.334366657407941 0 210 0
86.4954042015231153 125.728182293347203 0 211 0
97.8705500591660211 149.32736549054664 0 217 0
98.2101066519314827 128.784191628236329 0 218 0
106.31516299756629 144.865706793521525 0 222 0
-6.20354562344721217 12.3162803096837763 0 223 0
-0.931170883000277172 94.6425122703553541 0 239 0
-1.27152044398121689 98.8122819376546033 0 240 0
-1.61953162111353777 103.996560356357804 0 241 0
-1.78930991749626855 113.673923250173402 0 243 0
-0.770640139199883833 118.257937252507077 0 244 0
0.0782513427137701001 123.351286143989 0 245 0
-0.0915269536689606866 126.746852071643588 0 246 0
1.09692112101015482 130.481974592063636 0 247 0
81.2322770136585177 124.030399329519895 0 248 0
81.2322770136585177 128.953969924619059 0 249 0
80.7229421245103822 134.386875408866388 0 250 0
80.0740262447824875 139.570729881937098 0 251 0
52.0304100358290498 132.858870741421839 0 252 0
79.0251591606830743 135.745101779928234 0 258 0
56.1050891490145887 110.617913915284248 0 259 0
44.7299432913716828 133.198427334187301 0 264 0
64.7637822645338019 115.201927917617979 0 265 0
68.3291264885710916 122.841951254840808 0 267 0
69.3477962668674763 127.25618696079178 0 268 0
43.5414952166925673 96.8658719082831681 0 269 0
36.0712501758524695 125.21884740419901 0 275 0
30.2987880988396228 129.802861406532713 0 276 0
25.7147740965059484 131.500644370360021 0 277 0
9.92539253291204204 131.670422666742752 0 278 0
5.12807369253511069 131.672690287185389 0 279 0
1.60625601015829034 132.519314148656377 0 280 0
-2.77870518802234301 133.198377622462118 0 281 0
-5.69421073429907665 134.047318816100926 0 282 0
20.1120903158758892 39.1412511381550701 0 283 0
24.5267074540887506 85.2161356580000415 0 292 0
24.3565477254441021 89.5654051638258011 0 293 0
23.8472128362959097 94.1494191661594755 0 294 0
20.7912035014068124 99.9218812431722938 0 296 0
12.9814018678011962 106.033899912950574 0 297 0
2.62492578845467506 116.050819399531605 0 300 0
-14.6924604425837515 125.21884740419901 0 301 0
-50.5156809793396633 147.629582526719332 0 310 0
-50.1761243865742017 148.308695712250255 0 311 0
15.3582980171594272 108.410796062308776 0 312 0
2.28536919568921348 121.823281476544423 0 316 0
-18.0410916051039862 133.361345365513927 0 317 0
-24.6615545958478037 136.185307384320112 0 318 0
-28.4445024495848315 138.801111114817388 0 319 0
36.0712501758524695 86.1698392361711853 0 320 0
21.6400949833204095 103.487225467209612 0 325 0
40.4854858818034131 91.2631881276530805 0 326 0
24.5263260218268329 105.18500843103692 0 330 0
19.60275542672764 112.655253471877018 0 331 0
17.2258592773694659 117.918380659741615 0 332 0
14.6791848316285041 123.351286143989 0 333 0
13.1511801641839838 127.086408664409049 0 334 0
11.9627320895048115 130.142417999298175 0 335 0
9.58583594014658047 135.575323483545503 0 336 0
18.5840856484312553 134.726432001631849 0 340 0
21.6400949833204095 143.385125117151063 0 342 0
22.9983213543822558 148.308695712250255 0 343 0
15.6978546099248888 124.879290811433549 0 344 0
17.904972462900389 129.463304813767252 0 345 0
86.2124403742186587 120.521647870943497 0 346 0
96.3802008244502986 124.534042319535416 0 347 0
51.6908534430635882 95.6774238336040526 0 348 0
60.5193248549655323 96.0169804263695141 0 350 0
64.0846690790028788 95.1680889444558602 0 351 0
-5.52443243791628902 121.823281476544423 0 352 0
-9.00488751376224172 123.860621033137193 0 353 0
-4.84531925238536587 126.746852071643588 0 354 0
33.9490214710683063 127.341076108983145 0 355 0
17.7888507629863284 132.009981001658502 0 356 0
-16.050686813645541 100.261437835937755 0 357 0
-37.7832584277198862 101.449684825851222 0 361 0
-39.480091714462219 100.770772725085948 0 362 0
11.7929537931221375 94.8285323516903986 0 363 0
4.49248704866477055 97.5449850938140912 0 365 0
35.7316935830870079 81.4160469374547517 0 366 0
26.2241089856541407 88.2071787927639548 0 369 0
-5.69421073429907665 99.4125463540241014 0 370 0
19.9423120194931016 91.7725230168012729 0 371 0
-9.88870397788889477 100.919469354922853 0 372 0
47.2679945237301808 86.8436826801903408 0 373 0
54.9080178609530094 82.7690035670048019 0 375 0
17.7183469625944099 18.106148502599666 0 376 0
40.9863925644486358 13.4274927717191161 0 381 0
41.1477518634111448 13.522134500265949 0 382 0
35.8846246755465472 20.6528229483405994 0 383 0
40.3998709430210283 18.9655336471513181 0 384 0
44.2037611983002989 17.5968136134514737 0 385 0
37.3238039673279332 154.028588098016627 0 463 0
38.3943990665111414 156.383897316219645 0 464 0
38.6085180863477717 158.953325554259322 0 465 0
37.5120313779076469 161.772357947293614 0 466 0
50.8133022170362096 216.33722287047874 0 479 0
52.0980163360560482 222.546674445741246 0 480 0
53.371004392507416 227.45309550919751 0 481 0
53.8073708113695943 231.985910052339307 0 482 0
54.6674445740957253 236.67852975495947 0 483 0
55.5239206534423033 242.459743290548715 0 484 0
56.3803967327888245 248.240956826138017 0 485 0
57.4509918319720327 255.092765460910414 0 486 0
58.7357059509918713 263.443407234539393 0 487 0
59.8063010501750796 262.372812135356185 0 488 0
79.2911318553092315 155.099183197199807 0 489 0
81.432322053675648 187.431155192532401 0 496 0
83.145274212368804 191.713535589265177 0 497 0
31.9708284714119486 154.028588098016627 0 498 0
18.7616782654209828 171.697731321352592 0 503 0
18.9095682613768759 171.800466744457708 0 504 0
43.747374562427126 157.668611435239484 0 505 0
54.8815635939323556 166.447491248541724 0 508 0
60.0204200700117099 167.946324387398192 0 509 0
42.890898483080548 144.393232205367838 0 510 0
48.0297549591599022 151.245040840140319 0 512 0
52.5262543757293656 154.885064177363176 0 513 0
50.1709451575263188 137.113185530922124 0 514 0
75.8652275379230332 146.748541423570884 0 520 0
84.6441073512253297 145.892065344224335 0 521 0
90.4253208868144611 147.390898483080804 0 522 0
56.8086347724621419 220.191365227538199 0 523 0
65.5875145857643247 220.833722287048147 0 525 0
70.2981330221704184 220.191365227538199 0 526 0
48.0297549591599022 231.753792298716746 0 527 0
44.2752351256351631 233.937086128608996 0 528 0
39.4649941656943497 235.179696616103001 0 529 0
62.589848308051387 250.382147024504377 0 530 0
70.6225720414621492 248.916406791744123 0 532 0
75.6511085180864029 247.8127187864647 0 533 0
51.0274212368728399 249.953908984831116 0 534 0
45.9494590101205063 251.173285678907746 0 535 0
40.3214702450408709 251.452742123687585 0 536 0
103.290338331029147 162.531215097539388 0 537 0
106.270128354725784 177.581680280046953 0 540 0
106.698366394399045 183.791131855309516 0 541 0
106.912485414235789 187.217036172695771 0 542 0
85.0723453908985903 255.735122520420362 0 557 0
82.7170361726954866 261.516336056009663 0 558 0
110.980746791131878 157.026254375729593 0 559 0
112.943873956251991 173.540014499959057 0 562 0
120.043873017600731 186.199535431642005 0 563 0
147.353368158690614 229.816076118804233 0 574 0
149.093932322053661 232.396149358226694 0 575 0
130.251458576429513 152.529754959160158 0 576 0
130.885831897678258 156.706031606147207 0 577 0
130.46557759626603 165.591015169195146 0 579 0
131.107934655776035 170.087514585764609 0 580 0
134.271671245645393 174.292613269494211 0 581 0
145.239789964994202 183.577012835472885 0 584 0
147.166861143523988 187.859393232205662 0 585 0
148.879813302217144 193.640606767794907 0 586 0
150.378646441073556 195.353558926488063 0 587 0
40.4285297549592428 137.648483080513728 0 588 0
80.0438289389794591 147.035358489379774 0 589 0
124.876228945096841 139.14112332648287 0 590 0
134.664044587602461 139.653761697536339 0 592 0
137.937489155131857 138.927004306646239 0 593 0
131.728037579869351 145.992931961255351 0 594 0
140.399857883253276 145.136455881908773 0 596 0
144.254000240312735 143.851741762888935 0 597 0
135.475120427010552 152.416502556354516 0 598 0
158.705240486436537 159.111110294450839 0 603 0
158.921153099122535 159.161251681208654 0 604 0
115.026754032611507 143.316444213297331 0 605 0
110.744373635878674 148.134122159621739 0 606 0
97.1478158762520252 159.482430210963628 0 607 0
92.6420202124297703 164.092038998121723 0 608 0
90.4030667513978869 165.798941296144505 0 609 0
106.783171768900843 151.881205006762912 0 610 0
102.607850882086382 155.949466383659058 0 611 0
151.748165934595136 186.461426710380181 0 612 0
164.978643232714262 186.143922693799539 0 615 0
169.305925561199501 185.604950631033603 0 616 0
127.76683571289152 172.757809440835274 0 617 0
117.703241780569442 177.896665916914628 0 620 0
102.821969901923012 184.641415041768767 0 621 0
97.1478158762520252 186.782605240135126 0 622 0
111.814968735061825 181.108451214464196 0 623 0
108.817302457348887 183.035522392993983 0 624 0
101.410221761331741 156.56309325299577 0 625 0
109.474656593176974 150.124009466393659 0 626 0
115.156067677946453 180.472287047841633 0 627 0
151.303514211333663 199.061621513566934 0 628 0
153.123525879945191 202.059287791279871 0 629 0
154.515299508883345 204.949894559074494 0 630 0
155.543881149306003 208.527735569539402 0 631 0
156.97766823700465 212.122881723601949 0 632 0
159.332977455207697 217.475857219517934 0 633 0
161.557716567982879 224.059509353947476 0 634 0
162.651822262675637 228.824165270859851 0 635 0
164.470846955334423 245.093032983379203 0 638 0
165.542429030470203 251.092543333870367 0 639 0
168.540095308183254 265.438517662925221 0 640 0
142.845812927786483 191.353336799447902 0 641 0
139.924419739664813 194.954195419651853 0 642 0
137.492837431870385 197.66984788462878 0 643 0
156.656489707249648 196.813371805282202 0 644 0
160.476605133291514 194.362741807557313 0 645 0
163.722417361858788 192.745110428386056 0 646 0
149.162324012967247 207.198144267359226 0 647 0
145.522300675744418 210.945227114500426 0 648 0
142.952872437704741 213.621714862458418 0 649 0
161.367108143655742 210.624048584745481 0 650 0
166.061572411422503 208.746431935825626 0 651 0
170.788345016467929 206.234608678094332 0 652 0
166.184786089980207 218.974690358374403 0 653 0
171.539678574414893 218.438911455921641 0 654 0
177.104856101648807 217.047619179844673 0 655 0
156.870608727086392 225.398260953473596 0 656 0
150.982335681578775 230.32299840971632 0 658 0
152.052930780761926 236.211271455223937 0 659 0
158.904739415534436 244.99015126852612 0 661 0
161.884250951895751 249.987654209705113 0 662 0
163.789879147487454 253.183438099462876 0 663 0
165.970667070143463 256.338459319868036 0 664 0
170.038928447039666 261.477315795947391 0 665 0
171.109523546222817 255.3749237306032 0 668 0
176.334350234034559 254.821956247178889 0 669 0
182.993129147156424 252.805495492563523 0 670 0
160.724751084145851 250.985483823952052 0 671 0
157.102850125550844 255.460963778218968 0 672 0
153.765882939455082 258.051411478561135 0 673 0
170.505834305717599 270.937572928821623 0 674 0
171.36231038506412 273.721120186697931 0 675 0
174.359976662777058 282.714119019836801 0 678 0
175.216452742123579 286.782380396732947 0 679 0
176.28704784130673 291.27887981330241 0 680 0
177.999999999999886 296.845974329055025 0 681 0
179.334027536359258 302.370152214100187 0 682 0
185.280046674445657 323.824970828471578 0 686 0
187.207117852975443 328.963827304550932 0 687 0
189.776546091015007 334.316802800466917 0 688 0
59.1639439906650182 269.224620770128524 0 724 0
68.799299883313779 333.460326721120396 0 736 0
68.5920862246779848 339.594073603836648 0 737 0
69.2275379229870964 344.380396732788995 0 738 0
70.2981330221703047 356.371061843640746 0 741 0
70.512252042006935 360.653442240373579 0 742 0
70.7009051026338398 364.675632092687351 0 743 0
71.3687281213534561 371.787631271878809 0 745 0
72.0110851808634038 372.858226371062017 0 746 0
74.5805134189030809 338.385064177363063 0 747 0
80.2297737200701704 337.781681503711184 0 748 0
83.7876312718785812 336.243873978996703 0 749 0
75.6511085180862324 358.940490081680423 0 750 0
80.6767364251986123 358.084711522588975 0 751 0
83.573512252041894 357.441656942824011 0 752 0
173.503500583430423 298.344807467911494 0 753 0
165.256233019710749 305.019997543284774 0 755 0
163.011668611435198 306.695449241540416 0 756 0
161.726954492415302 266.226954492415587 0 757 0
157.595847116219716 269.459168396691098 0 758 0
153.350249341265794 271.536151843926973 0 759 0
166.223453908984766 273.07876312718804 0 760 0
161.550626075584205 278.408550713382681 0 761 0
159.585764294048886 280.572928821470441 0 762 0
180.783547257876307 285.711785297549795 0 763 0
185.065927654609027 286.996499416569577 0 764 0
188.705950991831969 287.638856476079525 0 765 0
180.997666277712824 332.389731621937131 0 766 0
172.096759605885154 335.445984821754962 0 768 0
172.432905484247271 335.815635939323442 0 769 0
69.8698949824969873 260.445740956826285 0 771 0
73.0816802800466121 260.231621936989654 0 772 0
167.660136761503509 260.683424441721229 0 773 0
264.634778298970105 293.362068283162841 0 819 0
265.277135358480109 295.717377501365831 0 820 0
256.498255545177926 427.973752615472449 0 830 0
259.067683783217603 431.185537913022017 0 831 0
263.564485292122754 1029.19099570358276 0 971 0
258.211509796206883 1032.83101904080559 0 972 0
71.3408883763037807 379.05510559865445 0 973 0
70.4844122969572595 395.114032086402062 0 978 0
70.2702932771206292 399.396412483134782 0 979 0
70.6985313167938898 404.535268959214022 0 980 0
71.9832454358136715 419.52360034777854 0 983 0
72.4114834754869321 425.304813883367672 0 984 0
73.0538405349968798 430.015432319773709 0 985 0
74.5526736738532918 444.147287628991648 0 988 0
75.7787544761102367 448.698468146054438 0 989 0
77.7644589714028598 455.281476660496651 0 990 0
83.5456725069919912 477.121616683833508 0 994 0
85.2586246656850335 482.474592179749379 0 995 0
87.1856958442148198 487.39932963599199 0 996 0
77.3362209317295424 397.89757934427837 0 1005 0
85.7349014267348366 400.856221460066592 0 1007 0
89.5410050624177529 400.46700758231799 0 1008 0
76.6938638722196515 372.631535003555371 0 1009 0
89.9692431020910135 376.699796380451403 0 1012 0
94.0375044789871026 375.415082261431621 0 1013 0
67.9149840589176392 427.874242121407292 0 1014 0
63.1301105983073398 430.636658776810577 0 1015 0
57.6154173349058851 432.839446713123493 0 1016 0
69.6279362176106815 449.286144105070889 0 1017 0
64.5609262868756559 452.697674496386412 0 1018 0
62.9902466026749721 453.782643521640239 0 1019 0
80.5480062292791104 482.474592179749379 0 1020 0
74.3055204111508374 484.800944860755521 0 1021 0
126.326579362612733 1036.15841983857104 0 1129 0
125.898341322939473 1036.5866578782443 0 1130 0
-78.952230509528647 436.669123377884944 0 1237 0
-80.4556538877234857 439.822196682447839 0 1238 0
37.3008302607863698 527.161255268212585 0 1258 0
38.808640161284643 528.681589914653273 0 1259 0
-101.514097791665165 714.253650322087879 0 1319 0
-100.362076701139813 716.287914925882774 0 1320 0
17.7350344773797701 20.4034252452783278 0 1321 0
-9.76888984748455869 133.537983926952762 0 1322 0
-9.38688868062342863 127.595743553557242 0 1323 0
18.0956311447794178 104.376062979693188 0 1324 0
20.8760926495981494 106.203678209333304 0 1325 0
39.8912618444638838 81.7556035302202133 0 1326 0
42.0983796974393272 86.1698392361711853 0 1327 0
44.6450541431803458 91.0934098312703497 0 1328 0
48.4650658117917601 95.9320912781781487 0 1329 0
62.8113318561323695 108.580574358691507 0 1330 0
119.683005478349742 139.893227689758703 0 1331 0
128.916605251286683 149.825001298365635 0 1332 0
-0.346194398243028445 120.804611698248038 0 1333 0
13.8571216479491568 131.840201834200627 0 1334 0
91.2963205993344218 122.527845095239456 0 1335 0
37.1887756130137745 132.494779594748422 0 1336 0
166.601282895986856 255.887983887795826 0 1337 0
169.522964806950426 268.188045295873394 0 1338 0
168.100116034843381 263.060971052323225 0 1339 0
0 3 1 4.12896926774192963
0 9 2 5.83816802756996633
0 10 3 4.39461950910411314
1 2 4 1.03272105969474071
1 9 5 74.3608284795428318
3 4 6 3.29649822703253337
4 5 7 5.17475780671097585
5 6 8 7.58701956208607164
5 83 9 3.73110090924595816
6 7 10 5.45591668375652183
7 8 11 4.63701666009098279
7 21 12 5.26170519206731946
8 384 13 718.322302411090845
10 11 14 9.78182041947534664
11 12 15 3.60953609277220666
12 13 16 3.34614384869849379
12 28 17 5.25501719663408906
13 14 18 3.2896215520155776
14 15 19 2.7428523200865409
15 164 20 2.20918961855539653
15 386 21 1.26196791291414634
16 17 22 2.05143896051104324
16 38 23 4.1780489688960456
16 386 24 1.26196791291414634
17 18 25 13.0901426205913278
18 19 26 3.73897912704415258
19 20 27 5.44874318864113771
19 167 28 3.42892162661268607
20 345 29 367.46788591597948
21 22 30 70.8531827970135453
22 161 31 8.6136045845724869
23 24 32 5.79488916717608493
23 161 33 8.19462729674577517
24 148 34 9.00185277151160257
25 124 35 8.51775604676026532
25 149 36 6.72716372467006885
25 387 37 2.20711785297547181
25 388 38 3.75460585601635177
26 27 39 5.94466528285103379
26 111 40 4.41423570595094805
26 387 41 2.20711785297547181
27 380 42 308.417786332602532
28 29 43 70.7284222668921956
29 30 44 3.90858990672971673
30 31 45 3.41250152362448622
30 155 46 4.17599392997476837
30 160 47 4.57142053347760324
31 32 48 3.23025239137580655
32 33 49 4.0637790608536184
33 116 50 5.32383682945586312
33 117 51 4.60611545898089947
33 389 52 1.65722492724190085
34 122 53 5.09334889148190673
34 128 54 2.89122020565024362
34 389 55 1.65722492724192993
34 390 56 1.67427570906793721
35 36 57 4.32851423120037548
35 130 58 2.89122020565028759
35 131 59 6.22649026707072384
35 390 60 1.67427570906793721
36 37 61 10.4533440321856563
37 150 62 8.82928761598187961
38 39 63 9.9605217698237567
39 40 64 3.72739733630636749
40 41 65 3.96542303652698713
40 112 66 3.49594909104688512
41 42 67 2.65099209038851935
42 43 68 3.18984458597680476
42 64 69 3.60154154011579664
43 44 70 4.35175920050299858
44 45 71 4.53024999143613893
44 69 72 2.30923449127310398
45 46 73 20.7953410025882164
46 47 74 5.74493229389194138
47 157 75 3.49594909104692064
47 391 76 2.31702282532741544
48 127 77 5.46728293668425813
48 391 78 2.31702282532741544
48 392 79 2.62058726415754384
49 129 80 3.84164430945688995
49 162 81 4.40831023153839929
49 392 82 2.62058726415756738
49 393 83 2.92713736174089334
50 103 84 4.10989739222972794
50 393 85 2.92713736174086581
50 394 86 3.30195872146093228
51 52 87 6.60391744292178373
51 144 88 2.68443056916277767
51 394 89 3.30195872146089142
52 53 90 5.52758085585183689
53 98 91 5.4143041391582436
53 395 92 3.74379429855258428
54 55 93 5.98633515803857463
54 100 94 4.7355668298314697
54 395 95 3.74379429855258428
55 56 96 7.47532532661072757
56 142 97 9.15421875133360707
57 58 98 5.18891715144673515
57 143 99 8.96140547775063467
58 59 100 5.88619174398788747
58 76 101 4.41423570595097381
59 60 102 5.43555762279165045
60 243 103 5.70786968243718995
60 396 104 2.52208026519043393
61 62 105 4.69159065177947276
61 234 106 4.00850826154148887
61 396 107 2.522080265190346
62 63 108 3.50878610234142929
63 237 109 4.2968040863365129
63 397 110 3.01621049749953585
64 65 111 75.8017181473237684
65 66 112 6.34288323609171645
66 67 113 6.59299645406501167
66 73 114 7.25293200083838396
66 74 115 2.40102769341056899
67 68 116 5.65134800505728663
68 142 117 5.26099692148955267
69 70 118 32.7895001749286266
70 71 119 6.10959041456918328
71 72 120 4.6835428695716308
71 163 121 3.00567775419798622
72 73 122 21.0462207170923286
74 75 123 18.6389969517270266
75 143 124 6.08602983374569995
76 77 125 25.2000865937787708
77 78 126 4.19321459655934081
79 80 127 26.3430731965353253
79 142 128 5.21421798731482689
80 259 129 8.05512458074919202
81 82 130 18.0724187220059029
81 143 131 4.62734529549075635
82 260 132 6.13450460756523963
83 84 133 82.8793915150018279
84 85 134 4.18363680330747822
85 86 135 5.19594596796779484
85 156 136 5.9016797325581134
85 159 137 4.46323949319676228
86 87 138 9.69240082854610741
87 88 139 4.69583565415204873
88 118 140 4.04984409403270984
88 147 141 5.94224037339553224
88 398 142 2.58180264923685598
89 90 143 3.39980773558908478
89 123 144 2.68443056916273104
89 149 145 5.98092094697577625
89 398 146 2.58180264923684666
90 91 147 3.91963634394282989
91 109 148 2.10004154677021804
92 93 149 4.92357059509916439
92 142 150 6.09207385837759485
93 94 151 5.45672832657703832
94 95 152 5.22431230086202181
94 97 153 2.17422304911664233
95 233 154 7.46468968707536806
96 97 155 27.4049930234931516
96 232 156 12.551653771930491
98 99 157 25.3640811212823998
99 232 158 6.1891158138012754
100 101 159 8.43910623590950415
101 102 160 4.53024999143611051
103 104 161 29.5276469410851341
104 150 162 3.00128461676323077
105 106 163 4.88831784623846133
105 150 164 4.40279349083774285
106 151 165 7.94227199816357654
107 108 166 4.79731937631193528
107 135 167 2.5466744457409618
107 136 168 3.91963634394280058
107 399 169 3.9353930934194139
108 109 170 3.62215015573817478
109 110 171 4.43723020712322924
110 111 172 3.03658916230485154
112 113 173 46.320635301307135
113 114 174 4.35259687629790371
114 115 175 4.61222358552735301
114 158 176 2.30923449127305824
114 160 177 4.9352655536065928
115 116 178 6.62534665957404734
117 118 179 14.4821744447867609
119 120 180 42.5342285041441457
119 148 181 5.84750072216421657
120 121 182 0.759271623631785464
122 123 183 18.8050910459586014
124 125 184 7.19758929749874454
125 126 185 4.59925250672074526
127 128 186 22.877165019298868
129 130 187 21.283197258810663
131 132 188 5.77495827694652863
132 133 189 6.00016772543529431
133 134 190 4.03558403533878263
133 140 191 1.83643305920655098
134 135 192 3.2789635376347368
136 382 193 398.653746332870298
137 138 194 9.18243377990455834
137 151 195 2.8304601319016669
138 139 196 5.10747748697664417
140 141 197 5.08768646739504149
141 151 198 2.54932223447002571
142 400 199 5.4654062471234397
143 400 200 5.4654062471235445
144 145 201 8.89530698177697587
145 146 202 3.66500971130255371
147 148 203 4.0329046608913881
148 388 204 3.75460585601635755
150 401 205 6.08741870741958913
151 399 206 3.93539309341947074
152 153 207 21.8189471603121881
152 161 208 6.19701847247023707
153 154 209 1.82761178688536186
155 156 210 7.80763986688284017
157 158 211 11.7857858724974101
159 161 212 4.45697100070870267
162 163 213 8.67065342609905088
164 165 214 23.7506753580994783
165 166 215 0.187066512620524233
167 168 216 4.82020684637599839
168 169 217 4.04264463004849084
170 171 218 2.58720996050711305
170 232 219 16.6717474369307332
171 172 220 2.57833442848120065
172 173 221 3.02476887294922125
172 190 222 5.29701201144113298
173 174 223 58.7169558901721729
174 175 224 6.34096043459813163
175 176 225 5.0688722852124739
175 200 226 5.266631519933898
176 177 227 4.55377023289805205
177 178 228 4.77078678529536049
177 203 229 5.78227667854552863
178 179 230 5.84431186869533725
179 180 231 5.84431186869538521
180 181 232 6.93494451556295299
180 206 233 6.56825580585218116
180 209 234 5.6203693613363459
181 182 235 8.44888799778327382
182 183 236 1.51405010907506199
182 312 237 5.79705250646413273
183 342 238 10.8212937778707232
184 185 239 32.6210633789674986
184 233 240 8.0988778122783458
185 186 241 4.61226484064962516
187 188 242 22.1945100287824886
187 232 243 18.4347647499538532
188 189 244 0.180072257897826438
190 191 245 14.275699727756189
191 192 246 5.35297549591599164
193 194 247 8.64832077418754253
193 232 248 7.18017412814271605
194 195 249 5.78517734375849102
196 197 250 27.8624956643188106
196 232 251 9.75711029674129371
197 233 252 4.18843332263388746
198 199 253 5.97234717026842965
198 233 254 4.74021947655747322
200 201 255 8.90031890498163847
201 202 256 4.75421377783027932
203 204 257 4.34317753815984453
204 205 258 4.9681484394412383
206 207 259 8.20793155965738563
207 208 260 5.14823331927937566
209 210 261 5.22231556863244073
210 211 262 5.63492266534258501
212 213 263 15.469290364767982
212 259 264 6.25726111545374586
213 214 265 6.22420088719458953
214 215 266 3.43258901509365533
214 255 267 3.96855531195620204
214 258 268 2.24963012480055236
215 216 269 73.2489746793665262
216 217 270 6.24258852219441707
218 219 271 16.6725540993879093
218 260 272 7.06465090948092467
219 261 273 7.27668906443244801
220 221 274 51.7876101903134085
220 261 275 7.52941000929666782
221 222 276 3.11228879244321011
222 289 277 2.80428638044961476
222 290 278 4.82812888121625594
223 224 279 4.22418230464566324
223 240 280 5.22488939939947183
223 397 281 3.01621049749951098
224 225 282 8.91149302789463427
225 226 283 4.54215032722518597
226 227 284 5.26232687601051996
226 253 285 4.27708040129723077
227 228 286 14.861191351466406
228 229 287 4.69599671948792441
229 230 288 6.02964634469152294
229 250 289 4.78985010045578363
229 273 290 5.55689655597454113
230 231 291 2.27611640214328803
231 262 292 3.82166305973720677
232 401 293 6.08741870741961399
234 235 294 9.80497107107047938
235 236 295 3.35315010727242813
237 238 296 8.71422188157443856
238 239 297 4.06262275827928221
240 241 298 24.2567093092263342
241 242 299 0.221658329378551233
243 244 300 6.44583607120303892
244 260 301 2.36047301661746456
245 246 302 6.44598229401575029
245 259 303 5.16629772693359346
246 247 304 2.81539127931840172
248 249 305 5.82958447392385093
248 260 306 3.21431590333033457
249 259 307 1.34567954790563338
250 251 308 13.4511609161624683
251 252 309 4.36071820172581237
253 254 310 11.3439877316074345
254 261 311 3.62241909766814985
255 256 312 6.06471098838340605
257 258 313 3.56365071796570954
257 261 314 3.40112437188635575
262 263 315 3.50691396906446196
262 276 316 5.80594293897893543
263 264 317 3.20821466242951869
264 265 318 3.72275791412483903
264 279 319 5.80594293897904024
265 266 320 3.87050659241424011
266 267 321 5.8482329103096804
266 282 322 4.63828453980946254
267 268 323 6.94938411278944734
268 269 324 4.88866170620623208
268 285 325 6.87496593294376535
268 288 326 4.87454980048692033
269 270 327 16.3970619599454679
270 271 328 6.094457530363381
271 296 329 7.02362607273796247
271 402 330 4.91094915619704597
272 330 331 6.85860921831678727
272 403 332 2.91992031671284025
272 404 333 2.41791431745496777
273 274 334 4.63688699046038799
274 275 335 3.64518323683654311
276 277 336 4.53859771890306618
277 278 337 3.62657252815883435
279 280 338 5.22402141638667317
280 281 339 3.71019516136347294
282 283 340 5.05602996842779184
283 284 341 5.35272223619792964
285 286 342 5.38162917267332386
286 287 343 5.73645318181023889
288 289 344 7.67633820446113457
290 291 345 11.1487544782208534
291 292 346 5.81829224449948512
292 293 347 3.72081355215083942
292 299 348 1.52973980871919268
293 294 349 3.83536111269971292
294 344 350 4.66186976953935694
295 344 351 2.50777059666369828
295 347 352 191.653731061970063
296 297 353 5.25400675250750293
297 298 354 6.95740257486516089
299 300 355 5.75743757021441116
300 301 356 4.22442532059544096
302 303 357 2.91233353366737502
302 333 358 4.787846836303566
302 403 359 2.91992031671289398
303 304 360 9.49007948980954907
304 305 361 4.15743934474547849
305 306 362 4.62219437817196344
305 336 363 5.66910179955511939
306 307 364 5.8246670673347829
307 308 365 5.68297200181270412
307 327 366 4.73972655132591569
308 309 367 22.313134096169879
309 310 368 5.4883011222839162
310 311 369 5.93770226016024427
310 339 370 7.09183398405636822
311 349 371 728.455360612561549
312 313 372 65.0750941872230015
313 314 373 6.13724598835312918
314 315 374 4.82832144286481046
314 321 375 6.10925233181906169
315 316 376 12.0410215688204723
316 317 377 4.2877300307945525
317 318 378 4.02661162583875054
317 324 379 5.41683034437240618
318 319 380 7.16017355708004644
319 320 381 1.24851770443889576
320 351 382 6.233014994222982
320 367 383 4.68826249780472182
321 322 384 5.68139178381545573
322 323 385 3.87597759823616839
324 325 386 5.09796947842446357
325 326 387 2.96729327562010159
327 328 388 10.8638044816479997
328 329 389 2.80092980563331695
330 331 390 5.24530789150165422
331 332 391 4.72641097523115405
333 334 392 7.08815601370042359
334 335 393 2.92321987118788273
336 337 394 4.47093639296394585
337 338 395 3.69626737228652225
339 340 396 9.61007846237376029
340 341 397 0.499635867667110101
342 343 398 3.21891468545094117
344 402 399 4.91094915619699002
344 404 400 2.41791431745496777
345 346 401 2.44133244464049159
347 348 402 4.113092056834037
349 350 403 6.47333890317837302
351 352 404 16.0871974142651339
352 353 405 4.28773003079443971
353 354 406 5.15666885696228761
353 364 407 7.22314574117822872
354 355 408 15.050999303923529
355 356 409 5.79705250646414072
356 357 410 4.75421377783022336
356 370 411 5.178848180207968
357 358 412 14.2256362937644294
358 359 413 4.71344016961655665
359 360 414 6.87597436323347555
359 373 415 6.17882903808621364
360 361 416 22.6064656858895958
361 362 417 5.62036936133622067
362 363 418 5.2883496801969434
362 376 419 4.71061843640592315
363 378 420 565.762908095237208
364 365 421 9.00389208471051994
365 366 422 3.82595247333142119
367 368 423 14.3502542793450623
368 369 424 4.26629124631139511
370 371 425 5.52503029965467718
371 372 426 5.93835974674582179
373 374 427 6.10844736811546962
374 375 428 1.90897680869124176
376 377 429 6.66187255851964455
378 379 430 0.605620043629992666
380 381 431 3.49315804366907434
382 383 432 2.14123985886881529
384 385 433 2.33781630400423568
